<svg xmlns="http://www.w3.org/2000/svg">
<defs>
<font id="HelveticaNeueLTW1G-Roman" horiz-adv-x="1138" >
  <font-face 
    font-family="HelveticaNeueLT W1G 55 Roman"
    font-weight="400"
    font-stretch="normal"
    units-per-em="2048"
    panose-1="2 11 6 4 2 2 2 2 2 4"
    ascent="1462"
    descent="-586"
    x-height="1059"
    cap-height="1462"
    bbox="-340 -508 2204 1993"
    underline-thickness="102"
    underline-position="-307"
    unicode-range="U+000D-FB04"
  />
<missing-glyph horiz-adv-x="1048" 
d="M0 0h1049v1470h-1049v-1470zM102 102v1264h844v-1264h-844zM461 479h94q0 107 12 148q11 38 88 106q75 69 102 123t27 123q0 120 -72 194t-182 74q-115 0 -189 -69.5t-87 -210.5l102 -17q11 100 56 147.5t112 47.5q64 0 110 -50.5t46 -123.5q0 -41 -19.5 -75.5
t-82.5 -94.5q-67 -67 -95 -121q-26 -51 -26 -166zM455 240h114v137h-114v-137z" />
    <glyph glyph-name="IJ" unicode="IJ" horiz-adv-x="1576" 
d="M168 0v1462h194v-1462h-194zM559 391v90h195v-61q0 -141 51 -216t184 -75q127 0 180.5 67.5t53.5 196.5v1069h194v-1097q0 -62 -13 -117.5t-45 -108t-80 -90.5t-123.5 -61t-170.5 -23q-205 0 -315.5 110t-110.5 316z" />
    <glyph glyph-name="ij" unicode="ij" horiz-adv-x="897" 
d="M315 1462v-213h-174v213h174zM141 0v1059h174v-1059h-174zM758 1462v-213h-174v213h174zM758 1059v-1194q0 -137 -66.5 -204t-187.5 -67q-44 0 -90 9v149q24 -4 35 -4h36q57 0 78 32t21 114v1165h174z" />
    <glyph glyph-name="napostrophe" unicode="&#x22;n" horiz-adv-x="1357" 
d="M350 0v1059h164v-168h4q108 192 344 192q102 0 174.5 -28t113.5 -81t59 -121t18 -157v-696h-174v717q0 98 -57.5 155.5t-157.5 57.5q-153 0 -233.5 -91.5t-80.5 -240.5v-598h-174zM37 1235v227h227v-227q0 -130 -57 -215.5t-168 -85.5v102q33 0 57 17.5t37 47.5t19 63
t6 71h-121z" />
    <glyph glyph-name="f_f" unicode="ff" horiz-adv-x="1181" 
d="M778 0v905h-401v-905h-174v905h-178v154h178v158q0 129 75 195.5t218 66.5q56 0 112 -17v-151q-43 14 -98 14q-67 0 -100 -26.5t-33 -92.5v-147h401v158q0 129 75 195.5t218 66.5q57 0 113 -17v-151q-43 14 -99 14q-67 0 -100 -26.5t-33 -92.5v-147h205v-154h-205v-905
h-174z" />
    <glyph glyph-name="fi" unicode="fi" horiz-adv-x="1060" 
d="M203 0v905h-178v154h178v158q0 129 75 195.5t218 66.5q56 0 112 -17v-151q-43 14 -98 14q-67 0 -100 -26.5t-33 -92.5v-147h205v-154h-205v-905h-174zM922 1249h-174v213h174v-213zM922 0h-174v1059h174v-1059z" />
    <glyph glyph-name="fl" unicode="fl" horiz-adv-x="1060" 
d="M203 0v905h-178v154h178v158q0 129 75 195.5t218 66.5q56 0 112 -17v-151q-43 14 -98 14q-67 0 -100 -26.5t-33 -92.5v-147h205v-154h-205v-905h-174zM748 0v1462h174v-1462h-174z" />
    <glyph glyph-name="f_f_i" unicode="ffi" horiz-adv-x="1636" 
d="M778 0v905h-401v-905h-174v905h-178v154h178v158q0 129 75 195.5t218 66.5q56 0 112 -17v-151q-43 14 -98 14q-67 0 -100 -26.5t-33 -92.5v-147h401v158q0 129 75 195.5t218 66.5q57 0 113 -17v-151q-43 14 -99 14q-67 0 -100 -26.5t-33 -92.5v-147h205v-154h-205v-905
h-174zM1497 1462v-213h-174v213h174zM1323 0v1059h174v-1059h-174z" />
    <glyph glyph-name="f_f_l" unicode="ffl" horiz-adv-x="1636" 
d="M778 0v905h-401v-905h-174v905h-178v154h178v158q0 129 75 195.5t218 66.5q56 0 112 -17v-151q-43 14 -98 14q-67 0 -100 -26.5t-33 -92.5v-147h401v158q0 129 75 195.5t218 66.5q57 0 113 -17v-151q-43 14 -99 14q-67 0 -100 -26.5t-33 -92.5v-147h205v-154h-205v-905
h-174zM1323 0v1462h174v-1462h-174z" />
    <glyph glyph-name=".notdef" horiz-adv-x="1048" 
d="M0 0h1049v1470h-1049v-1470zM102 102v1264h844v-1264h-844zM461 479h94q0 107 12 148q11 38 88 106q75 69 102 123t27 123q0 120 -72 194t-182 74q-115 0 -189 -69.5t-87 -210.5l102 -17q11 100 56 147.5t112 47.5q64 0 110 -50.5t46 -123.5q0 -41 -19.5 -75.5
t-82.5 -94.5q-67 -67 -95 -121q-26 -51 -26 -166zM455 240h114v137h-114v-137z" />
    <glyph glyph-name=".null" horiz-adv-x="1024" 
 />
    <glyph glyph-name="nonmarkingreturn" horiz-adv-x="682" 
 />
    <glyph glyph-name="CR" unicode="&#xd;" horiz-adv-x="0" 
 />
    <glyph glyph-name="space" unicode=" " horiz-adv-x="569" 
 />
    <glyph glyph-name="exclam" unicode="!" horiz-adv-x="530" 
d="M219 375l-51 637v450h194v-450l-51 -637h-92zM152 0v227h227v-227h-227z" />
    <glyph glyph-name="quotedbl" unicode="&#x22;" horiz-adv-x="872" 
d="M510 934v528h139v-528h-139zM223 934v528h139v-528h-139z" />
    <glyph glyph-name="numbersign" unicode="#" 
d="M209 0l59 422h-198v139h219l43 307h-209v140h227l60 419h141l-59 -419h253l60 419h141l-59 -419h182v-140h-201l-43 -307h187v-139h-207l-60 -422h-141l60 422h-254l-60 -422h-141zM430 561h254l43 307h-254z" />
    <glyph glyph-name="dollar" unicode="$" 
d="M51 446h174q4 -132 82.5 -214t206.5 -103v543q-115 29 -188.5 58.5t-128.5 75t-79 108.5t-24 153q0 182 119.5 300t300.5 130v135h113v-137q163 -20 262 -121.5t141 -283.5h-174q-40 202 -229 237v-504l123 -32q37 -10 75 -26t85 -48t82 -72t59 -101.5t24 -133.5
q0 -193 -123.5 -310t-324.5 -135v-168h-113v168q-204 20 -325 144.5t-138 336.5zM514 854v479q-105 -11 -170 -74t-65 -174q0 -52 16.5 -90.5t50.5 -64.5t72.5 -43t95.5 -33zM627 129q122 8 193 72t71 190q0 56 -19 98t-58.5 70.5t-81 46.5t-105.5 37v-514z" />
    <glyph glyph-name="percent" unicode="%" horiz-adv-x="2048" 
d="M385 -45l1102 1524h174l-1100 -1524h-176zM520 631q-89 0 -155 31.5t-103.5 88t-55.5 127.5t-18 158q0 69 10 128.5t34.5 113.5t61.5 91.5t95 60t131 22.5q328 0 328 -410q0 -83 -18.5 -154.5t-56 -130.5t-102.5 -92.5t-151 -33.5zM514 743q180 0 180 299q0 297 -174 297
q-178 0 -178 -299q0 -297 172 -297zM1200 381q0 69 10 128.5t34.5 113.5t61.5 91.5t95 60t131 22.5q328 0 328 -410q0 -83 -18.5 -154.5t-56 -130.5t-102.5 -93t-151 -34q-89 0 -155 31.5t-103.5 88.5t-55.5 128t-18 158zM1354 385q0 -297 172 -297q180 0 180 299
q0 297 -174 297q-178 0 -178 -299z" />
    <glyph glyph-name="ampersand" unicode="&#x26;" horiz-adv-x="1290" 
d="M68 375q0 82 26 150t77 121t106 91.5t133 79.5q-8 11 -46.5 62.5t-48.5 69t-31.5 58t-28.5 76.5t-7 78q0 125 88.5 213t241.5 88q69 0 132 -19t113 -55.5t79.5 -94.5t29.5 -130q0 -219 -275 -379l265 -321q41 113 47 227h166q-11 -123 -29.5 -186.5t-69.5 -173.5
l285 -330h-227l-156 182q-64 -99 -176.5 -153t-237.5 -54q-112 0 -198.5 31t-133.5 75t-76.5 102.5t-38.5 103.5t-9 88zM563 899q44 29 68 47t59 51.5t51.5 72t16.5 83.5q0 65 -46 110.5t-122 45.5q-68 0 -118 -40.5t-50 -115.5q0 -18 4 -36.5t13.5 -39t17.5 -35.5t25 -38.5
t25 -34t29 -37t27 -33.5zM252 377q0 -107 84 -177.5t194 -70.5q97 0 176.5 46t135.5 128l-336 404q-60 -33 -99 -60.5t-78 -67t-58 -90t-19 -112.5z" />
    <glyph glyph-name="quotesingle" unicode="'" horiz-adv-x="569" 
d="M215 934v528h139v-528h-139z" />
    <glyph glyph-name="parenleft" unicode="(" horiz-adv-x="530" 
d="M96 553q0 244 83 490t239 454h133q-143 -225 -206.5 -454.5t-63.5 -489.5q0 -265 63.5 -497.5t206.5 -461.5h-133q-159 246 -240.5 475t-81.5 484z" />
    <glyph glyph-name="parenright" unicode=")" horiz-adv-x="530" 
d="M-20 -406q143 225 206.5 455t63.5 490q0 265 -63.5 497t-206.5 461h133q158 -245 239.5 -474t81.5 -484q0 -245 -82.5 -491t-238.5 -454h-133z" />
    <glyph glyph-name="asterisk" unicode="*" horiz-adv-x="720" 
d="M225 887l-92 63l133 187l-217 77l37 99l217 -82v231h109v-231l219 82l41 -99l-223 -77l135 -187l-84 -63l-142 196z" />
    <glyph glyph-name="plus" unicode="+" horiz-adv-x="1228" 
d="M98 449v139h447v448h139v-448h446v-139h-446v-449h-139v449h-447z" />
    <glyph glyph-name="comma" unicode="," horiz-adv-x="569" 
d="M170 0v227h227v-207q0 -254 -225 -321v102q63 23 93.5 82t25.5 117h-121z" />
    <glyph glyph-name="hyphen" unicode="-" horiz-adv-x="796" 
d="M102 487v164h592v-164h-592z" />
    <glyph glyph-name="period" unicode="." horiz-adv-x="569" 
d="M170 0v227h227v-227h-227z" />
    <glyph glyph-name="slash" unicode="/" horiz-adv-x="681" 
d="M-37 -35l606 1532h150l-606 -1532h-150z" />
    <glyph glyph-name="zero" unicode="0" 
d="M569 -25q-74 0 -136.5 15.5t-108.5 40.5t-82.5 65t-61 81.5t-42.5 97t-28 104.5t-15.5 112.5t-7 111.5t-1.5 110t1.5 110t7 111.5t15.5 112.5t28 105t42.5 97.5t61 81.5t82.5 65t108.5 40.5t136.5 15.5t136.5 -15.5t108.5 -40.5t82.5 -65t61.5 -81.5t43 -97.5t28 -105
t15.5 -112.5t7 -111.5t1.5 -110q0 -81 -2.5 -142.5t-14 -142.5t-30.5 -140.5t-55.5 -121.5t-86.5 -101.5t-125 -64.5t-170 -25zM569 129q71 0 125 26.5t85 79.5t50.5 103.5t27 130t9.5 125.5t2 121q0 63 -1 101.5t-6.5 107t-16.5 112.5t-33 98.5t-53 86.5t-79.5 54.5
t-109.5 22.5t-109.5 -22.5t-79.5 -54.5t-53 -86.5t-33 -98.5t-16.5 -112.5t-6.5 -107t-1 -101.5q0 -75 2 -121t9.5 -125.5t27 -130t50.5 -103.5t85 -79.5t125 -26.5z" />
    <glyph glyph-name="one" unicode="1" 
d="M555 0v1040h-377v140q64 0 116.5 7t105 25.5t90.5 48t66.5 78.5t39.5 113h133v-1452h-174z" />
    <glyph glyph-name="two" unicode="2" 
d="M49 0q8 99 34.5 181.5t60.5 139.5t90 110t103.5 86.5t119.5 76.5q73 46 114 73t90 64t74 66t49.5 67.5t33.5 80t9 91.5q0 116 -81 189t-199 73q-73 0 -130 -31.5t-90 -83.5t-49 -115t-14 -130h-174q-12 226 114.5 370t352.5 144q95 0 177.5 -28t144.5 -79.5t97.5 -131.5
t35.5 -179q0 -74 -20.5 -139.5t-50.5 -112.5t-81.5 -95t-93.5 -78.5t-107 -71.5q-18 -11 -66.5 -40t-69.5 -41.5t-62.5 -40t-61.5 -45t-50 -45.5t-46 -52t-30.5 -55t-20.5 -64h745v-154h-948z" />
    <glyph glyph-name="three" unicode="3" 
d="M61 449h175q5 -146 84.5 -233t224.5 -87q132 0 223.5 77t91.5 204q0 132 -87 205t-222 73q-55 0 -105 -6v147q14 -2 39 -2h37q117 0 197 63t80 175t-71.5 172.5t-186.5 60.5q-134 0 -204.5 -89.5t-70.5 -225.5h-174q8 215 122.5 342t326.5 127q199 0 320.5 -98
t121.5 -291q0 -94 -56.5 -171.5t-144.5 -117.5v-4q129 -28 195.5 -122.5t66.5 -229.5q0 -140 -68.5 -242t-180 -151.5t-250.5 -49.5q-225 0 -356.5 125.5t-127.5 348.5z" />
    <glyph glyph-name="four" unicode="4" 
d="M57 340v168l662 944h139v-958h197v-154h-197v-340h-164v340h-637zM207 494h487v710h-4z" />
    <glyph glyph-name="five" unicode="5" 
d="M72 391h174q8 -114 92 -188t213 -74q132 0 219.5 90t87.5 254q0 144 -91 237t-237 93q-156 0 -270 -137l-149 8l135 753h717v-153h-586l-78 -418l4 -4q45 51 118.5 77.5t151.5 26.5q98 0 182.5 -31.5t148.5 -91.5t101 -156t37 -218q0 -94 -32.5 -179.5t-93.5 -154.5
t-160 -109.5t-221 -40.5q-127 0 -230 48.5t-166.5 144.5t-66.5 223z" />
    <glyph glyph-name="six" unicode="6" 
d="M578 -25q-500 0 -500 699q0 104 11 196.5t35 182t66 160.5t99.5 125.5t139.5 84t183 29.5q180 0 286.5 -96.5t123.5 -274.5h-174q-12 100 -76.5 158.5t-167.5 58.5q-61 0 -112 -19t-86 -50.5t-62.5 -77t-43.5 -93t-27 -104.5t-15.5 -105t-5.5 -101l4 -5q118 191 362 191
q205 0 325 -132.5t120 -338.5q0 -67 -14.5 -132.5t-51 -131t-90 -114.5t-138.5 -79.5t-191 -30.5zM285 453q0 -139 81 -231.5t220 -92.5q136 0 214.5 93.5t78.5 228.5q0 143 -75 236t-218 93q-141 0 -221 -92.5t-80 -234.5z" />
    <glyph glyph-name="seven" unicode="7" 
d="M291 0q24 355 178.5 682.5t394.5 581.5h-762v163h940v-149q-221 -218 -379 -579t-178 -699h-194z" />
    <glyph glyph-name="eight" unicode="8" 
d="M82 418q0 130 66 225t188 137q-92 37 -147.5 119.5t-55.5 181.5q0 115 60.5 201t156 128t209.5 42t201.5 -31.5t138 -85t75.5 -117.5t25 -137q0 -98 -54.5 -178.5t-145.5 -122.5q258 -82 258 -362q0 -137 -65 -239t-173.5 -153t-243.5 -51q-142 0 -251.5 48t-175.5 150
t-66 245zM575 842q107 0 173.5 62.5t66.5 170.5q0 107 -67.5 165t-176.5 58t-181.5 -59t-72.5 -164q0 -113 73 -173t185 -60zM266 410q0 -129 86 -205t223 -76q130 0 213.5 80.5t83.5 202.5q0 116 -87.5 196t-211.5 80q-132 0 -219.5 -76.5t-87.5 -201.5z" />
    <glyph glyph-name="nine" unicode="9" 
d="M100 350h174q10 -103 85 -162t182 -59q159 0 239 138.5t88 422.5l-4 4q-50 -92 -140 -146t-196 -54q-218 0 -338 132.5t-120 352.5q0 209 133 341t344 132q85 0 155.5 -19t135.5 -67.5t109.5 -125.5t70.5 -199.5t26 -282.5q0 -385 -122 -584t-381 -199q-188 0 -306 96
t-135 279zM541 647q133 0 215 93.5t82 226.5q0 141 -79.5 236t-219.5 95q-75 0 -131.5 -28.5t-89 -77.5t-48.5 -109t-16 -129q0 -122 82 -214.5t205 -92.5z" />
    <glyph glyph-name="colon" unicode=":" horiz-adv-x="569" 
d="M170 831v228h227v-228h-227zM170 0v227h227v-227h-227z" />
    <glyph glyph-name="semicolon" unicode=";" horiz-adv-x="569" 
d="M170 831v228h227v-228h-227zM170 0v227h227v-207q3 -253 -225 -321v102q63 23 93.5 82t25.5 117h-121z" />
    <glyph glyph-name="less" unicode="&#x3c;" horiz-adv-x="1228" 
d="M94 455v127l1041 471v-140l-871 -395l871 -395v-139z" />
    <glyph glyph-name="equal" unicode="=" horiz-adv-x="1228" 
d="M98 655v140h1032v-140h-1032zM98 242v139h1032v-139h-1032z" />
    <glyph glyph-name="greater" unicode="&#x3e;" horiz-adv-x="1228" 
d="M94 -16v139l871 395l-871 395v140l1041 -471v-127z" />
    <glyph glyph-name="question" unicode="?" 
d="M475 356v97q3 69 24.5 127.5t53 99t69 78t73.5 72.5t65 72.5t45.5 89t13.5 112.5q-8 113 -73 176t-175 63q-141 0 -212.5 -93.5t-71.5 -243.5h-174q-5 214 121 352.5t337 138.5q194 0 313.5 -109t119.5 -301q0 -61 -13.5 -111.5t-43.5 -95.5t-53 -71t-67 -70
q-45 -42 -67 -64.5t-53 -63t-44.5 -83t-13.5 -92.5v-80h-174zM446 0v227h228v-227h-228z" />
    <glyph glyph-name="at" unicode="@" horiz-adv-x="1638" 
d="M379 592q0 107 35 211t96.5 186.5t153 133.5t196.5 51q166 0 230 -168l47 129h129l-172 -582q-23 -81 -23 -104q0 -64 49 -64q61 0 127.5 71t111 182.5t44.5 217.5q0 118 -46.5 218.5t-123.5 167.5t-177 104.5t-208 37.5q-129 0 -245 -52.5t-198.5 -141.5t-131 -210
t-48.5 -253q0 -135 51 -256t136.5 -206.5t202 -136t243.5 -50.5q145 0 282.5 67.5t225.5 180.5h129q-100 -168 -271.5 -264.5t-369.5 -96.5q-159 0 -301.5 60t-245 163t-162 246t-59.5 303q0 155 60.5 295.5t163 242.5t243 162t293.5 60q189 0 347.5 -80t253.5 -225.5
t95 -325.5q0 -102 -31.5 -197t-82.5 -165.5t-114 -124t-128.5 -80.5t-122.5 -27q-56 0 -91.5 34t-39.5 100h-6q-121 -138 -254 -138q-129 0 -211 93.5t-82 230.5zM532 606q0 -86 49.5 -142t127.5 -56q84 0 159.5 74t116.5 174.5t41 187.5q0 74 -51 132t-115 58
q-68 0 -131 -42t-105 -105.5t-67 -138.5t-25 -142z" />
    <glyph glyph-name="A" unicode="A" horiz-adv-x="1327" 
d="M-14 0l571 1462h215l571 -1462h-215l-159 440h-619l-164 -440h-200zM412 604h495l-243 682h-5z" />
    <glyph glyph-name="B" unicode="B" horiz-adv-x="1402" 
d="M160 0v1462h530q90 0 143 -1.5t128.5 -14.5t115.5 -37q77 -46 124.5 -124t47.5 -181q0 -116 -57 -201t-160 -127v-4q134 -29 206.5 -122.5t72.5 -229.5q0 -81 -29.5 -155.5t-84 -134t-140.5 -95t-191 -35.5h-706zM354 834h389q163 0 237.5 57t74.5 176q0 60 -17 103
t-43.5 67.5t-69 38.5t-84 18t-98.5 4h-389v-464zM354 164h488q127 0 200.5 70t73.5 192q0 69 -26 118t-72 75.5t-99.5 38.5t-119.5 12h-445v-506z" />
    <glyph glyph-name="C" unicode="C" horiz-adv-x="1478" 
d="M88 727q0 128 28.5 243.5t86 211.5t139 166.5t194 109.5t244.5 39q155 0 282 -53t213 -162t107 -260h-194q-31 151 -141.5 231t-268.5 80q-101 0 -184.5 -32.5t-140.5 -88t-96 -131.5t-56.5 -161t-17.5 -179q0 -102 18 -192t56.5 -167.5t96 -133.5t141 -87.5t185.5 -31.5
q186 0 298 117.5t124 304.5h195q-30 -278 -193.5 -432t-439.5 -154q-166 0 -296 59t-212.5 163t-125 241t-42.5 299z" />
    <glyph glyph-name="D" unicode="D" horiz-adv-x="1441" 
d="M160 0v1462h502q342 0 522 -174t180 -522q0 -766 -702 -766h-502zM354 164h324q36 0 69.5 3t85 17t95 36.5t89.5 66t78.5 102.5t53 149t20.5 201q0 273 -114 416t-373 143h-328v-1134z" />
    <glyph glyph-name="E" unicode="E" horiz-adv-x="1251" 
d="M160 0v1462h1009v-164h-815v-464h760v-164h-760v-506h822v-164h-1016z" />
    <glyph glyph-name="F" unicode="F" horiz-adv-x="1175" 
d="M160 0v1462h960v-164h-766v-464h672v-164h-672v-670h-194z" />
    <glyph glyph-name="G" unicode="G" horiz-adv-x="1554" 
d="M88 702q0 129 27.5 246.5t84.5 217.5t138.5 173.5t196 115.5t249.5 42q122 0 225.5 -28t187.5 -85.5t140.5 -152t75.5 -219.5h-194q-28 160 -145.5 240.5t-289.5 80.5q-103 0 -187.5 -35t-142 -94t-97 -139t-57 -168t-17.5 -184q0 -92 20.5 -177.5t62.5 -159.5
t100.5 -129t140.5 -86.5t177 -31.5q222 0 349.5 135.5t119.5 341.5h-467v164h641v-770h-122l-52 182q-82 -109 -207.5 -163t-261.5 -54q-159 0 -292 61t-220 164t-135.5 235.5t-48.5 276.5z" />
    <glyph glyph-name="H" unicode="H" horiz-adv-x="1478" 
d="M160 0v1462h194v-628h770v628h195v-1462h-195v670h-770v-670h-194z" />
    <glyph glyph-name="I" unicode="I" horiz-adv-x="530" 
d="M168 0v1462h194v-1462h-194z" />
    <glyph glyph-name="J" unicode="J" horiz-adv-x="1062" 
d="M45 391v90h195v-61q0 -141 51 -216t184 -75q127 0 180.5 67.5t53.5 196.5v1069h194v-1097q0 -62 -13 -117.5t-45 -108t-80 -90.5t-123.5 -61t-170.5 -23q-205 0 -315.5 110t-110.5 316z" />
    <glyph glyph-name="K" unicode="K" horiz-adv-x="1366" 
d="M160 0v1462h194v-729l742 729h252l-617 -590l641 -872h-246l-528 739l-244 -227v-512h-194z" />
    <glyph glyph-name="L" unicode="L" 
d="M160 0v1462h194v-1298h774v-164h-968z" />
    <glyph glyph-name="M" unicode="M" horiz-adv-x="1783" 
d="M164 0v1462h266l461 -1229l463 1229h266v-1462h-184v1217h-4l-457 -1217h-166l-457 1217h-4v-1217h-184z" />
    <glyph glyph-name="N" unicode="N" horiz-adv-x="1478" 
d="M158 0v1462h207l770 -1186h4v1186h184v-1462h-213l-764 1174h-4v-1174h-184z" />
    <glyph glyph-name="O" unicode="O" horiz-adv-x="1556" 
d="M78 731q0 121 27.5 233t85.5 209t139.5 169t196.5 113.5t251 41.5t251 -41.5t197 -113.5t139.5 -169t85.5 -209t28 -233t-28 -233t-85.5 -209t-139.5 -169t-197 -113.5t-251 -41.5t-251 41.5t-196.5 113.5t-139.5 169t-85.5 209t-27.5 233zM272 731q0 -115 30 -219.5
t89 -191.5t159 -139t228 -52t228 52t159 139t89 191.5t30 219.5t-30 219.5t-89 191.5t-159 139t-228 52t-228 -52t-159 -139t-89 -191.5t-30 -219.5z" />
    <glyph glyph-name="P" unicode="P" horiz-adv-x="1327" 
d="M160 0v1462h641q218 0 333 -113t115 -319t-115.5 -319.5t-332.5 -112.5h-447v-598h-194zM354 1298v-536h381q320 -3 320 268q0 268 -320 268h-381z" />
    <glyph glyph-name="Q" unicode="Q" horiz-adv-x="1556" 
d="M1450 -4l-98 -123l-224 180q-146 -88 -350 -88q-136 0 -251 41.5t-196.5 113.5t-139.5 169t-85.5 209t-27.5 233t27.5 233t85.5 209t139.5 169t196.5 113.5t251 41.5t251 -41.5t197 -113.5t139.5 -169t85.5 -209t28 -233q0 -170 -57 -322t-165 -259zM819 299l103 119
l194 -156q83 83 125.5 206.5t42.5 262.5q0 115 -30 219.5t-89 191.5t-159 139t-228 52t-228 -52t-159 -139t-89 -191.5t-30 -219.5t30 -219.5t89 -191.5t159 -139t228 -52q107 0 203 41z" />
    <glyph glyph-name="R" unicode="R" horiz-adv-x="1402" 
d="M160 0v1462h688q207 0 325.5 -103t118.5 -280q0 -140 -62.5 -237.5t-191.5 -132.5v-4q61 -12 103 -40t65 -72t33.5 -86.5t17.5 -103.5q1 -18 4.5 -83.5t7 -94.5t11.5 -78t24 -84t39 -63h-217q-24 26 -30.5 82t-9 139.5t-13.5 138.5q-8 50 -16 82.5t-25.5 70.5t-42 60
t-65 37t-95.5 15h-475v-625h-194zM354 788h406q73 0 129.5 11.5t106 39t76 80.5t26.5 130q0 114 -64.5 181.5t-195.5 67.5h-484v-510z" />
    <glyph glyph-name="S" unicode="S" horiz-adv-x="1327" 
d="M1190 1034h-184q-33 299 -363 299q-66 0 -122 -13t-103.5 -40.5t-75 -78t-27.5 -118.5q0 -57 32 -99t86 -66.5t124.5 -43t148 -35t155 -35.5t148 -51t124.5 -75.5t86 -114t32 -162.5q0 -90 -34 -164.5t-90 -124t-131 -83.5t-154.5 -49t-161.5 -15q-126 0 -233.5 31.5
t-191 93t-131.5 162t-48 229.5h184q0 -89 35 -158t95.5 -110.5t135.5 -62.5t160 -21q72 0 133.5 12.5t117 41t88 82.5t32.5 130q0 64 -32 110.5t-86 74.5t-124.5 48.5t-148 36.5t-155 34t-148 46.5t-124.5 68t-86 104.5t-32 151t29.5 157.5t80 121t118.5 83.5t144 50t158 16
q114 0 209 -27.5t168.5 -82.5t115.5 -145t46 -208z" />
    <glyph glyph-name="T" unicode="T" horiz-adv-x="1175" 
d="M492 0v1298h-488v164h1170v-164h-488v-1298h-194z" />
    <glyph glyph-name="U" unicode="U" horiz-adv-x="1478" 
d="M1327 1462v-934q0 -276 -149 -419.5t-426 -143.5q-290 0 -445 139t-155 424v934h194v-934q0 -194 105 -296.5t301 -102.5q186 0 283.5 102t97.5 297v934h194z" />
    <glyph glyph-name="V" unicode="V" horiz-adv-x="1251" 
d="M1255 1462l-520 -1462h-221l-516 1462h211l418 -1267h4l422 1267h202z" />
    <glyph glyph-name="W" unicode="W" horiz-adv-x="1896" 
d="M1872 1462l-391 -1462h-203l-334 1229h-4l-338 -1229h-203l-374 1462h198l287 -1216h4l328 1216h211l323 -1216h4l297 1216h195z" />
    <glyph glyph-name="X" unicode="X" horiz-adv-x="1251" 
d="M-2 0l510 752l-481 710h233l365 -571l381 571h217l-484 -710l514 -752h-237l-393 604l-406 -604h-219z" />
    <glyph glyph-name="Y" unicode="Y" horiz-adv-x="1327" 
d="M1323 1462l-559 -864v-598h-195v598l-565 864h232l438 -696l428 696h221z" />
    <glyph glyph-name="Z" unicode="Z" horiz-adv-x="1251" 
d="M45 0v164l909 1134h-839v164h1069v-164l-908 -1134h932v-164h-1163z" />
    <glyph glyph-name="bracketleft" unicode="[" horiz-adv-x="530" 
d="M530 1497v-139h-219v-1624h219v-140h-383v1903h383z" />
    <glyph glyph-name="backslash" unicode="\" horiz-adv-x="681" 
d="M113 1497l606 -1532h-150l-606 1532h150z" />
    <glyph glyph-name="bracketright" unicode="]" horiz-adv-x="530" 
d="M0 -406v140h219v1624h-219v139h383v-1903h-383z" />
    <glyph glyph-name="asciicircum" unicode="^" horiz-adv-x="1228" 
d="M102 541l447 886h131l446 -886h-143l-371 737l-364 -737h-146z" />
    <glyph glyph-name="underscore" unicode="_" horiz-adv-x="1024" 
d="M0 -256v102h1024v-102h-1024z" />
    <glyph glyph-name="grave" unicode="`" horiz-adv-x="454" 
d="M221 1206l-268 293h223l176 -293h-131z" />
    <glyph glyph-name="a" unicode="a" horiz-adv-x="1099" 
d="M1069 139v-135q-50 -29 -125 -29q-147 0 -147 164q-137 -164 -373 -164q-156 0 -253 73t-97 224q0 69 21 122.5t52 86.5t82 57.5t95.5 36t107.5 23.5q38 8 91 16t86.5 12.5t71 14t58.5 22.5t35 36t14 55q0 55 -20.5 92t-57.5 54t-73.5 23.5t-83.5 6.5q-120 0 -189 -45.5
t-75 -155.5h-174q4 95 40.5 165.5t99 110.5t139 59t169.5 19q63 0 115 -6t106.5 -25t91.5 -49.5t61 -84t24 -125.5v-545q0 -31 0.5 -44.5t3 -32t8.5 -25t16.5 -12t26.5 -5.5q23 0 53 10zM786 369v178q-35 -26 -105.5 -40t-139.5 -21.5t-135 -24t-107 -60t-41 -116.5
q0 -80 58.5 -118t146.5 -38q82 0 146.5 23.5t101.5 60t56 77t19 79.5z" />
    <glyph glyph-name="b" unicode="b" horiz-adv-x="1214" 
d="M137 0v1462h174v-547h4q41 84 131.5 126t206.5 42q95 0 175.5 -29t137.5 -80.5t97 -122t59 -152.5t19 -173q0 -115 -30.5 -213.5t-89.5 -174.5t-152.5 -119.5t-211.5 -43.5q-95 0 -192.5 40.5t-149.5 125.5h-4v-141h-174zM956 539q0 77 -20 145.5t-58.5 124t-103 88.5
t-145.5 33q-85 0 -149.5 -34t-101.5 -92.5t-55 -127.5t-18 -146q0 -81 19 -150.5t57.5 -127t104.5 -90.5t153 -33q69 0 124 23t90.5 61.5t59 92t33.5 111t10 122.5z" />
    <glyph glyph-name="c" unicode="c" horiz-adv-x="1099" 
d="M1030 719h-180q-21 101 -88 156t-174 55q-73 0 -130.5 -23t-94.5 -61t-61 -92.5t-34 -112.5t-10 -125q0 -77 17.5 -144t53.5 -122.5t97 -88t141 -32.5q126 0 199.5 67.5t91.5 190.5h178q-30 -197 -149 -304.5t-318 -107.5q-237 0 -366 148t-129 393q0 162 53.5 288
t168 202.5t277.5 76.5q124 0 220 -37.5t160 -121t77 -205.5z" />
    <glyph glyph-name="d" unicode="d" horiz-adv-x="1214" 
d="M1077 1462v-1462h-174v143h-4q-41 -84 -131.5 -126t-206.5 -42q-119 0 -213 44.5t-153 122t-90 177t-31 213.5t30.5 212.5t89 174.5t152 120t211.5 44q95 0 192.5 -40t149.5 -125h4v544h174zM258 520q0 -77 20 -145.5t59 -124t103.5 -88.5t145.5 -33q69 0 124 22.5
t91.5 61t61.5 90.5t35.5 108t10.5 117q0 64 -11.5 121.5t-37 109.5t-64 89.5t-95 59.5t-126.5 22q-69 0 -124 -23t-90.5 -61.5t-59 -92t-33.5 -111t-10 -122.5z" />
    <glyph glyph-name="e" unicode="e" horiz-adv-x="1099" 
d="M862 336h172q-35 -176 -152.5 -268.5t-299.5 -92.5q-164 0 -278.5 73t-169.5 196t-60 288q0 239 140 395t357 156q91 0 166.5 -27t127.5 -73.5t90.5 -106t59.5 -129t30 -136.5t6 -134h-793q-3 -95 30.5 -172t111 -126.5t188.5 -49.5q110 0 180.5 52t93.5 155zM258 631
h608q-8 127 -92.5 213t-212.5 86q-131 0 -213 -85.5t-90 -213.5z" />
    <glyph glyph-name="f" unicode="f" horiz-adv-x="606" 
d="M203 0v905h-178v154h178v158q0 129 75 195.5t218 66.5q56 0 112 -17v-151q-43 14 -98 14q-67 0 -100 -26.5t-33 -92.5v-147h205v-154h-205v-905h-174z" />
    <glyph glyph-name="g" unicode="g" horiz-adv-x="1175" 
d="M1044 1059v-969q0 -261 -120.5 -390.5t-370.5 -129.5q-62 0 -121 10t-116 33.5t-100 58.5t-70.5 89t-30.5 120h174q3 -59 49 -99.5t104.5 -56.5t120.5 -16q163 0 240.5 107t77.5 295v69h-4q-43 -93 -133.5 -142.5t-196.5 -49.5q-115 0 -206.5 43t-149 117t-87.5 170
t-30 206q0 79 15 154.5t51.5 150t90.5 130t140 90t192 34.5q102 0 186 -45t130 -131h2v152h163zM557 141q82 0 145 35.5t99 95.5t53.5 130.5t17.5 148.5q0 73 -17 138t-51 120.5t-94 88t-139 32.5q-81 0 -142.5 -31t-98 -85.5t-54.5 -122t-18 -146.5q0 -76 15 -144
t48 -128.5t93.5 -96t142.5 -35.5z" />
    <glyph glyph-name="h" unicode="h" 
d="M131 0v1462h174v-559h4q20 46 57.5 82t84 56.5t95 31t97.5 10.5q102 0 174.5 -28t113.5 -81t59 -121t18 -157v-696h-174v717q0 98 -58 155.5t-158 57.5q-153 0 -233 -91.5t-80 -240.5v-598h-174z" />
    <glyph glyph-name="i" unicode="i" horiz-adv-x="454" 
d="M315 1462v-213h-174v213h174zM141 0v1059h174v-1059h-174z" />
    <glyph glyph-name="j" unicode="j" horiz-adv-x="454" 
d="M315 1462v-213h-174v213h174zM315 1059v-1194q0 -137 -66.5 -204t-187.5 -67q-43 0 -90 9v149q24 -4 35 -4h37q56 0 77 31.5t21 114.5v1165h174z" />
    <glyph glyph-name="k" unicode="k" horiz-adv-x="1062" 
d="M141 0v1462h174v-866l484 463h233l-420 -385l451 -674h-221l-363 553l-164 -152v-401h-174z" />
    <glyph glyph-name="l" unicode="l" horiz-adv-x="454" 
d="M141 0v1462h174v-1462h-174z" />
    <glyph glyph-name="m" unicode="m" horiz-adv-x="1746" 
d="M131 0v1059h164v-156h4q119 180 342 180q106 0 183 -43.5t108 -136.5q54 86 141.5 133t190.5 47q166 0 259 -74.5t93 -232.5v-776h-174v694q0 53 -8.5 92.5t-30 74t-63 52t-103.5 17.5q-127 0 -201.5 -73.5t-74.5 -197.5v-659h-175v694q0 113 -44 174.5t-154 61.5
q-58 0 -107.5 -20.5t-81 -51.5t-53.5 -68.5t-31.5 -71t-9.5 -59.5v-659h-174z" />
    <glyph glyph-name="n" unicode="n" 
d="M131 0v1059h164v-168h4q108 192 344 192q102 0 174.5 -28t113.5 -81t59 -121t18 -157v-696h-174v717q0 98 -58 155.5t-158 57.5q-153 0 -233 -91.5t-80 -240.5v-598h-174z" />
    <glyph glyph-name="o" unicode="o" horiz-adv-x="1175" 
d="M74 528q0 158 57.5 282t175.5 198.5t281 74.5t281 -74.5t175.5 -198.5t57.5 -282q0 -157 -57.5 -280.5t-175.5 -198t-281 -74.5t-281 74.5t-175.5 198t-57.5 280.5zM258 528q0 -186 94 -292.5t236 -106.5t236 106.5t94 292.5t-94 294t-236 108t-236 -108t-94 -294z" />
    <glyph glyph-name="p" unicode="p" horiz-adv-x="1214" 
d="M137 -406v1465h174v-144h4q41 84 131.5 126t206.5 42q95 0 175.5 -29t137.5 -80.5t97 -122t59 -152.5t19 -173q0 -115 -30.5 -213.5t-89.5 -174.5t-152.5 -119.5t-211.5 -43.5q-95 0 -192.5 40.5t-149.5 125.5h-4v-547h-174zM956 539q0 77 -20 145.5t-58.5 124t-103 88.5
t-145.5 33q-85 0 -149.5 -34t-101.5 -92.5t-55 -127.5t-18 -146q0 -81 19 -150.5t57.5 -127t104.5 -90.5t153 -33q69 0 124 23t90.5 61.5t59 92t33.5 111t10 122.5z" />
    <glyph glyph-name="q" unicode="q" horiz-adv-x="1214" 
d="M1077 1059v-1465h-174v549h-4q-41 -84 -131.5 -126t-206.5 -42q-119 0 -213 44.5t-153 122t-90 177t-31 213.5t30.5 212.5t89 174.5t152 120t211.5 44q95 0 192.5 -40t149.5 -125h4v141h174zM258 520q0 -77 20 -145.5t59 -124t103.5 -88.5t145.5 -33q69 0 124 22.5
t91.5 61t61.5 90.5t35.5 108t10.5 117q0 64 -11.5 121.5t-37 109.5t-64 89.5t-95 59.5t-126.5 22q-69 0 -124 -23t-90.5 -61.5t-59 -92t-33.5 -111t-10 -122.5z" />
    <glyph glyph-name="r" unicode="r" horiz-adv-x="681" 
d="M125 0v1059h164v-223h4q64 131 157 191t232 56v-184q-204 0 -293.5 -108.5t-89.5 -319.5v-471h-174z" />
    <glyph glyph-name="s" unicode="s" horiz-adv-x="1024" 
d="M63 334h175q2 -56 26.5 -97.5t65.5 -64t88.5 -33t103.5 -10.5q47 0 87 6.5t81 22.5t64.5 49t23.5 80q0 55 -38 91t-99 55t-135 34t-148 35t-135 50.5t-99 88.5t-38 141q0 62 23.5 113t62 85t90 58t107 34.5t112.5 10.5q94 0 166.5 -16t132.5 -52.5t94.5 -102.5t40.5 -160
h-174q-7 93 -77.5 135.5t-167.5 42.5q-42 0 -79.5 -6.5t-72 -21t-54.5 -42t-20 -65.5q0 -20 6 -37.5t19.5 -31.5t27.5 -25t38.5 -21.5t43 -17.5t50.5 -15t51.5 -12.5t55.5 -12.5l54 -12q60 -14 103.5 -27t92.5 -37.5t79.5 -54.5t51 -76.5t20.5 -105.5q0 -91 -39.5 -158.5
t-106.5 -104.5t-143 -54t-162 -17q-93 0 -170 20t-139.5 61t-99 112t-40.5 166z" />
    <glyph glyph-name="t" unicode="t" horiz-adv-x="645" 
d="M373 1376v-317h211v-154h-211v-657q0 -61 24 -77.5t107 -16.5h80v-154h-133q-72 0 -116 8.5t-76.5 33.5t-46 70.5t-13.5 118.5v674h-181v154h181v317h174z" />
    <glyph glyph-name="u" unicode="u" 
d="M1008 1059v-1059h-164v168h-4q-109 -193 -344 -193q-102 0 -174.5 28t-113.5 81t-59 121t-18 157v697h174v-717q0 -98 57.5 -155.5t157.5 -57.5q153 0 233.5 91.5t80.5 240.5v598h174z" />
    <glyph glyph-name="v" unicode="v" horiz-adv-x="1024" 
d="M995 1059l-387 -1059h-186l-393 1059h194l297 -883h4l289 883h182z" />
    <glyph glyph-name="w" unicode="w" horiz-adv-x="1552" 
d="M1518 1059l-338 -1059h-185l-215 842h-4l-213 -842h-188l-340 1059h192l240 -866h4l213 866h190l222 -866h4l237 866h181z" />
    <glyph glyph-name="x" unicode="x" horiz-adv-x="1060" 
d="M18 0l398 557l-369 502h223l254 -371l264 371h209l-364 -488l409 -571h-223l-295 438l-295 -438h-211z" />
    <glyph glyph-name="y" unicode="y" horiz-adv-x="1024" 
d="M1008 1059l-461 -1200q-63 -159 -128 -221t-179 -62q-71 0 -121 18v160l24 -8t27 -8.5t24 -5t27 -2.5q52 0 85 23.5t59 72.5l71 180l-420 1053h197l309 -866h4l297 866h185z" />
    <glyph glyph-name="z" unicode="z" horiz-adv-x="983" 
d="M45 0v133l639 772h-598v154h823v-119l-647 -786h676v-154h-893z" />
    <glyph glyph-name="braceleft" unicode="{" horiz-adv-x="681" 
d="M633 1497v-123h-103q-98 0 -98 -176v-375q0 -66 -20.5 -120.5t-51.5 -85t-58 -47t-48 -21.5v-6q16 -2 36.5 -10.5t46 -29.5t46.5 -50t35 -77.5t14 -107.5v-374q0 -177 98 -177h103v-123h-144q-84 0 -152.5 73.5t-68.5 195.5v373q0 108 -50.5 173.5t-119.5 65.5v139
q68 0 119 69t51 173v373q0 122 68.5 195t152.5 73h144z" />
    <glyph glyph-name="bar" unicode="|" horiz-adv-x="454" 
d="M158 -438v2048h139v-2048h-139z" />
    <glyph glyph-name="braceright" unicode="}" horiz-adv-x="681" 
d="M49 -406v123h103q98 0 98 177v374q0 66 20.5 120.5t51.5 85.5t58 47.5t48 21.5v6q-16 2 -36.5 10.5t-46.5 29t-46.5 50t-34.5 77.5t-14 107v371q0 180 -98 180h-103v123h144q84 0 152.5 -73t68.5 -195v-373q0 -108 50.5 -175t119.5 -67v-139q-68 0 -119 -68t-51 -171
v-373q0 -122 -68.5 -195.5t-152.5 -73.5h-144z" />
    <glyph glyph-name="asciitilde" unicode="~" horiz-adv-x="1228" 
d="M1014 653l73 -102q-26 -39 -48 -65.5t-53.5 -54.5t-70.5 -42t-84 -14q-91 0 -208 67q-42 25 -70.5 39.5t-74.5 27.5t-91 13q-60 0 -100 -43t-72 -112l-74 102q86 176 256 176q79 0 228 -65q20 -9 70.5 -34t82 -36.5t56.5 -11.5q15 0 30 4.5t26 9t25.5 17t21.5 19t21 25.5
t18.5 25t19.5 28.5t18 26.5z" />
    <glyph glyph-name="uni00A0" unicode="&#xa0;" horiz-adv-x="569" 
 />
    <glyph glyph-name="exclamdown" unicode="&#xa1;" horiz-adv-x="530" 
d="M379 1059v-228h-227v228h227zM168 -406v451l51 637h92l51 -637v-451h-194z" />
    <glyph glyph-name="cent" unicode="&#xa2;" 
d="M557 -238v213q-146 5 -252 77.5t-158.5 192t-52.5 271.5q0 151 50.5 273t157 202.5t255.5 91.5v195h80v-195q174 -5 284 -94.5t132 -269.5h-179q-21 96 -81 151.5t-156 59.5v-801q106 10 168 79t80 179h174q-9 -78 -40.5 -150t-82.5 -131.5t-129 -95t-170 -35.5v-213h-80
zM557 129v801q-76 -10 -132 -47t-87 -95t-45 -125t-14 -147q0 -73 16 -138t48 -119.5t87 -89t127 -40.5z" />
    <glyph glyph-name="sterling" unicode="&#xa3;" 
d="M96 670v92h119q-96 161 -96 319q0 126 65 222t170.5 145t231.5 49q232 0 359.5 -134.5t123.5 -393.5h-174q-5 182 -79.5 278t-219.5 96q-124 0 -208.5 -76.5t-84.5 -191.5q0 -38 5.5 -72t19 -69t23 -56t30.5 -61t29 -55h325v-92h-280q41 -77 41 -154q0 -53 -14.5 -102
t-33.5 -83.5t-55 -74.5t-62.5 -63.5t-72.5 -61.5l4 -4q51 22 73 30.5t63 18.5t79 10q77 0 195 -30q6 -2 39 -12t46 -13t39 -7.5t48 -4.5q87 0 182 76l88 -136q-107 -94 -299 -94q-75 0 -203 41q-127 43 -215 43q-99 0 -204 -72l-97 136q97 65 161.5 160t64.5 206
q0 77 -52 191h-174z" />
    <glyph glyph-name="currency" unicode="&#xa4;" 
d="M51 1137l101 100l114 -115q60 50 141.5 77.5t167.5 27.5q81 0 159 -27.5t134 -75.5l117 115l102 -104l-112 -113q106 -112 106 -303q0 -183 -106 -307l112 -115l-96 -96l-114 118q-121 -112 -304 -112q-189 0 -311 110l-112 -118l-99 98l113 119q-107 129 -107 299
q0 192 111 303zM575 1073q-146 0 -245 -103t-99 -255q0 -149 99.5 -252t242.5 -103q141 0 237.5 105t96.5 254q0 144 -96.5 249t-235.5 105z" />
    <glyph glyph-name="yen" unicode="&#xa5;" 
d="M475 0v356h-289v123h289v86l-37 68h-252v123h189l-375 706h223l357 -723l346 723h213l-365 -706h191v-123h-258l-37 -68v-86h295v-123h-295v-356h-195z" />
    <glyph glyph-name="brokenbar" unicode="&#xa6;" horiz-adv-x="454" 
d="M297 1354v-512h-139v512h139zM158 -182v512h139v-512h-139z" />
    <glyph glyph-name="section" unicode="&#xa7;" 
d="M952 1118h-174q-2 97 -57 161t-150 64q-86 0 -140 -44.5t-54 -131.5q0 -35 18 -68.5t42.5 -58t70.5 -55.5t80.5 -50t94.5 -51q23 -12 34 -18q50 -27 85 -48t78 -51t71.5 -59.5t54.5 -66t38.5 -80t12.5 -92.5q0 -99 -59.5 -181.5t-153.5 -119.5q121 -89 121 -246
q0 -146 -108 -237t-275 -91q-182 0 -291 103.5t-121 284.5h174q2 -105 66 -169.5t168 -64.5q82 0 144 44.5t62 125.5q0 21 -5.5 41t-13.5 37t-24.5 35t-30 32t-38.5 31.5t-41.5 29t-47.5 29.5t-49 27.5t-53.5 28.5t-52.5 29q-63 34 -105.5 60t-94.5 67t-82.5 81.5t-52 98
t-21.5 121.5q0 95 64 176t155 106q-94 100 -94 217q0 102 56 179.5t140.5 115t181.5 37.5q172 0 272.5 -96t104.5 -283zM389 860q-63 -21 -106 -72t-43 -114q0 -19 4 -37.5t8.5 -33t15.5 -30t18.5 -26t24 -25t25 -21.5t29.5 -21l28.5 -19t31.5 -19t30 -18q157 -82 286 -170
q65 27 106.5 76t41.5 114q0 21 -6.5 42t-14.5 37t-26 35t-28.5 30t-35.5 29t-35 24t-38 24t-33 21q-217 129 -283 174z" />
    <glyph glyph-name="dieresis" unicode="&#xa8;" horiz-adv-x="454" 
d="M328 1233v213h184v-213h-184zM-57 1233v213h184v-213h-184z" />
    <glyph glyph-name="copyright" unicode="&#xa9;" horiz-adv-x="1638" 
d="M49 735q0 211 105 387t282 275.5t385 99.5q207 0 383 -99.5t280.5 -275.5t104.5 -387q0 -162 -61.5 -305.5t-165.5 -245t-245 -160.5t-296 -59q-156 0 -297.5 59t-246 160.5t-166.5 245t-62 305.5zM188 735q0 -138 48.5 -260.5t132.5 -209t201.5 -137t250.5 -50.5
q175 0 319 85.5t227 236.5t83 335q0 180 -83 329t-227.5 234.5t-318.5 85.5q-177 0 -322.5 -85.5t-228 -234.5t-82.5 -329zM1096 584h131q-32 -148 -135.5 -235t-245.5 -87q-206 0 -330.5 132t-124.5 337q0 208 121 337.5t328 129.5q152 0 256.5 -81t128.5 -230h-129
q-18 88 -85.5 143t-168.5 55q-147 0 -229.5 -98.5t-82.5 -251.5q0 -96 37 -177.5t110.5 -132t168.5 -50.5q101 0 168.5 57.5t81.5 151.5z" />
    <glyph glyph-name="ordfeminine" unicode="&#xaa;" horiz-adv-x="774" 
d="M649 1274v-328q0 -37 6 -51t23 -14h22q11 0 23 4v-90q-46 -17 -88 -17q-99 0 -105 94q-88 -94 -239 -94q-104 0 -172 46.5t-68 136.5q0 51 21 89.5t57.5 61t77.5 35t90 16.5q153 19 194 32t41 54q0 32 -13 53.5t-37 31t-48.5 13t-58.5 3.5q-79 0 -122.5 -26t-47.5 -89
h-123q4 111 88.5 164t212.5 53q51 0 94 -7.5t84 -26t64.5 -55t23.5 -89.5zM317 881q105 0 157 43.5t52 97.5v96q-15 -9 -40.5 -16.5t-47.5 -11.5t-59.5 -9.5t-56.5 -9.5q-65 -12 -98.5 -34.5t-33.5 -71.5t33.5 -66.5t93.5 -17.5z" />
    <glyph glyph-name="guillemotleft" unicode="&#xab;" horiz-adv-x="948" 
d="M815 233l-311 246v180l311 246v-176l-205 -160l205 -159v-177zM414 233l-312 246v180l312 246v-176l-205 -160l205 -159v-177z" />
    <glyph glyph-name="logicalnot" unicode="&#xac;" horiz-adv-x="1228" 
d="M1130 795v-572h-139v432h-893v140h1032z" />
    <glyph glyph-name="uni00AD" unicode="&#xad;" horiz-adv-x="796" 
d="M102 487v164h592v-164h-592z" />
    <glyph glyph-name="registered" unicode="&#xae;" horiz-adv-x="1638" 
d="M49 735q0 211 105 387t282 275.5t385 99.5q207 0 383 -99.5t280.5 -275.5t104.5 -387q0 -162 -61.5 -305.5t-165.5 -245t-245 -160.5t-296 -59q-156 0 -297.5 59t-246 160.5t-166.5 245t-62 305.5zM188 735q0 -138 48.5 -260.5t132.5 -209t201.5 -137t250.5 -50.5
q175 0 319 85.5t227 236.5t83 335q0 181 -83 330t-227.5 234t-318.5 85q-133 0 -250.5 -50t-201.5 -136.5t-132.5 -206.5t-48.5 -256zM522 285v895h346q159 0 236.5 -63.5t77.5 -192.5q0 -115 -64 -174t-172 -70l256 -395h-149l-244 385h-147v-385h-140zM662 1067v-285h145
q45 0 73 1.5t62 10t53.5 23.5t33 43.5t13.5 69.5q0 43 -16.5 71.5t-47 42t-61.5 18.5t-71 5h-184z" />
    <glyph glyph-name="macron" unicode="&#xaf;" horiz-adv-x="454" 
d="M-121 1284v113h699v-113h-699z" />
    <glyph glyph-name="degree" unicode="&#xb0;" horiz-adv-x="819" 
d="M115 1157q0 122 85.5 208.5t209.5 86.5q122 0 208.5 -87t86.5 -208q0 -124 -86.5 -209.5t-208.5 -85.5q-124 0 -209.5 85t-85.5 210zM217 1157q0 -76 53 -134t140 -58t139.5 57.5t52.5 134.5t-52.5 135t-139.5 58t-140 -58t-53 -135z" />
    <glyph glyph-name="plusminus" unicode="&#xb1;" horiz-adv-x="1228" 
d="M98 555v139h447v340h139v-340h446v-139h-446v-342h-139v342h-447zM98 0v139h1032v-139h-1032z" />
    <glyph glyph-name="twosuperior" unicode="&#xb2;" horiz-adv-x="757" 
d="M219 1382h-139q2 143 86.5 229.5t230.5 86.5q127 0 207 -70.5t80 -187.5q0 -73 -29.5 -129.5t-73 -92.5t-114.5 -75l-82 -45q-150 -83 -166 -172h453v-113h-609q7 145 69 232t175 149l99 53q81 44 110 84t29 105q0 68 -40 108.5t-110 40.5q-91 0 -132.5 -56.5
t-43.5 -146.5z" />
    <glyph glyph-name="threesuperior" unicode="&#xb3;" horiz-adv-x="757" 
d="M315 1217v102h50q73 0 118 33.5t45 101.5q0 61 -39.5 97t-103.5 36q-84 0 -125.5 -49.5t-44.5 -132.5h-135q5 133 86.5 213t218.5 80q125 0 203 -64.5t78 -171.5q0 -63 -40.5 -110.5t-101.5 -69.5v-4q176 -42 176 -207q0 -128 -93.5 -202t-227.5 -74q-149 0 -234.5 75.5
t-85.5 214.5h136q2 -87 50 -133.5t138 -46.5q83 0 131.5 42t48.5 118q0 74 -49 113t-123 39h-76z" />
    <glyph glyph-name="acute" unicode="&#xb4;" horiz-adv-x="454" 
d="M102 1206l177 293h223l-269 -293h-131z" />
    <glyph glyph-name="mu" unicode="&#xb5;" 
d="M1008 1059v-1059h-164v168h-4q-57 -95 -141 -144t-181 -49q-134 0 -203 72h-4v-453h-174v1465h174v-717q0 -98 56.5 -155.5t154.5 -57.5q151 0 231.5 91.5t80.5 240.5v598h174z" />
    <glyph glyph-name="paragraph" unicode="&#xb6;" horiz-adv-x="1228" 
d="M1055 1462v-1779h-140v1667h-249v-1667h-140v976q-187 0 -307.5 109.5t-120.5 271.5q0 200 124.5 311t342.5 111h490z" />
    <glyph glyph-name="periodcentered" unicode="&#xb7;" horiz-adv-x="569" 
d="M154 637q0 54 38.5 92.5t92.5 38.5t92.5 -38.5t38.5 -92.5q0 -50 -39.5 -90.5t-89.5 -40.5q-54 0 -93.5 38.5t-39.5 92.5z" />
    <glyph glyph-name="cedilla" unicode="&#xb8;" horiz-adv-x="454" 
d="M10 -391l37 90q71 -27 133 -27q48 0 83.5 16t35.5 48q0 29 -27 46t-69 17q-34 0 -84 -16l-35 57l125 160h86l-86 -109l4 -4q30 15 68 15q71 0 121.5 -39.5t50.5 -110.5q0 -49 -23 -86t-61.5 -57t-81 -29.5t-88.5 -9.5q-94 0 -189 39z" />
    <glyph glyph-name="onesuperior" unicode="&#xb9;" horiz-adv-x="757" 
d="M496 1683v-870h-140v623h-235v102q237 0 272 145h103z" />
    <glyph glyph-name="ordmasculine" unicode="&#xba;" horiz-adv-x="786" 
d="M393 1452q161 0 251.5 -95t90.5 -245q0 -152 -88.5 -243t-251.5 -91q-160 0 -252 92.5t-92 241.5q0 147 91 243.5t251 96.5zM393 1350q-90 0 -146.5 -60t-56.5 -178q0 -101 50.5 -166t154.5 -65q102 0 151.5 64t49.5 165q0 57 -13 101t-33 69.5t-48 42t-54 22t-55 5.5z
" />
    <glyph glyph-name="guillemotright" unicode="&#xbb;" horiz-adv-x="948" 
d="M535 905l311 -246v-180l-311 -246v177l204 159l-204 160v176zM133 905l311 -246v-180l-311 -246v177l205 159l-205 160v176z" />
    <glyph glyph-name="onequarter" unicode="&#xbc;" horiz-adv-x="1708" 
d="M307 -57l891 1542h131l-891 -1542h-131zM469 1452v-879h-139v631h-236v103q238 0 273 145h102zM1583 322v-113h-115v-209h-135v209h-393v139l393 518h135v-544h115zM1329 692l-276 -370h280v370h-4z" />
    <glyph glyph-name="onehalf" unicode="&#xbd;" horiz-adv-x="1708" 
d="M266 -57l891 1542h131l-891 -1542h-131zM469 1452v-879h-139v631h-236v103q238 0 273 145h102zM1147 569h-139q2 143 86.5 229.5t230.5 86.5q127 0 207 -70.5t80 -187.5q0 -73 -29.5 -129.5t-73 -92.5t-114.5 -75l-82 -45q-150 -83 -166 -172h452v-113h-608q7 145 69 232
t175 149l98 53q81 44 110.5 84t29.5 105q0 68 -40 108.5t-110 40.5q-91 0 -132.5 -56.5t-43.5 -146.5z" />
    <glyph glyph-name="threequarters" unicode="&#xbe;" horiz-adv-x="1708" 
d="M412 -57l891 1542h131l-891 -1542h-131zM354 977v102h49q73 0 118.5 33.5t45.5 101.5q0 61 -39.5 97.5t-103.5 36.5q-83 0 -125 -50t-45 -133h-135q5 133 86.5 213t218.5 80q125 0 203 -64t78 -171q0 -63 -40.5 -111t-101.5 -70v-4q176 -42 176 -207q0 -128 -93.5 -202
t-227.5 -74q-148 0 -234 76t-86 215h135q2 -87 50.5 -133.5t138.5 -46.5q83 0 131.5 42t48.5 117q0 74 -49 113t-123 39h-76zM1583 322v-113h-115v-209h-135v209h-393v139l393 518h135v-544h115zM1329 692l-276 -370h280v370h-4z" />
    <glyph glyph-name="questiondown" unicode="&#xbf;" 
d="M690 1059v-228h-227v228h227zM856 61h174q5 -214 -121.5 -352.5t-337.5 -138.5q-194 0 -313 109t-119 301q0 61 13.5 112t41.5 94.5t53.5 72.5t67.5 69q37 35 53.5 51t46 50t43 60t25 64t11.5 78v63h174v-80q-3 -69 -24.5 -127.5t-53 -99t-69 -78t-73.5 -72.5t-65 -72.5
t-45.5 -89t-13.5 -112.5q8 -113 72.5 -176t174.5 -63q141 0 213 93.5t72 243.5z" />
    <glyph glyph-name="Agrave" unicode="&#xc0;" horiz-adv-x="1327" 
d="M-14 0l571 1462h215l571 -1462h-215l-159 440h-619l-164 -440h-200zM412 604h495l-243 682h-5zM633 1595l-268 293h223l176 -293h-131z" />
    <glyph glyph-name="Aacute" unicode="&#xc1;" horiz-adv-x="1327" 
d="M-14 0l571 1462h215l571 -1462h-215l-159 440h-619l-164 -440h-200zM412 604h495l-243 682h-5zM557 1595l176 293h223l-268 -293h-131z" />
    <glyph glyph-name="Acircumflex" unicode="&#xc2;" horiz-adv-x="1327" 
d="M-14 0l571 1462h215l571 -1462h-215l-159 440h-619l-164 -440h-200zM412 604h495l-243 682h-5zM360 1595l211 293h191l213 -293h-172l-141 197l-144 -197h-158z" />
    <glyph glyph-name="Atilde" unicode="&#xc3;" horiz-adv-x="1327" 
d="M-14 0l571 1462h215l571 -1462h-215l-159 440h-619l-164 -440h-200zM412 604h495l-243 682h-5zM913 1858h107q-12 -90 -66 -162q-54 -66 -141 -66q-67 0 -154 41l-28 10.5t-30 11t-25.5 8.5t-28 7t-23.5 2q-39 0 -63 -24q-19 -16 -37 -62h-107q49 225 218 225
q57 0 150 -41t134 -41q68 0 94 91z" />
    <glyph glyph-name="Adieresis" unicode="&#xc4;" horiz-adv-x="1327" 
d="M-14 0l571 1462h215l571 -1462h-215l-159 440h-619l-164 -440h-200zM412 604h495l-243 682h-5zM766 1624v213h184v-213h-184zM381 1624v213h184v-213h-184z" />
    <glyph glyph-name="Aring" unicode="&#xc5;" horiz-adv-x="1327" 
d="M432 1763q0 95 69 162.5t163 67.5t162.5 -67.5t68.5 -162.5t-68.5 -162t-162.5 -67t-163 67t-69 162zM526 1761q0 -60 39 -99.5t99 -39.5t98.5 39.5t38.5 99.5t-38.5 100t-98.5 40t-99 -40t-39 -100zM-14 0l571 1462h215l571 -1462h-215l-159 440h-619l-164 -440h-200z
M412 604h495l-243 682h-5z" />
    <glyph glyph-name="AE" unicode="&#xc6;" horiz-adv-x="1896" 
d="M-14 0l739 1462h1096v-164h-719v-464h676v-164h-676v-506h731v-164h-915v426h-504l-209 -426h-219zM918 1298h-84l-345 -708h429v708z" />
    <glyph glyph-name="Ccedilla" unicode="&#xc7;" horiz-adv-x="1478" 
d="M522 -391l37 90q71 -27 133 -27q48 0 83.5 16t35.5 48q0 29 -27 46t-69 17q-34 0 -84 -16l-35 57l100 129q-149 11 -266.5 74t-191.5 165t-112 233.5t-38 285.5q0 128 28.5 243.5t86 211.5t139 166.5t194 109.5t244.5 39q155 0 282 -53t213 -162t107 -260h-194
q-31 151 -141.5 231t-268.5 80q-101 0 -184.5 -32.5t-140.5 -88t-96 -131.5t-56.5 -161t-17.5 -179q0 -102 18 -192t56.5 -167.5t96 -133.5t141 -87.5t185.5 -31.5q186 0 298 117.5t124 304.5h195q-29 -272 -189 -425t-428 -159l-59 -76l4 -4q30 15 68 15q71 0 121.5 -39.5
t50.5 -110.5q0 -49 -23 -86t-61.5 -57t-81 -29.5t-88.5 -9.5q-94 0 -189 39z" />
    <glyph glyph-name="Egrave" unicode="&#xc8;" horiz-adv-x="1251" 
d="M160 0v1462h1009v-164h-815v-464h760v-164h-760v-506h822v-164h-1016zM608 1595l-268 293h223l176 -293h-131z" />
    <glyph glyph-name="Eacute" unicode="&#xc9;" horiz-adv-x="1251" 
d="M160 0v1462h1009v-164h-815v-464h760v-164h-760v-506h822v-164h-1016zM553 1595l176 293h223l-268 -293h-131z" />
    <glyph glyph-name="Ecircumflex" unicode="&#xca;" horiz-adv-x="1251" 
d="M160 0v1462h1009v-164h-815v-464h760v-164h-760v-506h822v-164h-1016zM346 1595l211 293h191l213 -293h-173l-141 197l-143 -197h-158z" />
    <glyph glyph-name="Edieresis" unicode="&#xcb;" horiz-adv-x="1251" 
d="M160 0v1462h1009v-164h-815v-464h760v-164h-760v-506h822v-164h-1016zM754 1624v213h184v-213h-184zM369 1624v213h184v-213h-184z" />
    <glyph glyph-name="Igrave" unicode="&#xcc;" horiz-adv-x="530" 
d="M168 0v1462h194v-1462h-194zM231 1595l-268 293h223l176 -293h-131z" />
    <glyph glyph-name="Iacute" unicode="&#xcd;" horiz-adv-x="530" 
d="M168 0v1462h194v-1462h-194zM164 1595l176 293h223l-268 -293h-131z" />
    <glyph glyph-name="Icircumflex" unicode="&#xce;" horiz-adv-x="530" 
d="M168 0v1462h194v-1462h-194zM-39 1595l211 293h190l213 -293h-172l-141 197l-143 -197h-158z" />
    <glyph glyph-name="Idieresis" unicode="&#xcf;" horiz-adv-x="530" 
d="M168 0v1462h194v-1462h-194zM367 1624v213h184v-213h-184zM-18 1624v213h184v-213h-184z" />
    <glyph glyph-name="Eth" unicode="&#xd0;" horiz-adv-x="1441" 
d="M160 0v698h-144v131h144v633h502q342 0 522 -174t180 -522q0 -766 -702 -766h-502zM354 1298v-469h439v-131h-439v-534h324q36 0 69.5 3t85 17t95 36.5t89.5 66t78.5 102.5t53 149t20.5 201q0 273 -114 416t-373 143h-328z" />
    <glyph glyph-name="Ntilde" unicode="&#xd1;" horiz-adv-x="1478" 
d="M158 0v1462h207l770 -1186h4v1186h184v-1462h-213l-764 1174h-4v-1174h-184zM989 1858h107q-12 -90 -66 -162q-54 -66 -141 -66q-67 0 -154 41l-28 10.5t-30 11t-25.5 8.5t-28 7t-23.5 2q-39 0 -63 -24q-19 -16 -37 -62h-107q49 225 217 225q57 0 150.5 -41t134.5 -41
q68 0 94 91z" />
    <glyph glyph-name="Ograve" unicode="&#xd2;" horiz-adv-x="1556" 
d="M78 731q0 121 27.5 233t85.5 209t139.5 169t196.5 113.5t251 41.5t251 -41.5t197 -113.5t139.5 -169t85.5 -209t28 -233t-28 -233t-85.5 -209t-139.5 -169t-197 -113.5t-251 -41.5t-251 41.5t-196.5 113.5t-139.5 169t-85.5 209t-27.5 233zM272 731q0 -115 30 -219.5
t89 -191.5t159 -139t228 -52t228 52t159 139t89 191.5t30 219.5t-30 219.5t-89 191.5t-159 139t-228 52t-228 -52t-159 -139t-89 -191.5t-30 -219.5zM737 1595l-268 293h223l176 -293h-131z" />
    <glyph glyph-name="Oacute" unicode="&#xd3;" horiz-adv-x="1556" 
d="M78 731q0 121 27.5 233t85.5 209t139.5 169t196.5 113.5t251 41.5t251 -41.5t197 -113.5t139.5 -169t85.5 -209t28 -233t-28 -233t-85.5 -209t-139.5 -169t-197 -113.5t-251 -41.5t-251 41.5t-196.5 113.5t-139.5 169t-85.5 209t-27.5 233zM272 731q0 -115 30 -219.5
t89 -191.5t159 -139t228 -52t228 52t159 139t89 191.5t30 219.5t-30 219.5t-89 191.5t-159 139t-228 52t-228 -52t-159 -139t-89 -191.5t-30 -219.5zM682 1595l176 293h223l-268 -293h-131z" />
    <glyph glyph-name="Ocircumflex" unicode="&#xd4;" horiz-adv-x="1556" 
d="M78 731q0 121 27.5 233t85.5 209t139.5 169t196.5 113.5t251 41.5t251 -41.5t197 -113.5t139.5 -169t85.5 -209t28 -233t-28 -233t-85.5 -209t-139.5 -169t-197 -113.5t-251 -41.5t-251 41.5t-196.5 113.5t-139.5 169t-85.5 209t-27.5 233zM272 731q0 -115 30 -219.5
t89 -191.5t159 -139t228 -52t228 52t159 139t89 191.5t30 219.5t-30 219.5t-89 191.5t-159 139t-228 52t-228 -52t-159 -139t-89 -191.5t-30 -219.5zM475 1595l211 293h191l213 -293h-172l-142 197l-143 -197h-158z" />
    <glyph glyph-name="Otilde" unicode="&#xd5;" horiz-adv-x="1556" 
d="M78 731q0 121 27.5 233t85.5 209t139.5 169t196.5 113.5t251 41.5t251 -41.5t197 -113.5t139.5 -169t85.5 -209t28 -233t-28 -233t-85.5 -209t-139.5 -169t-197 -113.5t-251 -41.5t-251 41.5t-196.5 113.5t-139.5 169t-85.5 209t-27.5 233zM272 731q0 -115 30 -219.5
t89 -191.5t159 -139t228 -52t228 52t159 139t89 191.5t30 219.5t-30 219.5t-89 191.5t-159 139t-228 52t-228 -52t-159 -139t-89 -191.5t-30 -219.5zM1028 1858h107q-12 -90 -66 -162q-54 -66 -141 -66q-67 0 -154 41l-28 10.5t-30 11t-25.5 8.5t-28 7t-23.5 2
q-40 0 -64 -24q-17 -15 -36 -62h-107q49 225 217 225q57 0 150.5 -41t134.5 -41q68 0 94 91z" />
    <glyph glyph-name="Odieresis" unicode="&#xd6;" horiz-adv-x="1556" 
d="M78 731q0 121 27.5 233t85.5 209t139.5 169t196.5 113.5t251 41.5t251 -41.5t197 -113.5t139.5 -169t85.5 -209t28 -233t-28 -233t-85.5 -209t-139.5 -169t-197 -113.5t-251 -41.5t-251 41.5t-196.5 113.5t-139.5 169t-85.5 209t-27.5 233zM272 731q0 -115 30 -219.5
t89 -191.5t159 -139t228 -52t228 52t159 139t89 191.5t30 219.5t-30 219.5t-89 191.5t-159 139t-228 52t-228 -52t-159 -139t-89 -191.5t-30 -219.5zM881 1624v213h184v-213h-184zM496 1624v213h184v-213h-184z" />
    <glyph glyph-name="multiply" unicode="&#xd7;" horiz-adv-x="1228" 
d="M244 49l-99 98l373 373l-371 369l99 98l370 -369l369 369l98 -98l-368 -369l370 -373l-98 -98l-371 373z" />
    <glyph glyph-name="Oslash" unicode="&#xd8;" horiz-adv-x="1556" 
d="M1415 1495l66 -61l-168 -185q166 -207 166 -518q0 -121 -28 -233t-85.5 -209t-139.5 -169t-197 -113.5t-251 -41.5q-283 0 -469 176l-166 -182l-67 61l172 189q-170 205 -170 522q0 121 27.5 233t85.5 209t139.5 169t196.5 113.5t251 41.5q292 0 475 -180zM375 348
l755 834q-131 151 -352 151q-128 0 -228 -52t-159 -139t-89 -191.5t-30 -219.5q0 -227 103 -383zM1186 1108l-756 -834q129 -145 348 -145q128 0 228 52t159 139t89 191.5t30 219.5q0 224 -98 377z" />
    <glyph glyph-name="Ugrave" unicode="&#xd9;" horiz-adv-x="1478" 
d="M1327 1462v-934q0 -276 -149 -419.5t-426 -143.5q-290 0 -445 139t-155 424v934h194v-934q0 -194 105 -296.5t301 -102.5q186 0 283.5 102t97.5 297v934h194zM700 1595l-268 293h223l176 -293h-131z" />
    <glyph glyph-name="Uacute" unicode="&#xda;" horiz-adv-x="1478" 
d="M1327 1462v-934q0 -276 -149 -419.5t-426 -143.5q-290 0 -445 139t-155 424v934h194v-934q0 -194 105 -296.5t301 -102.5q186 0 283.5 102t97.5 297v934h194zM645 1595l176 293h223l-268 -293h-131z" />
    <glyph glyph-name="Ucircumflex" unicode="&#xdb;" horiz-adv-x="1478" 
d="M1327 1462v-934q0 -276 -149 -419.5t-426 -143.5q-290 0 -445 139t-155 424v934h194v-934q0 -194 105 -296.5t301 -102.5q186 0 283.5 102t97.5 297v934h194zM438 1595l211 293h191l213 -293h-172l-142 197l-143 -197h-158z" />
    <glyph glyph-name="Udieresis" unicode="&#xdc;" horiz-adv-x="1478" 
d="M1327 1462v-934q0 -276 -149 -419.5t-426 -143.5q-290 0 -445 139t-155 424v934h194v-934q0 -194 105 -296.5t301 -102.5q186 0 283.5 102t97.5 297v934h194zM844 1624v213h184v-213h-184zM459 1624v213h184v-213h-184z" />
    <glyph glyph-name="Yacute" unicode="&#xdd;" horiz-adv-x="1327" 
d="M1323 1462l-559 -864v-598h-195v598l-565 864h232l438 -696l428 696h221zM573 1595l177 293h223l-268 -293h-132z" />
    <glyph glyph-name="Thorn" unicode="&#xde;" horiz-adv-x="1327" 
d="M354 0h-194v1462h194v-233h447q218 0 333 -114t115 -320t-115 -318t-333 -112h-447v-365zM354 1065v-537h381q320 0 320 267q0 135 -78 202.5t-242 67.5h-381z" />
    <glyph glyph-name="germandbls" unicode="&#xdf;" 
d="M131 0v1087q0 184 111 297t295 113q78 0 152 -23t135.5 -66t99 -113t37.5 -156q0 -250 -213 -318v-4q90 -11 154 -65.5t94 -132t30 -168.5q0 -211 -132 -343.5t-341 -132.5q-41 0 -88 9v151q23 -6 70 -6q140 0 223.5 82.5t83.5 216.5q0 79 -18 135t-48 89t-80 52t-103 25
t-128 6v139q64 -4 118 7t98.5 37.5t69.5 76t25 117.5q0 97 -65.5 164t-161.5 67q-118 0 -181 -63t-63 -223v-1057h-174z" />
    <glyph glyph-name="agrave" unicode="&#xe0;" horiz-adv-x="1099" 
d="M1069 139v-135q-50 -29 -125 -29q-147 0 -147 164q-137 -164 -373 -164q-156 0 -253 73t-97 224q0 69 21 122.5t52 86.5t82 57.5t95.5 36t107.5 23.5q38 8 91 16t86.5 12.5t71 14t58.5 22.5t35 36t14 55q0 55 -20.5 92t-57.5 54t-73.5 23.5t-83.5 6.5q-120 0 -189 -45.5
t-75 -155.5h-174q4 95 40.5 165.5t99 110.5t139 59t169.5 19q63 0 115 -6t106.5 -25t91.5 -49.5t61 -84t24 -125.5v-545q0 -31 0.5 -44.5t3 -32t8.5 -25t16.5 -12t26.5 -5.5q23 0 53 10zM786 369v178q-35 -26 -105.5 -40t-139.5 -21.5t-135 -24t-107 -60t-41 -116.5
q0 -80 58.5 -118t146.5 -38q82 0 146.5 23.5t101.5 60t56 77t19 79.5zM518 1206l-268 293h223l176 -293h-131z" />
    <glyph glyph-name="aacute" unicode="&#xe1;" horiz-adv-x="1099" 
d="M1069 139v-135q-50 -29 -125 -29q-147 0 -147 164q-137 -164 -373 -164q-156 0 -253 73t-97 224q0 69 21 122.5t52 86.5t82 57.5t95.5 36t107.5 23.5q38 8 91 16t86.5 12.5t71 14t58.5 22.5t35 36t14 55q0 55 -20.5 92t-57.5 54t-73.5 23.5t-83.5 6.5q-120 0 -189 -45.5
t-75 -155.5h-174q4 95 40.5 165.5t99 110.5t139 59t169.5 19q63 0 115 -6t106.5 -25t91.5 -49.5t61 -84t24 -125.5v-545q0 -31 0.5 -44.5t3 -32t8.5 -25t16.5 -12t26.5 -5.5q23 0 53 10zM786 369v178q-35 -26 -105.5 -40t-139.5 -21.5t-135 -24t-107 -60t-41 -116.5
q0 -80 58.5 -118t146.5 -38q82 0 146.5 23.5t101.5 60t56 77t19 79.5zM455 1206l176 293h223l-268 -293h-131z" />
    <glyph glyph-name="acircumflex" unicode="&#xe2;" horiz-adv-x="1099" 
d="M1069 139v-135q-50 -29 -125 -29q-147 0 -147 164q-137 -164 -373 -164q-156 0 -253 73t-97 224q0 69 21 122.5t52 86.5t82 57.5t95.5 36t107.5 23.5q38 8 91 16t86.5 12.5t71 14t58.5 22.5t35 36t14 55q0 55 -20.5 92t-57.5 54t-73.5 23.5t-83.5 6.5q-120 0 -189 -45.5
t-75 -155.5h-174q4 95 40.5 165.5t99 110.5t139 59t169.5 19q63 0 115 -6t106.5 -25t91.5 -49.5t61 -84t24 -125.5v-545q0 -31 0.5 -44.5t3 -32t8.5 -25t16.5 -12t26.5 -5.5q23 0 53 10zM786 369v178q-35 -26 -105.5 -40t-139.5 -21.5t-135 -24t-107 -60t-41 -116.5
q0 -80 58.5 -118t146.5 -38q82 0 146.5 23.5t101.5 60t56 77t19 79.5zM252 1206l211 293h190l213 -293h-172l-141 197l-143 -197h-158z" />
    <glyph glyph-name="atilde" unicode="&#xe3;" horiz-adv-x="1099" 
d="M1069 139v-135q-50 -29 -125 -29q-147 0 -147 164q-137 -164 -373 -164q-156 0 -253 73t-97 224q0 69 21 122.5t52 86.5t82 57.5t95.5 36t107.5 23.5q38 8 91 16t86.5 12.5t71 14t58.5 22.5t35 36t14 55q0 55 -20.5 92t-57.5 54t-73.5 23.5t-83.5 6.5q-120 0 -189 -45.5
t-75 -155.5h-174q4 95 40.5 165.5t99 110.5t139 59t169.5 19q63 0 115 -6t106.5 -25t91.5 -49.5t61 -84t24 -125.5v-545q0 -31 0.5 -44.5t3 -32t8.5 -25t16.5 -12t26.5 -5.5q23 0 53 10zM786 369v178q-35 -26 -105.5 -40t-139.5 -21.5t-135 -24t-107 -60t-41 -116.5
q0 -80 58.5 -118t146.5 -38q82 0 146.5 23.5t101.5 60t56 77t19 79.5zM805 1468h106q-12 -90 -65 -161q-54 -66 -141 -66q-67 0 -154 41l-28 10.5t-30 11t-25.5 8.5t-28 7t-23.5 2q-39 0 -64 -25q-19 -17 -37 -61h-106q49 225 217 225q57 0 150.5 -41t134.5 -41q68 0 94 90z
" />
    <glyph glyph-name="adieresis" unicode="&#xe4;" horiz-adv-x="1099" 
d="M657 1233v213h185v-213h-185zM272 1233v213h185v-213h-185zM1069 139v-135q-50 -29 -125 -29q-147 0 -147 164q-137 -164 -373 -164q-156 0 -253 73t-97 224q0 69 21 122.5t52 86.5t82 57.5t95.5 36t107.5 23.5q38 8 91 16t86.5 12.5t71 14t58.5 22.5t35 36t14 55
q0 55 -20.5 92t-57.5 54t-73.5 23.5t-83.5 6.5q-120 0 -189 -45.5t-75 -155.5h-174q4 95 40.5 165.5t99 110.5t139 59t169.5 19q63 0 115 -6t106.5 -25t91.5 -49.5t61 -84t24 -125.5v-545q0 -31 0.5 -44.5t3 -32t8.5 -25t16.5 -12t26.5 -5.5q23 0 53 10zM786 369v178
q-35 -26 -105.5 -40t-139.5 -21.5t-135 -24t-107 -60t-41 -116.5q0 -80 58.5 -118t146.5 -38q82 0 146.5 23.5t101.5 60t56 77t19 79.5z" />
    <glyph glyph-name="aring" unicode="&#xe5;" horiz-adv-x="1099" 
d="M1069 139v-135q-50 -29 -125 -29q-147 0 -147 164q-137 -164 -373 -164q-156 0 -253 73t-97 224q0 69 21 122.5t52 86.5t82 57.5t95.5 36t107.5 23.5q38 8 91 16t86.5 12.5t71 14t58.5 22.5t35 36t14 55q0 55 -20.5 92t-57.5 54t-73.5 23.5t-83.5 6.5q-120 0 -189 -45.5
t-75 -155.5h-174q4 95 40.5 165.5t99 110.5t139 59t169.5 19q63 0 115 -6t106.5 -25t91.5 -49.5t61 -84t24 -125.5v-545q0 -31 0.5 -44.5t3 -32t8.5 -25t16.5 -12t26.5 -5.5q23 0 53 10zM786 369v178q-35 -26 -105.5 -40t-139.5 -21.5t-135 -24t-107 -60t-41 -116.5
q0 -80 58.5 -118t146.5 -38q82 0 146.5 23.5t101.5 60t56 77t19 79.5zM326 1382q0 95 68.5 162.5t162.5 67.5t162.5 -67.5t68.5 -162.5t-68.5 -162t-162.5 -67t-162.5 67t-68.5 162zM420 1380q0 -60 38.5 -99.5t98.5 -39.5t98.5 39.5t38.5 99.5t-38.5 100t-98.5 40
t-98.5 -40t-38.5 -100z" />
    <glyph glyph-name="ae" unicode="&#xe6;" horiz-adv-x="1781" 
d="M1733 477h-777q0 -150 82 -249t236 -99q102 0 173 52t95 153h178q-38 -172 -158 -265.5t-300 -93.5q-289 0 -383 207q-58 -105 -175 -156t-272 -51q-163 0 -260.5 72.5t-97.5 224.5q0 69 21 122.5t52 86.5t82 57.5t95.5 36t107.5 23.5q41 8 99.5 18t85.5 15t63.5 13.5
t52 17.5t32.5 23.5t22.5 34t5.5 46.5q0 51 -20.5 85.5t-57.5 50.5t-75 22t-87 6q-120 0 -189 -45.5t-75 -155.5h-174q4 95 40.5 165.5t99 110.5t139 59t169.5 19q279 0 355 -153q51 77 142 115t195 38q478 0 478 -606zM956 631h592q-5 130 -82 214.5t-211 84.5
q-137 0 -218 -83.5t-81 -215.5zM258 285q0 -80 58.5 -118t146.5 -38q82 0 147.5 23.5t104 60t58.5 77t20 79.5v178q-32 -20 -84 -32t-128 -22.5t-110 -17.5q-49 -10 -82.5 -21.5t-66 -32.5t-48.5 -55t-16 -81z" />
    <glyph glyph-name="ccedilla" unicode="&#xe7;" horiz-adv-x="1099" 
d="M334 -391l37 90q71 -27 133 -27q48 0 83.5 16t35.5 48q0 29 -27.5 46t-69.5 17q-34 0 -84 -16l-34 57l108 140q-213 17 -327.5 161t-114.5 375q0 162 53.5 288t168 202.5t277.5 76.5q124 0 220 -37.5t160 -121t77 -205.5h-180q-21 101 -88 156t-174 55q-73 0 -130.5 -23
t-94.5 -61t-61 -92.5t-34 -112.5t-10 -125q0 -77 17.5 -144t53.5 -122.5t97 -88t141 -32.5q126 0 199.5 67.5t91.5 190.5h178q-28 -189 -139 -294.5t-297 -112.5l-68 -89l5 -4q30 15 67 15q71 0 121.5 -39.5t50.5 -110.5q0 -49 -23 -86t-61.5 -57t-81 -29.5t-88.5 -9.5
q-93 0 -188 39z" />
    <glyph glyph-name="egrave" unicode="&#xe8;" horiz-adv-x="1099" 
d="M862 336h172q-35 -176 -152.5 -268.5t-299.5 -92.5q-164 0 -278.5 73t-169.5 196t-60 288q0 239 140 395t357 156q91 0 166.5 -27t127.5 -73.5t90.5 -106t59.5 -129t30 -136.5t6 -134h-793q-3 -95 30.5 -172t111 -126.5t188.5 -49.5q110 0 180.5 52t93.5 155zM258 631
h608q-8 127 -92.5 213t-212.5 86q-131 0 -213 -85.5t-90 -213.5zM537 1206l-269 293h224l176 -293h-131z" />
    <glyph glyph-name="eacute" unicode="&#xe9;" horiz-adv-x="1099" 
d="M862 336h172q-35 -176 -152.5 -268.5t-299.5 -92.5q-164 0 -278.5 73t-169.5 196t-60 288q0 239 140 395t357 156q91 0 166.5 -27t127.5 -73.5t90.5 -106t59.5 -129t30 -136.5t6 -134h-793q-3 -95 30.5 -172t111 -126.5t188.5 -49.5q110 0 180.5 52t93.5 155zM258 631
h608q-8 127 -92.5 213t-212.5 86q-131 0 -213 -85.5t-90 -213.5zM473 1206l176 293h223l-268 -293h-131z" />
    <glyph glyph-name="ecircumflex" unicode="&#xea;" horiz-adv-x="1099" 
d="M862 336h172q-35 -176 -152.5 -268.5t-299.5 -92.5q-164 0 -278.5 73t-169.5 196t-60 288q0 239 140 395t357 156q91 0 166.5 -27t127.5 -73.5t90.5 -106t59.5 -129t30 -136.5t6 -134h-793q-3 -95 30.5 -172t111 -126.5t188.5 -49.5q110 0 180.5 52t93.5 155zM258 631
h608q-8 127 -92.5 213t-212.5 86q-131 0 -213 -85.5t-90 -213.5zM270 1206l211 293h191l213 -293h-172l-142 197l-143 -197h-158z" />
    <glyph glyph-name="edieresis" unicode="&#xeb;" horiz-adv-x="1099" 
d="M862 336h172q-35 -176 -152.5 -268.5t-299.5 -92.5q-164 0 -278.5 73t-169.5 196t-60 288q0 239 140 395t357 156q91 0 166.5 -27t127.5 -73.5t90.5 -106t59.5 -129t30 -136.5t6 -134h-793q-3 -95 30.5 -172t111 -126.5t188.5 -49.5q110 0 180.5 52t93.5 155zM258 631
h608q-8 127 -92.5 213t-212.5 86q-131 0 -213 -85.5t-90 -213.5zM676 1233v213h184v-213h-184zM291 1233v213h184v-213h-184z" />
    <glyph glyph-name="igrave" unicode="&#xec;" horiz-adv-x="454" 
d="M315 0h-174v1059h174v-1059zM190 1206l-268 293h223l177 -293h-132z" />
    <glyph glyph-name="iacute" unicode="&#xed;" horiz-adv-x="454" 
d="M315 0h-174v1059h174v-1059zM127 1206l176 293h223l-268 -293h-131z" />
    <glyph glyph-name="icircumflex" unicode="&#xee;" horiz-adv-x="454" 
d="M315 0h-174v1059h174v-1059zM-76 1206l211 293h191l213 -293h-172l-142 197l-143 -197h-158z" />
    <glyph glyph-name="idieresis" unicode="&#xef;" horiz-adv-x="454" 
d="M330 1233v213h184v-213h-184zM-55 1233v213h184v-213h-184zM315 0h-174v1059h174v-1059z" />
    <glyph glyph-name="eth" unicode="&#xf0;" horiz-adv-x="1175" 
d="M557 1036q185 0 285 -114h4q-46 97 -120 185t-130 124l-236 -111l-77 82l223 105q-41 37 -144 98l144 92q95 -66 158 -115l245 115l72 -76l-236 -108q357 -295 357 -785q0 -157 -57.5 -280.5t-175.5 -198t-281 -74.5t-281 74.5t-175.5 198t-57.5 280.5q0 101 32.5 192
t92 161.5t152.5 112.5t206 42zM578 883q-155 0 -237.5 -96t-82.5 -259q0 -186 94 -292.5t236 -106.5t236 106.5t94 292.5q0 73 -20 135.5t-59.5 112.5t-106.5 78.5t-154 28.5z" />
    <glyph glyph-name="ntilde" unicode="&#xf1;" 
d="M131 0v1059h164v-168h4q108 192 344 192q102 0 174.5 -28t113.5 -81t59 -121t18 -157v-696h-174v717q0 98 -58 155.5t-158 57.5q-153 0 -233 -91.5t-80 -240.5v-598h-174zM823 1468h107q-12 -88 -66 -161q-54 -66 -141 -66q-67 0 -154 41l-28 10.5t-30 11t-25.5 8.5
t-28 7t-23.5 2q-38 0 -63 -25q-19 -17 -37 -61h-107q49 225 217 225q57 0 150.5 -41t134.5 -41q68 0 94 90z" />
    <glyph glyph-name="ograve" unicode="&#xf2;" horiz-adv-x="1175" 
d="M74 528q0 158 57.5 282t175.5 198.5t281 74.5t281 -74.5t175.5 -198.5t57.5 -282q0 -157 -57.5 -280.5t-175.5 -198t-281 -74.5t-281 74.5t-175.5 198t-57.5 280.5zM258 528q0 -186 94 -292.5t236 -106.5t236 106.5t94 292.5t-94 294t-236 108t-236 -108t-94 -294z
M547 1206l-268 293h223l176 -293h-131z" />
    <glyph glyph-name="oacute" unicode="&#xf3;" horiz-adv-x="1175" 
d="M74 528q0 158 57.5 282t175.5 198.5t281 74.5t281 -74.5t175.5 -198.5t57.5 -282q0 -157 -57.5 -280.5t-175.5 -198t-281 -74.5t-281 74.5t-175.5 198t-57.5 280.5zM258 528q0 -186 94 -292.5t236 -106.5t236 106.5t94 292.5t-94 294t-236 108t-236 -108t-94 -294z
M492 1206l176 293h223l-268 -293h-131z" />
    <glyph glyph-name="ocircumflex" unicode="&#xf4;" horiz-adv-x="1175" 
d="M74 528q0 158 57.5 282t175.5 198.5t281 74.5t281 -74.5t175.5 -198.5t57.5 -282q0 -157 -57.5 -280.5t-175.5 -198t-281 -74.5t-281 74.5t-175.5 198t-57.5 280.5zM258 528q0 -186 94 -292.5t236 -106.5t236 106.5t94 292.5t-94 294t-236 108t-236 -108t-94 -294z
M285 1206l211 293h190l213 -293h-172l-141 197l-144 -197h-157z" />
    <glyph glyph-name="otilde" unicode="&#xf5;" horiz-adv-x="1175" 
d="M74 528q0 158 57.5 282t175.5 198.5t281 74.5t281 -74.5t175.5 -198.5t57.5 -282q0 -157 -57.5 -280.5t-175.5 -198t-281 -74.5t-281 74.5t-175.5 198t-57.5 280.5zM258 528q0 -186 94 -292.5t236 -106.5t236 106.5t94 292.5t-94 294t-236 108t-236 -108t-94 -294z
M838 1468h106q-12 -90 -65 -161q-54 -66 -142 -66q-66 0 -153 41l-28 10.5t-30 11t-25.5 8.5t-28 7t-23.5 2q-39 0 -64 -25q-19 -17 -37 -61h-106q49 225 217 225q57 0 150 -41t134 -41q69 0 95 90z" />
    <glyph glyph-name="odieresis" unicode="&#xf6;" horiz-adv-x="1175" 
d="M74 528q0 158 57.5 282t175.5 198.5t281 74.5t281 -74.5t175.5 -198.5t57.5 -282q0 -157 -57.5 -280.5t-175.5 -198t-281 -74.5t-281 74.5t-175.5 198t-57.5 280.5zM258 528q0 -186 94 -292.5t236 -106.5t236 106.5t94 292.5t-94 294t-236 108t-236 -108t-94 -294z
M690 1233v213h184v-213h-184zM305 1233v213h184v-213h-184z" />
    <glyph glyph-name="divide" unicode="&#xf7;" horiz-adv-x="1228" 
d="M483 940q0 54 38.5 92.5t92.5 38.5t92.5 -38.5t38.5 -92.5q0 -50 -39.5 -90.5t-89.5 -40.5q-54 0 -93.5 38.5t-39.5 92.5zM98 449v139h1032v-139h-1032zM483 96q0 54 38.5 92.5t92.5 38.5t92.5 -38.5t38.5 -92.5q0 -50 -39.5 -90.5t-89.5 -40.5q-54 0 -93.5 38.5
t-39.5 92.5z" />
    <glyph glyph-name="oslash" unicode="&#xf8;" horiz-adv-x="1175" 
d="M1106 1042l-123 -135q119 -143 119 -379q0 -157 -57.5 -280.5t-175.5 -198t-281 -74.5q-205 0 -338 117l-123 -137l-57 49l127 141q-123 150 -123 383q0 158 57.5 282t175.5 198.5t281 74.5q212 0 344 -120l119 133zM319 281l496 553q-90 96 -227 96q-142 0 -236 -108
t-94 -294q0 -141 61 -247zM860 772l-495 -551q92 -92 223 -92q142 0 236 106.5t94 292.5q0 140 -58 244z" />
    <glyph glyph-name="ugrave" unicode="&#xf9;" 
d="M1008 1059v-1059h-164v168h-4q-109 -193 -344 -193q-102 0 -174.5 28t-113.5 81t-59 121t-18 157v697h174v-717q0 -98 57.5 -155.5t157.5 -57.5q153 0 233.5 91.5t80.5 240.5v598h174zM530 1206l-268 293h223l177 -293h-132z" />
    <glyph glyph-name="uacute" unicode="&#xfa;" 
d="M1008 1059v-1059h-164v168h-4q-109 -193 -344 -193q-102 0 -174.5 28t-113.5 81t-59 121t-18 157v697h174v-717q0 -98 57.5 -155.5t157.5 -57.5q153 0 233.5 91.5t80.5 240.5v598h174zM467 1206l176 293h223l-268 -293h-131z" />
    <glyph glyph-name="ucircumflex" unicode="&#xfb;" 
d="M1008 1059v-1059h-164v168h-4q-109 -193 -344 -193q-102 0 -174.5 28t-113.5 81t-59 121t-18 157v697h174v-717q0 -98 57.5 -155.5t157.5 -57.5q153 0 233.5 91.5t80.5 240.5v598h174zM264 1206l211 293h191l213 -293h-172l-142 197l-143 -197h-158z" />
    <glyph glyph-name="udieresis" unicode="&#xfc;" 
d="M1008 1059v-1059h-164v168h-4q-109 -193 -344 -193q-102 0 -174.5 28t-113.5 81t-59 121t-18 157v697h174v-717q0 -98 57.5 -155.5t157.5 -57.5q153 0 233.5 91.5t80.5 240.5v598h174zM670 1233v213h184v-213h-184zM285 1233v213h184v-213h-184z" />
    <glyph glyph-name="yacute" unicode="&#xfd;" horiz-adv-x="1024" 
d="M1008 1059l-461 -1200q-63 -159 -128 -221t-179 -62q-71 0 -121 18v160l24 -8t27 -8.5t24 -5t27 -2.5q52 0 85 23.5t59 72.5l71 180l-420 1053h197l309 -866h4l297 866h185zM420 1206l176 293h223l-268 -293h-131z" />
    <glyph glyph-name="thorn" unicode="&#xfe;" horiz-adv-x="1214" 
d="M311 1462v-547h4q41 84 131.5 126t206.5 42q95 0 175.5 -29t137.5 -80.5t97 -122t59 -152.5t19 -173q0 -115 -30.5 -213.5t-89.5 -174.5t-152.5 -119.5t-211.5 -43.5q-95 0 -192.5 40.5t-149.5 125.5h-4v-547h-174v1868h174zM956 539q0 77 -20 145.5t-58.5 124t-103 88.5
t-145.5 33q-85 0 -149.5 -34t-101.5 -92.5t-55 -127.5t-18 -146q0 -81 19 -150.5t57.5 -127t104.5 -90.5t153 -33q69 0 124 23t90.5 61.5t59 92t33.5 111t10 122.5z" />
    <glyph glyph-name="ydieresis" unicode="&#xff;" horiz-adv-x="1024" 
d="M1008 1059l-461 -1200q-63 -159 -128 -221t-179 -62q-71 0 -121 18v160l24 -8t27 -8.5t24 -5t27 -2.5q52 0 85 23.5t59 72.5l71 180l-420 1053h197l309 -866h4l297 866h185zM623 1233v213h184v-213h-184zM238 1233v213h184v-213h-184z" />
    <glyph glyph-name="Amacron" unicode="&#x100;" horiz-adv-x="1327" 
d="M-14 0l571 1462h215l571 -1462h-215l-159 440h-619l-164 -440h-200zM412 604h495l-243 682h-5zM317 1673v113h699v-113h-699z" />
    <glyph glyph-name="amacron" unicode="&#x101;" horiz-adv-x="1099" 
d="M1069 139v-135q-50 -29 -125 -29q-147 0 -147 164q-137 -164 -373 -164q-156 0 -253 73t-97 224q0 69 21 122.5t52 86.5t82 57.5t95.5 36t107.5 23.5q38 8 91 16t86.5 12.5t71 14t58.5 22.5t35 36t14 55q0 55 -20.5 92t-57.5 54t-73.5 23.5t-83.5 6.5q-120 0 -189 -45.5
t-75 -155.5h-174q4 95 40.5 165.5t99 110.5t139 59t169.5 19q63 0 115 -6t106.5 -25t91.5 -49.5t61 -84t24 -125.5v-545q0 -31 0.5 -44.5t3 -32t8.5 -25t16.5 -12t26.5 -5.5q23 0 53 10zM786 369v178q-35 -26 -105.5 -40t-139.5 -21.5t-135 -24t-107 -60t-41 -116.5
q0 -80 58.5 -118t146.5 -38q82 0 146.5 23.5t101.5 60t56 77t19 79.5zM209 1284v113h698v-113h-698z" />
    <glyph glyph-name="Abreve" unicode="&#x102;" horiz-adv-x="1327" 
d="M-14 0l571 1462h215l571 -1462h-215l-159 440h-619l-164 -440h-200zM412 604h495l-243 682h-5zM346 1882h103q50 -170 229 -170q82 0 125.5 41.5t77.5 128.5h104q-24 -133 -107 -208t-216 -75q-274 0 -316 283z" />
    <glyph glyph-name="abreve" unicode="&#x103;" horiz-adv-x="1099" 
d="M1069 139v-135q-50 -29 -125 -29q-147 0 -147 164q-137 -164 -373 -164q-156 0 -253 73t-97 224q0 69 21 122.5t52 86.5t82 57.5t95.5 36t107.5 23.5q38 8 91 16t86.5 12.5t71 14t58.5 22.5t35 36t14 55q0 55 -20.5 92t-57.5 54t-73.5 23.5t-83.5 6.5q-120 0 -189 -45.5
t-75 -155.5h-174q4 95 40.5 165.5t99 110.5t139 59t169.5 19q63 0 115 -6t106.5 -25t91.5 -49.5t61 -84t24 -125.5v-545q0 -31 0.5 -44.5t3 -32t8.5 -25t16.5 -12t26.5 -5.5q23 0 53 10zM786 369v178q-35 -26 -105.5 -40t-139.5 -21.5t-135 -24t-107 -60t-41 -116.5
q0 -80 58.5 -118t146.5 -38q82 0 146.5 23.5t101.5 60t56 77t19 79.5zM238 1493h102q50 -170 229 -170q82 0 125.5 41.5t77.5 128.5h105q-24 -133 -107.5 -208t-216.5 -75q-273 0 -315 283z" />
    <glyph glyph-name="Aogonek" unicode="&#x104;" horiz-adv-x="1327" 
d="M1128 0l-159 440h-619l-164 -440h-200l571 1462h215l571 -1462h-133q-99 -83 -135.5 -138t-36.5 -104q0 -39 22 -62.5t62 -23.5q72 0 121 62l66 -37q-73 -127 -222 -127q-83 0 -135.5 39t-52.5 117q0 142 229 274zM659 1286l-247 -682h495l-243 682h-5z" />
    <glyph glyph-name="aogonek" unicode="&#x105;" horiz-adv-x="1099" 
d="M1069 139v-135q-50 -29 -125 -29h-18q-82 -71 -113 -121t-31 -96q0 -39 22 -62.5t62 -23.5q72 0 121 62l66 -37q-73 -127 -222 -127q-83 0 -135.5 39t-52.5 117q0 140 219 268q-65 35 -65 145q-137 -164 -373 -164q-156 0 -253 73t-97 224q0 69 21 122.5t52 86t82.5 57
t95 36t107.5 24.5q34 7 79 13.5t75.5 10.5t65 11t57 16t42 22.5t28.5 34t9 48.5q0 55 -20.5 92t-57.5 54t-73.5 23.5t-83.5 6.5q-120 0 -189 -45.5t-75 -155.5h-174q4 95 40.5 165.5t99 110.5t139 59t169.5 19q63 0 115 -6t106.5 -25t91.5 -49.5t61 -84t24 -125.5v-545
q0 -31 0.5 -44.5t3 -32t8.5 -25t16.5 -12t26.5 -5.5q23 0 53 10zM786 369v178q-35 -26 -105.5 -40t-139.5 -21.5t-135 -24t-107 -60t-41 -116.5q0 -80 58.5 -118t146.5 -38q82 0 146.5 23.5t101.5 60t56 77t19 79.5z" />
    <glyph glyph-name="Cacute" unicode="&#x106;" horiz-adv-x="1478" 
d="M88 727q0 128 28.5 243.5t86 211.5t139 166.5t194 109.5t244.5 39q155 0 282 -53t213 -162t107 -260h-194q-31 151 -141.5 231t-268.5 80q-101 0 -184.5 -32.5t-140.5 -88t-96 -131.5t-56.5 -161t-17.5 -179q0 -102 18 -192t56.5 -167.5t96 -133.5t141 -87.5t185.5 -31.5
q186 0 298 117.5t124 304.5h195q-30 -278 -193.5 -432t-439.5 -154q-166 0 -296 59t-212.5 163t-125 241t-42.5 299zM680 1595l176 293h223l-268 -293h-131z" />
    <glyph glyph-name="cacute" unicode="&#x107;" horiz-adv-x="1099" 
d="M1030 719h-180q-21 101 -88 156t-174 55q-73 0 -130.5 -23t-94.5 -61t-61 -92.5t-34 -112.5t-10 -125q0 -77 17.5 -144t53.5 -122.5t97 -88t141 -32.5q126 0 199.5 67.5t91.5 190.5h178q-30 -197 -149 -304.5t-318 -107.5q-237 0 -366 148t-129 393q0 162 53.5 288
t168 202.5t277.5 76.5q124 0 220 -37.5t160 -121t77 -205.5zM479 1206l176 293h224l-269 -293h-131z" />
    <glyph glyph-name="Ccircumflex" unicode="&#x108;" horiz-adv-x="1478" 
d="M88 727q0 128 28.5 243.5t86 211.5t139 166.5t194 109.5t244.5 39q155 0 282 -53t213 -162t107 -260h-194q-31 151 -141.5 231t-268.5 80q-101 0 -184.5 -32.5t-140.5 -88t-96 -131.5t-56.5 -161t-17.5 -179q0 -102 18 -192t56.5 -167.5t96 -133.5t141 -87.5t185.5 -31.5
q186 0 298 117.5t124 304.5h195q-30 -278 -193.5 -432t-439.5 -154q-166 0 -296 59t-212.5 163t-125 241t-42.5 299zM473 1595l211 293h190l213 -293h-172l-141 197l-143 -197h-158z" />
    <glyph glyph-name="ccircumflex" unicode="&#x109;" horiz-adv-x="1099" 
d="M1030 719h-180q-21 101 -88 156t-174 55q-73 0 -130.5 -23t-94.5 -61t-61 -92.5t-34 -112.5t-10 -125q0 -77 17.5 -144t53.5 -122.5t97 -88t141 -32.5q126 0 199.5 67.5t91.5 190.5h178q-30 -197 -149 -304.5t-318 -107.5q-237 0 -366 148t-129 393q0 162 53.5 288
t168 202.5t277.5 76.5q124 0 220 -37.5t160 -121t77 -205.5zM276 1206l211 293h191l213 -293h-172l-141 197l-144 -197h-158z" />
    <glyph glyph-name="Cdotaccent" unicode="&#x10a;" horiz-adv-x="1478" 
d="M88 727q0 128 28.5 243.5t86 211.5t139 166.5t194 109.5t244.5 39q155 0 282 -53t213 -162t107 -260h-194q-31 151 -141.5 231t-268.5 80q-101 0 -184.5 -32.5t-140.5 -88t-96 -131.5t-56.5 -161t-17.5 -179q0 -102 18 -192t56.5 -167.5t96 -133.5t141 -87.5t185.5 -31.5
q186 0 298 117.5t124 304.5h195q-30 -278 -193.5 -432t-439.5 -154q-166 0 -296 59t-212.5 163t-125 241t-42.5 299zM870 1837v-213h-184v213h184z" />
    <glyph glyph-name="cdotaccent" unicode="&#x10b;" horiz-adv-x="1099" 
d="M1030 719h-180q-21 101 -88 156t-174 55q-73 0 -130.5 -23t-94.5 -61t-61 -92.5t-34 -112.5t-10 -125q0 -77 17.5 -144t53.5 -122.5t97 -88t141 -32.5q126 0 199.5 67.5t91.5 190.5h178q-30 -197 -149 -304.5t-318 -107.5q-237 0 -366 148t-129 393q0 162 53.5 288
t168 202.5t277.5 76.5q124 0 220 -37.5t160 -121t77 -205.5zM674 1450v-213h-185v213h185z" />
    <glyph glyph-name="Ccaron" unicode="&#x10c;" horiz-adv-x="1478" 
d="M88 727q0 128 28.5 243.5t86 211.5t139 166.5t194 109.5t244.5 39q155 0 282 -53t213 -162t107 -260h-194q-31 151 -141.5 231t-268.5 80q-101 0 -184.5 -32.5t-140.5 -88t-96 -131.5t-56.5 -161t-17.5 -179q0 -102 18 -192t56.5 -167.5t96 -133.5t141 -87.5t185.5 -31.5
q186 0 298 117.5t124 304.5h195q-30 -278 -193.5 -432t-439.5 -154q-166 0 -296 59t-212.5 163t-125 241t-42.5 299zM1085 1888l-211 -293h-190l-213 293h172l141 -196l144 196h157z" />
    <glyph glyph-name="ccaron" unicode="&#x10d;" horiz-adv-x="1099" 
d="M1030 719h-180q-21 101 -88 156t-174 55q-73 0 -130.5 -23t-94.5 -61t-61 -92.5t-34 -112.5t-10 -125q0 -77 17.5 -144t53.5 -122.5t97 -88t141 -32.5q126 0 199.5 67.5t91.5 190.5h178q-30 -197 -149 -304.5t-318 -107.5q-237 0 -366 148t-129 393q0 162 53.5 288
t168 202.5t277.5 76.5q124 0 220 -37.5t160 -121t77 -205.5zM881 1499l-211 -293h-191l-213 293h172l142 -196l143 196h158z" />
    <glyph glyph-name="Dcaron" unicode="&#x10e;" horiz-adv-x="1441" 
d="M160 0v1462h502q342 0 522 -174t180 -522q0 -766 -702 -766h-502zM354 164h324q36 0 69.5 3t85 17t95 36.5t89.5 66t78.5 102.5t53 149t20.5 201q0 273 -114 416t-373 143h-328v-1134zM952 1888l-211 -293h-190l-213 293h172l141 -196l144 196h157z" />
    <glyph glyph-name="dcaron" unicode="&#x10f;" horiz-adv-x="1214" 
d="M1077 1462v-1462h-174v143h-4q-41 -84 -131.5 -126t-206.5 -42q-119 0 -213 44.5t-153 122t-90 177t-31 213.5t30.5 212.5t89 174.5t152 120t211.5 44q95 0 192.5 -40t149.5 -125h4v544h174zM258 520q0 -77 20 -145.5t59 -124t103.5 -88.5t145.5 -33q69 0 124 22.5
t91.5 61t61.5 90.5t35.5 108t10.5 117q0 64 -11.5 121.5t-37 109.5t-64 89.5t-95 59.5t-126.5 22q-69 0 -124 -23t-90.5 -61.5t-59 -92t-33.5 -111t-10 -122.5zM1180 1169l53 293h223l-153 -293h-123z" />
    <glyph glyph-name="Dcroat" unicode="&#x110;" horiz-adv-x="1441" 
d="M160 0v698h-144v131h144v633h502q342 0 522 -174t180 -522q0 -766 -702 -766h-502zM354 1298v-469h439v-131h-439v-534h324q36 0 69.5 3t85 17t95 36.5t89.5 66t78.5 102.5t53 149t20.5 201q0 273 -114 416t-373 143h-328z" />
    <glyph glyph-name="dcroat" unicode="&#x111;" horiz-adv-x="1224" 
d="M555 1194v109h348v159h174v-159h176v-109h-176v-1194h-174v143h-4q-41 -84 -131.5 -126t-206.5 -42q-119 0 -213 44.5t-153 122t-90 177t-31 213.5t30.5 212.5t89 174.5t152 120t211.5 44q95 0 192.5 -40t149.5 -125h4v276h-348zM258 520q0 -77 20 -145.5t59 -124
t103.5 -88.5t145.5 -33q69 0 124 22.5t91.5 61t61.5 90.5t35.5 108t10.5 117q0 64 -11.5 121.5t-37 109.5t-64 89.5t-95 59.5t-126.5 22q-69 0 -124 -23t-90.5 -61.5t-59 -92t-33.5 -111t-10 -122.5z" />
    <glyph glyph-name="Emacron" unicode="&#x112;" horiz-adv-x="1251" 
d="M160 0v1462h1009v-164h-815v-464h760v-164h-760v-506h822v-164h-1016zM305 1673v113h699v-113h-699z" />
    <glyph glyph-name="emacron" unicode="&#x113;" horiz-adv-x="1099" 
d="M862 336h172q-35 -176 -152.5 -268.5t-299.5 -92.5q-164 0 -278.5 73t-169.5 196t-60 288q0 239 140 395t357 156q91 0 166.5 -27t127.5 -73.5t90.5 -106t59.5 -129t30 -136.5t6 -134h-793q-3 -95 30.5 -172t111 -126.5t188.5 -49.5q110 0 180.5 52t93.5 155zM258 631
h608q-8 127 -92.5 213t-212.5 86q-131 0 -213 -85.5t-90 -213.5zM227 1284v113h699v-113h-699z" />
    <glyph glyph-name="Ebreve" unicode="&#x114;" horiz-adv-x="1251" 
d="M160 0v1462h1009v-164h-815v-464h760v-164h-760v-506h822v-164h-1016zM334 1882h102q50 -170 230 -170q82 0 124.5 41t77.5 129h105q-24 -133 -107.5 -208t-216.5 -75q-273 0 -315 283z" />
    <glyph glyph-name="ebreve" unicode="&#x115;" horiz-adv-x="1099" 
d="M862 336h172q-35 -176 -152.5 -268.5t-299.5 -92.5q-164 0 -278.5 73t-169.5 196t-60 288q0 239 140 395t357 156q91 0 166.5 -27t127.5 -73.5t90.5 -106t59.5 -129t30 -136.5t6 -134h-793q-3 -95 30.5 -172t111 -126.5t188.5 -49.5q110 0 180.5 52t93.5 155zM258 631
h608q-8 127 -92.5 213t-212.5 86q-131 0 -213 -85.5t-90 -213.5zM256 1493h102q50 -170 230 -170q82 0 125.5 41.5t77.5 128.5h104q-24 -133 -107.5 -208t-216.5 -75q-273 0 -315 283z" />
    <glyph glyph-name="Edotaccent" unicode="&#x116;" horiz-adv-x="1251" 
d="M160 0v1462h1009v-164h-815v-464h760v-164h-760v-506h822v-164h-1016zM745 1837v-213h-184v213h184z" />
    <glyph glyph-name="edotaccent" unicode="&#x117;" horiz-adv-x="1099" 
d="M862 336h172q-35 -176 -152.5 -268.5t-299.5 -92.5q-164 0 -278.5 73t-169.5 196t-60 288q0 239 140 395t357 156q91 0 166.5 -27t127.5 -73.5t90.5 -106t59.5 -129t30 -136.5t6 -134h-793q-3 -95 30.5 -172t111 -126.5t188.5 -49.5q110 0 180.5 52t93.5 155zM258 631
h608q-8 127 -92.5 213t-212.5 86q-131 0 -213 -85.5t-90 -213.5zM668 1450v-213h-185v213h185z" />
    <glyph glyph-name="Eogonek" unicode="&#x118;" horiz-adv-x="1251" 
d="M160 0v1462h1009v-164h-815v-464h760v-164h-760v-506h822v-164h-99q-99 -83 -135.5 -138t-36.5 -104q0 -39 22 -62.5t62 -23.5q72 0 121 62l66 -37q-73 -127 -222 -127q-83 0 -135.5 39t-52.5 117q0 142 229 274h-835z" />
    <glyph glyph-name="eogonek" unicode="&#x119;" horiz-adv-x="1099" 
d="M862 336h172q-32 -160 -134 -251t-259 -105q-82 -72 -113.5 -123.5t-31.5 -98.5q0 -39 22 -62.5t62 -23.5q71 0 120 62l66 -37q-73 -127 -221 -127q-83 0 -136 39t-53 117q0 127 189 251q-226 12 -344.5 161.5t-126.5 393.5q0 239 140 395t357 156q91 0 166.5 -27
t127.5 -73.5t90.5 -106t59.5 -129t30 -136.5t6 -134h-793q-3 -95 30.5 -172t111 -126.5t188.5 -49.5q110 0 180.5 52t93.5 155zM258 631h608q-8 127 -92.5 213t-212.5 86q-131 0 -213 -85.5t-90 -213.5z" />
    <glyph glyph-name="Ecaron" unicode="&#x11a;" horiz-adv-x="1251" 
d="M160 0v1462h1009v-164h-815v-464h760v-164h-760v-506h822v-164h-1016zM961 1888l-211 -293h-191l-213 293h172l141 -196l144 196h158z" />
    <glyph glyph-name="ecaron" unicode="&#x11b;" horiz-adv-x="1099" 
d="M862 336h172q-35 -176 -152.5 -268.5t-299.5 -92.5q-164 0 -278.5 73t-169.5 196t-60 288q0 239 140 395t357 156q91 0 166.5 -27t127.5 -73.5t90.5 -106t59.5 -129t30 -136.5t6 -134h-793q-3 -95 30.5 -172t111 -126.5t188.5 -49.5q110 0 180.5 52t93.5 155zM258 631
h608q-8 127 -92.5 213t-212.5 86q-131 0 -213 -85.5t-90 -213.5zM879 1499l-211 -293h-191l-213 293h172l142 -196l143 196h158z" />
    <glyph glyph-name="Gcircumflex" unicode="&#x11c;" horiz-adv-x="1554" 
d="M88 702q0 129 27.5 246.5t84.5 217.5t138.5 173.5t196 115.5t249.5 42q122 0 225.5 -28t187.5 -85.5t140.5 -152t75.5 -219.5h-194q-28 160 -145.5 240.5t-289.5 80.5q-103 0 -187.5 -35t-142 -94t-97 -139t-57 -168t-17.5 -184q0 -92 20.5 -177.5t62.5 -159.5
t100.5 -129t140.5 -86.5t177 -31.5q222 0 349.5 135.5t119.5 341.5h-467v164h641v-770h-122l-52 182q-82 -109 -207.5 -163t-261.5 -54q-159 0 -292 61t-220 164t-135.5 235.5t-48.5 276.5zM485 1595l211 293h191l213 -293h-172l-142 197l-143 -197h-158z" />
    <glyph glyph-name="gcircumflex" unicode="&#x11d;" horiz-adv-x="1175" 
d="M1044 1059v-969q0 -261 -120.5 -390.5t-370.5 -129.5q-62 0 -121 10t-116 33.5t-100 58.5t-70.5 89t-30.5 120h174q3 -59 49 -99.5t104.5 -56.5t120.5 -16q163 0 240.5 107t77.5 295v69h-4q-43 -93 -133.5 -142.5t-196.5 -49.5q-115 0 -206.5 43t-149 117t-87.5 170
t-30 206q0 79 15 154.5t51.5 150t90.5 130t140 90t192 34.5q102 0 186 -45t130 -131h2v152h163zM557 141q82 0 145 35.5t99 95.5t53.5 130.5t17.5 148.5q0 73 -17 138t-51 120.5t-94 88t-139 32.5q-81 0 -142.5 -31t-98 -85.5t-54.5 -122t-18 -146.5q0 -76 15 -144
t48 -128.5t93.5 -96t142.5 -35.5zM281 1206l211 293h190l213 -293h-172l-141 197l-144 -197h-157z" />
    <glyph glyph-name="Gbreve" unicode="&#x11e;" horiz-adv-x="1554" 
d="M88 702q0 129 27.5 246.5t84.5 217.5t138.5 173.5t196 115.5t249.5 42q122 0 225.5 -28t187.5 -85.5t140.5 -152t75.5 -219.5h-194q-28 160 -145.5 240.5t-289.5 80.5q-103 0 -187.5 -35t-142 -94t-97 -139t-57 -168t-17.5 -184q0 -92 20.5 -177.5t62.5 -159.5
t100.5 -129t140.5 -86.5t177 -31.5q222 0 349.5 135.5t119.5 341.5h-467v164h641v-770h-122l-52 182q-82 -109 -207.5 -163t-261.5 -54q-159 0 -292 61t-220 164t-135.5 235.5t-48.5 276.5zM471 1882h102q50 -170 230 -170q82 0 125.5 41.5t77.5 128.5h104
q-24 -133 -107.5 -208t-216.5 -75q-273 0 -315 283z" />
    <glyph glyph-name="gbreve" unicode="&#x11f;" horiz-adv-x="1175" 
d="M1044 1059v-969q0 -261 -120.5 -390.5t-370.5 -129.5q-62 0 -121 10t-116 33.5t-100 58.5t-70.5 89t-30.5 120h174q3 -59 49 -99.5t104.5 -56.5t120.5 -16q163 0 240.5 107t77.5 295v69h-4q-43 -93 -133.5 -142.5t-196.5 -49.5q-115 0 -206.5 43t-149 117t-87.5 170
t-30 206q0 79 15 154.5t51.5 150t90.5 130t140 90t192 34.5q102 0 186 -45t130 -131h2v152h163zM557 141q82 0 145 35.5t99 95.5t53.5 130.5t17.5 148.5q0 73 -17 138t-51 120.5t-94 88t-139 32.5q-81 0 -142.5 -31t-98 -85.5t-54.5 -122t-18 -146.5q0 -76 15 -144
t48 -128.5t93.5 -96t142.5 -35.5zM266 1493h103q50 -170 229 -170q82 0 125.5 41.5t77.5 128.5h104q-24 -133 -107 -208t-216 -75q-274 0 -316 283z" />
    <glyph glyph-name="Gdotaccent" unicode="&#x120;" horiz-adv-x="1554" 
d="M88 702q0 129 27.5 246.5t84.5 217.5t138.5 173.5t196 115.5t249.5 42q122 0 225.5 -28t187.5 -85.5t140.5 -152t75.5 -219.5h-194q-28 160 -145.5 240.5t-289.5 80.5q-103 0 -187.5 -35t-142 -94t-97 -139t-57 -168t-17.5 -184q0 -92 20.5 -177.5t62.5 -159.5
t100.5 -129t140.5 -86.5t177 -31.5q222 0 349.5 135.5t119.5 341.5h-467v164h641v-770h-122l-52 182q-82 -109 -207.5 -163t-261.5 -54q-159 0 -292 61t-220 164t-135.5 235.5t-48.5 276.5zM881 1837v-213h-185v213h185z" />
    <glyph glyph-name="gdotaccent" unicode="&#x121;" horiz-adv-x="1175" 
d="M1044 1059v-969q0 -261 -120.5 -390.5t-370.5 -129.5q-62 0 -121 10t-116 33.5t-100 58.5t-70.5 89t-30.5 120h174q3 -59 49 -99.5t104.5 -56.5t120.5 -16q163 0 240.5 107t77.5 295v69h-4q-43 -93 -133.5 -142.5t-196.5 -49.5q-115 0 -206.5 43t-149 117t-87.5 170
t-30 206q0 79 15 154.5t51.5 150t90.5 130t140 90t192 34.5q102 0 186 -45t130 -131h2v152h163zM557 141q82 0 145 35.5t99 95.5t53.5 130.5t17.5 148.5q0 73 -17 138t-51 120.5t-94 88t-139 32.5q-81 0 -142.5 -31t-98 -85.5t-54.5 -122t-18 -146.5q0 -76 15 -144
t48 -128.5t93.5 -96t142.5 -35.5zM678 1450v-213h-184v213h184z" />
    <glyph glyph-name="Gcommaaccent" unicode="&#x122;" horiz-adv-x="1554" 
d="M88 702q0 129 27.5 246.5t84.5 217.5t138.5 173.5t196 115.5t249.5 42q122 0 225.5 -28t187.5 -85.5t140.5 -152t75.5 -219.5h-194q-28 160 -145.5 240.5t-289.5 80.5q-103 0 -187.5 -35t-142 -94t-97 -139t-57 -168t-17.5 -184q0 -92 20.5 -177.5t62.5 -159.5
t100.5 -129t140.5 -86.5t177 -31.5q222 0 349.5 135.5t119.5 341.5h-467v164h641v-770h-122l-52 182q-82 -109 -207.5 -163t-261.5 -54q-159 0 -292 61t-220 164t-135.5 235.5t-48.5 276.5zM657 -283v181h228v-158q0 -85 -54.5 -127.5t-148.5 -42.5v72q30 8 48 17t24.5 20.5
t8 18t1.5 19.5h-107z" />
    <glyph glyph-name="gcommaaccent" unicode="&#x123;" horiz-adv-x="1175" 
d="M1044 1059v-969q0 -261 -120.5 -390.5t-370.5 -129.5q-62 0 -121 10t-116 33.5t-100 58.5t-70.5 89t-30.5 120h174q3 -59 49 -99.5t104.5 -56.5t120.5 -16q163 0 240.5 107t77.5 295v69h-4q-43 -93 -133.5 -142.5t-196.5 -49.5q-115 0 -206.5 43t-149 117t-87.5 170
t-30 206q0 79 15 154.5t51.5 150t90.5 130t140 90t192 34.5q102 0 186 -45t130 -131h2v152h163zM557 141q82 0 145 35.5t99 95.5t53.5 130.5t17.5 148.5q0 73 -17 138t-51 120.5t-94 88t-139 32.5q-81 0 -142.5 -31t-98 -85.5t-54.5 -122t-18 -146.5q0 -76 15 -144
t48 -128.5t93.5 -96t142.5 -35.5zM698 1462v-180h-227v158q0 85 54.5 127.5t148.5 42.5v-72q-30 -8 -48 -17t-24.5 -21t-8 -18.5t-1.5 -19.5h106z" />
    <glyph glyph-name="Hcircumflex" unicode="&#x124;" horiz-adv-x="1478" 
d="M160 0v1462h194v-628h770v628h195v-1462h-195v670h-770v-670h-194zM428 1595l211 293h190l213 -293h-172l-141 197l-143 -197h-158z" />
    <glyph glyph-name="hcircumflex" unicode="&#x125;" 
d="M131 0v1462h174v-559h4q20 46 57.5 82t84 56.5t95 31t97.5 10.5q102 0 174.5 -28t113.5 -81t59 -121t18 -157v-696h-174v717q0 98 -58 155.5t-158 57.5q-153 0 -233 -91.5t-80 -240.5v-598h-174zM246 1595l211 293h190l213 -293h-172l-141 197l-144 -197h-157z" />
    <glyph glyph-name="Hbar" unicode="&#x126;" horiz-adv-x="1478" 
d="M160 0v1462h194v-295h770v295h195v-1462h-195v627h-770v-627h-194zM354 786h770v263h-770v-263z" />
    <glyph glyph-name="hbar" unicode="&#x127;" horiz-adv-x="1148" 
d="M141 1194h-176v109h176v159h174v-159h349v-109h-349v-291h4q20 46 57.5 82t84 56.5t95 31t97.5 10.5q102 0 174.5 -28t113.5 -81t59 -121t18 -157v-696h-174v717q0 98 -57.5 155.5t-157.5 57.5q-153 0 -233.5 -91.5t-80.5 -240.5v-598h-174v1194z" />
    <glyph glyph-name="Itilde" unicode="&#x128;" horiz-adv-x="530" 
d="M168 0v1462h194v-1462h-194zM516 1858h107q-12 -90 -66 -162q-54 -66 -141 -66q-67 0 -154 41l-28 10.5t-30 11t-25.5 8.5t-28 7t-23.5 2q-40 0 -64 -24q-17 -15 -36 -62h-107q49 225 217 225q57 0 150.5 -41t134.5 -41q68 0 94 91z" />
    <glyph glyph-name="itilde" unicode="&#x129;" horiz-adv-x="454" 
d="M315 0h-174v1059h174v-1059zM477 1468h107q-12 -88 -66 -161q-54 -66 -141 -66q-67 0 -154 41l-28 10.5t-30 11t-25.5 8.5t-28 7t-23.5 2q-38 0 -63 -25q-19 -17 -37 -61h-107q49 225 217 225q57 0 150.5 -41t134.5 -41q68 0 94 90z" />
    <glyph glyph-name="Imacron" unicode="&#x12a;" horiz-adv-x="530" 
d="M168 0v1462h194v-1462h-194zM-82 1673v113h698v-113h-698z" />
    <glyph glyph-name="imacron" unicode="&#x12b;" horiz-adv-x="454" 
d="M315 0h-174v1059h174v-1059zM-119 1284v113h699v-113h-699z" />
    <glyph glyph-name="Ibreve" unicode="&#x12c;" horiz-adv-x="530" 
d="M168 0v1462h194v-1462h-194zM-53 1882h102q50 -170 230 -170q82 0 124.5 41t77.5 129h105q-24 -133 -107.5 -208t-216.5 -75q-273 0 -315 283z" />
    <glyph glyph-name="ibreve" unicode="&#x12d;" horiz-adv-x="454" 
d="M315 0h-174v1059h174v-1059zM-90 1493h102q50 -170 230 -170q82 0 124.5 41t77.5 129h105q-24 -133 -107.5 -208t-216.5 -75q-273 0 -315 283z" />
    <glyph glyph-name="Iogonek" unicode="&#x12e;" horiz-adv-x="530" 
d="M168 0v1462h194v-1462q-88 -86 -120.5 -139t-32.5 -103q0 -39 19 -62.5t51 -23.5q65 0 114 62l58 -37q-70 -127 -187 -127q-80 0 -131 39.5t-51 120.5q0 138 207 270h-121z" />
    <glyph glyph-name="iogonek" unicode="&#x12f;" horiz-adv-x="454" 
d="M315 1462v-213h-174v213h174zM242 0h-101v1059h174v-1059q-88 -86 -120.5 -139t-32.5 -103q0 -39 18.5 -62.5t50.5 -23.5q66 0 115 62l57 -37q-70 -127 -186 -127q-80 0 -131 39.5t-51 120.5q0 138 207 270z" />
    <glyph glyph-name="Idotaccent" unicode="&#x130;" horiz-adv-x="530" 
d="M168 0v1462h194v-1462h-194zM358 1837v-213h-184v213h184z" />
    <glyph glyph-name="dotlessi" unicode="&#x131;" horiz-adv-x="454" 
d="M315 0h-174v1059h174v-1059z" />
    <glyph glyph-name="Jcircumflex" unicode="&#x134;" horiz-adv-x="1062" 
d="M45 391v90h195v-61q0 -141 51 -216t184 -75q127 0 180.5 67.5t53.5 196.5v1069h194v-1097q0 -62 -13 -117.5t-45 -108t-80 -90.5t-123.5 -61t-170.5 -23q-205 0 -315.5 110t-110.5 316zM494 1595l211 293h190l213 -293h-172l-141 197l-144 -197h-157z" />
    <glyph glyph-name="jcircumflex" unicode="&#x135;" horiz-adv-x="454" 
d="M315 1059v-1194q0 -137 -66.5 -204t-187.5 -67q-43 0 -90 9v149q24 -4 35 -4h37q56 0 77 31.5t21 114.5v1165h174zM-80 1206l211 293h191l213 -293h-173l-141 197l-143 -197h-158z" />
    <glyph glyph-name="Kcommaaccent" unicode="&#x136;" horiz-adv-x="1366" 
d="M160 0v1462h194v-729l742 729h252l-617 -590l641 -872h-246l-528 739l-244 -227v-512h-194zM594 -283v181h227v-158q0 -85 -54.5 -127.5t-148.5 -42.5v72q30 8 48 17t24.5 20.5t8 18t1.5 19.5h-106z" />
    <glyph glyph-name="kcommaaccent" unicode="&#x137;" horiz-adv-x="1062" 
d="M141 0v1462h174v-866l484 463h233l-420 -385l451 -674h-221l-363 553l-164 -152v-401h-174zM451 -283v181h227v-158q0 -85 -54.5 -127.5t-148.5 -42.5v72q30 8 48 17t24.5 20.5t8 18t1.5 19.5h-106z" />
    <glyph glyph-name="kgreenlandic" unicode="&#x138;" horiz-adv-x="1052" 
d="M131 0v1059h174v-463l483 463h234l-420 -385l451 -674h-222l-362 553l-164 -152v-401h-174z" />
    <glyph glyph-name="Lacute" unicode="&#x139;" 
d="M160 0v1462h194v-1298h774v-164h-968zM190 1595l177 293h223l-268 -293h-132z" />
    <glyph glyph-name="lacute" unicode="&#x13a;" horiz-adv-x="454" 
d="M141 0v1462h174v-1462h-174zM133 1595l176 293h223l-268 -293h-131z" />
    <glyph glyph-name="Lcommaaccent" unicode="&#x13b;" 
d="M160 0v1462h194v-1298h774v-164h-968zM518 -283v181h227v-158q0 -85 -54 -127.5t-148 -42.5v72q30 8 48 17t24.5 20.5t8 18t1.5 19.5h-107z" />
    <glyph glyph-name="lcommaaccent" unicode="&#x13c;" horiz-adv-x="454" 
d="M141 0v1462h174v-1462h-174zM115 -283v181h227v-158q0 -85 -54.5 -127.5t-148.5 -42.5v72q30 8 48 17t24.5 20.5t8 18t1.5 19.5h-106z" />
    <glyph glyph-name="Lcaron" unicode="&#x13d;" 
d="M160 0v1462h194v-1298h774v-164h-968zM565 1169l53 293h224l-154 -293h-123z" />
    <glyph glyph-name="lcaron" unicode="&#x13e;" horiz-adv-x="454" 
d="M141 0v1462h174v-1462h-174zM418 1169l53 293h223l-153 -293h-123z" />
    <glyph glyph-name="Ldot" unicode="&#x13f;" 
d="M160 0v1462h194v-1298h774v-164h-968zM829 903v-213h-184v213h184z" />
    <glyph glyph-name="ldot" unicode="&#x140;" horiz-adv-x="700" 
d="M141 0v1462h174v-1462h-174zM645 903v-213h-184v213h184z" />
    <glyph glyph-name="Lslash" unicode="&#x141;" 
d="M160 0v492l-162 -115v155l162 115v815h194v-676l467 328v-156l-467 -327v-467h774v-164h-968z" />
    <glyph glyph-name="lslash" unicode="&#x142;" horiz-adv-x="454" 
d="M141 0v657l-143 -112v145l143 115v657h174v-520l144 115v-146l-144 -114v-797h-174z" />
    <glyph glyph-name="Nacute" unicode="&#x143;" horiz-adv-x="1478" 
d="M158 0v1462h207l770 -1186h4v1186h184v-1462h-213l-764 1174h-4v-1174h-184zM643 1595l176 293h223l-268 -293h-131z" />
    <glyph glyph-name="nacute" unicode="&#x144;" 
d="M131 0v1059h164v-168h4q108 192 344 192q102 0 174.5 -28t113.5 -81t59 -121t18 -157v-696h-174v717q0 98 -58 155.5t-158 57.5q-153 0 -233 -91.5t-80 -240.5v-598h-174zM473 1206l176 293h223l-268 -293h-131z" />
    <glyph glyph-name="Ncommaaccent" unicode="&#x145;" horiz-adv-x="1478" 
d="M158 0v1462h207l770 -1186h4v1186h184v-1462h-213l-764 1174h-4v-1174h-184zM621 -283v181h227v-158q0 -85 -54.5 -127.5t-148.5 -42.5v72q30 8 48 17t24.5 20.5t8 18t1.5 19.5h-106z" />
    <glyph glyph-name="ncommaaccent" unicode="&#x146;" 
d="M131 0v1059h164v-168h4q108 192 344 192q102 0 174.5 -28t113.5 -81t59 -121t18 -157v-696h-174v717q0 98 -58 155.5t-158 57.5q-153 0 -233 -91.5t-80 -240.5v-598h-174zM453 -283v181h227v-158q0 -85 -54.5 -127.5t-148.5 -42.5v72q30 8 48 17t24.5 20.5t8 18t1.5 19.5
h-106z" />
    <glyph glyph-name="Ncaron" unicode="&#x147;" horiz-adv-x="1478" 
d="M158 0v1462h207l770 -1186h4v1186h184v-1462h-213l-764 1174h-4v-1174h-184zM1042 1888l-211 -293h-190l-213 293h172l141 -196l144 196h157z" />
    <glyph glyph-name="ncaron" unicode="&#x148;" 
d="M131 0v1059h164v-168h4q108 192 344 192q102 0 174.5 -28t113.5 -81t59 -121t18 -157v-696h-174v717q0 98 -58 155.5t-158 57.5q-153 0 -233 -91.5t-80 -240.5v-598h-174zM879 1499l-211 -293h-191l-213 293h172l142 -196l143 196h158z" />
    <glyph glyph-name="Eng" unicode="&#x14a;" horiz-adv-x="1478" 
d="M1139 -51v16l-793 1209h-4v-1174h-184v1462h207l770 -1186h4v1186h184v-1544q0 -173 -83.5 -248.5t-246.5 -75.5q-84 0 -155 19v160q81 -15 135 -15q94 0 130 38.5t36 152.5z" />
    <glyph glyph-name="eng" unicode="&#x14b;" 
d="M131 0v1059h164v-168h4q108 192 344 192q102 0 174.5 -28t113.5 -81t59 -121t18 -157v-798q0 -159 -75.5 -231.5t-219.5 -72.5q-75 0 -133 15v149q62 -10 114 -10q79 0 109.5 37.5t30.5 140.5v791q0 98 -58 155.5t-158 57.5q-153 0 -233 -91.5t-80 -240.5v-598h-174z" />
    <glyph glyph-name="Omacron" unicode="&#x14c;" horiz-adv-x="1556" 
d="M78 731q0 121 27.5 233t85.5 209t139.5 169t196.5 113.5t251 41.5t251 -41.5t197 -113.5t139.5 -169t85.5 -209t28 -233t-28 -233t-85.5 -209t-139.5 -169t-197 -113.5t-251 -41.5t-251 41.5t-196.5 113.5t-139.5 169t-85.5 209t-27.5 233zM272 731q0 -115 30 -219.5
t89 -191.5t159 -139t228 -52t228 52t159 139t89 191.5t30 219.5t-30 219.5t-89 191.5t-159 139t-228 52t-228 -52t-159 -139t-89 -191.5t-30 -219.5zM432 1673v113h698v-113h-698z" />
    <glyph glyph-name="omacron" unicode="&#x14d;" horiz-adv-x="1175" 
d="M74 528q0 158 57.5 282t175.5 198.5t281 74.5t281 -74.5t175.5 -198.5t57.5 -282q0 -157 -57.5 -280.5t-175.5 -198t-281 -74.5t-281 74.5t-175.5 198t-57.5 280.5zM258 528q0 -186 94 -292.5t236 -106.5t236 106.5t94 292.5t-94 294t-236 108t-236 -108t-94 -294z
M242 1284v113h698v-113h-698z" />
    <glyph glyph-name="Obreve" unicode="&#x14e;" horiz-adv-x="1556" 
d="M78 731q0 121 27.5 233t85.5 209t139.5 169t196.5 113.5t251 41.5t251 -41.5t197 -113.5t139.5 -169t85.5 -209t28 -233t-28 -233t-85.5 -209t-139.5 -169t-197 -113.5t-251 -41.5t-251 41.5t-196.5 113.5t-139.5 169t-85.5 209t-27.5 233zM272 731q0 -115 30 -219.5
t89 -191.5t159 -139t228 -52t228 52t159 139t89 191.5t30 219.5t-30 219.5t-89 191.5t-159 139t-228 52t-228 -52t-159 -139t-89 -191.5t-30 -219.5zM461 1882h102q50 -170 230 -170q82 0 124.5 41t77.5 129h105q-24 -133 -107.5 -208t-216.5 -75q-273 0 -315 283z" />
    <glyph glyph-name="obreve" unicode="&#x14f;" horiz-adv-x="1175" 
d="M74 528q0 158 57.5 282t175.5 198.5t281 74.5t281 -74.5t175.5 -198.5t57.5 -282q0 -157 -57.5 -280.5t-175.5 -198t-281 -74.5t-281 74.5t-175.5 198t-57.5 280.5zM258 528q0 -186 94 -292.5t236 -106.5t236 106.5t94 292.5t-94 294t-236 108t-236 -108t-94 -294z
M270 1493h103q50 -170 229 -170q82 0 125.5 41.5t77.5 128.5h104q-24 -133 -107 -208t-216 -75q-274 0 -316 283z" />
    <glyph glyph-name="Ohungarumlaut" unicode="&#x150;" horiz-adv-x="1556" 
d="M78 731q0 121 27.5 233t85.5 209t139.5 169t196.5 113.5t251 41.5t251 -41.5t197 -113.5t139.5 -169t85.5 -209t28 -233t-28 -233t-85.5 -209t-139.5 -169t-197 -113.5t-251 -41.5t-251 41.5t-196.5 113.5t-139.5 169t-85.5 209t-27.5 233zM272 731q0 -115 30 -219.5
t89 -191.5t159 -139t228 -52t228 52t159 139t89 191.5t30 219.5t-30 219.5t-89 191.5t-159 139t-228 52t-228 -52t-159 -139t-89 -191.5t-30 -219.5zM862 1595l166 293h215l-246 -293h-135zM543 1595l166 293h215l-246 -293h-135z" />
    <glyph glyph-name="ohungarumlaut" unicode="&#x151;" horiz-adv-x="1175" 
d="M74 528q0 158 57.5 282t175.5 198.5t281 74.5t281 -74.5t175.5 -198.5t57.5 -282q0 -157 -57.5 -280.5t-175.5 -198t-281 -74.5t-281 74.5t-175.5 198t-57.5 280.5zM258 528q0 -186 94 -292.5t236 -106.5t236 106.5t94 292.5t-94 294t-236 108t-236 -108t-94 -294z
M672 1206l166 293h215l-246 -293h-135zM352 1206l166 293h215l-246 -293h-135z" />
    <glyph glyph-name="OE" unicode="&#x152;" horiz-adv-x="2199" 
d="M1128 0v141h-4q-52 -84 -155.5 -130t-220.5 -46q-158 0 -286 58.5t-211.5 162t-128 242t-44.5 299.5q0 221 80 394.5t237 274.5t369 101q112 0 214.5 -40.5t145.5 -115.5h4v121h977v-164h-782v-464h717v-164h-717v-506h795v-164h-990zM762 129q156 0 261 81.5t105 207.5
v616q0 97 -30 142q-44 67 -132.5 112t-199.5 45q-121 0 -216.5 -49t-155.5 -134.5t-91 -195t-31 -235.5q0 -167 55 -298.5t167.5 -211.5t267.5 -80z" />
    <glyph glyph-name="oe" unicode="&#x153;" horiz-adv-x="1824" 
d="M1769 477h-768q-3 -94 29.5 -172t104.5 -127t172 -49q104 0 179.5 54.5t106.5 152.5h166q-105 -361 -452 -361q-295 0 -385 209q-90 -209 -367 -209q-122 0 -215.5 43.5t-150.5 120.5t-86 176t-29 215q0 118 29.5 217t87.5 175t151 118.5t213 42.5q134 0 225 -41
t142 -145q54 90 155 138t219 48q103 0 185.5 -31t138 -86t91 -131.5t49.5 -166t9 -191.5zM1001 631h584q0 137 -77 218t-212 81t-216 -83.5t-79 -215.5zM850 532q0 398 -295 398q-64 0 -115.5 -24t-85 -64.5t-55.5 -95.5t-31.5 -114t-9.5 -124q0 -56 10 -108.5t33 -102.5
t56.5 -86.5t84.5 -59t113 -22.5q67 0 119.5 24t85 63t53.5 92.5t29 108t8 115.5z" />
    <glyph glyph-name="Racute" unicode="&#x154;" horiz-adv-x="1402" 
d="M160 0v1462h688q207 0 325.5 -103t118.5 -280q0 -140 -62.5 -237.5t-191.5 -132.5v-4q61 -12 103 -40t65 -72t33.5 -86.5t17.5 -103.5q1 -18 4.5 -83.5t7 -94.5t11.5 -78t24 -84t39 -63h-217q-24 26 -30.5 82t-9 139.5t-13.5 138.5q-8 50 -16 82.5t-25.5 70.5t-42 60
t-65 37t-95.5 15h-475v-625h-194zM354 788h406q73 0 129.5 11.5t106 39t76 80.5t26.5 130q0 114 -64.5 181.5t-195.5 67.5h-484v-510zM569 1595l176 293h224l-269 -293h-131z" />
    <glyph glyph-name="racute" unicode="&#x155;" horiz-adv-x="681" 
d="M125 0v1059h164v-223h4q64 131 157 191t232 56v-184q-204 0 -293.5 -108.5t-89.5 -319.5v-471h-174zM291 1206l176 293h223l-268 -293h-131z" />
    <glyph glyph-name="Rcommaaccent" unicode="&#x156;" horiz-adv-x="1402" 
d="M160 0v1462h688q207 0 325.5 -103t118.5 -280q0 -140 -62.5 -237.5t-191.5 -132.5v-4q61 -12 103 -40t65 -72t33.5 -86.5t17.5 -103.5q1 -18 4.5 -83.5t7 -94.5t11.5 -78t24 -84t39 -63h-217q-24 26 -30.5 82t-9 139.5t-13.5 138.5q-8 50 -16 82.5t-25.5 70.5t-42 60
t-65 37t-95.5 15h-475v-625h-194zM354 788h406q73 0 129.5 11.5t106 39t76 80.5t26.5 130q0 114 -64.5 181.5t-195.5 67.5h-484v-510zM604 -283v181h227v-158q0 -85 -54 -127.5t-148 -42.5v72q30 8 48 17t24.5 20.5t8 18t1.5 19.5h-107z" />
    <glyph glyph-name="rcommaaccent" unicode="&#x157;" horiz-adv-x="681" 
d="M125 0v1059h164v-223h4q64 131 157 191t232 56v-184q-204 0 -293.5 -108.5t-89.5 -319.5v-471h-174zM98 -283v181h228v-158q0 -85 -54.5 -127.5t-148.5 -42.5v72q30 8 48 17t24.5 20.5t8 18t1.5 19.5h-107z" />
    <glyph glyph-name="Rcaron" unicode="&#x158;" horiz-adv-x="1402" 
d="M160 0v1462h688q207 0 325.5 -103t118.5 -280q0 -140 -62.5 -237.5t-191.5 -132.5v-4q61 -12 103 -40t65 -72t33.5 -86.5t17.5 -103.5q1 -18 4.5 -83.5t7 -94.5t11.5 -78t24 -84t39 -63h-217q-24 26 -30.5 82t-9 139.5t-13.5 138.5q-8 50 -16 82.5t-25.5 70.5t-42 60
t-65 37t-95.5 15h-475v-625h-194zM354 788h406q73 0 129.5 11.5t106 39t76 80.5t26.5 130q0 114 -64.5 181.5t-195.5 67.5h-484v-510zM969 1888l-211 -293h-191l-213 293h172l142 -196l143 196h158z" />
    <glyph glyph-name="rcaron" unicode="&#x159;" horiz-adv-x="681" 
d="M125 0v1059h164v-223h4q64 131 157 191t232 56v-184q-204 0 -293.5 -108.5t-89.5 -319.5v-471h-174zM707 1499l-211 -293h-191l-213 293h172l142 -196l143 196h158z" />
    <glyph glyph-name="Sacute" unicode="&#x15a;" horiz-adv-x="1327" 
d="M1190 1034h-184q-33 299 -363 299q-66 0 -122 -13t-103.5 -40.5t-75 -78t-27.5 -118.5q0 -57 32 -99t86 -66.5t124.5 -43t148 -35t155 -35.5t148 -51t124.5 -75.5t86 -114t32 -162.5q0 -90 -34 -164.5t-90 -124t-131 -83.5t-154.5 -49t-161.5 -15q-126 0 -233.5 31.5
t-191 93t-131.5 162t-48 229.5h184q0 -89 35 -158t95.5 -110.5t135.5 -62.5t160 -21q72 0 133.5 12.5t117 41t88 82.5t32.5 130q0 64 -32 110.5t-86 74.5t-124.5 48.5t-148 36.5t-155 34t-148 46.5t-124.5 68t-86 104.5t-32 151t29.5 157.5t80 121t118.5 83.5t144 50t158 16
q114 0 209 -27.5t168.5 -82.5t115.5 -145t46 -208zM565 1595l176 293h224l-269 -293h-131z" />
    <glyph glyph-name="sacute" unicode="&#x15b;" horiz-adv-x="1024" 
d="M63 334h175q2 -56 26.5 -97.5t65.5 -64t88.5 -33t103.5 -10.5q47 0 87 6.5t81 22.5t64.5 49t23.5 80q0 55 -38 91t-99 55t-135 34t-148 35t-135 50.5t-99 88.5t-38 141q0 62 23.5 113t62 85t90 58t107 34.5t112.5 10.5q94 0 166.5 -16t132.5 -52.5t94.5 -102.5t40.5 -160
h-174q-7 93 -77.5 135.5t-167.5 42.5q-42 0 -79.5 -6.5t-72 -21t-54.5 -42t-20 -65.5q0 -20 6 -37.5t19.5 -31.5t27.5 -25t38.5 -21.5t43 -17.5t50.5 -15t51.5 -12.5t55.5 -12.5l54 -12q60 -14 103.5 -27t92.5 -37.5t79.5 -54.5t51 -76.5t20.5 -105.5q0 -91 -39.5 -158.5
t-106.5 -104.5t-143 -54t-162 -17q-93 0 -170 20t-139.5 61t-99 112t-40.5 166zM416 1206l176 293h223l-268 -293h-131z" />
    <glyph glyph-name="Scircumflex" unicode="&#x15c;" horiz-adv-x="1327" 
d="M1190 1034h-184q-33 299 -363 299q-66 0 -122 -13t-103.5 -40.5t-75 -78t-27.5 -118.5q0 -57 32 -99t86 -66.5t124.5 -43t148 -35t155 -35.5t148 -51t124.5 -75.5t86 -114t32 -162.5q0 -90 -34 -164.5t-90 -124t-131 -83.5t-154.5 -49t-161.5 -15q-126 0 -233.5 31.5
t-191 93t-131.5 162t-48 229.5h184q0 -89 35 -158t95.5 -110.5t135.5 -62.5t160 -21q72 0 133.5 12.5t117 41t88 82.5t32.5 130q0 64 -32 110.5t-86 74.5t-124.5 48.5t-148 36.5t-155 34t-148 46.5t-124.5 68t-86 104.5t-32 151t29.5 157.5t80 121t118.5 83.5t144 50t158 16
q114 0 209 -27.5t168.5 -82.5t115.5 -145t46 -208zM358 1595l211 293h191l213 -293h-172l-142 197l-143 -197h-158z" />
    <glyph glyph-name="scircumflex" unicode="&#x15d;" horiz-adv-x="1024" 
d="M63 334h175q2 -56 26.5 -97.5t65.5 -64t88.5 -33t103.5 -10.5q47 0 87 6.5t81 22.5t64.5 49t23.5 80q0 55 -38 91t-99 55t-135 34t-148 35t-135 50.5t-99 88.5t-38 141q0 62 23.5 113t62 85t90 58t107 34.5t112.5 10.5q94 0 166.5 -16t132.5 -52.5t94.5 -102.5t40.5 -160
h-174q-7 93 -77.5 135.5t-167.5 42.5q-42 0 -79.5 -6.5t-72 -21t-54.5 -42t-20 -65.5q0 -20 6 -37.5t19.5 -31.5t27.5 -25t38.5 -21.5t43 -17.5t50.5 -15t51.5 -12.5t55.5 -12.5l54 -12q60 -14 103.5 -27t92.5 -37.5t79.5 -54.5t51 -76.5t20.5 -105.5q0 -91 -39.5 -158.5
t-106.5 -104.5t-143 -54t-162 -17q-93 0 -170 20t-139.5 61t-99 112t-40.5 166zM207 1206l211 293h190l213 -293h-172l-141 197l-143 -197h-158z" />
    <glyph glyph-name="Scedilla" unicode="&#x15e;" horiz-adv-x="1327" 
d="M412 -391l37 90q71 -27 133 -27q48 0 83 16t35 48q0 29 -27 46t-69 17q-34 0 -84 -16l-35 57l101 131q-110 11 -200.5 47t-161 97.5t-109.5 155t-39 210.5h184q0 -89 35 -158t95.5 -110.5t135.5 -62.5t160 -21q72 0 133.5 12.5t117 41t88 82.5t32.5 130q0 64 -32 110.5
t-86 74.5t-124.5 48.5t-148 36.5t-155 34t-148 46.5t-124.5 68t-86 104.5t-32 151t29.5 157.5t80 121t118.5 83.5t144 50t158 16q114 0 209 -27.5t168.5 -82.5t115.5 -145t46 -208h-184q-33 299 -363 299q-66 0 -122 -13t-103.5 -40.5t-75 -78t-27.5 -118.5q0 -57 32 -99
t86 -66.5t124.5 -43t148 -35t155 -35.5t148 -51t124.5 -75.5t86 -114t32 -162.5q0 -90 -34 -164.5t-90 -124t-131 -83.5t-154.5 -49t-161.5 -15h-12l-58 -74l4 -4q30 15 68 15q71 0 121.5 -39.5t50.5 -110.5q0 -49 -23 -86t-61.5 -57t-81 -29.5t-88.5 -9.5q-93 0 -188 39z
" />
    <glyph glyph-name="scedilla" unicode="&#x15f;" horiz-adv-x="1024" 
d="M262 -391l37 90q71 -27 133 -27q48 0 83.5 16t35.5 48q0 29 -27 46t-69 17q-34 0 -84 -16l-35 57l108 140q-168 13 -271.5 99t-109.5 255h175q2 -56 26.5 -97.5t65.5 -64t88.5 -33t103.5 -10.5q47 0 87 6.5t81 22.5t64.5 49t23.5 80q0 55 -38 91t-99 55t-135 34t-148 35
t-135 50.5t-99 88.5t-38 141q0 62 23.5 113t62 85t90 58t107 34.5t112.5 10.5q94 0 166.5 -16t132.5 -52.5t94.5 -102.5t40.5 -160h-174q-7 93 -77.5 135.5t-167.5 42.5q-42 0 -79.5 -6.5t-72 -21t-54.5 -42t-20 -65.5q0 -20 6 -37.5t19.5 -31.5t27.5 -25t38.5 -21.5
t43 -17.5t50.5 -15t51.5 -12.5t55.5 -12.5l54 -12q60 -14 103.5 -27t92.5 -37.5t79.5 -54.5t51 -76.5t20.5 -105.5q0 -72 -25.5 -129.5t-67.5 -94.5t-99.5 -62t-118 -36t-126.5 -12l-65 -84l4 -4q30 15 67 15q71 0 122 -39.5t51 -110.5q0 -49 -23 -86t-61.5 -57t-81 -29.5
t-88.5 -9.5q-94 0 -189 39z" />
    <glyph glyph-name="Scaron" unicode="&#x160;" horiz-adv-x="1327" 
d="M1190 1034h-184q-33 299 -363 299q-66 0 -122 -13t-103.5 -40.5t-75 -78t-27.5 -118.5q0 -57 32 -99t86 -66.5t124.5 -43t148 -35t155 -35.5t148 -51t124.5 -75.5t86 -114t32 -162.5q0 -90 -34 -164.5t-90 -124t-131 -83.5t-154.5 -49t-161.5 -15q-126 0 -233.5 31.5
t-191 93t-131.5 162t-48 229.5h184q0 -89 35 -158t95.5 -110.5t135.5 -62.5t160 -21q72 0 133.5 12.5t117 41t88 82.5t32.5 130q0 64 -32 110.5t-86 74.5t-124.5 48.5t-148 36.5t-155 34t-148 46.5t-124.5 68t-86 104.5t-32 151t29.5 157.5t80 121t118.5 83.5t144 50t158 16
q114 0 209 -27.5t168.5 -82.5t115.5 -145t46 -208zM971 1888l-211 -293h-191l-213 293h172l142 -196l143 196h158z" />
    <glyph glyph-name="scaron" unicode="&#x161;" horiz-adv-x="1024" 
d="M63 334h175q2 -56 26.5 -97.5t65.5 -64t88.5 -33t103.5 -10.5q47 0 87 6.5t81 22.5t64.5 49t23.5 80q0 55 -38 91t-99 55t-135 34t-148 35t-135 50.5t-99 88.5t-38 141q0 62 23.5 113t62 85t90 58t107 34.5t112.5 10.5q94 0 166.5 -16t132.5 -52.5t94.5 -102.5t40.5 -160
h-174q-7 93 -77.5 135.5t-167.5 42.5q-42 0 -79.5 -6.5t-72 -21t-54.5 -42t-20 -65.5q0 -20 6 -37.5t19.5 -31.5t27.5 -25t38.5 -21.5t43 -17.5t50.5 -15t51.5 -12.5t55.5 -12.5l54 -12q60 -14 103.5 -27t92.5 -37.5t79.5 -54.5t51 -76.5t20.5 -105.5q0 -91 -39.5 -158.5
t-106.5 -104.5t-143 -54t-162 -17q-93 0 -170 20t-139.5 61t-99 112t-40.5 166zM815 1499l-211 -293h-190l-213 293h172l141 -196l143 196h158z" />
    <glyph glyph-name="Tcommaaccent" unicode="&#x162;" horiz-adv-x="1175" 
d="M492 0v1298h-488v164h1170v-164h-488v-1298h-194zM473 -283v181h227v-158q0 -85 -54 -127.5t-148 -42.5v72q30 8 48 17t24.5 20.5t8 18t1.5 19.5h-107z" />
    <glyph glyph-name="tcommaaccent" unicode="&#x163;" horiz-adv-x="645" 
d="M373 1376v-317h211v-154h-211v-657q0 -61 24 -77.5t107 -16.5h80v-154h-133q-72 0 -116 8.5t-76.5 33.5t-46 70.5t-13.5 118.5v674h-181v154h181v317h174zM266 -283v181h228v-158q0 -85 -54.5 -127.5t-148.5 -42.5v72q30 8 48 17t24.5 20.5t8 18t1.5 19.5h-107z" />
    <glyph glyph-name="Tcaron" unicode="&#x164;" horiz-adv-x="1175" 
d="M492 0v1298h-488v164h1170v-164h-488v-1298h-194zM893 1888l-211 -293h-190l-213 293h172l141 -196l143 196h158z" />
    <glyph glyph-name="tcaron" unicode="&#x165;" horiz-adv-x="645" 
d="M506 1169l53 293h223l-153 -293h-123zM373 1376v-317h211v-154h-211v-657q0 -61 24 -77.5t107 -16.5h80v-154h-133q-72 0 -116 8.5t-76.5 33.5t-46 70.5t-13.5 118.5v674h-181v154h181v317h174z" />
    <glyph glyph-name="Tbar" unicode="&#x166;" horiz-adv-x="1175" 
d="M201 872v125h291v301h-488v164h1170v-164h-488v-301h295v-125h-295v-872h-194v872h-291z" />
    <glyph glyph-name="tbar" unicode="&#x167;" horiz-adv-x="645" 
d="M29 596v113h170v196h-181v154h181v317h174v-317h211v-154h-211v-196h194v-113h-194v-348q0 -61 24 -77.5t107 -16.5h80v-154h-133q-72 0 -116 8.5t-76.5 33.5t-46 70.5t-13.5 118.5v365h-170z" />
    <glyph glyph-name="Utilde" unicode="&#x168;" horiz-adv-x="1478" 
d="M1327 1462v-934q0 -276 -149 -419.5t-426 -143.5q-290 0 -445 139t-155 424v934h194v-934q0 -194 105 -296.5t301 -102.5q186 0 283.5 102t97.5 297v934h194zM991 1858h107q-12 -90 -66 -162q-54 -66 -141 -66q-67 0 -154 41l-28 10.5t-30 11t-25.5 8.5t-28 7t-23.5 2
q-39 0 -63 -24q-19 -16 -37 -62h-107q49 225 217 225q57 0 150.5 -41t134.5 -41q68 0 94 91z" />
    <glyph glyph-name="utilde" unicode="&#x169;" 
d="M1008 1059v-1059h-164v168h-4q-109 -193 -344 -193q-102 0 -174.5 28t-113.5 81t-59 121t-18 157v697h174v-717q0 -98 57.5 -155.5t157.5 -57.5q153 0 233.5 91.5t80.5 240.5v598h174zM817 1468h107q-12 -88 -66 -161q-54 -66 -141 -66q-67 0 -154 41l-28 10.5t-30 11
t-25.5 8.5t-28 7t-23.5 2q-38 0 -63 -25q-19 -17 -37 -61h-107q49 225 217 225q57 0 150.5 -41t134.5 -41q68 0 94 90z" />
    <glyph glyph-name="Umacron" unicode="&#x16a;" horiz-adv-x="1478" 
d="M1327 1462v-934q0 -276 -149 -419.5t-426 -143.5q-290 0 -445 139t-155 424v934h194v-934q0 -194 105 -296.5t301 -102.5q186 0 283.5 102t97.5 297v934h194zM395 1673v113h699v-113h-699z" />
    <glyph glyph-name="umacron" unicode="&#x16b;" 
d="M1008 1059v-1059h-164v168h-4q-109 -193 -344 -193q-102 0 -174.5 28t-113.5 81t-59 121t-18 157v697h174v-717q0 -98 57.5 -155.5t157.5 -57.5q153 0 233.5 91.5t80.5 240.5v598h174zM221 1284v113h699v-113h-699z" />
    <glyph glyph-name="Ubreve" unicode="&#x16c;" horiz-adv-x="1478" 
d="M1327 1462v-934q0 -276 -149 -419.5t-426 -143.5q-290 0 -445 139t-155 424v934h194v-934q0 -194 105 -296.5t301 -102.5q186 0 283.5 102t97.5 297v934h194zM424 1882h102q50 -170 230 -170q82 0 124.5 41t77.5 129h105q-24 -133 -107.5 -208t-216.5 -75
q-273 0 -315 283z" />
    <glyph glyph-name="ubreve" unicode="&#x16d;" 
d="M1008 1059v-1059h-164v168h-4q-109 -193 -344 -193q-102 0 -174.5 28t-113.5 81t-59 121t-18 157v697h174v-717q0 -98 57.5 -155.5t157.5 -57.5q153 0 233.5 91.5t80.5 240.5v598h174zM250 1493h102q50 -170 230 -170q82 0 124.5 41t77.5 129h105q-24 -133 -107.5 -208
t-216.5 -75q-273 0 -315 283z" />
    <glyph glyph-name="Uring" unicode="&#x16e;" horiz-adv-x="1478" 
d="M1327 1462v-934q0 -276 -149 -419.5t-426 -143.5q-290 0 -445 139t-155 424v934h194v-934q0 -194 105 -296.5t301 -102.5q186 0 283.5 102t97.5 297v934h194zM510 1763q0 95 68.5 162.5t162.5 67.5t163 -67.5t69 -162.5t-69 -162t-163 -67t-162.5 67t-68.5 162zM604 1761
q0 -60 38.5 -99.5t98.5 -39.5t99 39.5t39 99.5t-39 100t-99 40t-98.5 -40t-38.5 -100z" />
    <glyph glyph-name="uring" unicode="&#x16f;" 
d="M1008 1059v-1059h-164v168h-4q-109 -193 -344 -193q-102 0 -174.5 28t-113.5 81t-59 121t-18 157v697h174v-717q0 -98 57.5 -155.5t157.5 -57.5q153 0 233.5 91.5t80.5 240.5v598h174zM338 1395q0 95 68.5 162t162.5 67t163 -67t69 -162t-69 -162.5t-163 -67.5
t-162.5 67.5t-68.5 162.5zM432 1393q0 -60 38.5 -100t98.5 -40t99 40t39 100t-39 99.5t-99 39.5t-98.5 -39.5t-38.5 -99.5z" />
    <glyph glyph-name="Uhungarumlaut" unicode="&#x170;" horiz-adv-x="1478" 
d="M1327 1462v-934q0 -276 -149 -419.5t-426 -143.5q-290 0 -445 139t-155 424v934h194v-934q0 -194 105 -296.5t301 -102.5q186 0 283.5 102t97.5 297v934h194zM825 1595l166 293h215l-245 -293h-136zM506 1595l166 293h215l-246 -293h-135z" />
    <glyph glyph-name="uhungarumlaut" unicode="&#x171;" 
d="M1008 1059v-1059h-164v168h-4q-109 -193 -344 -193q-102 0 -174.5 28t-113.5 81t-59 121t-18 157v697h174v-717q0 -98 57.5 -155.5t157.5 -57.5q153 0 233.5 91.5t80.5 240.5v598h174zM651 1206l166 293h215l-246 -293h-135zM332 1206l166 293h215l-246 -293h-135z" />
    <glyph glyph-name="Uogonek" unicode="&#x172;" horiz-adv-x="1478" 
d="M1327 1462v-934q0 -256 -129.5 -398t-370.5 -161q-77 -68 -106 -117t-29 -94q0 -39 22 -62.5t62 -23.5q72 0 121 62l66 -37q-73 -127 -222 -127q-83 0 -135.5 39t-52.5 117q0 124 174 239q-278 6 -426.5 145t-148.5 418v934h194v-934q0 -194 105 -296.5t301 -102.5
q186 0 283.5 102t97.5 297v934h194z" />
    <glyph glyph-name="uogonek" unicode="&#x173;" 
d="M1008 1059v-1059h-82q-99 -83 -135.5 -138t-36.5 -104q0 -39 22 -62.5t62 -23.5q71 0 120 62l66 -37q-73 -127 -221 -127q-83 0 -136 39t-53 117q0 142 230 274v168h-4q-109 -193 -344 -193q-102 0 -174.5 28t-113.5 81t-59 121t-18 157v697h174v-717q0 -98 57.5 -155.5
t157.5 -57.5q153 0 233.5 91.5t80.5 240.5v598h174z" />
    <glyph glyph-name="Wcircumflex" unicode="&#x174;" horiz-adv-x="1896" 
d="M1872 1462l-391 -1462h-203l-334 1229h-4l-338 -1229h-203l-374 1462h198l287 -1216h4l328 1216h211l323 -1216h4l297 1216h195zM643 1595l211 293h190l213 -293h-172l-141 197l-143 -197h-158z" />
    <glyph glyph-name="wcircumflex" unicode="&#x175;" horiz-adv-x="1552" 
d="M1518 1059l-338 -1059h-185l-215 842h-4l-213 -842h-188l-340 1059h192l240 -866h4l213 866h190l222 -866h4l237 866h181zM477 1206l211 293h191l213 -293h-172l-142 197l-143 -197h-158z" />
    <glyph glyph-name="Ycircumflex" unicode="&#x176;" horiz-adv-x="1327" 
d="M1323 1462l-559 -864v-598h-195v598l-565 864h232l438 -696l428 696h221zM367 1595l211 293h190l213 -293h-172l-141 197l-144 -197h-157z" />
    <glyph glyph-name="ycircumflex" unicode="&#x177;" horiz-adv-x="1024" 
d="M1008 1059l-461 -1200q-63 -159 -128 -221t-179 -62q-71 0 -121 18v160l24 -8t27 -8.5t24 -5t27 -2.5q52 0 85 23.5t59 72.5l71 180l-420 1053h197l309 -866h4l297 866h185zM217 1206l211 293h190l213 -293h-172l-141 197l-143 -197h-158z" />
    <glyph glyph-name="Ydieresis" unicode="&#x178;" horiz-adv-x="1327" 
d="M1323 1462l-559 -864v-598h-195v598l-565 864h232l438 -696l428 696h221zM772 1624v213h184v-213h-184zM387 1624v213h184v-213h-184z" />
    <glyph glyph-name="Zacute" unicode="&#x179;" horiz-adv-x="1251" 
d="M45 0v164l909 1134h-839v164h1069v-164l-908 -1134h932v-164h-1163zM541 1595l176 293h223l-268 -293h-131z" />
    <glyph glyph-name="zacute" unicode="&#x17a;" horiz-adv-x="983" 
d="M45 0v133l639 772h-598v154h823v-119l-647 -786h676v-154h-893zM395 1206l176 293h224l-269 -293h-131z" />
    <glyph glyph-name="Zdotaccent" unicode="&#x17b;" horiz-adv-x="1251" 
d="M45 0v164l909 1134h-839v164h1069v-164l-908 -1134h932v-164h-1163zM731 1837v-213h-184v213h184z" />
    <glyph glyph-name="zdotaccent" unicode="&#x17c;" horiz-adv-x="983" 
d="M45 0v133l639 772h-598v154h823v-119l-647 -786h676v-154h-893zM590 1450v-213h-184v213h184z" />
    <glyph glyph-name="Zcaron" unicode="&#x17d;" horiz-adv-x="1251" 
d="M45 0v164l909 1134h-839v164h1069v-164l-908 -1134h932v-164h-1163zM942 1888l-211 -293h-190l-213 293h172l141 -196l143 196h158z" />
    <glyph glyph-name="zcaron" unicode="&#x17e;" horiz-adv-x="983" 
d="M45 0v133l639 772h-598v154h823v-119l-647 -786h676v-154h-893zM801 1499l-211 -293h-191l-213 293h172l142 -196l143 196h158z" />
    <glyph glyph-name="florin" unicode="&#x192;" 
d="M1008 1462l-29 -153h-121q-55 0 -85 -26t-42 -81l-63 -282h209l-29 -140h-205l-113 -637q-33 -188 -81 -291.5t-119.5 -146.5t-188.5 -43h-135l29 154q58 0 93 2t67.5 10.5t49.5 21t32.5 38t24 56.5t17.5 81l144 755h-189l27 140h186l54 278q24 121 106 192.5t209 71.5
h152z" />
    <glyph glyph-name="Aringacute" unicode="&#x1fa;" horiz-adv-x="1327" 
d="M567 1776l135 217h209l-213 -217h-131zM-14 0l553 1397q-70 57 -70 147q0 83 58 139t139 56q80 0 137 -55.5t57 -139.5q0 -88 -69 -147l552 -1397h-215l-159 440h-619l-164 -440h-200zM553 1544q0 -48 32 -81t81 -33q47 0 78.5 33t31.5 81q0 49 -31.5 81t-78.5 32
q-50 0 -81.5 -31.5t-31.5 -81.5zM659 1286l-247 -682h495l-243 682h-5z" />
    <glyph glyph-name="aringacute" unicode="&#x1fb;" horiz-adv-x="1099" 
d="M463 1630l170 258h223l-264 -258h-129zM557 1157q-91 0 -154 60.5t-63 150.5t63.5 150.5t153.5 60.5q91 0 154 -60.5t63 -150.5t-63.5 -150.5t-153.5 -60.5zM682 1368q0 56 -34.5 91.5t-90.5 35.5t-90.5 -35.5t-34.5 -91.5q0 -55 34.5 -91t90.5 -36t90.5 36t34.5 91z
M1069 139v-135q-50 -29 -125 -29q-147 0 -147 164q-137 -164 -373 -164q-156 0 -253 73t-97 224q0 69 21 122.5t52 86t82.5 57t95 36t107.5 24.5q34 7 79 13.5t75.5 10.5t65 11t57 16t42 22.5t28.5 34t9 48.5q0 55 -20.5 92t-57.5 54t-73.5 23.5t-83.5 6.5
q-120 0 -189 -45.5t-75 -155.5h-174q4 95 40.5 165.5t99 110.5t139 59t169.5 19q63 0 115 -6t106.5 -25t91.5 -49.5t61 -84t24 -125.5v-545q0 -31 0.5 -44.5t3 -32t8.5 -25t16.5 -12t26.5 -5.5q23 0 53 10zM786 369v178q-35 -26 -105.5 -40t-139.5 -21.5t-135 -24t-107 -60
t-41 -116.5q0 -80 58.5 -118t146.5 -38q82 0 146.5 23.5t101.5 60t56 77t19 79.5z" />
    <glyph glyph-name="AEacute" unicode="&#x1fc;" horiz-adv-x="1896" 
d="M-14 0l739 1462h1096v-164h-719v-464h676v-164h-676v-506h731v-164h-915v426h-504l-209 -426h-219zM918 1298h-84l-345 -708h429v708zM1081 1595l176 293h224l-269 -293h-131z" />
    <glyph glyph-name="aeacute" unicode="&#x1fd;" horiz-adv-x="1781" 
d="M1733 477h-777q0 -150 82 -249t236 -99q102 0 173 52t95 153h178q-38 -172 -158 -265.5t-300 -93.5q-289 0 -383 207q-58 -105 -175 -156t-272 -51q-163 0 -260.5 72.5t-97.5 224.5q0 69 21 122.5t52 86.5t82 57.5t95.5 36t107.5 23.5q41 8 99.5 18t85.5 15t63.5 13.5
t52 17.5t32.5 23.5t22.5 34t5.5 46.5q0 51 -20.5 85.5t-57.5 50.5t-75 22t-87 6q-120 0 -189 -45.5t-75 -155.5h-174q4 95 40.5 165.5t99 110.5t139 59t169.5 19q279 0 355 -153q51 77 142 115t195 38q478 0 478 -606zM956 631h592q-5 130 -82 214.5t-211 84.5
q-137 0 -218 -83.5t-81 -215.5zM258 285q0 -80 58.5 -118t146.5 -38q82 0 147.5 23.5t104 60t58.5 77t20 79.5v178q-32 -20 -84 -32t-128 -22.5t-110 -17.5q-49 -10 -82.5 -21.5t-66 -32.5t-48.5 -55t-16 -81zM852 1206l176 293h223l-268 -293h-131z" />
    <glyph glyph-name="Oslashacute" unicode="&#x1fe;" horiz-adv-x="1556" 
d="M666 1595l176 293h223l-268 -293h-131zM1415 1495l66 -61l-168 -185q166 -207 166 -518q0 -121 -28 -233t-85.5 -209t-139.5 -169t-197 -113.5t-251 -41.5q-283 0 -469 176l-166 -182l-67 61l172 189q-170 205 -170 522q0 121 27.5 233t85.5 209t139.5 169t196.5 113.5
t251 41.5q292 0 475 -180zM375 348l755 834q-131 151 -352 151q-128 0 -228 -52t-159 -139t-89 -191.5t-30 -219.5q0 -227 103 -383zM1186 1108l-756 -834q129 -145 348 -145q128 0 228 52t159 139t89 191.5t30 219.5q0 224 -98 377z" />
    <glyph glyph-name="oslashacute" unicode="&#x1ff;" horiz-adv-x="1175" 
d="M492 1206l176 293h223l-268 -293h-131zM1106 1042l-123 -135q119 -143 119 -379q0 -157 -57.5 -280.5t-175.5 -198t-281 -74.5q-205 0 -338 117l-123 -137l-57 49l127 141q-123 150 -123 383q0 158 57.5 282t175.5 198.5t281 74.5q212 0 344 -120l119 133zM319 281
l496 553q-90 96 -227 96q-142 0 -236 -108t-94 -294q0 -141 61 -247zM860 772l-495 -551q92 -92 223 -92q142 0 236 106.5t94 292.5q0 140 -58 244z" />
    <glyph glyph-name="Scommaaccent" unicode="&#x218;" horiz-adv-x="1327" 
d="M1190 1034h-184q-33 299 -363 299q-66 0 -122 -13t-103.5 -40.5t-75 -78t-27.5 -118.5q0 -57 32 -99t86 -66.5t124.5 -43t148 -35t155 -35.5t148 -51t124.5 -75.5t86 -114t32 -162.5q0 -90 -34 -164.5t-90 -124t-131 -83.5t-154.5 -49t-161.5 -15q-126 0 -233.5 31.5
t-191 93t-131.5 162t-48 229.5h184q0 -89 35 -158t95.5 -110.5t135.5 -62.5t160 -21q72 0 133.5 12.5t117 41t88 82.5t32.5 130q0 64 -32 110.5t-86 74.5t-124.5 48.5t-148 36.5t-155 34t-148 46.5t-124.5 68t-86 104.5t-32 151t29.5 157.5t80 121t118.5 83.5t144 50t158 16
q114 0 209 -27.5t168.5 -82.5t115.5 -145t46 -208zM553 -283v181h227v-158q0 -85 -54 -127.5t-148 -42.5v72q30 8 48 17t24.5 20.5t7.5 17.5t1 20h-106z" />
    <glyph glyph-name="scommaaccent" unicode="&#x219;" horiz-adv-x="1024" 
d="M63 334h175q2 -56 26.5 -97.5t65.5 -64t88.5 -33t103.5 -10.5q47 0 87 6.5t81 22.5t64.5 49t23.5 80q0 55 -38 91t-99 55t-135 34t-148 35t-135 50.5t-99 88.5t-38 141q0 62 23.5 113t62 85t90 58t107 34.5t112.5 10.5q94 0 166.5 -16t132.5 -52.5t94.5 -102.5t40.5 -160
h-174q-7 93 -77.5 135.5t-167.5 42.5q-42 0 -79.5 -6.5t-72 -21t-54.5 -42t-20 -65.5q0 -20 6 -37.5t19.5 -31.5t27.5 -25t38.5 -21.5t43 -17.5t50.5 -15t51.5 -12.5t55.5 -12.5l54 -12q60 -14 103.5 -27t92.5 -37.5t79.5 -54.5t51 -76.5t20.5 -105.5q0 -91 -39.5 -158.5
t-106.5 -104.5t-143 -54t-162 -17q-93 0 -170 20t-139.5 61t-99 112t-40.5 166zM403 -283v181h228v-158q0 -85 -54.5 -127.5t-148.5 -42.5v72q30 8 48 17t24.5 20.5t8 18t1.5 19.5h-107z" />
    <glyph glyph-name="uni021A" unicode="&#x21a;" horiz-adv-x="1175" 
d="M492 0v1298h-488v164h1170v-164h-488v-1298h-194zM473 -283v181h227v-158q0 -85 -54 -127.5t-148 -42.5v72q30 8 48 17t24.5 20.5t8 18t1.5 19.5h-107z" />
    <glyph glyph-name="uni021B" unicode="&#x21b;" horiz-adv-x="645" 
d="M373 1376v-317h211v-154h-211v-657q0 -61 24 -77.5t107 -16.5h80v-154h-133q-72 0 -116 8.5t-76.5 33.5t-46 70.5t-13.5 118.5v674h-181v154h181v317h174zM266 -283v181h228v-158q0 -85 -54.5 -127.5t-148.5 -42.5v72q30 8 48 17t24.5 20.5t8 18t1.5 19.5h-107z" />
    <glyph glyph-name="dotlessj" unicode="&#x237;" horiz-adv-x="454" 
d="M315 1059v-1194q0 -137 -66.5 -204t-187.5 -67q-43 0 -90 9v149q24 -4 35 -4h37q56 0 77 31.5t21 114.5v1165h174z" />
    <glyph glyph-name="circumflex" unicode="&#x2c6;" horiz-adv-x="454" 
d="M-80 1206l211 293h191l213 -293h-173l-141 197l-143 -197h-158z" />
    <glyph glyph-name="caron" unicode="&#x2c7;" horiz-adv-x="454" 
d="M535 1499l-211 -293h-191l-213 293h172l141 -196l144 196h158z" />
    <glyph glyph-name="uni02C9" unicode="&#x2c9;" horiz-adv-x="454" 
d="M-121 1284v113h699v-113h-699z" />
    <glyph glyph-name="breve" unicode="&#x2d8;" horiz-adv-x="454" 
d="M-92 1493h102q50 -170 230 -170q82 0 124.5 41t77.5 129h105q-24 -133 -107.5 -208t-216.5 -75q-273 0 -315 283z" />
    <glyph glyph-name="dotaccent" unicode="&#x2d9;" horiz-adv-x="454" 
d="M319 1450v-213h-184v213h184z" />
    <glyph glyph-name="ring" unicode="&#x2da;" horiz-adv-x="454" 
d="M-4 1395q0 95 68.5 162t162.5 67t163 -67t69 -162t-69 -162.5t-163 -67.5t-162.5 67.5t-68.5 162.5zM90 1393q0 -60 38.5 -100t98.5 -40t99 40t39 100t-39 99.5t-99 39.5t-98.5 -39.5t-38.5 -99.5z" />
    <glyph glyph-name="ogonek" unicode="&#x2db;" horiz-adv-x="454" 
d="M385 0h82q-99 -83 -135.5 -138t-36.5 -104q0 -39 22 -62.5t62 -23.5q72 0 121 62l65 -37q-73 -127 -221 -127q-83 0 -135.5 39t-52.5 117q0 142 229 274z" />
    <glyph glyph-name="tilde" unicode="&#x2dc;" horiz-adv-x="454" 
d="M477 1468h107q-12 -88 -66 -161q-54 -66 -141 -66q-67 0 -154 41l-28 10.5t-30 11t-25.5 8.5t-28 7t-23.5 2q-38 0 -63 -25q-19 -17 -37 -61h-107q49 225 217 225q57 0 150.5 -41t134.5 -41q68 0 94 90z" />
    <glyph glyph-name="hungarumlaut" unicode="&#x2dd;" horiz-adv-x="454" 
d="M221 1206l166 293h215l-246 -293h-135zM-98 1206l166 293h215l-246 -293h-135z" />
    <glyph glyph-name="uni0374" unicode="&#x374;" horiz-adv-x="454" 
d="M393 1499l-157 -350h-138l78 350h217z" />
    <glyph glyph-name="uni0375" unicode="&#x375;" horiz-adv-x="454" 
d="M49 -416l158 350h137l-78 -350h-217z" />
    <glyph glyph-name="uni037E" unicode="&#x37e;" horiz-adv-x="569" 
d="M397 1059v-228h-227v228h227zM170 0v227h227v-207q3 -253 -225 -321v102q63 23 93.5 82t25.5 117h-121z" />
    <glyph glyph-name="tonos" unicode="&#x384;" horiz-adv-x="493" 
d="M180 1206l68 293h225l-154 -293h-139z" />
    <glyph glyph-name="dieresistonos" unicode="&#x385;" horiz-adv-x="679" 
d="M225 1206l76 293h180l-129 -293h-127zM690 1446v-213h-172v213h172zM162 1446v-213h-172v213h172z" />
    <glyph glyph-name="Alphatonos" unicode="&#x386;" horiz-adv-x="1341" 
d="M0 0l571 1462h215l572 -1462h-215l-160 440h-618l-164 -440h-201zM426 604h496l-244 682h-4zM90 1169l68 293h225l-154 -293h-139z" />
    <glyph glyph-name="anoteleia" unicode="&#x387;" horiz-adv-x="569" 
d="M397 1059v-228h-227v228h227z" />
    <glyph glyph-name="Epsilontonos" unicode="&#x388;" horiz-adv-x="1544" 
d="M23 1169l67 293h225l-153 -293h-139zM453 0v1462h1009v-164h-815v-464h760v-164h-760v-506h821v-164h-1015z" />
    <glyph glyph-name="Etatonos" unicode="&#x389;" horiz-adv-x="1771" 
d="M23 1169l67 293h225l-153 -293h-139zM453 0v1462h194v-628h770v628h195v-1462h-195v670h-770v-670h-194z" />
    <glyph glyph-name="Iotatonos" unicode="&#x38a;" horiz-adv-x="806" 
d="M23 1169l67 293h225l-153 -293h-139zM453 0v1462h194v-1462h-194z" />
    <glyph glyph-name="Omicrontonos" unicode="&#x38c;" horiz-adv-x="1771" 
d="M23 1169l67 293h225l-153 -293h-139zM293 731q0 121 27.5 233t85.5 209t139.5 169t196.5 113.5t251 41.5t251 -41.5t197 -113.5t139.5 -169t85.5 -209t28 -233t-28 -233t-85.5 -209t-139.5 -169t-197 -113.5t-251 -41.5t-251 41.5t-196.5 113.5t-139.5 169t-85.5 209
t-27.5 233zM487 731q0 -115 30 -219.5t89 -191.5t159 -139t228 -52t228 52t159 139t89 191.5t30 219.5t-30 219.5t-89 191.5t-159 139t-228 52t-228 -52t-159 -139t-89 -191.5t-30 -219.5z" />
    <glyph glyph-name="Upsilontonos" unicode="&#x38e;" horiz-adv-x="1724" 
d="M23 1169l67 293h225l-153 -293h-139zM1720 1462l-559 -864v-598h-194v598l-566 864h232l438 -696l428 696h221z" />
    <glyph glyph-name="Omegatonos" unicode="&#x38f;" horiz-adv-x="1777" 
d="M23 1169l67 293h225l-153 -293h-139zM1712 164v-164h-577v147q179 122 269.5 293.5t90.5 382.5q0 143 -57.5 257.5t-170 183.5t-261.5 69q-225 0 -362.5 -145.5t-137.5 -384.5q0 -409 368 -656v-147h-579v164h350v8q-169 118 -251.5 272.5t-82.5 356.5q0 197 88 355.5
t247 249.5t360 91q155 0 285 -54.5t216.5 -147t134.5 -215t48 -259.5q0 -410 -336 -649v-8h358z" />
    <glyph glyph-name="iotadieresistonos" unicode="&#x390;" horiz-adv-x="485" 
d="M141 1059h174v-830q0 -54 17 -78t55 -24q27 0 72 10v-135q-65 -27 -135 -27q-183 0 -183 209v875zM137 1206l76 293h180l-129 -293h-127zM602 1446v-213h-172v213h172zM74 1446v-213h-172v213h172z" />
    <glyph glyph-name="Alpha" unicode="&#x391;" horiz-adv-x="1327" 
d="M-14 0l571 1462h215l571 -1462h-215l-159 440h-619l-164 -440h-200zM412 604h495l-243 682h-5z" />
    <glyph glyph-name="Beta" unicode="&#x392;" horiz-adv-x="1402" 
d="M160 0v1462h530q90 0 143 -1.5t128.5 -14.5t115.5 -37q77 -46 124.5 -124t47.5 -181q0 -116 -57 -201t-160 -127v-4q134 -29 206.5 -122.5t72.5 -229.5q0 -81 -29.5 -155.5t-84 -134t-140.5 -95t-191 -35.5h-706zM354 834h389q163 0 237.5 57t74.5 176q0 60 -17 103
t-43.5 67.5t-69 38.5t-84 18t-98.5 4h-389v-464zM354 164h488q127 0 200.5 70t73.5 192q0 69 -26 118t-72 75.5t-99.5 38.5t-119.5 12h-445v-506z" />
    <glyph glyph-name="Gamma" unicode="&#x393;" horiz-adv-x="1130" 
d="M160 0v1462h958v-164h-764v-1298h-194z" />
    <glyph glyph-name="uni0394" unicode="&#x394;" horiz-adv-x="1327" 
d="M1337 0h-1345l565 1462h215zM662 1288l-408 -1124h807l-395 1124h-4z" />
    <glyph glyph-name="Epsilon" unicode="&#x395;" horiz-adv-x="1251" 
d="M160 0v1462h1009v-164h-815v-464h760v-164h-760v-506h822v-164h-1016z" />
    <glyph glyph-name="Zeta" unicode="&#x396;" horiz-adv-x="1251" 
d="M45 0v164l909 1134h-839v164h1069v-164l-908 -1134h932v-164h-1163z" />
    <glyph glyph-name="Eta" unicode="&#x397;" horiz-adv-x="1478" 
d="M160 0v1462h194v-628h770v628h195v-1462h-195v670h-770v-670h-194z" />
    <glyph glyph-name="Theta" unicode="&#x398;" horiz-adv-x="1556" 
d="M78 731q0 121 27.5 233t85.5 209t139.5 169t196.5 113.5t251 41.5t251 -41.5t197 -113.5t139.5 -169t85.5 -209t28 -233t-28 -233t-85.5 -209t-139.5 -169t-197 -113.5t-251 -41.5t-251 41.5t-196.5 113.5t-139.5 169t-85.5 209t-27.5 233zM272 731q0 -115 30 -219.5
t89 -191.5t159 -139t228 -52t228 52t159 139t89 191.5t30 219.5t-30 219.5t-89 191.5t-159 139t-228 52t-228 -52t-159 -139t-89 -191.5t-30 -219.5zM467 672v164h614v-164h-614z" />
    <glyph glyph-name="Iota" unicode="&#x399;" horiz-adv-x="530" 
d="M168 0v1462h194v-1462h-194z" />
    <glyph glyph-name="Kappa" unicode="&#x39a;" horiz-adv-x="1366" 
d="M160 0v1462h194v-729l742 729h252l-617 -590l641 -872h-246l-528 739l-244 -227v-512h-194z" />
    <glyph glyph-name="Lambda" unicode="&#x39b;" horiz-adv-x="1255" 
d="M-14 0l536 1462h217l533 -1462h-211l-432 1268h-4l-437 -1268h-202z" />
    <glyph glyph-name="Mu" unicode="&#x39c;" horiz-adv-x="1783" 
d="M164 0v1462h266l461 -1229l463 1229h266v-1462h-184v1217h-4l-457 -1217h-166l-457 1217h-4v-1217h-184z" />
    <glyph glyph-name="Nu" unicode="&#x39d;" horiz-adv-x="1478" 
d="M158 0v1462h207l770 -1186h4v1186h184v-1462h-213l-764 1174h-4v-1174h-184z" />
    <glyph glyph-name="Xi" unicode="&#x39e;" horiz-adv-x="1167" 
d="M96 1298v164h975v-164h-975zM166 670v164h835v-164h-835zM76 0v164h1016v-164h-1016z" />
    <glyph glyph-name="Omicron" unicode="&#x39f;" horiz-adv-x="1556" 
d="M78 731q0 121 27.5 233t85.5 209t139.5 169t196.5 113.5t251 41.5t251 -41.5t197 -113.5t139.5 -169t85.5 -209t28 -233t-28 -233t-85.5 -209t-139.5 -169t-197 -113.5t-251 -41.5t-251 41.5t-196.5 113.5t-139.5 169t-85.5 209t-27.5 233zM272 731q0 -115 30 -219.5
t89 -191.5t159 -139t228 -52t228 52t159 139t89 191.5t30 219.5t-30 219.5t-89 191.5t-159 139t-228 52t-228 -52t-159 -139t-89 -191.5t-30 -219.5z" />
    <glyph glyph-name="Pi" unicode="&#x3a0;" horiz-adv-x="1464" 
d="M160 0v1462h1145v-1462h-195v1298h-756v-1298h-194z" />
    <glyph glyph-name="Rho" unicode="&#x3a1;" horiz-adv-x="1327" 
d="M160 0v1462h641q218 0 333 -113t115 -319t-115.5 -319.5t-332.5 -112.5h-447v-598h-194zM354 1298v-536h381q320 -3 320 268q0 268 -320 268h-381z" />
    <glyph glyph-name="Sigma" unicode="&#x3a3;" horiz-adv-x="1249" 
d="M1180 0h-1094v158l565 602l-540 545v157h1034v-164h-780l524 -528v-8l-553 -598h844v-164z" />
    <glyph glyph-name="Tau" unicode="&#x3a4;" horiz-adv-x="1175" 
d="M492 0v1298h-488v164h1170v-164h-488v-1298h-194z" />
    <glyph glyph-name="Upsilon" unicode="&#x3a5;" horiz-adv-x="1327" 
d="M1323 1462l-559 -864v-598h-195v598l-565 864h232l438 -696l428 696h221z" />
    <glyph glyph-name="Phi" unicode="&#x3a6;" horiz-adv-x="1591" 
d="M698 1524h195v-142q143 -5 255.5 -44t194.5 -114t126 -192t44 -270q0 -292 -167 -445.5t-453 -162.5v-154h-195v154q-144 5 -255.5 41t-194.5 107t-126.5 185t-43.5 267q0 197 79 338t217 212.5t324 77.5v142zM891 1219v-902q101 5 177.5 31t133.5 77.5t87 136t30 200.5
q0 437 -428 457zM700 317v902q-203 -9 -315.5 -123t-112.5 -342q0 -117 29.5 -200.5t87.5 -133.5t133.5 -74t177.5 -29z" />
    <glyph glyph-name="Chi" unicode="&#x3a7;" horiz-adv-x="1251" 
d="M-2 0l510 752l-481 710h233l365 -571l381 571h217l-484 -710l514 -752h-237l-393 604l-406 -604h-219z" />
    <glyph glyph-name="Psi" unicode="&#x3a8;" horiz-adv-x="1693" 
d="M750 492v970h194v-970q211 3 310.5 98t99.5 315v557h194v-563q0 -280 -148 -424t-456 -153v-322h-194v322q-322 3 -463.5 144.5t-141.5 432.5v563h195v-557q0 -223 97 -316.5t313 -96.5z" />
    <glyph glyph-name="uni03A9" unicode="&#x3a9;" horiz-adv-x="1554" 
d="M1489 164v-164h-578v147q179 122 270 294t91 382q0 143 -57.5 257.5t-170.5 183.5t-262 69q-224 0 -361.5 -145.5t-137.5 -384.5q0 -409 368 -656v-147h-579v164h350v8q-169 118 -251.5 272.5t-82.5 356.5q0 197 87.5 355.5t246.5 249.5t360 91q155 0 285 -54.5
t216.5 -147t134.5 -215t48 -259.5q0 -410 -336 -649v-8h359z" />
    <glyph glyph-name="Iotadieresis" unicode="&#x3aa;" horiz-adv-x="530" 
d="M367 1624v213h184v-213h-184zM-18 1624v213h184v-213h-184zM168 0v1462h194v-1462h-194z" />
    <glyph glyph-name="Upsilondieresis" unicode="&#x3ab;" horiz-adv-x="1327" 
d="M772 1624v213h184v-213h-184zM387 1624v213h184v-213h-184zM1323 1462l-559 -864v-598h-195v598l-565 864h232l438 -696l428 696h221z" />
    <glyph glyph-name="alphatonos" unicode="&#x3ac;" horiz-adv-x="1202" 
d="M1042 1059v-828q0 -52 18.5 -78t47.5 -26q32 0 68 8v-135q-52 -25 -121 -25q-80 0 -128 46.5t-55 134.5h-4q-93 -181 -333 -181q-90 0 -166 30.5t-130 83.5t-91.5 124t-55.5 151.5t-18 167.5q0 110 30 207.5t87.5 175t152.5 123t215 45.5q95 0 178 -45t127 -120h4v141
h174zM258 520q0 -57 10.5 -111.5t34.5 -105.5t58 -89.5t85 -61.5t113 -23q85 0 148 34t98.5 92.5t52 126.5t16.5 146q0 63 -12 121.5t-36.5 109.5t-60 89t-85.5 60t-109 22q-71 0 -126.5 -24.5t-90 -64t-57 -94t-31 -110t-8.5 -117.5zM514 1206l68 293h225l-154 -293h-139z
" />
    <glyph glyph-name="epsilontonos" unicode="&#x3ad;" horiz-adv-x="993" 
d="M915 774h-172q-13 83 -70 121.5t-163 38.5q-229 0 -229 -158q0 -74 44.5 -111.5t123.5 -37.5h165v-150h-161q-203 0 -203 -168q0 -93 70 -138.5t194 -45.5q114 0 182 46t88 165h179q-28 -190 -150 -275.5t-334 -85.5q-79 0 -150.5 18t-132.5 54.5t-97 101t-36 150.5
q0 98 53 164t136 86v4q-154 51 -154 219q0 97 57.5 169t149.5 107t205 35q358 0 405 -309zM424 1206l68 293h225l-154 -293h-139z" />
    <glyph glyph-name="etatonos" unicode="&#x3ae;" horiz-adv-x="1140" 
d="M131 0v1059h164v-168h4q108 192 344 192q102 0 174.5 -28t113.5 -81t59 -121t18 -157v-1102h-174v1123q0 98 -58 155.5t-158 57.5q-153 0 -233 -91.5t-80 -240.5v-598h-174zM518 1206l68 293h225l-154 -293h-139z" />
    <glyph glyph-name="iotatonos" unicode="&#x3af;" horiz-adv-x="485" 
d="M141 1059h174v-830q0 -54 17 -78t55 -24q27 0 72 10v-135q-65 -27 -135 -27q-183 0 -183 209v875zM162 1206l67 293h226l-154 -293h-139z" />
    <glyph glyph-name="upsilondieresistonos" unicode="&#x3b0;" horiz-adv-x="1079" 
d="M123 1059h174v-668q0 -147 59 -204.5t181 -57.5q292 0 292 432q0 116 -32 253t-95 245h189q58 -104 86.5 -240t28.5 -254q0 -276 -119 -433t-350 -157q-209 0 -311.5 90t-102.5 283v711zM426 1206l76 293h180l-129 -293h-127zM891 1446v-213h-172v213h172zM362 1446v-213
h-172v213h172z" />
    <glyph glyph-name="alpha" unicode="&#x3b1;" horiz-adv-x="1202" 
d="M1042 1059v-828q0 -52 18.5 -78t47.5 -26q32 0 68 8v-135q-52 -25 -121 -25q-80 0 -128 46.5t-55 134.5h-4q-93 -181 -333 -181q-90 0 -166 30.5t-130 83.5t-91.5 124t-55.5 151.5t-18 167.5q0 110 30 207.5t87.5 175t152.5 123t215 45.5q95 0 178 -45t127 -120h4v141
h174zM258 520q0 -57 10.5 -111.5t34.5 -105.5t58 -89.5t85 -61.5t113 -23q85 0 148 34t98.5 92.5t52 126.5t16.5 146q0 63 -12 121.5t-36.5 109.5t-60 89t-85.5 60t-109 22q-71 0 -126.5 -24.5t-90 -64t-57 -94t-31 -110t-8.5 -117.5z" />
    <glyph glyph-name="beta" unicode="&#x3b2;" horiz-adv-x="1155" 
d="M137 -406v1465q0 226 104.5 332t317.5 106q108 0 191 -28t132 -77.5t73 -111.5t24 -135q0 -109 -54 -182.5t-128 -94.5v-4q144 -29 214 -139.5t70 -273.5q0 -96 -26 -176.5t-70 -135t-102 -92.5t-120.5 -55t-127.5 -17q-117 0 -200.5 46.5t-123.5 117.5v-545h-174z
M311 1032v-504q0 -195 78.5 -297t214.5 -102q42 0 81 9t78.5 31t68.5 55t47 85.5t18 118.5q0 168 -65 246t-201 78h-123v139h55q109 0 170.5 71t61.5 183q0 94 -61 147.5t-175 53.5q-130 0 -189 -72.5t-59 -241.5z" />
    <glyph glyph-name="gamma" unicode="&#x3b3;" horiz-adv-x="952" 
d="M745 1059h183q-88 -581 -389 -1084v-381h-181v300q0 232 -105.5 590t-223.5 575h192q81 -134 161 -397.5t103 -444.5h9q169 330 251 842z" />
    <glyph glyph-name="delta" unicode="&#x3b4;" horiz-adv-x="1134" 
d="M74 510q0 188 97.5 314.5t281.5 170.5q-120 71 -166 137t-43 138q2 39 21 76.5t58 72.5t112 56.5t171 21.5q77 0 165.5 -15.5t148.5 -45.5v-154q-66 29 -160.5 49.5t-153.5 20.5q-184 0 -184 -101q0 -34 46 -73t150 -103l72 -45q66 -41 111 -74t98.5 -83t85.5 -100
t54 -119.5t22 -147.5q0 -110 -28.5 -204.5t-85.5 -168.5t-151 -116t-216 -42q-123 0 -220.5 41t-159 114t-94 169.5t-32.5 210.5zM258 510q0 -184 87.5 -282.5t234.5 -98.5q138 0 217.5 100t79.5 277q0 121 -68.5 219t-226.5 188q-167 -29 -245.5 -130t-78.5 -273z" />
    <glyph glyph-name="epsilon" unicode="&#x3b5;" horiz-adv-x="993" 
d="M915 774h-172q-13 83 -70 121.5t-163 38.5q-229 0 -229 -158q0 -74 44.5 -111.5t123.5 -37.5h165v-150h-161q-203 0 -203 -168q0 -93 70 -138.5t194 -45.5q114 0 182 46t88 165h179q-28 -190 -150 -275.5t-334 -85.5q-79 0 -150.5 18t-132.5 54.5t-97 101t-36 150.5
q0 98 53 164t136 86v4q-154 51 -154 219q0 97 57.5 169t149.5 107t205 35q358 0 405 -309z" />
    <glyph glyph-name="zeta" unicode="&#x3b6;" horiz-adv-x="886" 
d="M594 152h31q133 0 193.5 -64.5t60.5 -191.5q0 -113 -25 -211h-168q25 117 25 180q0 22 -1 38t-6.5 35.5t-14.5 32t-26.5 21t-41.5 8.5h-72q-221 0 -346 143t-125 394q0 261 132.5 463.5t379.5 308.5h-416v153h713v-139q-331 -132 -482 -328.5t-143 -457.5q6 -193 85 -289
t247 -96z" />
    <glyph glyph-name="eta" unicode="&#x3b7;" horiz-adv-x="1140" 
d="M131 0v1059h164v-168h4q108 192 344 192q102 0 174.5 -28t113.5 -81t59 -121t18 -157v-1102h-174v1123q0 98 -58 155.5t-158 57.5q-153 0 -233 -91.5t-80 -240.5v-598h-174z" />
    <glyph glyph-name="theta" unicode="&#x3b8;" horiz-adv-x="1093" 
d="M547 1497q105 0 185.5 -35.5t134.5 -99.5t88.5 -160t49.5 -210t15 -257q0 -141 -15 -255t-50 -209.5t-89 -160t-134.5 -100t-184.5 -35.5q-105 0 -186.5 37t-135 102.5t-88 162t-49 208.5t-14.5 250q0 762 473 762zM260 819h571q-4 104 -14.5 182.5t-31 145t-52 108.5
t-78 65t-108.5 23q-65 0 -113.5 -23.5t-79.5 -65t-51 -108.5t-29.5 -144t-13.5 -183zM547 129q159 0 217 117.5t70 435.5h-574q4 -211 32 -329t88 -171t167 -53z" />
    <glyph glyph-name="iota" unicode="&#x3b9;" horiz-adv-x="485" 
d="M141 1059h174v-830q0 -54 17 -78t55 -24q27 0 72 10v-135q-65 -27 -135 -27q-183 0 -183 209v875z" />
    <glyph glyph-name="kappa" unicode="&#x3ba;" horiz-adv-x="1052" 
d="M131 0v1059h174v-490l483 490h234l-428 -408l459 -651h-222l-364 526l-162 -153v-373h-174z" />
    <glyph glyph-name="lambda" unicode="&#x3bb;" horiz-adv-x="1060" 
d="M549 1214l377 -1052q14 -35 57 -35q32 0 66 10v-135q-55 -27 -109 -27q-66 0 -105.5 27.5t-60.5 85.5l-242 715h-4l-305 -803h-198l424 995l-97 252q-21 52 -51.5 74t-83.5 22q-45 0 -98 -12v144q61 22 133 22q114 0 176.5 -61t120.5 -222z" />
    <glyph glyph-name="uni03BC" unicode="&#x3bc;" 
d="M1008 1059v-1059h-164v168h-4q-57 -95 -141 -144t-181 -49q-134 0 -203 72h-4v-453h-174v1465h174v-717q0 -98 56.5 -155.5t154.5 -57.5q151 0 231.5 91.5t80.5 240.5v598h174z" />
    <glyph glyph-name="nu" unicode="&#x3bd;" horiz-adv-x="991" 
d="M786 1059h181q-80 -504 -371 -1059h-186l-381 1059h194l289 -881q94 195 168 430.5t106 450.5z" />
    <glyph glyph-name="xi" unicode="&#x3be;" horiz-adv-x="870" 
d="M522 0q-106 0 -192 33.5t-140 90.5t-83 129.5t-29 152.5q0 141 69 235.5t201 134.5v4q-96 31 -158.5 115.5t-62.5 189.5q0 191 119.5 301.5t310.5 110.5q149 0 281 -53v-154q-139 58 -281 58q-112 0 -182 -69.5t-70 -193.5q0 -106 75.5 -169.5t217.5 -63.5h190v-154h-198
q-172 0 -251 -69.5t-79 -208.5q0 -144 93.5 -212t262.5 -56q133 0 193.5 -64.5t60.5 -191.5q0 -117 -24 -211h-168q24 112 24 180q0 19 -1 32t-3.5 29t-8 26.5t-14 21.5t-22 17t-31.5 10t-43.5 3.5t-56.5 -4.5z" />
    <glyph glyph-name="omicron" unicode="&#x3bf;" horiz-adv-x="1175" 
d="M74 528q0 158 57.5 282t175.5 198.5t281 74.5t281 -74.5t175.5 -198.5t57.5 -282q0 -157 -57.5 -280.5t-175.5 -198t-281 -74.5t-281 74.5t-175.5 198t-57.5 280.5zM258 528q0 -186 94 -292.5t236 -106.5t236 106.5t94 292.5t-94 294t-236 108t-236 -108t-94 -294z" />
    <glyph glyph-name="pi" unicode="&#x3c0;" horiz-adv-x="1347" 
d="M909 905h-485v-905h-174v905h-209v154h1259v-154h-217v-669q0 -63 24.5 -86t66.5 -23q33 0 71 10v-135q-66 -27 -139 -27q-197 0 -197 211v719z" />
    <glyph glyph-name="rho" unicode="&#x3c1;" horiz-adv-x="1167" 
d="M123 -406v932q0 255 128 406t353 151q122 0 218 -46t154 -125t88 -177.5t30 -208.5q0 -81 -15.5 -157.5t-52 -148.5t-89.5 -126t-133.5 -86.5t-178.5 -32.5q-82 0 -177.5 41t-146.5 125h-4v-547h-174zM909 539q0 79 -17 147t-53 124t-98 88t-145 32q-144 0 -223.5 -107
t-79.5 -293q0 -80 18.5 -150.5t55 -128t99.5 -91t144 -33.5q93 0 163 60.5t103 152.5t33 199z" />
    <glyph glyph-name="sigma1" unicode="&#x3c2;" horiz-adv-x="1050" 
d="M999 774h-182q-30 81 -89.5 118.5t-152.5 37.5q-70 0 -125 -22t-90.5 -59t-59 -88t-33 -106.5t-9.5 -117.5q0 -190 89 -287.5t243 -97.5h67q133 0 193.5 -64.5t60.5 -191.5q0 -117 -24 -211h-168q24 112 24 180q0 22 -1 38t-6.5 35.5t-15 32t-27 21t-42.5 8.5h-94
q-221 0 -352 144t-131 393q0 116 30.5 213.5t90.5 172.5t157.5 117.5t222.5 42.5q159 0 274 -75.5t150 -233.5z" />
    <glyph glyph-name="sigma" unicode="&#x3c3;" horiz-adv-x="1157" 
d="M74 528q0 236 149 383.5t400 147.5h530v-154h-246q77 -58 120.5 -161.5t43.5 -215.5q0 -79 -18.5 -156.5t-59 -149.5t-97.5 -126.5t-140 -87.5t-181 -33q-157 0 -272.5 74.5t-172 198t-56.5 280.5zM258 528q0 -191 91 -295t226 -104q151 0 231.5 109t80.5 290
q0 257 -146 379h-102q-174 0 -277.5 -96.5t-103.5 -282.5z" />
    <glyph glyph-name="tau" unicode="&#x3c4;" horiz-adv-x="925" 
d="M358 905h-352v154h914v-154h-388v-669q0 -64 26.5 -86.5t76.5 -22.5q42 0 80 10v-135q-66 -27 -148 -27q-102 0 -155.5 49.5t-53.5 161.5v719z" />
    <glyph glyph-name="upsilon" unicode="&#x3c5;" horiz-adv-x="1079" 
d="M123 1059h174v-668q0 -147 59 -204.5t181 -57.5q292 0 292 432q0 116 -32 253t-95 245h189q58 -104 86.5 -240t28.5 -254q0 -276 -119 -433t-350 -157q-209 0 -311.5 90t-102.5 283v711z" />
    <glyph glyph-name="phi" unicode="&#x3c6;" horiz-adv-x="1466" 
d="M819 1364v-279q263 -2 422.5 -146.5t159.5 -399.5q0 -140 -44 -246.5t-124 -171.5t-182.5 -99.5t-227.5 -39.5v-388h-178v388q-101 3 -186.5 24t-159 64.5t-124.5 106.5t-80 154t-29 204q0 256 158.5 402t420.5 148v279h174zM819 936v-799q178 -5 288 99.5t110 302.5
q0 181 -108 292t-290 105zM645 133v799q-182 6 -288.5 -104.5t-106.5 -292.5q0 -198 108.5 -302.5t286.5 -99.5z" />
    <glyph glyph-name="chi" unicode="&#x3c7;" horiz-adv-x="919" 
d="M557 391l383 -797h-203l-284 615l-271 -615h-202l387 785l-347 680h197l248 -508l248 508h196z" />
    <glyph glyph-name="psi" unicode="&#x3c8;" horiz-adv-x="1355" 
d="M772 129q332 23 332 432q0 116 -32 253t-95 245h182q58 -104 86.5 -240t28.5 -254q0 -277 -133.5 -427.5t-368.5 -162.5v-381h-174v381q-125 7 -217.5 50t-146 114.5t-78.5 160t-25 196.5v563h174v-549q0 -172 67 -269.5t226 -111.5v1233h174v-1233z" />
    <glyph glyph-name="omega" unicode="&#x3c9;" horiz-adv-x="1472" 
d="M649 367v458h168v-458q0 -122 47 -180t131 -58q78 0 128.5 52.5t70.5 132.5t20 186q0 310 -188 559h201q92 -122 132 -262t40 -312q0 -138 -46 -253t-137 -186t-210 -71q-97 0 -171.5 55t-105.5 167l-4 -13q-42 -112 -107.5 -160.5t-164.5 -48.5q-94 0 -167.5 41.5
t-119 112.5t-69 161t-23.5 193q0 334 174 576h198q-188 -246 -188 -561q0 -76 11 -139.5t35 -116.5t67 -83t102 -30q176 0 176 238z" />
    <glyph glyph-name="iotadieresis" unicode="&#x3ca;" horiz-adv-x="485" 
d="M141 1059h174v-830q0 -54 17 -78t55 -24q27 0 72 10v-135q-65 -27 -135 -27q-183 0 -183 209v875zM330 1233v213h184v-213h-184zM-55 1233v213h184v-213h-184z" />
    <glyph glyph-name="upsilondieresis" unicode="&#x3cb;" horiz-adv-x="1079" 
d="M123 1059h174v-668q0 -147 59 -204.5t181 -57.5q292 0 292 432q0 116 -32 253t-95 245h189q58 -104 86.5 -240t28.5 -254q0 -276 -119 -433t-350 -157q-209 0 -311.5 90t-102.5 283v711zM633 1233v213h184v-213h-184zM248 1233v213h184v-213h-184z" />
    <glyph glyph-name="omicrontonos" unicode="&#x3cc;" horiz-adv-x="1175" 
d="M506 1206l67 293h226l-154 -293h-139zM74 528q0 158 57.5 282t175.5 198.5t281 74.5t281 -74.5t175.5 -198.5t57.5 -282q0 -157 -57.5 -280.5t-175.5 -198t-281 -74.5t-281 74.5t-175.5 198t-57.5 280.5zM258 528q0 -186 94 -292.5t236 -106.5t236 106.5t94 292.5
t-94 294t-236 108t-236 -108t-94 -294z" />
    <glyph glyph-name="upsilontonos" unicode="&#x3cd;" horiz-adv-x="1079" 
d="M123 1059h174v-668q0 -147 59 -204.5t181 -57.5q292 0 292 432q0 116 -32 253t-95 245h189q58 -104 86.5 -240t28.5 -254q0 -276 -119 -433t-350 -157q-209 0 -311.5 90t-102.5 283v711zM440 1206l68 293h225l-153 -293h-140z" />
    <glyph glyph-name="omegatonos" unicode="&#x3ce;" horiz-adv-x="1472" 
d="M649 367v458h168v-458q0 -122 47 -180t131 -58q78 0 128.5 52.5t70.5 132.5t20 186q0 310 -188 559h201q92 -122 132 -262t40 -312q0 -138 -46 -253t-137 -186t-210 -71q-97 0 -171.5 55t-105.5 167l-4 -13q-42 -112 -107.5 -160.5t-164.5 -48.5q-94 0 -167.5 41.5
t-119 112.5t-69 161t-23.5 193q0 334 174 576h198q-188 -246 -188 -561q0 -76 11 -139.5t35 -116.5t67 -83t102 -30q176 0 176 238zM668 1206l67 293h226l-154 -293h-139z" />
    <glyph glyph-name="uni0400" unicode="&#x400;" horiz-adv-x="1251" 
d="M160 0v1462h1009v-164h-815v-464h760v-164h-760v-506h822v-164h-1016zM608 1595l-268 293h223l176 -293h-131z" />
    <glyph glyph-name="afii10023" unicode="&#x401;" horiz-adv-x="1251" 
d="M160 0v1462h1009v-164h-815v-464h760v-164h-760v-506h822v-164h-1016zM754 1624v213h184v-213h-184zM369 1624v213h184v-213h-184z" />
    <glyph glyph-name="afii10051" unicode="&#x402;" horiz-adv-x="1527" 
d="M1456 354q0 -122 -39 -234t-110.5 -199.5t-181.5 -140.5t-244 -56v165q184 12 282.5 141.5t98.5 323.5q0 187 -83.5 288t-234.5 101q-146 0 -234.5 -94t-88.5 -268v-381h-195v1298h-422v164h1170v-164h-553v-563h4q55 85 146.5 127.5t201.5 42.5q222 0 352.5 -148.5
t130.5 -402.5z" />
    <glyph glyph-name="afii10052" unicode="&#x403;" horiz-adv-x="1130" 
d="M354 0h-194v1462h958v-164h-764v-1298zM479 1595l176 293h224l-269 -293h-131z" />
    <glyph glyph-name="afii10053" unicode="&#x404;" horiz-adv-x="1478" 
d="M1395 506q-34 -256 -202 -398.5t-429 -142.5q-316 0 -496 204t-180 558q0 130 27.5 245.5t84.5 211.5t138 165.5t193.5 108.5t246.5 39q154 0 281 -49.5t215 -154.5t110 -253h-194q-34 141 -142.5 217t-273.5 76q-112 0 -203 -38.5t-149.5 -106t-92.5 -154t-42 -186.5
h704v-164h-708q5 -258 135 -406.5t354 -148.5q176 0 288 97.5t140 279.5h195z" />
    <glyph glyph-name="afii10054" unicode="&#x405;" horiz-adv-x="1327" 
d="M1190 1034h-184q-33 299 -363 299q-66 0 -122 -13t-103.5 -40.5t-75 -78t-27.5 -118.5q0 -57 32 -99t86 -66.5t124.5 -43t148 -35t155 -35.5t148 -51t124.5 -75.5t86 -114t32 -162.5q0 -90 -34 -164.5t-90 -124t-131 -83.5t-154.5 -49t-161.5 -15q-126 0 -233.5 31.5
t-191 93t-131.5 162t-48 229.5h184q0 -89 35 -158t95.5 -110.5t135.5 -62.5t160 -21q72 0 133.5 12.5t117 41t88 82.5t32.5 130q0 64 -32 110.5t-86 74.5t-124.5 48.5t-148 36.5t-155 34t-148 46.5t-124.5 68t-86 104.5t-32 151t29.5 157.5t80 121t118.5 83.5t144 50t158 16
q114 0 209 -27.5t168.5 -82.5t115.5 -145t46 -208z" />
    <glyph glyph-name="afii10055" unicode="&#x406;" horiz-adv-x="530" 
d="M168 0v1462h194v-1462h-194z" />
    <glyph glyph-name="afii10056" unicode="&#x407;" horiz-adv-x="530" 
d="M168 0v1462h194v-1462h-194zM367 1624v213h184v-213h-184zM-18 1624v213h184v-213h-184z" />
    <glyph glyph-name="afii10057" unicode="&#x408;" horiz-adv-x="1062" 
d="M903 1462v-1097q0 -62 -13 -117.5t-45 -108t-80 -90.5t-123.5 -61t-170.5 -23q-205 0 -315.5 110t-110.5 316v90h195v-61q0 -141 51 -216t184 -75q127 0 180.5 67.5t53.5 196.5v1069h194z" />
    <glyph glyph-name="afii10058" unicode="&#x409;" horiz-adv-x="2048" 
d="M1155 1462v-600h356q223 0 341 -111t118 -321q0 -202 -120.5 -316t-340.5 -114h-548v1294h-455l-33 -886q-4 -114 -34.5 -201.5t-80 -139t-109.5 -77t-128 -25.5q-63 0 -129 27v166q61 -21 104 -21q45 0 76 13t56.5 46.5t39.5 96t17 156.5l30 1013h840zM1155 698v-534
h303q320 0 320 266q0 268 -320 268h-303z" />
    <glyph glyph-name="afii10059" unicode="&#x40a;" horiz-adv-x="2048" 
d="M1970 430q0 -202 -120.5 -316t-340.5 -114h-536v698h-619v-698h-194v1462h194v-600h619v600h194v-600h344q223 0 341 -111t118 -321zM1167 698v-534h291q320 0 320 266q0 268 -320 268h-291z" />
    <glyph glyph-name="afii10060" unicode="&#x40b;" horiz-adv-x="1527" 
d="M621 0h-195v1298h-422v164h1170v-164h-553v-454q193 61 360 61q231 0 344 -110t113 -303v-492h-195v461q0 150 -62.5 213t-219.5 63q-160 0 -340 -61v-676z" />
    <glyph glyph-name="afii10061" unicode="&#x40c;" horiz-adv-x="1366" 
d="M160 0v1462h194v-729l742 729h252l-617 -590l641 -872h-246l-528 739l-244 -227v-512h-194zM565 1595l176 293h224l-269 -293h-131z" />
    <glyph glyph-name="uni040D" unicode="&#x40d;" horiz-adv-x="1478" 
d="M160 0v1462h194v-1222h4l715 1222h246v-1462h-195v1227h-4l-717 -1227h-243zM719 1595l-268 293h223l176 -293h-131z" />
    <glyph glyph-name="afii10062" unicode="&#x40e;" horiz-adv-x="1251" 
d="M528 387l-528 1075h211l422 -893l422 893h207l-621 -1253q-119 -244 -342 -244q-90 0 -172 31v164q95 -31 143 -31q69 0 124 41t104 149zM317 1882h103q50 -170 229 -170q82 0 125.5 41.5t77.5 128.5h104q-24 -133 -107 -208t-216 -75q-274 0 -316 283z" />
    <glyph glyph-name="afii10145" unicode="&#x40f;" horiz-adv-x="1478" 
d="M838 0v-362h-195v362h-483v1462h194v-1298h770v1298h195v-1462h-481z" />
    <glyph glyph-name="afii10017" unicode="&#x410;" horiz-adv-x="1327" 
d="M-14 0l571 1462h215l571 -1462h-215l-159 440h-619l-164 -440h-200zM412 604h495l-243 682h-5z" />
    <glyph glyph-name="afii10018" unicode="&#x411;" horiz-adv-x="1376" 
d="M1290 430q0 -202 -120.5 -316t-340.5 -114h-669v1462h1001v-164h-807v-436h477q223 0 341 -111t118 -321zM354 698v-534h422q320 0 320 266q0 268 -320 268h-422z" />
    <glyph glyph-name="afii10019" unicode="&#x412;" horiz-adv-x="1402" 
d="M160 0v1462h530q90 0 143 -1.5t128.5 -14.5t115.5 -37q77 -46 124.5 -124t47.5 -181q0 -116 -57 -201t-160 -127v-4q134 -29 206.5 -122.5t72.5 -229.5q0 -81 -29.5 -155.5t-84 -134t-140.5 -95t-191 -35.5h-706zM354 834h389q163 0 237.5 57t74.5 176q0 60 -17 103
t-43.5 67.5t-69 38.5t-84 18t-98.5 4h-389v-464zM354 164h488q127 0 200.5 70t73.5 192q0 69 -26 118t-72 75.5t-99.5 38.5t-119.5 12h-445v-506z" />
    <glyph glyph-name="afii10020" unicode="&#x413;" horiz-adv-x="1130" 
d="M354 0h-194v1462h958v-164h-764v-1298z" />
    <glyph glyph-name="afii10021" unicode="&#x414;" horiz-adv-x="1478" 
d="M1454 -362h-194v362h-1047v-362h-195v526h144q102 215 146 441.5t44 492.5v364h940v-1298h162v-526zM1098 164v1134h-553v-206q0 -542 -170 -928h723z" />
    <glyph glyph-name="afii10022" unicode="&#x415;" horiz-adv-x="1251" 
d="M160 0v1462h1009v-164h-815v-464h760v-164h-760v-506h822v-164h-1016z" />
    <glyph glyph-name="afii10024" unicode="&#x416;" horiz-adv-x="2054" 
d="M2071 0h-242l-533 735l-172 -184v-551h-194v551l-172 180l-535 -731h-239l645 854l-580 608h244l637 -680v680h194v-680l641 680h240l-582 -600z" />
    <glyph glyph-name="afii10025" unicode="&#x417;" horiz-adv-x="1339" 
d="M1251 416q0 -196 -158 -323.5t-415 -127.5q-179 0 -310 54.5t-207.5 172t-76.5 289.5h186q3 -96 37 -167t92 -111.5t129.5 -60t157.5 -19.5q166 0 269.5 81t103.5 216q0 65 -20 113t-53 76.5t-82.5 45.5t-99.5 23t-114 6q-76 0 -131 -2v160q53 -2 131 -2q148 0 233 58
t85 185q0 125 -81.5 189.5t-232.5 64.5q-166 0 -257.5 -72t-108.5 -227h-187q9 226 162 342.5t397 116.5q229 0 364.5 -107t135.5 -298q0 -110 -71.5 -195t-170.5 -115v-6q139 -27 216 -127.5t77 -232.5z" />
    <glyph glyph-name="afii10026" unicode="&#x418;" horiz-adv-x="1478" 
d="M160 0v1462h194v-1222h4l715 1222h246v-1462h-195v1227h-4l-717 -1227h-243z" />
    <glyph glyph-name="afii10027" unicode="&#x419;" horiz-adv-x="1478" 
d="M160 0v1462h194v-1222h4l715 1222h246v-1462h-195v1227h-4l-717 -1227h-243zM430 1882h102q50 -170 230 -170q82 0 125.5 41.5t77.5 128.5h104q-24 -133 -107.5 -208t-216.5 -75q-273 0 -315 283z" />
    <glyph glyph-name="afii10028" unicode="&#x41a;" horiz-adv-x="1366" 
d="M160 0v1462h194v-729l742 729h252l-617 -590l641 -872h-246l-528 739l-244 -227v-512h-194z" />
    <glyph glyph-name="afii10029" unicode="&#x41b;" horiz-adv-x="1396" 
d="M1231 1462v-1462h-195v1294h-530l-33 -886q-4 -114 -34.5 -201.5t-80 -139t-109.5 -77t-128 -25.5q-63 0 -129 27v166q61 -21 104 -21q45 0 76 13t56.5 46.5t39.5 96t17 156.5l30 1013h916z" />
    <glyph glyph-name="afii10030" unicode="&#x41c;" horiz-adv-x="1783" 
d="M164 0v1462h266l461 -1229l463 1229h266v-1462h-184v1217h-4l-457 -1217h-166l-457 1217h-4v-1217h-184z" />
    <glyph glyph-name="afii10031" unicode="&#x41d;" horiz-adv-x="1478" 
d="M160 0v1462h194v-628h770v628h195v-1462h-195v670h-770v-670h-194z" />
    <glyph glyph-name="afii10032" unicode="&#x41e;" horiz-adv-x="1556" 
d="M78 731q0 121 27.5 233t85.5 209t139.5 169t196.5 113.5t251 41.5t251 -41.5t197 -113.5t139.5 -169t85.5 -209t28 -233t-28 -233t-85.5 -209t-139.5 -169t-197 -113.5t-251 -41.5t-251 41.5t-196.5 113.5t-139.5 169t-85.5 209t-27.5 233zM272 731q0 -115 30 -219.5
t89 -191.5t159 -139t228 -52t228 52t159 139t89 191.5t30 219.5t-30 219.5t-89 191.5t-159 139t-228 52t-228 -52t-159 -139t-89 -191.5t-30 -219.5z" />
    <glyph glyph-name="afii10033" unicode="&#x41f;" horiz-adv-x="1478" 
d="M1319 1462v-1462h-195v1298h-770v-1298h-194v1462h1159z" />
    <glyph glyph-name="afii10034" unicode="&#x420;" horiz-adv-x="1327" 
d="M160 0v1462h641q218 0 333 -113t115 -319t-115.5 -319.5t-332.5 -112.5h-447v-598h-194zM354 1298v-536h381q320 -3 320 268q0 268 -320 268h-381z" />
    <glyph glyph-name="afii10035" unicode="&#x421;" horiz-adv-x="1478" 
d="M88 727q0 128 28.5 243.5t86 211.5t139 166.5t194 109.5t244.5 39q155 0 282 -53t213 -162t107 -260h-194q-31 151 -141.5 231t-268.5 80q-101 0 -184.5 -32.5t-140.5 -88t-96 -131.5t-56.5 -161t-17.5 -179q0 -102 18 -192t56.5 -167.5t96 -133.5t141 -87.5t185.5 -31.5
q186 0 298 117.5t124 304.5h195q-30 -278 -193.5 -432t-439.5 -154q-166 0 -296 59t-212.5 163t-125 241t-42.5 299z" />
    <glyph glyph-name="afii10036" unicode="&#x422;" horiz-adv-x="1175" 
d="M492 0v1298h-488v164h1170v-164h-488v-1298h-194z" />
    <glyph glyph-name="afii10037" unicode="&#x423;" horiz-adv-x="1251" 
d="M528 387l-528 1075h211l422 -893l422 893h207l-621 -1253q-119 -244 -342 -244q-90 0 -172 31v164q95 -31 143 -31q69 0 124 41t104 149z" />
    <glyph glyph-name="afii10038" unicode="&#x424;" horiz-adv-x="1593" 
d="M1530 735q0 -138 -52.5 -245.5t-143 -173.5t-201.5 -101.5t-238 -40.5v-174h-195v174q-128 2 -241.5 38.5t-202.5 104.5t-141 175.5t-52 242.5q0 134 52 243t141 178.5t202.5 108t241.5 42.5v155h195v-155q103 -2 196.5 -26t174 -71.5t139 -114.5t92 -159t33.5 -201z
M1337 735q0 131 -59 224t-157 139t-226 51v-817q199 8 320.5 109t121.5 294zM700 332v817q-128 -4 -226.5 -50t-158 -139.5t-59.5 -224.5q0 -98 33.5 -174t95 -123.5t140 -73.5t175.5 -32z" />
    <glyph glyph-name="afii10039" unicode="&#x425;" horiz-adv-x="1251" 
d="M-2 0l510 752l-481 710h233l365 -571l381 571h217l-484 -710l514 -752h-237l-393 604l-406 -604h-219z" />
    <glyph glyph-name="afii10040" unicode="&#x426;" horiz-adv-x="1478" 
d="M1260 -362v362h-1100v1462h194v-1298h744v1298h194v-1298h162v-526h-194z" />
    <glyph glyph-name="afii10041" unicode="&#x427;" horiz-adv-x="1370" 
d="M1210 0h-194v649q-230 -51 -400 -51q-252 0 -385 108.5t-133 323.5v432h195v-403q0 -152 79.5 -221.5t252.5 -69.5q164 0 391 49v645h194v-1462z" />
    <glyph glyph-name="afii10042" unicode="&#x428;" horiz-adv-x="2197" 
d="M2034 0h-1874v1462h194v-1298h645v1298h195v-1298h645v1298h195v-1462z" />
    <glyph glyph-name="afii10043" unicode="&#x429;" horiz-adv-x="2220" 
d="M2001 0h-1841v1462h194v-1298h645v1298h195v-1298h645v1298h195v-1298h161v-526h-194v362z" />
    <glyph glyph-name="afii10044" unicode="&#x42a;" horiz-adv-x="1644" 
d="M1567 430q0 -202 -120.5 -316t-340.5 -114h-629v1298h-473v164h668v-600h436q223 0 341 -111t118 -321zM672 698v-534h381q319 0 319 266q0 268 -319 268h-381z" />
    <glyph glyph-name="afii10045" unicode="&#x42b;" horiz-adv-x="1783" 
d="M1430 0v1462h194v-1462h-194zM1249 430q0 -202 -120.5 -316t-340.5 -114h-628v1462h194v-600h437q223 0 340.5 -110.5t117.5 -321.5zM354 698v-534h381q320 0 320 266q0 268 -320 268h-381z" />
    <glyph glyph-name="afii10046" unicode="&#x42c;" horiz-adv-x="1327" 
d="M1249 430q0 -202 -120.5 -316t-340.5 -114h-628v1462h194v-600h437q223 0 340.5 -110.5t117.5 -321.5zM354 698v-534h381q320 0 320 266q0 268 -320 268h-381z" />
    <glyph glyph-name="afii10047" unicode="&#x42d;" horiz-adv-x="1478" 
d="M1391 727q0 -173 -52 -317t-142 -241t-214 -150.5t-266 -53.5q-265 0 -431.5 142t-197.5 399h195q29 -185 141 -280t299 -95q129 0 233.5 63.5t169.5 190.5t70 299h-709v164h701q-9 101 -40.5 186t-86 152.5t-141 106t-195.5 38.5q-165 0 -277 -80.5t-155 -210.5h-195
q34 146 129.5 251.5t222 155.5t271.5 50q135 0 246.5 -39.5t189 -109t131 -166.5t78.5 -211t25 -244z" />
    <glyph glyph-name="afii10048" unicode="&#x42e;" horiz-adv-x="2048" 
d="M354 1462v-620h283q11 108 43 204t88 179t131 143.5t177.5 94.5t223.5 34q133 0 244 -41.5t189 -113.5t132 -169.5t79.5 -209t25.5 -232.5t-25.5 -232.5t-79.5 -209t-132 -169.5t-189 -113.5t-244 -41.5q-126 0 -233 38t-183 104t-131 156.5t-84 195t-34 219.5h-281v-678
h-194v1462h194zM823 731q0 -93 16 -178t52 -163t90 -135.5t136 -91.5t183 -34t182.5 34t135.5 91.5t90.5 136t52 163t15.5 177.5t-15.5 177.5t-52 163t-90.5 136t-135.5 91.5t-182.5 34t-183 -34t-136 -91.5t-90 -135.5t-52 -163t-16 -178z" />
    <glyph glyph-name="afii10049" unicode="&#x42f;" horiz-adv-x="1361" 
d="M707 625l-482 -625h-237l489 633q-175 24 -269.5 126.5t-94.5 282.5q0 200 122.5 310t337.5 110h629v-1462h-194v625h-301zM1008 788v510h-410q-145 0 -218 -67.5t-73 -188.5q0 -130 76.5 -192t234.5 -62h390z" />
    <glyph glyph-name="afii10065" unicode="&#x430;" horiz-adv-x="1099" 
d="M1069 139v-135q-50 -29 -125 -29q-147 0 -147 164q-137 -164 -373 -164q-156 0 -253 73t-97 224q0 69 21 122.5t52 86.5t82 57.5t95.5 36t107.5 23.5q38 8 91 16t86.5 12.5t71 14t58.5 22.5t35 36t14 55q0 55 -20.5 92t-57.5 54t-73.5 23.5t-83.5 6.5q-120 0 -189 -45.5
t-75 -155.5h-174q4 95 40.5 165.5t99 110.5t139 59t169.5 19q63 0 115 -6t106.5 -25t91.5 -49.5t61 -84t24 -125.5v-545q0 -31 0.5 -44.5t3 -32t8.5 -25t16.5 -12t26.5 -5.5q23 0 53 10zM786 369v178q-35 -26 -105.5 -40t-139.5 -21.5t-135 -24t-107 -60t-41 -116.5
q0 -80 58.5 -118t146.5 -38q82 0 146.5 23.5t101.5 60t56 77t19 79.5z" />
    <glyph glyph-name="afii10066" unicode="&#x431;" horiz-adv-x="1175" 
d="M78 567q0 132 12.5 236.5t47.5 206.5t92.5 174t152.5 124.5t223 71.5l135 21q68 10 94 23t35 38h174q-19 -104 -87.5 -148.5t-182.5 -60.5l-129 -18q-99 -14 -167.5 -43.5t-115.5 -82t-75 -121.5t-49 -171h6q63 117 168.5 177.5t230.5 60.5q206 0 332.5 -137.5
t126.5 -387.5q0 -257 -143.5 -406t-368.5 -149q-251 0 -381.5 157.5t-130.5 434.5zM256 524q0 -179 91.5 -289t244.5 -110q141 0 233.5 108.5t92.5 292.5q0 176 -84 279.5t-232 103.5q-151 0 -248.5 -103.5t-97.5 -281.5z" />
    <glyph glyph-name="afii10067" unicode="&#x432;" horiz-adv-x="1099" 
d="M131 0v1059h490q180 0 270 -63t90 -195q0 -159 -154 -230v-2q201 -55 201 -258q0 -135 -90 -223t-231 -88h-576zM301 631h315q189 0 189 141q0 137 -195 137h-309v-278zM301 483v-333h373q83 0 130.5 44t47.5 121t-52.5 122.5t-156.5 45.5h-342z" />
    <glyph glyph-name="afii10068" unicode="&#x433;" horiz-adv-x="864" 
d="M856 905h-551v-905h-174v1059h725v-154z" />
    <glyph glyph-name="afii10069" unicode="&#x434;" horiz-adv-x="1175" 
d="M1149 -336h-174v336h-791v-336h-174v490h115q68 160 100.5 311.5t32.5 337.5v256h754v-905h137v-490zM838 154v751h-408v-108q0 -191 -30.5 -341.5t-94.5 -301.5h533z" />
    <glyph glyph-name="afii10070" unicode="&#x435;" horiz-adv-x="1099" 
d="M862 336h172q-35 -176 -152.5 -268.5t-299.5 -92.5q-164 0 -278.5 73t-169.5 196t-60 288q0 239 140 395t357 156q91 0 166.5 -27t127.5 -73.5t90.5 -106t59.5 -129t30 -136.5t6 -134h-793q-3 -95 30.5 -172t111 -126.5t188.5 -49.5q110 0 180.5 52t93.5 155zM258 631
h608q-8 127 -92.5 213t-212.5 86q-131 0 -213 -85.5t-90 -213.5z" />
    <glyph glyph-name="afii10072" unicode="&#x436;" horiz-adv-x="1591" 
d="M573 508l-360 -508h-213l465 618l-406 441h220l426 -481h4v481h174v-492h4l434 492h211l-404 -441l463 -618h-215l-362 508l-131 -137v-371h-174v367z" />
    <glyph glyph-name="afii10073" unicode="&#x437;" horiz-adv-x="1024" 
d="M74 752q6 71 33 128t68.5 94.5t97.5 62t116.5 35.5t128.5 11q185 0 290 -80.5t105 -218.5q0 -152 -174 -213v-4q209 -59 209 -256q0 -105 -60.5 -182.5t-160.5 -115.5t-227 -38q-217 0 -328.5 93t-120.5 266h176q7 -107 79.5 -162t193.5 -55t194.5 50.5t73.5 139.5
q0 172 -225 172h-146v150h117q67 0 113.5 11.5t78 45.5t31.5 90q0 75 -58 120.5t-163 45.5q-110 0 -181.5 -44.5t-84.5 -145.5h-176z" />
    <glyph glyph-name="afii10074" unicode="&#x438;" 
d="M354 0h-223v1059h174v-860h4l475 860h224v-1059h-174v860h-5z" />
    <glyph glyph-name="afii10075" unicode="&#x439;" 
d="M354 0h-223v1059h174v-860h4l475 860h224v-1059h-174v860h-5zM250 1493h102q50 -170 230 -170q82 0 124.5 41t77.5 129h105q-24 -133 -107.5 -208t-216.5 -75q-273 0 -315 283z" />
    <glyph glyph-name="afii10076" unicode="&#x43a;" horiz-adv-x="1052" 
d="M131 0v1059h174v-490l483 490h234l-428 -408l459 -651h-222l-364 526l-162 -153v-373h-174z" />
    <glyph glyph-name="afii10077" unicode="&#x43b;" horiz-adv-x="1118" 
d="M987 1059v-1059h-174v905h-383l-22 -565q-7 -187 -83 -275t-200 -88q-67 0 -121 23v143q44 -16 88 -16q66 0 104 50.5t42 182.5l24 699h725z" />
    <glyph glyph-name="afii10078" unicode="&#x43c;" horiz-adv-x="1409" 
d="M1278 0h-174v840h-6l-314 -840h-159l-314 840h-6v-840h-174v1059h252l322 -864h4l321 864h248v-1059z" />
    <glyph glyph-name="afii10079" unicode="&#x43d;" 
d="M305 0h-174v1059h174v-422h529v422h174v-1059h-174v483h-529v-483z" />
    <glyph glyph-name="afii10080" unicode="&#x43e;" horiz-adv-x="1175" 
d="M74 528q0 158 57.5 282t175.5 198.5t281 74.5t281 -74.5t175.5 -198.5t57.5 -282q0 -157 -57.5 -280.5t-175.5 -198t-281 -74.5t-281 74.5t-175.5 198t-57.5 280.5zM258 528q0 -186 94 -292.5t236 -106.5t236 106.5t94 292.5t-94 294t-236 108t-236 -108t-94 -294z" />
    <glyph glyph-name="afii10081" unicode="&#x43f;" 
d="M305 0h-174v1059h877v-1059h-174v905h-529v-905z" />
    <glyph glyph-name="afii10082" unicode="&#x440;" horiz-adv-x="1214" 
d="M137 -406v1465h174v-144h4q41 84 131.5 126t206.5 42q95 0 175.5 -29t137.5 -80.5t97 -122t59 -152.5t19 -173q0 -115 -30.5 -213.5t-89.5 -174.5t-152.5 -119.5t-211.5 -43.5q-95 0 -192.5 40.5t-149.5 125.5h-4v-547h-174zM956 539q0 77 -20 145.5t-58.5 124t-103 88.5
t-145.5 33q-85 0 -149.5 -34t-101.5 -92.5t-55 -127.5t-18 -146q0 -81 19 -150.5t57.5 -127t104.5 -90.5t153 -33q69 0 124 23t90.5 61.5t59 92t33.5 111t10 122.5z" />
    <glyph glyph-name="afii10083" unicode="&#x441;" horiz-adv-x="1099" 
d="M1030 719h-180q-21 101 -88 156t-174 55q-73 0 -130.5 -23t-94.5 -61t-61 -92.5t-34 -112.5t-10 -125q0 -77 17.5 -144t53.5 -122.5t97 -88t141 -32.5q126 0 199.5 67.5t91.5 190.5h178q-30 -197 -149 -304.5t-318 -107.5q-237 0 -366 148t-129 393q0 162 53.5 288
t168 202.5t277.5 76.5q124 0 220 -37.5t160 -121t77 -205.5z" />
    <glyph glyph-name="afii10084" unicode="&#x442;" horiz-adv-x="948" 
d="M940 905h-379v-905h-174v905h-379v154h932v-154z" />
    <glyph glyph-name="afii10085" unicode="&#x443;" horiz-adv-x="1024" 
d="M1008 1059l-461 -1200q-63 -159 -128 -221t-179 -62q-71 0 -121 18v160l24 -8t27 -8.5t24 -5t27 -2.5q52 0 85 23.5t59 72.5l71 180l-420 1053h197l309 -866h4l297 866h185z" />
    <glyph glyph-name="afii10086" unicode="&#x444;" horiz-adv-x="1640" 
d="M1559 545q0 -92 -14 -173t-46 -155t-80 -127t-121 -84t-165 -31q-61 0 -122 27t-100 78h-4v-486h-174v490h-4q-95 -109 -240 -109q-107 0 -188 47t-127.5 128.5t-69 180.5t-22.5 214q0 250 111 394t301 144q74 0 135 -30t98 -84h6v493h174v-493h6q102 114 246 114
q182 0 291 -144.5t109 -393.5zM1378 541q0 119 -26 206t-84.5 139t-145.5 52q-160 0 -215 -145v-535q11 -58 69 -97.5t136 -39.5q75 0 129.5 37t83 101t41 133t12.5 149zM733 258v533q-32 75 -90 111t-125 36q-87 0 -145.5 -52t-84.5 -139t-26 -206q0 -80 12.5 -149t41 -133
t83 -101t129.5 -37q78 0 136 39.5t69 97.5z" />
    <glyph glyph-name="afii10087" unicode="&#x445;" horiz-adv-x="1060" 
d="M18 0l398 557l-369 502h223l254 -371l264 371h209l-364 -488l409 -571h-223l-295 438l-295 -438h-211z" />
    <glyph glyph-name="afii10088" unicode="&#x446;" horiz-adv-x="1163" 
d="M963 -336v336h-832v1059h174v-905h520v905h174v-905h138v-490h-174z" />
    <glyph glyph-name="afii10089" unicode="&#x447;" horiz-adv-x="1071" 
d="M940 0h-174v469q-175 -49 -328 -49q-165 0 -254.5 77t-89.5 228v334h174v-307q0 -98 51 -141.5t152 -43.5q126 0 295 45v447h174v-1059z" />
    <glyph glyph-name="afii10090" unicode="&#x448;" horiz-adv-x="1656" 
d="M131 0v1059h174v-905h436v905h174v-905h437v905h174v-1059h-1395z" />
    <glyph glyph-name="afii10091" unicode="&#x449;" horiz-adv-x="1689" 
d="M131 0v1059h174v-905h436v905h174v-905h437v905h174v-905h137v-490h-174v336h-1358z" />
    <glyph glyph-name="afii10092" unicode="&#x44a;" horiz-adv-x="1251" 
d="M1206 334q0 -149 -95.5 -241.5t-250.5 -92.5h-549v905h-305v154h479v-404h377q157 0 250.5 -86t93.5 -235zM815 506h-330v-356h328q213 0 213 180q0 85 -54.5 130.5t-156.5 45.5z" />
    <glyph glyph-name="afii10093" unicode="&#x44b;" horiz-adv-x="1449" 
d="M1319 0h-174v1059h174v-1059zM977 332q0 -149 -95.5 -240.5t-250.5 -91.5h-500v1059h174v-404h328q157 0 250.5 -86.5t93.5 -236.5zM586 506h-281v-356h279q213 0 213 178q0 85 -54.5 131.5t-156.5 46.5z" />
    <glyph glyph-name="afii10094" unicode="&#x44c;" horiz-adv-x="1071" 
d="M1026 332q0 -149 -95.5 -240.5t-250.5 -91.5h-549v1059h174v-404h377q157 0 250.5 -86.5t93.5 -236.5zM635 506h-330v-356h328q213 0 213 178q0 85 -54.5 131.5t-156.5 46.5z" />
    <glyph glyph-name="afii10095" unicode="&#x44d;" horiz-adv-x="1099" 
d="M1026 528q0 -256 -133.5 -404.5t-376.5 -148.5q-190 0 -311.5 103t-141.5 282h177q18 -116 93 -175.5t191 -59.5q140 0 227 91.5t91 260.5h-443v154h439q-15 143 -94 223t-209 80q-108 0 -180.5 -46.5t-98.5 -137.5h-184q31 156 153.5 244.5t306.5 88.5q235 0 364.5 -149
t129.5 -406z" />
    <glyph glyph-name="afii10096" unicode="&#x44e;" horiz-adv-x="1568" 
d="M305 635h215q26 202 150.5 325t333.5 123q119 0 213.5 -43t154.5 -118.5t91.5 -175.5t31.5 -218q0 -117 -31.5 -217t-91.5 -175.5t-154.5 -118t-213.5 -42.5q-149 0 -259 68t-167 181.5t-64 260.5h-209v-485h-174v1059h174v-424zM694 528q0 -190 85 -294.5t225 -104.5
t223.5 104t83.5 295t-83.5 296.5t-223.5 105.5t-225 -105.5t-85 -296.5z" />
    <glyph glyph-name="afii10097" unicode="&#x44f;" horiz-adv-x="1095" 
d="M965 0h-174v432h-232l-334 -432h-231l364 438q-117 18 -189.5 98t-72.5 209q0 146 92.5 230t247.5 84h529v-1059zM791 905h-328q-96 0 -142.5 -42.5t-46.5 -117.5q0 -159 193 -159h324v319z" />
    <glyph glyph-name="uni0450" unicode="&#x450;" horiz-adv-x="1099" 
d="M537 1206l-269 293h224l176 -293h-131zM862 336h172q-35 -176 -152.5 -268.5t-299.5 -92.5q-164 0 -278.5 73t-169.5 196t-60 288q0 239 140 395t357 156q91 0 166.5 -27t127.5 -73.5t90.5 -106t59.5 -129t30 -136.5t6 -134h-793q-3 -95 30.5 -172t111 -126.5
t188.5 -49.5q110 0 180.5 52t93.5 155zM258 631h608q-8 127 -92.5 213t-212.5 86q-131 0 -213 -85.5t-90 -213.5z" />
    <glyph glyph-name="afii10071" unicode="&#x451;" horiz-adv-x="1099" 
d="M676 1233v213h184v-213h-184zM291 1233v213h184v-213h-184zM862 336h172q-35 -176 -152.5 -268.5t-299.5 -92.5q-164 0 -278.5 73t-169.5 196t-60 288q0 239 140 395t357 156q91 0 166.5 -27t127.5 -73.5t90.5 -106t59.5 -129t30 -136.5t6 -134h-793q-3 -95 30.5 -172
t111 -126.5t188.5 -49.5q110 0 180.5 52t93.5 155zM258 631h608q-8 127 -92.5 213t-212.5 86q-131 0 -213 -85.5t-90 -213.5z" />
    <glyph glyph-name="afii10099" unicode="&#x452;" 
d="M1008 672v-475q0 -264 -149 -421t-408 -182v162q192 33 287.5 142.5t95.5 306.5v487q0 95 -58 151t-158 56q-153 0 -233 -90t-80 -236v-573h-174v1188h-176v125h176v149h174v-149h348v-125h-348v-309h4q46 88 138.5 131t195.5 43q102 0 174.5 -27.5t113.5 -80t59 -119.5
t18 -154z" />
    <glyph glyph-name="afii10100" unicode="&#x453;" horiz-adv-x="864" 
d="M856 905h-551v-905h-174v1059h725v-154zM356 1206l176 293h224l-269 -293h-131z" />
    <glyph glyph-name="afii10101" unicode="&#x454;" horiz-adv-x="1095" 
d="M1032 360q-29 -181 -149 -283t-308 -102q-243 0 -372 145.5t-129 393.5q0 266 133.5 417.5t374.5 151.5q184 0 298.5 -85t143.5 -248h-184q-50 184 -256 184q-134 0 -218 -79.5t-104 -223.5h447v-154h-453q11 -169 92.5 -260.5t222.5 -91.5q114 0 188 59t97 176h176z" />
    <glyph glyph-name="afii10102" unicode="&#x455;" horiz-adv-x="1024" 
d="M63 334h175q2 -56 26.5 -97.5t65.5 -64t88.5 -33t103.5 -10.5q47 0 87 6.5t81 22.5t64.5 49t23.5 80q0 55 -38 91t-99 55t-135 34t-148 35t-135 50.5t-99 88.5t-38 141q0 62 23.5 113t62 85t90 58t107 34.5t112.5 10.5q94 0 166.5 -16t132.5 -52.5t94.5 -102.5t40.5 -160
h-174q-7 93 -77.5 135.5t-167.5 42.5q-42 0 -79.5 -6.5t-72 -21t-54.5 -42t-20 -65.5q0 -20 6 -37.5t19.5 -31.5t27.5 -25t38.5 -21.5t43 -17.5t50.5 -15t51.5 -12.5t55.5 -12.5l54 -12q60 -14 103.5 -27t92.5 -37.5t79.5 -54.5t51 -76.5t20.5 -105.5q0 -91 -39.5 -158.5
t-106.5 -104.5t-143 -54t-162 -17q-93 0 -170 20t-139.5 61t-99 112t-40.5 166z" />
    <glyph glyph-name="afii10103" unicode="&#x456;" horiz-adv-x="454" 
d="M315 1462v-213h-174v213h174zM141 0v1059h174v-1059h-174z" />
    <glyph glyph-name="afii10104" unicode="&#x457;" horiz-adv-x="454" 
d="M330 1233v213h184v-213h-184zM-55 1233v213h184v-213h-184zM315 0h-174v1059h174v-1059z" />
    <glyph glyph-name="afii10105" unicode="&#x458;" horiz-adv-x="454" 
d="M315 1462v-213h-174v213h174zM315 1059v-1194q0 -137 -66.5 -204t-187.5 -67q-43 0 -90 9v149q24 -4 35 -4h37q56 0 77 31.5t21 114.5v1165h174z" />
    <glyph glyph-name="afii10106" unicode="&#x459;" horiz-adv-x="1583" 
d="M752 905h-332l-23 -579q-7 -180 -81 -264.5t-195 -84.5q-63 0 -117 23v143q44 -16 84 -16q63 0 99 47t40 172l25 713h674v-404h270q156 0 249 -86.5t93 -236.5q0 -149 -94.5 -240.5t-249.5 -91.5h-442v905zM1149 506h-223v-356h221q211 0 211 178q0 85 -53.5 131.5
t-155.5 46.5z" />
    <glyph glyph-name="afii10107" unicode="&#x45a;" horiz-adv-x="1593" 
d="M1548 332q0 -149 -95.5 -240.5t-250.5 -91.5h-450v504h-447v-504h-174v1059h174v-404h447v404h174v-404h278q157 0 250.5 -86.5t93.5 -236.5zM1157 506h-231v-356h229q213 0 213 178q0 85 -54.5 131.5t-156.5 46.5z" />
    <glyph glyph-name="afii10108" unicode="&#x45b;" 
d="M1008 0h-174v692q0 95 -58 151t-158 56q-153 0 -233 -90t-80 -236v-573h-174v1188h-176v125h176v149h174v-149h348v-125h-348v-309h4q46 88 138.5 131t195.5 43q102 0 174.5 -27.5t113.5 -80t59 -119.5t18 -154v-672z" />
    <glyph glyph-name="afii10109" unicode="&#x45c;" horiz-adv-x="1052" 
d="M131 0v1059h174v-490l483 490h234l-428 -408l459 -651h-222l-364 526l-162 -153v-373h-174zM416 1206l176 293h223l-268 -293h-131z" />
    <glyph glyph-name="uni045D" unicode="&#x45d;" 
d="M354 0h-223v1059h174v-860h4l475 860h224v-1059h-174v860h-5zM537 1206l-269 293h224l176 -293h-131z" />
    <glyph glyph-name="afii10110" unicode="&#x45e;" horiz-adv-x="1024" 
d="M203 1493h102q50 -170 230 -170q82 0 124.5 41t77.5 129h105q-24 -133 -107.5 -208t-216.5 -75q-273 0 -315 283zM1008 1059l-461 -1200q-63 -159 -128 -221t-179 -62q-71 0 -121 18v160l24 -8t27 -8.5t24 -5t27 -2.5q52 0 85 23.5t59 72.5l71 180l-420 1053h197
l309 -866h4l297 866h185z" />
    <glyph glyph-name="afii10193" unicode="&#x45f;" 
d="M655 0v-336h-174v336h-350v1059h174v-905h529v905h174v-1059h-353z" />
    <glyph glyph-name="afii10146" unicode="&#x462;" horiz-adv-x="1486" 
d="M915 1253v-155h-401v-236h436q223 0 341 -111t118 -321q0 -202 -120.5 -316t-340.5 -114h-629v1098h-315v155h315v209h195v-209h401zM514 698v-534h381q319 0 319 266q0 268 -319 268h-381z" />
    <glyph glyph-name="afii10194" unicode="&#x463;" horiz-adv-x="1202" 
d="M262 1059v403h174v-403h463v-154h-463v-250h377q157 0 250.5 -86.5t93.5 -236.5q0 -149 -95.5 -240.5t-250.5 -91.5h-549v905h-256v154h256zM766 506h-330v-356h328q213 0 213 178q0 85 -54.5 131.5t-156.5 46.5z" />
    <glyph glyph-name="afii10147" unicode="&#x472;" horiz-adv-x="1556" 
d="M78 731q0 121 27.5 233t85.5 209t139.5 169t196.5 113.5t251 41.5t251 -41.5t197 -113.5t139.5 -169t85.5 -209t28 -233t-28 -233t-85.5 -209t-139.5 -169t-197 -113.5t-251 -41.5t-251 41.5t-196.5 113.5t-139.5 169t-85.5 209t-27.5 233zM778 1333q-115 0 -207.5 -41
t-152.5 -111.5t-96 -158t-48 -188.5h1008q-13 101 -49 188t-96 158t-152 112t-207 41zM778 129q121 0 217.5 45.5t156.5 123t93.5 173t40.5 203.5h-1016q7 -108 40.5 -203.5t93.5 -173t156.5 -123t217.5 -45.5z" />
    <glyph glyph-name="afii10195" unicode="&#x473;" horiz-adv-x="1175" 
d="M74 528q0 158 57.5 282t175.5 198.5t281 74.5t281 -74.5t175.5 -198.5t57.5 -282q0 -157 -57.5 -280.5t-175.5 -198t-281 -74.5t-281 74.5t-175.5 198t-57.5 280.5zM588 930q-124 0 -213 -80t-113 -223h651q-24 143 -113 223t-212 80zM588 129q133 0 226 92.5t106 255.5
h-664q13 -163 105.5 -255.5t226.5 -92.5z" />
    <glyph glyph-name="afii10148" unicode="&#x474;" horiz-adv-x="1294" 
d="M1137 1217l-402 -1217h-221l-516 1462h211l418 -1267h4l327 1062q41 132 112 186t177 54q64 0 117 -16v-164q-56 16 -92 16q-50 0 -81 -24t-54 -92z" />
    <glyph glyph-name="afii10196" unicode="&#x475;" horiz-adv-x="1048" 
d="M524 176l226 729q30 96 84.5 137t136.5 41q54 0 100 -14v-154q-43 15 -76 15q-68 0 -96 -86l-291 -844h-186l-393 1059h194l297 -883h4z" />
    <glyph glyph-name="afii10050" unicode="&#x490;" horiz-adv-x="1130" 
d="M1108 1788v-490h-754v-1298h-194v1462h753v326h195z" />
    <glyph glyph-name="afii10098" unicode="&#x491;" horiz-adv-x="864" 
d="M848 1376v-471h-543v-905h-174v1059h543v317h174z" />
    <glyph glyph-name="Wgrave" unicode="&#x1e80;" horiz-adv-x="1896" 
d="M1872 1462l-391 -1462h-203l-334 1229h-4l-338 -1229h-203l-374 1462h198l287 -1216h4l328 1216h211l323 -1216h4l297 1216h195zM936 1595l-268 293h223l176 -293h-131z" />
    <glyph glyph-name="wgrave" unicode="&#x1e81;" horiz-adv-x="1552" 
d="M1518 1059l-338 -1059h-185l-215 842h-4l-213 -842h-188l-340 1059h192l240 -866h4l213 866h190l222 -866h4l237 866h181zM743 1206l-268 293h223l176 -293h-131z" />
    <glyph glyph-name="Wacute" unicode="&#x1e82;" horiz-adv-x="1896" 
d="M1872 1462l-391 -1462h-203l-334 1229h-4l-338 -1229h-203l-374 1462h198l287 -1216h4l328 1216h211l323 -1216h4l297 1216h195zM823 1595l176 293h224l-269 -293h-131z" />
    <glyph glyph-name="wacute" unicode="&#x1e83;" horiz-adv-x="1552" 
d="M1518 1059l-338 -1059h-185l-215 842h-4l-213 -842h-188l-340 1059h192l240 -866h4l213 866h190l222 -866h4l237 866h181zM680 1206l176 293h223l-268 -293h-131z" />
    <glyph glyph-name="Wdieresis" unicode="&#x1e84;" horiz-adv-x="1896" 
d="M1872 1462l-391 -1462h-203l-334 1229h-4l-338 -1229h-203l-374 1462h198l287 -1216h4l328 1216h211l323 -1216h4l297 1216h195zM1051 1624v213h184v-213h-184zM666 1624v213h184v-213h-184z" />
    <glyph glyph-name="wdieresis" unicode="&#x1e85;" horiz-adv-x="1552" 
d="M1518 1059l-338 -1059h-185l-215 842h-4l-213 -842h-188l-340 1059h192l240 -866h4l213 866h190l222 -866h4l237 866h181zM883 1233v213h184v-213h-184zM498 1233v213h184v-213h-184z" />
    <glyph glyph-name="Ygrave" unicode="&#x1ef2;" horiz-adv-x="1327" 
d="M1323 1462l-559 -864v-598h-195v598l-565 864h232l438 -696l428 696h221zM629 1595l-269 293h224l176 -293h-131z" />
    <glyph glyph-name="ygrave" unicode="&#x1ef3;" horiz-adv-x="1024" 
d="M1008 1059l-461 -1200q-63 -159 -128 -221t-179 -62q-71 0 -121 18v160l24 -8t27 -8.5t24 -5t27 -2.5q52 0 85 23.5t59 72.5l71 180l-420 1053h197l309 -866h4l297 866h185zM483 1206l-268 293h223l176 -293h-131z" />
    <glyph glyph-name="uni2010" unicode="&#x2010;" horiz-adv-x="796" 
d="M102 487v164h592v-164h-592z" />
    <glyph glyph-name="endash" unicode="&#x2013;" horiz-adv-x="1024" 
d="M0 487v164h1024v-164h-1024z" />
    <glyph glyph-name="emdash" unicode="&#x2014;" horiz-adv-x="2048" 
d="M266 487v164h1516v-164h-1516z" />
    <glyph glyph-name="afii00208" unicode="&#x2015;" horiz-adv-x="2048" 
d="M205 487v164h1638v-164h-1638z" />
    <glyph glyph-name="quoteleft" unicode="&#x2018;" horiz-adv-x="569" 
d="M399 1161v-227h-227v227q0 130 57 215.5t168 85.5v-102q-43 0 -71 -31.5t-37.5 -73.5t-9.5 -94h120z" />
    <glyph glyph-name="quoteright" unicode="&#x2019;" horiz-adv-x="569" 
d="M170 1235v227h227v-227q0 -130 -57 -215.5t-168 -85.5v102q33 0 57 17.5t37 47.5t19 63t6 71h-121z" />
    <glyph glyph-name="quotesinglbase" unicode="&#x201a;" horiz-adv-x="569" 
d="M170 0v227h227v-227q0 -130 -57 -215.5t-168 -85.5v102q33 0 57 17.5t37 47.5t19 63t6 71h-121z" />
    <glyph glyph-name="quotedblleft" unicode="&#x201c;" horiz-adv-x="872" 
d="M737 1161v-227h-227v227q0 130 57 215.5t168 85.5v-102q-33 0 -57 -17.5t-37 -47.5t-19 -63t-6 -71h121zM362 1161v-227h-227v227q0 130 57 215.5t168 85.5v-102q-43 0 -71 -31.5t-37.5 -73.5t-9.5 -94h120z" />
    <glyph glyph-name="quotedblright" unicode="&#x201d;" horiz-adv-x="872" 
d="M510 1235v227h227v-227q0 -130 -57 -215.5t-168 -85.5v102q33 0 57 17.5t37 47.5t19 63t6 71h-121zM135 1235v227h227v-227q0 -130 -57 -215.5t-168 -85.5v102q33 0 57 17.5t37 47.5t19 63t6 71h-121z" />
    <glyph glyph-name="quotedblbase" unicode="&#x201e;" horiz-adv-x="872" 
d="M510 0v227h227v-227q0 -130 -57 -215.5t-168 -85.5v102q33 0 57 17.5t37 47.5t19 63t6 71h-121zM135 0v227h227v-227q0 -130 -57 -215.5t-168 -85.5v102q33 0 57 17.5t37 47.5t19 63t6 71h-121z" />
    <glyph glyph-name="dagger" unicode="&#x2020;" 
d="M483 -317v1222h-397v154h397v403h164v-403h406v-154h-406v-1222h-164z" />
    <glyph glyph-name="daggerdbl" unicode="&#x2021;" 
d="M483 -317v403h-397v154h397v665h-397v154h397v403h164v-403h406v-154h-406v-665h406v-154h-406v-403h-164z" />
    <glyph glyph-name="bullet" unicode="&#x2022;" horiz-adv-x="1024" 
d="M147 731q0 152 106.5 258.5t258.5 106.5t259.5 -106.5t107.5 -258.5t-107.5 -259t-259.5 -107t-258.5 107t-106.5 259z" />
    <glyph glyph-name="ellipsis" unicode="&#x2026;" horiz-adv-x="2048" 
d="M1591 0v227h228v-227h-228zM909 0v227h228v-227h-228zM227 0v227h228v-227h-228z" />
    <glyph glyph-name="perthousand" unicode="&#x2030;" horiz-adv-x="2351" 
d="M184 -45l1102 1524h174l-1100 -1524h-176zM147 1096q0 77 17 140t52 112.5t95 76.5t140 27q155 0 227 -94t72 -252q0 -157 -82 -260q-74 -92 -222 -92q-153 0 -226 92.5t-73 249.5zM301 1102q0 -236 148 -236q43 0 73.5 21.5t45.5 58.5t21.5 74.5t6.5 79.5q0 39 -5.5 76
t-19.5 76t-43.5 63t-70.5 24q-44 0 -76 -22t-48.5 -58.5t-24 -75t-7.5 -81.5zM1602 317q0 77 16.5 140t51.5 112.5t95 77t140 27.5q155 0 227 -94t72 -252q0 -157 -82 -260q-75 -93 -221 -93q-153 0 -226 92.5t-73 249.5zM895 317q0 77 16.5 140t51.5 112.5t95 77t140 27.5
q155 0 227 -94t72 -252q0 -157 -82 -260q-75 -93 -221 -93q-153 0 -226 92.5t-73 249.5zM1755 324q0 -236 148 -236q43 0 73.5 21.5t45.5 58.5t21.5 74.5t6.5 79.5q0 39 -5.5 76t-19.5 76t-43.5 63t-70.5 24q-44 0 -76 -22t-48.5 -58.5t-24 -75t-7.5 -81.5zM1049 324
q0 -236 147 -236q43 0 73.5 21.5t45.5 58.5t21.5 74.5t6.5 79.5q0 39 -5.5 76t-19.5 76t-43.5 63t-70.5 24q-44 0 -76 -22t-48 -58.5t-23.5 -75t-7.5 -81.5z" />
    <glyph glyph-name="guilsinglleft" unicode="&#x2039;" horiz-adv-x="530" 
d="M414 233l-312 246v180l312 246v-176l-205 -160l205 -159v-177z" />
    <glyph glyph-name="guilsinglright" unicode="&#x203a;" horiz-adv-x="530" 
d="M117 905l311 -246v-180l-311 -246v177l205 159l-205 160v176z" />
    <glyph glyph-name="interrobang" unicode="&#x203d;" 
d="M621 1462v-131q180 -14 274 -109.5t94 -232.5q0 -56 -19 -107.5t-48.5 -92t-66 -79t-73 -74t-66 -69.5t-48.5 -73t-19 -78v-60h-162l-41 656v162q-72 -17 -115 -73t-52 -116h-168q10 119 97 214t238 124v139h175zM817 985q0 81 -49 137.5t-147 63.5v-174l-33 -375
q21 23 60.5 62.5t63.5 66t51.5 63.5t40.5 75.5t13 80.5zM446 0v227h228v-227h-228z" />
    <glyph glyph-name="fraction" unicode="&#x2044;" horiz-adv-x="342" 
d="M-340 -57l891 1542h131l-891 -1542h-131z" />
    <glyph glyph-name="zero.superior" unicode="&#x2070;" horiz-adv-x="757" 
d="M381 1698q150 0 228.5 -107.5t78.5 -343.5q0 -231 -82.5 -341.5t-228.5 -110.5q-151 0 -229 106t-78 342q0 233 82.5 344t228.5 111zM379 1585q-82 0 -124 -78.5t-42 -261.5q0 -179 42 -258.5t124 -79.5t124 78.5t42 261.5q0 179 -42 258.5t-124 79.5z" />
    <glyph glyph-name="four.superior" unicode="&#x2074;" horiz-adv-x="757" 
d="M694 1135v-113h-114v-209h-136v209h-393v139l393 518h136v-544h114zM440 1505l-276 -370h280v370h-4z" />
    <glyph glyph-name="five.superior" unicode="&#x2075;" horiz-adv-x="757" 
d="M80 1202l92 477h461v-112h-357l-49 -232l9 -2q66 60 165 60q135 0 211 -76.5t76 -208.5q0 -56 -19.5 -110t-56.5 -100.5t-99.5 -74.5t-141.5 -28q-134 0 -218 67t-90 195h140q4 -72 49 -112t119 -40q88 0 133 52.5t45 148.5q0 81 -46 131.5t-134 50.5q-104 0 -156 -86
h-133z" />
    <glyph glyph-name="six.superior" unicode="&#x2076;" horiz-adv-x="757" 
d="M670 1475h-131q-7 55 -44 83.5t-94 28.5q-52 0 -90.5 -27.5t-59 -73.5t-30.5 -96t-12 -106l2 -2q31 48 85 73t118 25q133 0 204.5 -78.5t71.5 -207.5q0 -134 -83 -216.5t-216 -82.5q-161 0 -240 108t-79 328q0 94 18 174.5t56 147.5t105.5 106t156.5 39
q112 0 183.5 -58.5t78.5 -164.5zM387 903q77 0 121.5 51t44.5 142q0 83 -45 131.5t-123 48.5q-76 0 -122 -52.5t-46 -127.5q0 -85 47.5 -139t122.5 -54z" />
    <glyph glyph-name="seven.superior" unicode="&#x2077;" horiz-adv-x="757" 
d="M88 1563v116h590v-106q-143 -162 -224.5 -346.5t-99.5 -413.5h-151q15 203 103.5 396.5t230.5 353.5h-449z" />
    <glyph glyph-name="eight.superior" unicode="&#x2078;" horiz-adv-x="757" 
d="M375 795q-138 0 -222.5 69t-84.5 197q0 80 43.5 135.5t115.5 81.5v4q-123 48 -123 178q0 102 74 170t201 68q129 0 200.5 -63.5t71.5 -174.5q0 -129 -125 -176v-4q77 -22 119.5 -78t42.5 -139q0 -126 -87.5 -197t-225.5 -71zM377 1593q-65 0 -104.5 -36t-39.5 -97
q0 -63 39.5 -100t104.5 -37q66 0 105.5 37t39.5 100t-40 98t-105 35zM377 899q78 0 126 44.5t48 121.5q0 72 -49 118t-125 46q-75 0 -123.5 -46t-48.5 -118q0 -77 48 -121.5t124 -44.5z" />
    <glyph glyph-name="nine.superior" unicode="&#x2079;" horiz-adv-x="757" 
d="M90 1018h131q7 -56 43.5 -84.5t93.5 -28.5q52 0 90.5 27.5t59.5 73.5t31 96t12 106l-2 2q-31 -48 -85 -73t-118 -25q-133 0 -204.5 79t-71.5 208q0 133 83 216t216 83q161 0 240 -108t79 -328q0 -94 -18 -174.5t-56 -147.5t-105.5 -106t-156.5 -39q-112 0 -183.5 58.5
t-78.5 164.5zM373 1589q-78 0 -123 -50.5t-45 -141.5q0 -83 46 -131.5t124 -48.5q76 0 123 52.5t47 127.5q0 85 -48.5 138.5t-123.5 53.5z" />
    <glyph glyph-name="plus.superior" unicode="&#x207a;" horiz-adv-x="819" 
d="M346 1194v254h129v-254h262v-127h-262v-254h-129v254h-262v127h262z" />
    <glyph glyph-name="minus.superior" unicode="&#x207b;" horiz-adv-x="512" 
d="M72 1085v132h368v-132h-368z" />
    <glyph glyph-name="equal.superior" unicode="&#x207c;" horiz-adv-x="819" 
d="M737 1317v-127h-653v127h653zM737 1063v-127h-653v127h653z" />
    <glyph glyph-name="parenleft.superior" unicode="&#x207d;" horiz-adv-x="389" 
d="M375 651h-121q-85 138 -130.5 271t-45.5 301q0 286 186 571h111q-154 -277 -154 -571q0 -305 154 -572z" />
    <glyph glyph-name="parenright.superior" unicode="&#x207e;" horiz-adv-x="389" 
d="M14 1794h121q86 -139 131 -271t45 -300q0 -287 -186 -572h-111q154 277 154 572q0 304 -154 571z" />
    <glyph glyph-name="n.superior" unicode="&#x207f;" horiz-adv-x="757" 
d="M86 813v641h135v-94q76 113 215 113q116 0 176 -66t60 -174v-420h-137v387q0 160 -142 160q-81 0 -126.5 -54t-45.5 -137v-356h-135z" />
    <glyph glyph-name="zero.inferior" unicode="&#x2080;" horiz-adv-x="757" 
d="M381 539q150 0 228.5 -107.5t78.5 -343.5q0 -231 -82.5 -342t-228.5 -111q-151 0 -229 106t-78 343q0 233 82.5 344t228.5 111zM379 426q-82 0 -124 -78.5t-42 -261.5q0 -179 42 -258.5t124 -79.5t124 78.5t42 261.5q0 179 -42 258.5t-124 79.5z" />
    <glyph glyph-name="one.inferior" unicode="&#x2081;" horiz-adv-x="757" 
d="M496 524v-870h-140v622h-235v103q237 0 272 145h103z" />
    <glyph glyph-name="two.inferior" unicode="&#x2082;" horiz-adv-x="757" 
d="M219 223h-139q2 143 86.5 229.5t230.5 86.5q127 0 207 -70.5t80 -187.5q0 -73 -29.5 -129.5t-73 -92.5t-114.5 -75l-82 -45q-150 -83 -166 -172h453v-113h-609q7 145 69 232t175 149l99 53q81 44 110 83.5t29 104.5q0 68 -40 109t-110 41q-91 0 -132.5 -56.5
t-43.5 -146.5z" />
    <glyph glyph-name="three.inferior" unicode="&#x2083;" horiz-adv-x="757" 
d="M315 57v103h50q73 0 118 33.5t45 101.5q0 61 -39.5 97t-103.5 36q-84 0 -125.5 -49.5t-44.5 -132.5h-135q5 133 86.5 213t218.5 80q125 0 203 -64.5t78 -171.5q0 -63 -40.5 -110.5t-101.5 -69.5v-4q176 -42 176 -207q0 -128 -93.5 -202.5t-227.5 -74.5q-148 0 -234 76
t-86 215h136q2 -87 50 -133.5t138 -46.5q83 0 131.5 42t48.5 118q0 74 -49 112.5t-123 38.5h-76z" />
    <glyph glyph-name="four.inferior" unicode="&#x2084;" horiz-adv-x="757" 
d="M694 -25v-112h-114v-209h-136v209h-393v139l393 518h136v-545h114zM440 346l-276 -371h280v371h-4z" />
    <glyph glyph-name="five.inferior" unicode="&#x2085;" horiz-adv-x="757" 
d="M80 43l92 477h461v-112h-357l-49 -232l9 -2q65 59 165 59q135 0 211 -76t76 -208q0 -56 -19.5 -110.5t-56.5 -100.5t-99.5 -74.5t-141.5 -28.5q-134 0 -218 67.5t-90 195.5h140q4 -72 49 -112t119 -40q88 0 133 52.5t45 148.5q0 81 -46 131.5t-134 50.5q-104 0 -156 -86
h-133z" />
    <glyph glyph-name="six.inferior" unicode="&#x2086;" horiz-adv-x="757" 
d="M670 315h-131q-7 56 -44 84.5t-94 28.5q-52 0 -90.5 -27.5t-59 -73.5t-30.5 -96t-12 -106l2 -2q31 48 85 73t118 25q133 0 204.5 -79t71.5 -208q0 -134 -83 -216.5t-216 -82.5q-161 0 -240 108.5t-79 328.5q0 94 18 174.5t56 147.5t105.5 106t156.5 39q111 0 183 -59
t79 -165zM387 -256q77 0 121.5 51t44.5 142q0 83 -45 131.5t-123 48.5q-76 0 -122 -52.5t-46 -127.5q0 -85 47.5 -139t122.5 -54z" />
    <glyph glyph-name="seven.inferior" unicode="&#x2087;" horiz-adv-x="757" 
d="M88 403v117h590v-106q-143 -162 -224.5 -346.5t-99.5 -413.5h-151q15 203 103.5 396t230.5 353h-449z" />
    <glyph glyph-name="eight.inferior" unicode="&#x2088;" horiz-adv-x="757" 
d="M375 -365q-138 0 -222.5 69.5t-84.5 197.5q0 80 43.5 135.5t115.5 81.5v4q-123 48 -123 178q0 102 74 170t201 68q129 0 200.5 -63.5t71.5 -174.5q0 -129 -125 -176v-4q77 -22 119.5 -78t42.5 -139q0 -126 -87.5 -197.5t-225.5 -71.5zM377 434q-65 0 -104.5 -36
t-39.5 -97q0 -63 39.5 -100t104.5 -37q66 0 105.5 37t39.5 100t-40 98t-105 35zM377 -260q78 0 126 44.5t48 121.5q0 72 -49 118t-125 46q-75 0 -123.5 -46t-48.5 -118q0 -77 48 -121.5t124 -44.5z" />
    <glyph glyph-name="nine.inferior" unicode="&#x2089;" horiz-adv-x="757" 
d="M90 -141h131q7 -56 43.5 -84.5t93.5 -28.5q52 0 90.5 27.5t59.5 73.5t31 96t12 106l-2 2q-31 -48 -85 -73t-118 -25q-133 0 -204.5 79t-71.5 208q0 134 83 216.5t216 82.5q161 0 240 -108.5t79 -328.5q0 -94 -18 -174.5t-56 -147.5t-105.5 -106t-156.5 -39
q-111 0 -183 59t-79 165zM373 430q-78 0 -123 -50.5t-45 -141.5q0 -83 46 -132t124 -49q76 0 123 53t47 128q0 85 -48.5 138.5t-123.5 53.5z" />
    <glyph glyph-name="plus.inferior" unicode="&#x208a;" horiz-adv-x="819" 
d="M346 35v254h129v-254h262v-127h-262v-254h-129v254h-262v127h262z" />
    <glyph glyph-name="minus.inferior" unicode="&#x208b;" horiz-adv-x="512" 
d="M72 -74v131h368v-131h-368z" />
    <glyph glyph-name="equal.inferior" unicode="&#x208c;" horiz-adv-x="819" 
d="M737 158v-127h-653v127h653zM737 -96v-127h-653v127h653z" />
    <glyph glyph-name="parenleft.inferior" unicode="&#x208d;" horiz-adv-x="389" 
d="M375 -508h-121q-86 139 -131 271t-45 300q0 287 186 572h111q-154 -277 -154 -572q0 -304 154 -571z" />
    <glyph glyph-name="parenright.inferior" unicode="&#x208e;" horiz-adv-x="389" 
d="M14 635h121q85 -138 130.5 -271t45.5 -301q0 -286 -186 -571h-111q154 277 154 571q0 305 -154 572z" />
    <glyph glyph-name="Euro" unicode="&#x20ac;" 
d="M1143 1356l-94 -170q-144 141 -293 141q-153 0 -254 -131q-81 -107 -115 -274h580l-56 -125h-538q-2 -10 -2 -33v-31v-22q0 -15 2 -21h510l-54 -125h-446q68 -440 389 -440q100 0 174 39q52 25 141 108v-215q-140 -90 -315 -90q-503 0 -588 598h-157l55 125h94
q-2 6 -2 21v20v35q0 21 2 31h-149l53 125h110q50 254 187 397q153 166 395 166q187 0 371 -129z" />
    <glyph glyph-name="afii61248" unicode="&#x2105;" horiz-adv-x="1708" 
d="M338 -57l891 1542h131l-891 -1542h-131zM698 1163h-147q-11 172 -152 172q-93 0 -135.5 -75t-42.5 -261q0 -183 44.5 -258t133.5 -75q74 0 113.5 43t42.5 139h147q-29 -299 -305 -299q-161 0 -243 108.5t-82 341.5q0 227 82 340t254 113q269 0 290 -289zM1305 -25
q-160 0 -244 106.5t-84 344.5q0 234 87.5 343.5t244.5 109.5q160 0 243.5 -106.5t83.5 -344.5q0 -234 -87 -343.5t-244 -109.5zM1307 90q91 0 135.5 76.5t44.5 261.5q0 181 -45 258.5t-135 77.5q-91 0 -136 -77t-45 -261q0 -181 45.5 -258.5t135.5 -77.5z" />
    <glyph glyph-name="afii61289" unicode="&#x2113;" horiz-adv-x="1024" 
d="M850 84q-122 -113 -266 -113q-117 0 -188.5 67t-71.5 195v234l-119 -127h-4l-54 76l177 172v530q0 166 75 262.5t189 96.5q100 0 162.5 -71t62.5 -192q0 -292 -350 -651v-307q0 -96 45 -137t108 -41q94 0 181 78h4zM696 1204q0 77 -31 125.5t-77 48.5q-52 0 -88.5 -60.5
t-36.5 -176.5v-455q113 130 173 265.5t60 252.5z" />
    <glyph glyph-name="afii61352" unicode="&#x2116;" horiz-adv-x="2048" 
d="M1208 0h-213l-649 1135h-4v-1135h-184v1427h207l655 -1146h4v1146h184v-1427zM1636 862q140 0 220.5 -79.5t80.5 -221.5q0 -131 -81 -211t-220 -80q-140 0 -220.5 79.5t-80.5 221.5q0 131 81 211t220 80zM1788 567q0 91 -41 137t-111 46q-151 0 -151 -185
q0 -91 40.5 -136.5t110.5 -45.5q152 0 152 184zM1933 0h-573v129h573v-129z" />
    <glyph glyph-name="published" unicode="&#x2117;" horiz-adv-x="1638" 
d="M49 735q0 211 105 387t282 275.5t385 99.5q207 0 383 -99.5t280.5 -275.5t104.5 -387q0 -162 -61.5 -305.5t-165.5 -245t-245 -160.5t-296 -59q-156 0 -297.5 59t-246 160.5t-166.5 245t-62 305.5zM188 735q0 -138 48.5 -260.5t132.5 -209t201.5 -137t250.5 -50.5
q175 0 319 85.5t227 236.5t83 335q0 181 -83 330t-227.5 234t-318.5 85q-133 0 -250.5 -50t-201.5 -136.5t-132.5 -206.5t-48.5 -256zM543 285v895h346q156 0 234.5 -68.5t78.5 -191.5q0 -125 -77 -196t-224 -71h-219v-368h-139zM682 1067v-301h205q93 0 134.5 37.5
t41.5 114.5q0 149 -180 149h-201z" />
    <glyph glyph-name="trademark" unicode="&#x2122;" horiz-adv-x="2027" 
d="M1898 1462v-844h-139v705h-4l-276 -705h-88l-277 705h-4v-705h-139v844h215l252 -641l248 641h212zM799 1462v-112h-264v-732h-140v732h-264v112h668z" />
    <glyph glyph-name="Omega" unicode="&#x2126;" horiz-adv-x="1554" 
d="M1489 164v-164h-578v147q179 122 270 294t91 382q0 143 -57.5 257.5t-170.5 183.5t-262 69q-224 0 -361.5 -145.5t-137.5 -384.5q0 -409 368 -656v-147h-579v164h350v8q-169 118 -251.5 272.5t-82.5 356.5q0 197 87.5 355.5t246.5 249.5t360 91q155 0 285 -54.5
t216.5 -147t134.5 -215t48 -259.5q0 -410 -336 -649v-8h359z" />
    <glyph glyph-name="estimated" unicode="&#x212e;" horiz-adv-x="1556" 
d="M1473 713h-1080v-484q157 -157 387 -157q167 0 292 77t224 244l95 -57q-125 -193 -264 -277t-347 -84q-205 0 -363.5 98.5t-242.5 266t-84 373.5q0 208 84 375.5t242.5 265.5t363.5 98q203 0 361 -94t244.5 -262t87.5 -383zM393 811h778v387q-171 160 -393 160
q-225 0 -385 -160v-387z" />
    <glyph glyph-name="onethird" unicode="&#x2153;" horiz-adv-x="1708" 
d="M266 -57l891 1542h131l-891 -1542h-131zM469 1452v-879h-139v631h-236v103q238 0 273 145h102zM1253 403v103h50q73 0 118 33.5t45 101.5q0 61 -39.5 97t-103.5 36q-84 0 -125.5 -49.5t-44.5 -132.5h-135q5 133 86.5 213t218.5 80q125 0 203 -64.5t78 -171.5
q0 -63 -40.5 -110.5t-101.5 -69.5v-4q176 -42 176 -207q0 -128 -93.5 -202t-227.5 -74q-149 0 -234.5 75.5t-85.5 214.5h136q2 -87 50 -133.5t138 -46.5q83 0 131.5 42t48.5 118q0 74 -49 112.5t-123 38.5h-76z" />
    <glyph glyph-name="twothirds" unicode="&#x2154;" horiz-adv-x="1708" 
d="M356 -57l891 1542h131l-891 -1542h-131zM211 1143h-139q2 143 86.5 229t230.5 86q127 0 207 -70.5t80 -187.5q0 -73 -29.5 -129.5t-73 -92.5t-114.5 -75l-82 -45q-150 -83 -166 -172h453v-113h-609q7 145 69 232t175 149l98 54q81 44 110.5 83.5t29.5 104.5q0 68 -40 109
t-110 41q-91 0 -132.5 -56.5t-43.5 -146.5zM1282 403v103h49q73 0 118.5 33.5t45.5 101.5q0 61 -39.5 97t-103.5 36q-84 0 -125.5 -49.5t-44.5 -132.5h-135q5 133 86.5 213t218.5 80q125 0 202.5 -64.5t77.5 -171.5q0 -63 -40 -110.5t-101 -69.5v-4q176 -42 176 -207
q0 -128 -93.5 -202t-227.5 -74q-149 0 -234.5 75.5t-85.5 214.5h135q2 -87 50.5 -133.5t138.5 -46.5q83 0 131.5 42t48.5 118q0 74 -49 112.5t-123 38.5h-76z" />
    <glyph glyph-name="oneeighth" unicode="&#x215b;" horiz-adv-x="1708" 
d="M293 -57l891 1542h131l-891 -1542h-131zM489 1452v-879h-139v631h-235v103q237 0 272 145h102zM1335 -18q-138 0 -222.5 69t-84.5 197q0 79 44 135t116 82v4q-123 48 -123 178q0 102 73.5 170t200.5 68q130 0 201.5 -63.5t71.5 -174.5q0 -129 -125 -176v-4
q77 -22 119.5 -78t42.5 -139q0 -125 -88 -196.5t-226 -71.5zM1337 780q-65 0 -104 -36t-39 -97q0 -63 39 -100t104 -37q66 0 106 37t40 100t-40.5 98t-105.5 35zM1337 86q78 0 126 44.5t48 121.5q0 72 -49 118t-125 46q-75 0 -123.5 -46t-48.5 -118q0 -77 48 -121.5
t124 -44.5z" />
    <glyph glyph-name="threeeighths" unicode="&#x215c;" horiz-adv-x="1708" 
d="M367 -57l890 1542h132l-891 -1542h-131zM344 977v102h49q73 0 118.5 33.5t45.5 101.5q0 61 -39.5 97.5t-103.5 36.5q-83 0 -125 -50t-45 -133h-135q5 133 86.5 213t218.5 80q125 0 202.5 -64t77.5 -171q0 -63 -40 -111t-101 -70v-4q176 -42 176 -207q0 -128 -93.5 -202
t-227.5 -74q-148 0 -234 76t-86 215h135q2 -87 50.5 -133.5t138.5 -46.5q83 0 131.5 42t48.5 117q0 74 -49 113t-123 39h-76zM1325 -18q-138 0 -222.5 69t-84.5 197q0 79 44 135t116 82v4q-123 48 -123 178q0 102 73.5 170t200.5 68q130 0 201.5 -63.5t71.5 -174.5
q0 -129 -125 -176v-4q77 -22 119 -78t42 -139q0 -126 -87.5 -197t-225.5 -71zM1327 780q-65 0 -104 -36t-39 -97q0 -63 39 -100t104 -37q66 0 106 37t40 100t-40.5 98t-105.5 35zM1327 86q78 0 126 44.5t48 121.5q0 72 -49 118t-125 46q-75 0 -123.5 -46t-48.5 -118
q0 -77 48 -121.5t124 -44.5z" />
    <glyph glyph-name="fiveeighths" unicode="&#x215d;" horiz-adv-x="1708" 
d="M367 -57l890 1542h132l-891 -1542h-131zM117 963l92 477h461v-113h-357l-49 -231l8 -2q65 59 166 59q135 0 211 -76.5t76 -208.5q0 -56 -19.5 -110t-56.5 -100.5t-99.5 -74.5t-141.5 -28q-134 0 -218 67t-90 195h140q4 -72 49 -111.5t119 -39.5q88 0 133 52.5t45 147.5
q0 81 -46 132t-134 51q-104 0 -156 -86h-133zM1325 -18q-138 0 -222.5 69t-84.5 197q0 79 44 135t116 82v4q-123 48 -123 178q0 102 73.5 170t200.5 68q130 0 201.5 -63.5t71.5 -174.5q0 -129 -125 -176v-4q77 -22 119 -78t42 -139q0 -126 -87.5 -197t-225.5 -71zM1327 780
q-65 0 -104 -36t-39 -97q0 -63 39 -100t104 -37q66 0 106 37t40 100t-40.5 98t-105.5 35zM1327 86q78 0 126 44.5t48 121.5q0 72 -49 118t-125 46q-75 0 -123.5 -46t-48.5 -118q0 -77 48 -121.5t124 -44.5z" />
    <glyph glyph-name="seveneighths" unicode="&#x215e;" horiz-adv-x="1708" 
d="M274 -57l891 1542h131l-890 -1542h-132zM156 1323v117h589v-107q-143 -162 -224 -346.5t-99 -413.5h-152q15 203 103.5 396.5t230.5 353.5h-448zM1294 -18q-138 0 -222.5 69t-84.5 197q0 79 44 135t116 82v4q-123 48 -123 178q0 102 73.5 170t200.5 68q130 0 201.5 -63.5
t71.5 -174.5q0 -129 -125 -176v-4q77 -22 119.5 -78t42.5 -139q0 -125 -88 -196.5t-226 -71.5zM1296 780q-65 0 -104 -36t-39 -97q0 -63 39 -100t104 -37q66 0 106 37t40 100t-40.5 98t-105.5 35zM1296 86q78 0 126 44.5t48 121.5q0 72 -49 118t-125 46q-75 0 -123.5 -46
t-48.5 -118q0 -77 48 -121.5t124 -44.5z" />
    <glyph glyph-name="partialdiff" unicode="&#x2202;" horiz-adv-x="1046" 
d="M961 741q0 -73 -5 -141.5t-18.5 -147t-35.5 -145t-59.5 -129.5t-85.5 -106.5t-118 -70t-154 -26.5q-125 0 -221.5 64.5t-146 168.5t-49.5 228q0 186 111 312t296 126q96 0 182 -41t148 -114l2 92q0 58 -7.5 116.5t-24 120t-44.5 114.5t-66 95t-92.5 66.5t-119.5 24.5
q-64 0 -118 -25t-116 -72l-86 103q138 123 313 123q116 0 207 -45.5t148 -118t94 -171.5t51.5 -197.5t14.5 -203.5zM797 573q-58 78 -137 126.5t-166 48.5t-151 -46t-94 -117t-30 -155q0 -83 28.5 -156.5t92 -124.5t149.5 -51q65 0 119 32t88 82.5t57.5 115t33.5 126
t10 119.5z" />
    <glyph glyph-name="Delta" unicode="&#x2206;" horiz-adv-x="1327" 
d="M1337 0h-1345l565 1462h215zM662 1288l-408 -1124h807l-395 1124h-4z" />
    <glyph glyph-name="product" unicode="&#x220f;" horiz-adv-x="1472" 
d="M1331 -438h-160v1900h-872v-1900h-160v2048h1192v-2048z" />
    <glyph glyph-name="summation" unicode="&#x2211;" horiz-adv-x="1259" 
d="M1206 -438h-1155v131l660 901l-631 885v131h1102v-148h-895l616 -868l-653 -885h956v-147z" />
    <glyph glyph-name="minus" unicode="&#x2212;" horiz-adv-x="1228" 
d="M98 449v139h1032v-139h-1032z" />
    <glyph glyph-name="uni2215" unicode="&#x2215;" horiz-adv-x="342" 
d="M-340 -57l891 1542h131l-891 -1542h-131z" />
    <glyph glyph-name="uni2219" unicode="&#x2219;" horiz-adv-x="569" 
d="M154 637q0 54 38.5 92.5t92.5 38.5t92.5 -38.5t38.5 -92.5q0 -50 -39.5 -90.5t-89.5 -40.5q-54 0 -93.5 38.5t-39.5 92.5z" />
    <glyph glyph-name="radical" unicode="&#x221a;" horiz-adv-x="1032" 
d="M1053 1610l-432 -2048h-154l-332 684l-96 -45l-57 123l229 106l309 -649l377 1829h156z" />
    <glyph glyph-name="infinity" unicode="&#x221e;" horiz-adv-x="1554" 
d="M1468 522q0 -139 -81.5 -230t-219.5 -91q-106 0 -200.5 61.5t-188.5 161.5q-10 -9 -48.5 -44t-52.5 -46.5t-48.5 -39t-56 -38.5t-54.5 -26.5t-64.5 -21t-66.5 -5.5q-135 0 -218 88t-83 225q0 135 81 227.5t216 92.5q48 0 96 -15.5t81 -33t80.5 -57t68 -59.5t69.5 -69
q1 1 39.5 40t44.5 44.5t41 37.5t48.5 39.5t45.5 28.5t54 27.5t53 13.5t61 7q136 0 219.5 -91t83.5 -227zM1335 516q0 81 -44.5 132.5t-123.5 51.5q-24 0 -48 -5.5t-49.5 -19.5t-43.5 -24.5t-46 -34t-39 -33t-41 -37.5t-34 -32q42 -39 55 -50.5t52.5 -43.5t64 -44t62 -24
t74.5 -12q76 0 118.5 50t42.5 126zM690 514q-45 41 -67.5 60.5t-69.5 55t-89 52t-81 16.5q-75 0 -119.5 -53t-44.5 -129q0 -79 45.5 -127.5t124.5 -48.5q127 0 301 174z" />
    <glyph glyph-name="integral" unicode="&#x222b;" horiz-adv-x="1134" 
d="M860 1495q0 -36 -24.5 -57t-61.5 -21q-22 0 -41 13.5t-29 30.5t-22 30.5t-23 13.5q-17 0 -29.5 -14t-19 -38t-10.5 -51t-4.5 -59t0 -55t1.5 -45.5t1 -25.5l2 -80v-1047v-23v-68.5t-2.5 -71.5t-6.5 -76t-13 -71.5t-21.5 -69.5t-32.5 -57.5t-45 -48t-60 -29t-77 -11.5
q-53 0 -97 27.5t-44 78.5q0 29 23 51.5t52 22.5q21 0 39 -13.5t27.5 -29.5t20.5 -29.5t20 -13.5q15 0 26.5 15.5t17.5 42t9.5 56t4.5 64t1 59t-1 48t-1 24.5v45v1014q0 20 -1 63.5t-1.5 73.5t1 75.5t5.5 78.5t12.5 74.5t21 70.5t32.5 58.5t45.5 48t62 30t80.5 11.5
q63 0 112.5 -28.5t49.5 -86.5z" />
    <glyph glyph-name="approxequal" unicode="&#x2248;" horiz-adv-x="1228" 
d="M342 854q61 0 142 -22.5t146 -50t137 -50t118 -22.5q121 0 145 153h133q-6 -58 -25 -108.5t-51.5 -93t-83.5 -67t-114 -24.5q-77 0 -183.5 36.5t-204.5 73t-155 36.5q-121 0 -145 -154h-133q6 58 25 108.5t51.5 93t83.5 67t114 24.5zM342 465q77 0 183.5 -36.5t204.5 -73
t155 -36.5q121 0 145 154h133q-6 -58 -25 -108.5t-51.5 -93t-83.5 -67t-114 -24.5q-77 0 -183.5 36.5t-204.5 73t-155 36.5q-121 0 -145 -154h-133q6 58 25 108.5t51.5 93t83.5 67t114 24.5z" />
    <glyph glyph-name="notequal" unicode="&#x2260;" horiz-adv-x="1228" 
d="M1130 795v-136h-356l-156 -282h512v-135h-591l-170 -299l-119 65l133 234h-285v135h365l155 282h-520v136h600l164 286l119 -65l-127 -221h276z" />
    <glyph glyph-name="lessequal" unicode="&#x2264;" horiz-adv-x="1228" 
d="M1130 1081v-145l-856 -307l856 -307v-146l-1032 385v135zM98 0v139h1032v-139h-1032z" />
    <glyph glyph-name="greaterequal" unicode="&#x2265;" horiz-adv-x="1228" 
d="M98 936v145l1032 -385v-135l-1032 -385v146l856 307zM1130 139v-139h-1032v139h1032z" />
    <glyph glyph-name="lozenge" unicode="&#x25ca;" horiz-adv-x="1214" 
d="M1032 729l-352 -801h-148l-350 801l350 801h148zM877 729l-271 645l-268 -645l268 -645z" />
    <glyph glyph-name="grave.cap" unicode="&#xe000;" horiz-adv-x="454" 
d="M221 1595l-268 293h223l176 -293h-131z" />
    <glyph glyph-name="acute.cap" unicode="&#xe002;" horiz-adv-x="454" 
d="M102 1595l177 293h223l-269 -293h-131z" />
    <glyph glyph-name="circumflex.cap" unicode="&#xe004;" horiz-adv-x="454" 
d="M-80 1595l211 293h191l213 -293h-173l-141 197l-143 -197h-158z" />
    <glyph glyph-name="caron.cap" unicode="&#xe006;" horiz-adv-x="454" 
d="M535 1888l-211 -293h-191l-213 293h172l141 -196l144 196h158z" />
    <glyph glyph-name="caron.alt" unicode="&#xe008;" horiz-adv-x="454" 
d="M164 1169l53 293h223l-153 -293h-123z" />
    <glyph glyph-name="tilde.cap" unicode="&#xe009;" horiz-adv-x="454" 
d="M477 1858h107q-12 -90 -66 -162q-54 -66 -141 -66q-67 0 -154 41l-28 10.5t-30 11t-25.5 8.5t-28 7t-23.5 2q-39 0 -63 -24q-19 -16 -37 -62h-107q49 225 217 225q57 0 150.5 -41t134.5 -41q68 0 94 91z" />
    <glyph glyph-name="dieresis.cap" unicode="&#xe00b;" horiz-adv-x="454" 
d="M328 1624v213h184v-213h-184zM-57 1624v213h184v-213h-184z" />
    <glyph glyph-name="macron.cap" unicode="&#xe00d;" horiz-adv-x="454" 
d="M-121 1673v113h699v-113h-699z" />
    <glyph glyph-name="breve.cap" unicode="&#xe00f;" horiz-adv-x="454" 
d="M-92 1882h102q50 -170 230 -170q82 0 124.5 41t77.5 129h105q-24 -133 -107.5 -208t-216.5 -75q-273 0 -315 283z" />
    <glyph glyph-name="ring.cap" unicode="&#xe011;" horiz-adv-x="454" 
d="M-4 1763q0 95 68.5 162.5t162.5 67.5t163 -67.5t69 -162.5t-69 -162t-163 -67t-162.5 67t-68.5 162zM90 1761q0 -60 38.5 -99.5t98.5 -39.5t99 39.5t39 99.5t-39 100t-99 40t-98.5 -40t-38.5 -100z" />
    <glyph glyph-name="hungarumlaut.cap" unicode="&#xe013;" horiz-adv-x="454" 
d="M221 1595l166 293h215l-246 -293h-135zM-98 1595l166 293h215l-246 -293h-135z" />
    <glyph glyph-name="dotaccent.cap" unicode="&#xe015;" horiz-adv-x="454" 
d="M319 1837v-213h-184v213h184z" />
    <glyph glyph-name="commaaccent" unicode="&#xe017;" horiz-adv-x="569" 
d="M166 -283v181h227v-158q0 -85 -54.5 -127.5t-148.5 -42.5v72q30 8 48 17t24.5 20.5t8 18t1.5 19.5h-106z" />
    <glyph glyph-name="commaaccent.alt" unicode="&#xe01a;" horiz-adv-x="569" 
d="M397 1462v-180h-227v158q0 85 54.5 127.5t148.5 42.5v-72q-30 -8 -48 -17t-24.5 -21t-8 -18.5t-1.5 -19.5h106z" />
    <glyph glyph-name="tonos.cap" unicode="&#xe01b;" horiz-adv-x="493" 
d="M180 1169l68 293h225l-154 -293h-139z" />
    <glyph glyph-name="f_i" unicode="&#xf001;" horiz-adv-x="1060" 
d="M203 0v905h-178v154h178v158q0 129 75 195.5t218 66.5q56 0 112 -17v-151q-43 14 -98 14q-67 0 -100 -26.5t-33 -92.5v-147h205v-154h-205v-905h-174zM922 1249h-174v213h174v-213zM922 0h-174v1059h174v-1059z" />
    <glyph glyph-name="f_l" unicode="&#xf002;" horiz-adv-x="1060" 
d="M203 0v905h-178v154h178v158q0 129 75 195.5t218 66.5q56 0 112 -17v-151q-43 14 -98 14q-67 0 -100 -26.5t-33 -92.5v-147h205v-154h-205v-905h-174zM748 0v1462h174v-1462h-174z" />
    <glyph glyph-name="uniF8FF" unicode="&#xf8ff;" horiz-adv-x="1048" 
d="M1049 1470h-1049v-1470h1049v1470zM946 102h-844v1264h844v-1264zM461 479h94q0 107 12 148q11 38 88 106q75 69 102 123t27 123q0 120 -72 194t-182 74q-115 0 -189 -69.5t-87 -210.5l102 -17q11 100 56 147.5t112 47.5q64 0 110 -50.5t46 -123.5q0 -41 -19.5 -75.5
t-82.5 -94.5q-67 -67 -95 -121q-26 -51 -26 -166zM455 240h114v137h-114v-137z" />
    </font>
</defs>
</svg>
