<svg xmlns="http://www.w3.org/2000/svg">
<defs>
<font id="HelveticaNeueLTW1G-Md" horiz-adv-x="1138" >
  <font-face 
    font-family="HelveticaNeueLT W1G 65 Md"
    font-weight="500"
    font-stretch="normal"
    units-per-em="2048"
    panose-1="2 11 6 4 2 2 2 2 2 4"
    ascent="1462"
    descent="-586"
    x-height="1059"
    cap-height="1462"
    bbox="-338 -508 2200 1960"
    underline-thickness="102"
    underline-position="-307"
    unicode-range="U+000D-FB04"
  />
<missing-glyph horiz-adv-x="1048" 
d="M0 0h1049v1470h-1049v-1470zM102 102v1264h844v-1264h-844zM461 479h94q0 107 12 148q11 38 88 106q75 69 102 123t27 123q0 120 -72 194t-182 74q-115 0 -189 -69.5t-87 -210.5l102 -17q11 100 56 147.5t112 47.5q64 0 110 -50.5t46 -123.5q0 -41 -19.5 -75.5
t-82.5 -94.5q-67 -67 -95 -121q-26 -51 -26 -166zM455 240h114v137h-114v-137z" />
    <glyph glyph-name="IJ" unicode="IJ" horiz-adv-x="1652" 
d="M156 0v1462h256v-1462h-256zM580 434v78h256v-76q0 -132 44 -197t156 -65q118 0 161.5 68.5t43.5 214.5v1005h256v-991q0 -59 -4.5 -108t-17.5 -103t-35 -95.5t-58.5 -80t-86 -64t-120.5 -40.5t-159 -15q-221 0 -328.5 128t-107.5 341z" />
    <glyph glyph-name="ij" unicode="ij" horiz-adv-x="978" 
d="M129 1241v221h233v-221h-233zM129 0v1059h233v-1059h-233zM614 1241v221h234v-221h-234zM614 -80v1139h234v-1149q0 -164 -71.5 -247t-231.5 -83q-64 0 -105 8v185q46 -9 80 -9q59 0 76.5 35t17.5 121z" />
    <glyph glyph-name="napostrophe" unicode="&#x22;n" horiz-adv-x="1419" 
d="M367 0v1059h221v-156l4 -4q55 89 141 138.5t189 49.5q177 0 275.5 -91.5t98.5 -268.5v-727h-233v666q-5 125 -54 181t-153 56q-115 0 -185.5 -79.5t-70.5 -198.5v-625h-233zM29 885v119q125 18 125 182h-125v276h256v-276q0 -119 -69 -201.5t-187 -99.5z" />
    <glyph glyph-name="f_f" unicode="ff" horiz-adv-x="1232" 
d="M18 885v174h175v88q0 78 16.5 136t42 91.5t65 54t77.5 27t87 6.5q103 0 158 -14v-182q-52 12 -102 12q-111 0 -111 -111v-108h354v88q0 78 16.5 136t42.5 91.5t65.5 54t79 27t89.5 6.5q115 0 164 -14v-182q-46 12 -109 12q-114 0 -114 -111v-108h198v-174h-198v-885h-234
v885h-354v-885h-233v885h-175z" />
    <glyph glyph-name="fi" unicode="fi" 
d="M774 1241v221h234v-221h-234zM18 885v174h175v88q0 78 16.5 136t42 91.5t65.5 54t79 27t89 6.5q115 0 164 -14v-182q-46 12 -108 12q-115 0 -115 -111v-108h199v-174h-199v-885h-233v885h-175zM774 0v1059h234v-1059h-234z" />
    <glyph glyph-name="fl" unicode="fl" 
d="M774 0v1462h234v-1462h-234zM18 885v174h175v88q0 78 16.5 136t42 91.5t65.5 54t79 27t89 6.5q115 0 164 -14v-182q-46 12 -108 12q-115 0 -115 -111v-108h199v-174h-199v-885h-233v885h-175z" />
    <glyph glyph-name="f_f_i" unicode="ffi" horiz-adv-x="1726" 
d="M18 885v174h175v88q0 78 16.5 136t42 91.5t65 54t77.5 27t87 6.5q103 0 158 -14v-182q-52 12 -102 12q-111 0 -111 -111v-108h354v88q0 78 16.5 136t42.5 91.5t65.5 54t79 27t89.5 6.5q115 0 164 -14v-182q-46 12 -109 12q-114 0 -114 -111v-108h198v-174h-198v-885h-234
v885h-354v-885h-233v885h-175zM1362 1241v221h233v-221h-233zM1362 0v1059h233v-1059h-233z" />
    <glyph glyph-name="f_f_l" unicode="ffl" horiz-adv-x="1726" 
d="M18 885v174h175v88q0 78 16.5 136t42 91.5t65 54t77.5 27t87 6.5q103 0 158 -14v-182q-52 12 -102 12q-111 0 -111 -111v-108h354v88q0 78 16.5 136t42.5 91.5t65.5 54t79 27t89.5 6.5q115 0 164 -14v-182q-46 12 -109 12q-114 0 -114 -111v-108h198v-174h-198v-885h-234
v885h-354v-885h-233v885h-175zM1362 0v1462h233v-1462h-233z" />
    <glyph glyph-name=".notdef" horiz-adv-x="1048" 
d="M0 0h1049v1470h-1049v-1470zM102 102v1264h844v-1264h-844zM461 479h94q0 107 12 148q11 38 88 106q75 69 102 123t27 123q0 120 -72 194t-182 74q-115 0 -189 -69.5t-87 -210.5l102 -17q11 100 56 147.5t112 47.5q64 0 110 -50.5t46 -123.5q0 -41 -19.5 -75.5
t-82.5 -94.5q-67 -67 -95 -121q-26 -51 -26 -166zM455 240h114v137h-114v-137z" />
    <glyph glyph-name=".null" horiz-adv-x="1024" 
 />
    <glyph glyph-name="nonmarkingreturn" horiz-adv-x="682" 
 />
    <glyph glyph-name="CR" unicode="&#xd;" horiz-adv-x="0" 
 />
    <glyph glyph-name="space" unicode=" " horiz-adv-x="569" 
 />
    <glyph glyph-name="exclam" unicode="!" horiz-adv-x="569" 
d="M225 408l-67 632v422h256v-422l-68 -632h-121zM147 0v256h275v-256h-275z" />
    <glyph glyph-name="quotedbl" unicode="&#x22;" horiz-adv-x="909" 
d="M530 885v577h209v-577h-209zM170 885v577h209v-577h-209z" />
    <glyph glyph-name="numbersign" unicode="#" 
d="M203 0l59 430h-192v154h215l37 266h-193v154h213l59 430h166l-61 -430h227l60 430h165l-61 -430h176v-154h-196l-37 -266h174v-154h-195l-61 -430h-164l59 430h-225l-61 -430h-164zM449 584h227l37 266h-228z" />
    <glyph glyph-name="dollar" unicode="$" 
d="M35 444h233q-3 -286 262 -294v495q-78 21 -135 41t-123 57t-108 82t-70 115t-28 156q0 125 65.5 218t169 138t229.5 45v160h88v-160q94 0 174.5 -25t142 -73t97 -125.5t35.5 -175.5h-233q-5 107 -56.5 161t-159.5 54v-432q60 -16 105.5 -30.5t98.5 -37t92 -46.5
t76.5 -58.5t61 -74.5t38 -93t14.5 -115q0 -111 -37.5 -198.5t-104.5 -143t-154 -85.5t-190 -34v-160h-88v160q-227 5 -363 131t-132 348zM530 903v410q-114 0 -172.5 -47.5t-58.5 -153.5q0 -47 19 -83.5t54 -60.5t72.5 -39t85.5 -26zM618 150q117 8 184.5 67t67.5 176
q0 45 -15 80.5t-37 59t-58 42.5t-67 29.5t-75 22.5v-477z" />
    <glyph glyph-name="percent" unicode="%" horiz-adv-x="2048" 
d="M532 -49l797 1532h156l-793 -1532h-160zM510 647q-90 0 -157.5 32t-107 89.5t-58.5 129t-19 157.5q0 85 20 157t60.5 129t107.5 89t154 32t154 -32t107.5 -89t60.5 -129t20 -157q0 -86 -19 -157.5t-58.5 -129t-107 -89.5t-157.5 -32zM508 780q82 0 121 75.5t39 199.5
q0 55 -7.5 101t-25 86.5t-50 63.5t-77.5 23q-156 0 -156 -274q0 -125 37.5 -200t118.5 -75zM1196 379q0 85 20 157t60.5 129t107.5 89t154 32t154 -32t107.5 -89t60.5 -129t20 -157q0 -86 -19 -157.5t-58.5 -129t-107 -89.5t-157.5 -32t-157.5 32t-107 89.5t-58.5 129
t-19 157.5zM1380 379q0 -125 37.5 -200t118.5 -75q82 0 121 75.5t39 199.5q0 55 -7.5 101t-25 86.5t-50 63.5t-77.5 23q-156 0 -156 -274z" />
    <glyph glyph-name="ampersand" unicode="&#x26;" horiz-adv-x="1327" 
d="M66 406q0 74 27.5 140t77.5 117.5t105 90.5t125 75q-37 48 -56.5 75.5t-44 70.5t-35.5 85.5t-11 88.5q0 155 103 251.5t255 96.5q97 0 178 -37t134 -118.5t53 -194.5q0 -122 -73 -214.5t-191 -156.5l227 -274q35 104 45 196h205q-23 -213 -115 -358l281 -340h-287
l-133 164q-82 -100 -181.5 -146.5t-228.5 -46.5q-206 0 -333 117t-127 318zM596 918q41 28 65.5 47t52.5 48.5t41 64.5t13 77q0 73 -41.5 120.5t-108.5 47.5t-111 -45t-44 -117q0 -34 15.5 -71.5t27.5 -55.5t49 -64t41 -52zM299 401q0 -116 65 -180.5t171 -64.5
q56 0 102 14.5t76.5 39.5t50 47.5t39.5 49.5q5 8 8 12l-287 357q-12 -7 -45.5 -26t-52 -30.5t-46.5 -35t-43 -47t-26.5 -59t-11.5 -77.5z" />
    <glyph glyph-name="quotesingle" unicode="'" horiz-adv-x="569" 
d="M180 885v577h209v-577h-209z" />
    <glyph glyph-name="parenleft" unicode="(" horiz-adv-x="569" 
d="M395 -391q-67 109 -116 206t-92 214.5t-65 249t-22 274.5q0 491 295 944h191q-252 -453 -252 -944q0 -515 252 -944h-191z" />
    <glyph glyph-name="parenright" unicode=")" horiz-adv-x="569" 
d="M-16 -391q252 450 252 942q0 514 -252 946h190q140 -223 217.5 -449t77.5 -497q0 -492 -295 -942h-190z" />
    <glyph glyph-name="asterisk" unicode="*" horiz-adv-x="757" 
d="M238 821l-115 80l143 193l-227 77l45 134l225 -88v245h140v-245l223 88l49 -134l-234 -77l144 -193l-109 -80l-145 201z" />
    <glyph glyph-name="plus" unicode="+" horiz-adv-x="1228" 
d="M98 414v209h412v413h209v-413h411v-209h-411v-414h-209v414h-412z" />
    <glyph glyph-name="comma" unicode="," horiz-adv-x="569" 
d="M141 0v276h285v-276q-1 -126 -76 -212.5t-200 -111.5v125q65 17 100 73t33 126h-142z" />
    <glyph glyph-name="hyphen" unicode="-" horiz-adv-x="796" 
d="M100 446v222h596v-222h-596z" />
    <glyph glyph-name="period" unicode="." horiz-adv-x="569" 
d="M141 0v276h285v-276h-285z" />
    <glyph glyph-name="slash" unicode="/" horiz-adv-x="720" 
d="M-45 -35l588 1532h223l-588 -1532h-223z" />
    <glyph glyph-name="zero" unicode="0" 
d="M569 -29q-86 0 -157 24.5t-121.5 66t-89 101t-62.5 124t-39 140.5t-20.5 145.5t-5.5 144.5t5.5 144.5t20.5 145.5t39 140.5t62.5 123.5t89 100.5t121.5 66t157 24.5t157 -24.5t121.5 -66t89.5 -100.5t62.5 -123.5t39 -140.5t21 -145.5t5.5 -144.5q0 -88 -8.5 -169
t-28 -168.5t-57 -158.5t-90.5 -128.5t-132.5 -89.5t-179.5 -32zM569 166q262 0 262 551t-262 551t-262 -551t262 -551z" />
    <glyph glyph-name="one" unicode="1" 
d="M461 0v1012h-352v184q76 0 143.5 13t125.5 40.5t97 74.5t51 110h191v-1434h-256z" />
    <glyph glyph-name="two" unicode="2" 
d="M80 0q3 333 315 543q34 25 95 66t99.5 68t87.5 68.5t78 78.5t50 86.5t22 103.5q0 34 -5.5 66t-21.5 67.5t-41.5 61t-70 42.5t-102.5 17q-67 0 -115 -27t-75 -77.5t-40.5 -112t-15.5 -142.5h-234q0 160 56 284t169 196.5t269 72.5q101 0 182 -28.5t132 -73.5t85 -104
t48 -117t14 -117q0 -94 -34.5 -175.5t-91 -142t-125.5 -114t-141.5 -99.5t-135 -88.5t-110 -92.5t-63.5 -101h699v-209h-979z" />
    <glyph glyph-name="three" unicode="3" 
d="M63 471h234q-5 -135 66 -220t204 -85q121 0 198 68t77 188q0 65 -22 111.5t-56 72.5t-86 40.5t-100.5 18t-110.5 1.5v174q62 -2 116 8.5t100.5 35.5t73.5 71.5t27 109.5q0 92 -62 147.5t-161 55.5q-115 0 -178.5 -87.5t-58.5 -205.5h-234q8 214 136 350.5t339 136.5
q85 0 165 -24.5t145 -71t104 -121t39 -166.5q0 -112 -50.5 -191.5t-152.5 -115.5v-4q122 -25 191 -121t69 -237q0 -131 -70.5 -232.5t-185.5 -154t-252 -52.5q-243 0 -371 134t-133 366z" />
    <glyph glyph-name="four" unicode="4" 
d="M49 340v231l615 863h221v-910h184v-184h-184v-340h-221v340h-615zM229 524h435v631h-5z" />
    <glyph glyph-name="five" unicode="5" 
d="M72 408h233q10 -117 79 -179.5t185 -62.5q140 0 203.5 86t63.5 229q0 82 -28 148t-91.5 108.5t-153.5 42.5q-180 0 -231 -131h-234l154 785h741v-209h-567l-74 -365l4 -4q46 52 118 80.5t147 28.5q140 0 242.5 -63t154 -171t51.5 -246q0 -71 -17.5 -141.5t-56.5 -138
t-95 -119.5t-140.5 -83.5t-186.5 -31.5q-215 0 -354.5 114.5t-146.5 322.5z" />
    <glyph glyph-name="six" unicode="6" 
d="M592 -29q-123 0 -215.5 38.5t-150 104t-93.5 163.5t-49.5 204.5t-13.5 239.5q0 107 17 208.5t57.5 199.5t101 171t154.5 117.5t210 44.5q112 0 209 -48.5t157.5 -139t65.5 -203.5h-233q-8 89 -63 143t-146 54q-42 0 -77.5 -11.5t-61.5 -28t-48 -47t-37 -56t-27 -67.5
t-18.5 -70t-13 -75t-8.5 -70t-6 -67l4 -4q46 84 127.5 127t181.5 43q139 0 243 -64t157 -172t53 -245q0 -212 -132 -351t-345 -139zM326 465q0 -80 28.5 -146.5t88 -109.5t141.5 -43q121 0 186.5 87.5t65.5 211.5t-65.5 208.5t-186.5 84.5q-122 0 -190 -84t-68 -209z" />
    <glyph glyph-name="seven" unicode="7" 
d="M262 0q24 329 172 645t381 580h-743v209h981v-195q-237 -267 -372 -567t-163 -672h-256z" />
    <glyph glyph-name="eight" unicode="8" 
d="M63 422q0 134 70.5 226.5t192.5 123.5v4q-98 37 -150.5 113.5t-52.5 181.5q0 186 116 288.5t330 102.5t330.5 -103t116.5 -288q0 -105 -52.5 -181.5t-150.5 -113.5v-4q122 -31 192 -123.5t70 -226.5q0 -207 -141.5 -329t-364.5 -122t-364.5 122t-141.5 329zM569 848
q101 0 163.5 55.5t62.5 155.5q0 102 -64 160.5t-162 58.5q-97 0 -161 -58.5t-64 -160.5q0 -100 62 -155.5t163 -55.5zM297 422q0 -124 76 -195t196 -71t196.5 71t76.5 195q0 116 -76.5 184t-196.5 68t-196 -68t-76 -184z" />
    <glyph glyph-name="nine" unicode="9" 
d="M96 362h234q8 -89 63 -142.5t146 -53.5q53 0 96 18.5t71.5 45t51 72t35 82t22 95t13 91t8.5 87.5l-5 5q-47 -84 -128 -128.5t-181 -44.5q-203 0 -327.5 132.5t-124.5 351.5q0 215 132 352t361 137q118 0 207 -38.5t145.5 -104t91.5 -163t48.5 -204.5t13.5 -239
q0 -89 -12.5 -174t-38 -170t-69 -155.5t-101.5 -125.5t-140 -86t-180 -31q-112 0 -209 48.5t-157.5 139t-65.5 203.5zM553 674q124 0 192 87t68 214q0 123 -68 208t-192 85q-121 0 -185.5 -84t-64.5 -209q0 -81 26 -147.5t84.5 -110t139.5 -43.5z" />
    <glyph glyph-name="colon" unicode=":" horiz-adv-x="569" 
d="M141 760v276h285v-276h-285zM141 0v276h285v-276h-285z" />
    <glyph glyph-name="semicolon" unicode=";" horiz-adv-x="569" 
d="M141 760v276h285v-276h-285zM141 0v276h285v-276q-1 -126 -76 -212.5t-200 -111.5v125q65 17 100 73t33 126h-142z" />
    <glyph glyph-name="less" unicode="&#x3c;" horiz-adv-x="1228" 
d="M94 444v148l1041 461v-209l-766 -326l766 -325v-209z" />
    <glyph glyph-name="equal" unicode="=" horiz-adv-x="1228" 
d="M98 621v208h1032v-208h-1032zM98 207v209h1032v-209h-1032z" />
    <glyph glyph-name="greater" unicode="&#x3e;" horiz-adv-x="1228" 
d="M94 -16v209l766 325l-766 326v209l1041 -461v-148z" />
    <glyph glyph-name="question" unicode="?" 
d="M457 397q0 117 18 194.5t50 125t91 96.5q10 9 35.5 30.5t35.5 31t29.5 29.5t28 35t19 37t14.5 46t4 53q0 59 -20.5 105t-52.5 71.5t-65 38.5t-62 13q-124 0 -186 -81t-62 -225h-234q0 227 133 363.5t359 136.5q194 0 320 -111t126 -303q0 -53 -10 -98t-22.5 -74
t-38.5 -61t-42 -47.5t-50 -44.5q-11 -10 -17 -15q-42 -36 -60 -52t-47 -50t-41 -63.5t-22 -76.5t-10 -104h-221zM426 0v256h274v-256h-274z" />
    <glyph glyph-name="at" unicode="@" horiz-adv-x="1638" 
d="M401 610q0 98 33 193t90.5 170t143 121.5t182.5 46.5q156 0 229 -148l37 117h144l-148 -539q-18 -59 -18 -94q0 -47 39 -47q64 0 125 57t101 160.5t40 224.5q0 148 -74.5 261.5t-198 172t-274.5 58.5q-170 0 -305.5 -82t-209 -222t-73.5 -310q0 -195 79.5 -344.5
t216.5 -228.5t310 -79q135 0 255.5 53t205.5 150h144q-98 -159 -260 -247.5t-353 -88.5q-157 0 -297 59t-242.5 162t-162.5 251.5t-60 320.5q0 152 60.5 289.5t162 235.5t240 156t289.5 58q182 0 338.5 -75.5t252 -214.5t95.5 -310q0 -117 -34.5 -220t-88 -172.5t-119 -120
t-127.5 -74t-114 -23.5q-50 0 -83.5 30.5t-37.5 88.5h-4q-44 -51 -105.5 -84t-124.5 -33q-127 0 -213 94.5t-86 226.5zM575 629q0 -83 45 -135t119 -52q77 0 143.5 60.5t102 144t35.5 160.5q0 73 -48 126.5t-114 53.5q-61 0 -115.5 -34t-90 -87t-56.5 -116t-21 -121z" />
    <glyph glyph-name="A" unicode="A" horiz-adv-x="1366" 
d="M-14 0l561 1462h272l563 -1462h-274l-137 387h-584l-137 -387h-264zM457 582h446l-219 628h-6z" />
    <glyph glyph-name="B" unicode="B" horiz-adv-x="1441" 
d="M156 0v1462h710q202 0 318 -92t116 -270q0 -109 -53.5 -189t-154.5 -123v-4q134 -29 204 -127t70 -249q0 -88 -31.5 -160.5t-95 -129t-169 -87.5t-243.5 -31h-671zM412 850h417q95 0 155 53.5t60 149.5q0 107 -53.5 153.5t-161.5 46.5h-417v-403zM412 209h452
q117 0 181.5 60.5t64.5 170.5q0 108 -64.5 167t-181.5 59h-452v-457z" />
    <glyph glyph-name="C" unicode="C" horiz-adv-x="1478" 
d="M78 731q0 156 49 295t137 244t221.5 166t292.5 61q166 0 300.5 -58.5t219.5 -173t101 -268.5h-256q-74 291 -365 291q-113 0 -200.5 -47t-139.5 -127t-78 -177t-26 -206t26 -206t78 -177t139.5 -127t200.5 -47q164 0 259.5 106.5t113.5 276.5h250q-17 -264 -188 -428
t-435 -164q-128 0 -240 39t-195.5 109.5t-143.5 166t-90.5 210.5t-30.5 241z" />
    <glyph glyph-name="D" unicode="D" horiz-adv-x="1478" 
d="M156 0v1462h606q164 0 290 -57t202.5 -158t114.5 -231t38 -285t-38 -285t-114.5 -231t-202.5 -158t-290 -57h-606zM412 209h252q117 0 204 26.5t140.5 71.5t86 113.5t44.5 142t12 168.5t-12 168.5t-44.5 142t-86 113.5t-140.5 71.5t-204 26.5h-252v-1044z" />
    <glyph glyph-name="E" unicode="E" horiz-adv-x="1290" 
d="M156 0v1462h1052v-221h-796v-383h737v-209h-737v-428h811v-221h-1067z" />
    <glyph glyph-name="F" unicode="F" horiz-adv-x="1214" 
d="M156 0v1462h1009v-221h-753v-383h661v-209h-661v-649h-256z" />
    <glyph glyph-name="G" unicode="G" horiz-adv-x="1554" 
d="M88 731q0 156 49 295t137 244t221.5 166t292.5 61q120 0 226.5 -32t191 -93.5t140 -157.5t69.5 -217h-250q-20 138 -125.5 214.5t-251.5 76.5q-113 0 -200.5 -47t-139.5 -127t-78 -177t-26 -206t26 -206t78 -177t139.5 -127t200.5 -47q194 -4 299.5 103.5t110.5 297.5
h-389v195h623v-770h-164l-39 172q-100 -114 -202 -160.5t-239 -46.5q-128 0 -240 39t-195.5 109.5t-143.5 166t-90.5 210.5t-30.5 241z" />
    <glyph glyph-name="H" unicode="H" horiz-adv-x="1478" 
d="M150 0v1462h256v-581h665v581h256v-1462h-256v659h-665v-659h-256z" />
    <glyph glyph-name="I" unicode="I" horiz-adv-x="569" 
d="M156 0v1462h256v-1462h-256z" />
    <glyph glyph-name="J" unicode="J" horiz-adv-x="1099" 
d="M27 434v78h256v-76q0 -132 44 -197t156 -65q118 0 161.5 68.5t43.5 214.5v1005h256v-991q0 -59 -4.5 -108t-17.5 -103t-35 -95.5t-58.5 -80t-86 -64t-120.5 -40.5t-159 -15q-221 0 -328.5 128t-107.5 341z" />
    <glyph glyph-name="K" unicode="K" horiz-adv-x="1402" 
d="M156 0v1462h256v-665l651 665h315l-583 -583l624 -879h-319l-479 698l-209 -206v-492h-256z" />
    <glyph glyph-name="L" unicode="L" horiz-adv-x="1175" 
d="M156 0v1462h256v-1241h743v-221h-999z" />
    <glyph glyph-name="M" unicode="M" horiz-adv-x="1820" 
d="M152 0v1462h360l403 -1145h5l393 1145h356v-1462h-244v1128h-4l-405 -1128h-211l-406 1128h-4v-1128h-243z" />
    <glyph glyph-name="N" unicode="N" horiz-adv-x="1478" 
d="M145 0v1462h271l667 -1077h4v1077h244v-1462h-270l-666 1075h-6v-1075h-244z" />
    <glyph glyph-name="O" unicode="O" horiz-adv-x="1556" 
d="M778 1497q159 0 292.5 -61t222 -166t137.5 -244t49 -295q0 -211 -83 -384t-244.5 -277.5t-373.5 -104.5q-128 0 -240 39t-195.5 109.5t-143.5 166t-90.5 210.5t-30.5 241q0 156 49 295t137 244t221.5 166t292.5 61zM778 1288q-113 0 -200.5 -47t-139.5 -127t-78 -177
t-26 -206t26 -206t78 -177t139.5 -127t200.5 -47q91 0 166 31t126 84t86 124.5t51 151.5t16 166t-16 166t-51 151.5t-86 124.5t-126 84t-166 31z" />
    <glyph glyph-name="P" unicode="P" horiz-adv-x="1366" 
d="M156 0v1462h645q120 0 211.5 -30t144.5 -76t86 -109t44 -119.5t11 -117.5t-11 -117t-44 -119t-86 -108t-144.5 -75t-211.5 -30h-389v-561h-256zM412 1253v-483h374q46 0 89 12.5t81.5 39t62 75.5t23.5 115q0 70 -19.5 119t-56 74.5t-79 36.5t-96.5 11h-379z" />
    <glyph glyph-name="Q" unicode="Q" horiz-adv-x="1556" 
d="M1272 170l188 -164l-125 -139l-213 186q-152 -88 -344 -88q-128 0 -240 39t-195.5 109.5t-143.5 166t-90.5 210.5t-30.5 241q0 156 49 295t137 244t221.5 166t292.5 61t292.5 -61t222 -166t137.5 -244t49 -295q0 -161 -51.5 -313.5t-155.5 -247.5zM942 209l-147 129
l123 141l178 -155q127 156 127 407q0 86 -16 166t-51 151.5t-86 124.5t-126 84t-166 31q-113 0 -200.5 -47t-139.5 -127t-78 -177t-26 -206t26 -206t78 -177t139.5 -127t200.5 -47q93 0 164 35z" />
    <glyph glyph-name="R" unicode="R" horiz-adv-x="1441" 
d="M156 0v1462h698q238 0 360.5 -103t122.5 -292q0 -79 -21 -144.5t-48.5 -102.5t-66 -66t-60.5 -39t-45 -17v-4q37 -4 71.5 -21t69 -50.5t55.5 -95t21 -142.5q0 -135 20 -238.5t60 -146.5h-275q-18 29 -27 70t-10.5 68.5t-1.5 76.5q0 106 -12.5 174.5t-44.5 118.5t-89 72
t-145 22h-376v-602h-256zM412 1253v-456h419q250 0 250 233q0 55 -14 95.5t-36.5 64.5t-57 38.5t-69 19.5t-77.5 5h-415z" />
    <glyph glyph-name="S" unicode="S" horiz-adv-x="1327" 
d="M68 487h256q0 -81 28.5 -142.5t80 -98t117 -54.5t144.5 -18q157 0 233.5 64.5t76.5 156.5q0 133 -121 180q-47 18 -105 34t-161 42.5t-171 44.5q-323 85 -323 371q0 106 46 190.5t122.5 135.5t170 77.5t195.5 26.5q115 0 216 -30.5t178.5 -88t122.5 -147.5t45 -201h-256
q-19 258 -316 258q-48 0 -92.5 -9.5t-85.5 -30t-65.5 -59.5t-24.5 -91q0 -137 174 -189q376 -98 422 -112q137 -42 211 -146t74 -227q0 -118 -49.5 -209t-134 -144t-185 -79.5t-213.5 -26.5q-128 0 -236 31.5t-191.5 93.5t-132 163.5t-50.5 233.5z" />
    <glyph glyph-name="T" unicode="T" horiz-adv-x="1214" 
d="M16 1241v221h1184v-221h-465v-1241h-256v1241h-463z" />
    <glyph glyph-name="U" unicode="U" horiz-adv-x="1478" 
d="M139 526v936h256v-852q0 -52 1.5 -86.5t8.5 -83t20.5 -81t39 -68t61 -56.5t90 -35t123.5 -14t123.5 14t90 35t61 56.5t39 68t20.5 81t8.5 83t1.5 86.5v852h256v-936q0 -274 -161 -417.5t-439 -143.5t-439 143.5t-161 417.5z" />
    <glyph glyph-name="V" unicode="V" horiz-adv-x="1251" 
d="M477 0l-487 1462h266l367 -1157h4l374 1157h261l-500 -1462h-285z" />
    <glyph glyph-name="W" unicode="W" horiz-adv-x="1933" 
d="M397 0l-385 1462h260l265 -1118h4l295 1118h262l286 -1118h5l272 1118h260l-403 -1462h-261l-292 1118h-4l-299 -1118h-265z" />
    <glyph glyph-name="X" unicode="X" horiz-adv-x="1327" 
d="M512 758l-483 704h305l332 -516l346 516h286l-483 -704l518 -758h-311l-365 559l-370 -559h-293z" />
    <glyph glyph-name="Y" unicode="Y" horiz-adv-x="1327" 
d="M537 0v573l-549 889h297l387 -655l381 655h286l-546 -889v-573h-256z" />
    <glyph glyph-name="Z" unicode="Z" horiz-adv-x="1290" 
d="M113 1241v221h1112v-194l-852 -1047h872v-221h-1198v209l852 1032h-786z" />
    <glyph glyph-name="bracketleft" unicode="[" horiz-adv-x="606" 
d="M147 -391v1888h457v-184h-235v-1520h235v-184h-457z" />
    <glyph glyph-name="backslash" unicode="\" horiz-adv-x="720" 
d="M178 1497l588 -1532h-223l-588 1532h223z" />
    <glyph glyph-name="bracketright" unicode="]" horiz-adv-x="606" 
d="M459 1497v-1888h-457v184h236v1520h-236v184h457z" />
    <glyph glyph-name="asciicircum" unicode="^" horiz-adv-x="1228" 
d="M381 686h-209l369 748h147l369 -748h-209l-234 506z" />
    <glyph glyph-name="underscore" unicode="_" horiz-adv-x="1024" 
d="M1024 -256h-1024v102h1024v-102z" />
    <glyph glyph-name="grave" unicode="`" horiz-adv-x="493" 
d="M-59 1499h274l186 -293h-170z" />
    <glyph glyph-name="a" unicode="a" 
d="M1010 780v-544q0 -44 11.5 -62t43.5 -18q34 0 57 4v-162q-79 -27 -147 -27q-156 0 -180 129q-65 -64 -165.5 -96.5t-201.5 -32.5q-155 0 -258.5 81t-103.5 229q0 54 12.5 98.5t32 76t51 56.5t62.5 40t75.5 27t79.5 18.5t84 12.5l129 17q113 14 156 40.5t43 92.5
q0 143 -220 143q-102 0 -164 -42t-69 -126h-234q6 98 48 169t111.5 109.5t149 56t173.5 17.5q81 0 154 -17t135 -52t98.5 -96.5t36.5 -141.5zM776 356v174q-34 -21 -69 -30.5t-111 -18.5l-94 -12q-203 -27 -203 -168q0 -74 58.5 -109.5t142.5 -35.5q49 0 95.5 11t88 33.5
t67 62.5t25.5 93z" />
    <glyph glyph-name="b" unicode="b" horiz-adv-x="1251" 
d="M129 0v1462h233v-540h5q49 75 136 120t179 45q122 0 218 -44t156 -121t91 -178.5t31 -219.5q0 -110 -28.5 -208t-83 -176t-143.5 -123.5t-202 -45.5q-279 0 -367 174h-4v-145h-221zM944 528q0 98 -32 181.5t-100.5 138.5t-160.5 55q-145 0 -221 -100.5t-76 -274.5
q0 -164 79.5 -268t217.5 -104q62 0 112 21t83.5 56.5t55.5 84t32 101t10 109.5z" />
    <glyph glyph-name="c" unicode="c" 
d="M1071 705h-233q-13 96 -77.5 147t-164.5 51q-40 0 -77 -9t-77.5 -35t-69.5 -67t-48 -111.5t-19 -162.5q0 -69 16 -131.5t48 -115t88 -84t129 -31.5q103 0 169 63t83 178h233q-32 -207 -156.5 -316.5t-328.5 -109.5q-162 0 -279.5 72.5t-176 195t-58.5 279.5
q0 121 33 223.5t97 180t164.5 121.5t227.5 44q195 0 327.5 -97.5t149.5 -284.5z" />
    <glyph glyph-name="d" unicode="d" horiz-adv-x="1251" 
d="M1120 1462v-1462h-221v143h-4q-45 -87 -133 -129.5t-195 -42.5q-122 0 -217.5 43.5t-155.5 121t-91 179t-31 222.5q0 112 25.5 204.5t69 155.5t102.5 106.5t124.5 63.5t136.5 20q107 0 204.5 -41t148.5 -124h4v540h233zM305 518q0 -95 30 -175t98 -133.5t165 -53.5
q60 0 110 21.5t84 57.5t57.5 84t34.5 101t11 110q0 176 -78.5 274.5t-214.5 98.5q-64 0 -115 -22t-84.5 -59t-56 -87.5t-32 -104t-9.5 -112.5z" />
    <glyph glyph-name="e" unicode="e" 
d="M1083 469h-778q0 -86 29.5 -155t95.5 -113.5t160 -44.5q102 0 164.5 43.5t93.5 132.5h221q-36 -169 -169 -265t-310 -96q-245 0 -381.5 152.5t-136.5 404.5q0 113 36 214.5t101 178t162.5 121.5t212.5 45q122 0 224 -52t166 -138t94 -198t15 -230zM305 623h545
q-8 117 -79.5 198.5t-186.5 81.5q-120 0 -197 -80t-82 -200z" />
    <glyph glyph-name="f" unicode="f" horiz-adv-x="645" 
d="M18 885v174h175v88q0 78 16.5 136t42 91.5t65.5 54t79 27t89 6.5q115 0 164 -14v-182q-46 12 -108 12q-115 0 -115 -111v-108h199v-174h-199v-885h-233v885h-175z" />
    <glyph glyph-name="g" unicode="g" horiz-adv-x="1214" 
d="M1102 1059v-1004q0 -237 -133 -356t-387 -119q-67 0 -129 10t-122.5 35t-106.5 61.5t-77 94t-38 129.5h233q20 -91 85 -123.5t169 -32.5q272 0 272 271v161h-4q-49 -87 -133.5 -136.5t-183.5 -49.5q-122 0 -215 44t-149 121.5t-83.5 176t-27.5 215.5q0 144 56 263.5
t166.5 193t256.5 73.5q105 0 187.5 -43.5t125.5 -130.5h4v146h234zM584 184q75 0 131.5 31.5t88.5 85.5t48 117.5t16 134.5t-16.5 132t-49 111t-89 78.5t-129.5 28.5q-74 0 -130 -32t-87.5 -86.5t-46.5 -117t-15 -132.5q0 -91 28 -168t93 -130t158 -53z" />
    <glyph glyph-name="h" unicode="h" horiz-adv-x="1175" 
d="M123 0v1462h233v-542h4q44 74 130 120.5t188 46.5q177 0 276 -91.5t99 -268.5v-727h-234v666q-5 125 -54 181t-153 56q-115 0 -185.5 -79.5t-70.5 -198.5v-625h-233z" />
    <glyph glyph-name="i" unicode="i" horiz-adv-x="493" 
d="M129 1241v221h233v-221h-233zM129 0v1059h233v-1059h-233z" />
    <glyph glyph-name="j" unicode="j" horiz-adv-x="493" 
d="M129 1241v221h233v-221h-233zM129 -80v1139h233v-1149q0 -164 -71.5 -247t-231.5 -83q-63 0 -104 8v185q46 -9 80 -9q59 0 76.5 35t17.5 121z" />
    <glyph glyph-name="k" unicode="k" horiz-adv-x="1099" 
d="M129 0v1462h233v-831l422 428h287l-405 -389l444 -670h-285l-323 514l-140 -135v-379h-233z" />
    <glyph glyph-name="l" unicode="l" horiz-adv-x="493" 
d="M129 0v1462h233v-1462h-233z" />
    <glyph glyph-name="m" unicode="m" horiz-adv-x="1781" 
d="M123 0v1059h221v-148h6q60 87 133.5 131.5t192.5 44.5q102 0 182.5 -44.5t114.5 -131.5q64 87 142.5 131.5t189.5 44.5q173 0 263.5 -85t90.5 -271v-731h-234v618q0 42 -1 69.5t-5 60.5t-12 54t-22 42t-34.5 32.5t-50 19t-67.5 7.5q-225 0 -225 -282v-621h-234v680
q0 115 -42 169t-144 54q-96 0 -164 -74.5t-68 -199.5v-629h-233z" />
    <glyph glyph-name="n" unicode="n" horiz-adv-x="1175" 
d="M123 0v1059h221v-156l4 -4q55 89 141 138.5t189 49.5q177 0 276 -91.5t99 -268.5v-727h-234v666q-5 125 -54 181t-153 56q-115 0 -185.5 -79.5t-70.5 -198.5v-625h-233z" />
    <glyph glyph-name="o" unicode="o" horiz-adv-x="1214" 
d="M608 -29q-166 0 -288 72t-184 197.5t-62 289.5q0 247 143 402t391 155t391.5 -155t143.5 -402q0 -249 -143 -404t-392 -155zM608 156q61 0 111.5 21.5t85 57.5t58.5 84t35 101.5t11 109.5q0 71 -18 135.5t-53.5 118.5t-95 86.5t-134.5 32.5t-134.5 -32.5t-95 -86.5
t-53.5 -118.5t-18 -135.5q0 -56 11 -109.5t35 -101.5t58.5 -84t85 -57.5t111.5 -21.5z" />
    <glyph glyph-name="p" unicode="p" horiz-adv-x="1251" 
d="M129 -391v1450h221v-144h4q47 88 133 130t195 42q122 0 218 -44t156 -121t91 -178.5t31 -219.5q0 -110 -28.5 -208t-83 -176t-143.5 -123.5t-202 -45.5q-109 0 -206 41.5t-148 124.5h-5v-528h-233zM944 528q0 98 -32 181.5t-100.5 138.5t-160.5 55q-145 0 -221 -100.5
t-76 -274.5q0 -164 79.5 -268t217.5 -104q62 0 112 21t83.5 56.5t55.5 84t32 101t10 109.5z" />
    <glyph glyph-name="q" unicode="q" horiz-adv-x="1251" 
d="M1120 1059v-1450h-233v528h-4q-56 -84 -150 -125t-205 -41q-91 0 -166.5 30t-128.5 82t-89.5 122.5t-54 151t-17.5 167.5q0 118 31 219.5t90.5 178.5t155.5 121t218 44q109 0 195 -42t133 -130h4v144h221zM305 528q0 -57 10 -109.5t32 -101t55.5 -84t83.5 -56.5t112 -21
q148 0 222.5 100t74.5 272q0 177 -76 276t-221 99q-92 0 -160.5 -55t-100.5 -138.5t-32 -181.5z" />
    <glyph glyph-name="r" unicode="r" horiz-adv-x="720" 
d="M123 0v1059h219v-205h4q21 88 113.5 160.5t195.5 72.5q19 0 88 -6v-225q-55 10 -100 10q-124 0 -205.5 -95.5t-81.5 -266.5v-504h-233z" />
    <glyph glyph-name="s" unicode="s" horiz-adv-x="1062" 
d="M66 340h233q19 -184 240 -184q40 0 76.5 5t76 18.5t62 43t20.5 72.5q-1 26 -11 46.5t-31.5 36t-42 26t-57 20.5t-61.5 16t-71.5 15.5t-71.5 15.5q-59 13 -102.5 26.5t-91 38t-77.5 56t-49.5 81t-19.5 111.5q0 67 27.5 120t72 86.5t104 56t118.5 31.5t120 9
q85 0 157.5 -18t134.5 -55t101.5 -101.5t49.5 -150.5h-244q-16 79 -72 110t-143 31q-30 0 -59.5 -4.5t-61.5 -15t-51.5 -33.5t-19.5 -55q0 -19 5.5 -35t18.5 -29t26.5 -23t36.5 -19t42 -15.5t50 -13.5t52 -11.5t56.5 -11.5t56.5 -12q59 -13 102 -27t91 -39t78.5 -56
t50.5 -79.5t20 -108.5q0 -90 -42.5 -159t-113 -108t-150.5 -58t-167 -19q-209 0 -337 94t-132 275z" />
    <glyph glyph-name="t" unicode="t" horiz-adv-x="681" 
d="M16 885v174h177v317h233v-317h211v-174h-211v-566q0 -81 20 -113t93 -32q65 0 98 8v-180q-102 -12 -152 -12q-91 0 -148.5 16.5t-88 53.5t-42 82.5t-13.5 117.5v625h-177z" />
    <glyph glyph-name="u" unicode="u" horiz-adv-x="1175" 
d="M1053 1059v-1059h-230v147h-4q-42 -78 -127 -127t-174 -49q-207 0 -301 102t-94 314v672h233v-649q0 -135 51 -194.5t152 -59.5q260 0 260 288v615h234z" />
    <glyph glyph-name="v" unicode="v" horiz-adv-x="1062" 
d="M403 0l-385 1059h254l269 -813h4l258 813h241l-378 -1059h-263z" />
    <glyph glyph-name="w" unicode="w" horiz-adv-x="1593" 
d="M354 0l-327 1059h247l207 -791h4l199 791h236l190 -791h4l215 791h238l-332 -1059h-240l-196 786h-4l-195 -786h-246z" />
    <glyph glyph-name="x" unicode="x" horiz-adv-x="1099" 
d="M8 0l400 557l-367 502h283l221 -326l231 326h271l-361 -490l406 -569h-281l-268 391l-260 -391h-275z" />
    <glyph glyph-name="y" unicode="y" horiz-adv-x="1062" 
d="M408 4l-402 1055h256l277 -791h4l268 791h244l-412 -1116q-58 -145 -81 -188q-66 -120 -170 -156q-54 -19 -124 -19q-82 0 -162 12v197q91 -14 111 -14q74 0 107.5 35.5t56.5 111.5z" />
    <glyph glyph-name="z" unicode="z" horiz-adv-x="1024" 
d="M86 874v185h860v-164l-606 -711h637v-184h-932v164l586 710h-545z" />
    <glyph glyph-name="braceleft" unicode="{" horiz-adv-x="606" 
d="M-8 461v184q25 0 54 7t62 22t54.5 47t21.5 74v422q0 55 19 103t48 79.5t65 54t69 33t61 10.5h187v-184h-113q-30 0 -51.5 -9.5t-33.5 -23.5t-19 -34.5t-8.5 -37.5t-1.5 -39v-399q0 -47 -16.5 -84.5t-40 -60.5t-54.5 -39t-55.5 -22.5t-46.5 -8.5v-4q213 -20 213 -227v-387
q0 -22 1.5 -39t8.5 -37.5t19 -34.5t33.5 -23.5t51.5 -9.5h113v-184h-187q-28 0 -61 10.5t-69 33t-65 54t-48 79.5t-19 103v406q0 47 -21.5 81.5t-54.5 51.5t-62.5 25t-53.5 8z" />
    <glyph glyph-name="bar" unicode="|" horiz-adv-x="454" 
d="M123 -438v2048h209v-2048h-209z" />
    <glyph glyph-name="braceright" unicode="}" horiz-adv-x="606" 
d="M614 645v-184q-20 0 -43 -4t-50 -14.5t-48.5 -27t-36 -43.5t-14.5 -61v-422q0 -55 -19 -103t-48 -79.5t-65 -54t-69 -33t-61 -10.5h-187v184h113q37 0 61.5 13t35.5 37t14.5 45t3.5 49v399q0 48 16.5 86t39.5 59.5t55.5 37.5t55 22t46.5 10v4q-213 20 -213 227v387
q0 28 -3.5 49t-14.5 45t-35.5 37t-61.5 13h-113v184h187q28 0 61 -10.5t69 -33t65 -54t48 -79.5t19 -103v-406q0 -47 21 -81.5t53.5 -51.5t62 -25t55.5 -8z" />
    <glyph glyph-name="asciitilde" unicode="~" horiz-adv-x="1228" 
d="M397 692q57 0 121.5 -21.5t112 -48t102.5 -48t96 -21.5q59 0 103 33t82 106l73 -172q-86 -176 -256 -176q-60 0 -125.5 21.5t-112.5 48t-101 48t-93 21.5q-59 0 -102.5 -33t-81.5 -106l-74 172q86 176 256 176z" />
    <glyph glyph-name="uni00A0" unicode="&#xa0;" horiz-adv-x="569" 
 />
    <glyph glyph-name="exclamdown" unicode="&#xa1;" horiz-adv-x="569" 
d="M422 1087v-256h-275v256h275zM414 43v-418h-256v418l67 637h121z" />
    <glyph glyph-name="cent" unicode="&#xa2;" 
d="M549 -213v184q-108 0 -198.5 44t-150 119t-92 174t-32.5 210q0 256 132 412.5t341 156.5v185h88v-185q174 0 299 -104t137 -278h-233q-11 88 -66.5 143t-136.5 55v-747q187 34 211 241h233q-36 -202 -147.5 -314t-296.5 -112v-184h-88zM549 156v747q-65 -6 -113 -42.5
t-75 -93t-39.5 -119t-12.5 -130.5q0 -87 23 -161t79 -131t138 -70z" />
    <glyph glyph-name="sterling" unicode="&#xa3;" 
d="M63 653v133h130q-46 55 -71.5 134t-25.5 155q0 123 70 221.5t179 149.5t230 51q240 0 377 -129t138 -377h-234q-4 70 -19.5 124t-46.5 97.5t-84 67t-126 23.5q-98 0 -163 -63.5t-65 -176.5q0 -102 94 -277h302v-133h-252q32 -57 32 -137q0 -184 -206 -336l4 -4
q11 4 36 14.5t38.5 16t34.5 12t40.5 9.5t38.5 3q66 0 166 -34q4 -1 19.5 -7.5t20.5 -8t18.5 -6.5t22 -6.5t21 -4t24.5 -3.5t25 -1q108 0 199 78l105 -158q-76 -64 -150.5 -89.5t-177.5 -25.5q-39 0 -113 14.5t-90 16.5q-121 41 -215 41q-55 0 -112 -19t-95 -51l-108 166
q85 58 153 151.5t68 180.5q0 100 -43 188h-189z" />
    <glyph glyph-name="currency" unicode="&#xa4;" 
d="M156 184l-115 115l117 125q-103 115 -103 291q0 198 103 295l-117 125l117 116l116 -114q51 43 132 68.5t167 25.5q81 0 157 -25t124 -67l119 116l125 -125l-115 -118q46 -48 71 -126.5t25 -166.5q0 -181 -98 -299l113 -121l-113 -113l-117 119q-50 -49 -128 -75.5
t-165 -26.5q-192 0 -301 100zM571 412q123 0 205 90t82 217q0 124 -82 213.5t-203 89.5q-127 0 -212 -89t-85 -218q0 -128 85.5 -215.5t209.5 -87.5z" />
    <glyph glyph-name="yen" unicode="&#xa5;" 
d="M453 0v338h-281v133h281v139h-281v133h201l-383 719h260l319 -655l326 655h254l-385 -719h203v-133h-281v-139h281v-133h-281v-338h-233z" />
    <glyph glyph-name="brokenbar" unicode="&#xa6;" horiz-adv-x="454" 
d="M123 842v512h209v-512h-209zM123 -182v512h209v-512h-209z" />
    <glyph glyph-name="section" unicode="&#xa7;" 
d="M993 1110h-221q-5 89 -56 146t-136 57q-66 0 -117 -43.5t-51 -110.5q0 -46 29.5 -87t77.5 -71.5t109.5 -64t125.5 -63t125.5 -69.5t109.5 -82.5t77.5 -103.5t29.5 -131q0 -95 -63 -180t-154 -114q57 -49 84.5 -110.5t27.5 -152.5q0 -110 -58 -191.5t-148.5 -120
t-198.5 -38.5q-126 0 -224.5 48t-157 144t-61.5 228h222q8 -113 61 -174.5t154 -61.5q178 0 178 166q0 27 -9 53t-20.5 46t-37 43t-43 37t-56 36.5t-57 33t-65.5 34.5t-64 33q-60 29 -106.5 55.5t-96.5 64t-83 76.5t-54 90t-21 107q0 213 221 305q-46 49 -67 96t-21 111
q0 79 35.5 146t93 109.5t129 66.5t146.5 24q179 0 295 -105.5t116 -281.5zM731 635l-340 194q-57 -18 -91 -61t-34 -102q0 -96 113 -160l373 -209q122 53 122 168q0 47 -30.5 86t-112.5 84z" />
    <glyph glyph-name="dieresis" unicode="&#xa8;" horiz-adv-x="493" 
d="M305 1454h234v-221h-234v221zM186 1233h-233v221h233v-221z" />
    <glyph glyph-name="copyright" unicode="&#xa9;" horiz-adv-x="1638" 
d="M1571 731q0 -168 -61 -312.5t-163.5 -243t-239 -154.5t-286.5 -56q-162 0 -302.5 58.5t-239.5 160.5t-155 243.5t-56 303.5q0 168 60.5 312.5t163.5 243t240.5 154.5t288.5 56q150 0 286.5 -56t239 -154.5t163.5 -243t61 -312.5zM1407 731q0 137 -45.5 255.5t-124 201
t-186.5 129.5t-230 47q-124 0 -233 -47t-187.5 -129.5t-124 -201t-45.5 -255.5q0 -130 41.5 -245.5t116 -201.5t186.5 -136t246 -50q122 0 230 46.5t186.5 129t124 201t45.5 256.5zM1067 584h141q-24 -145 -125 -230.5t-237 -85.5q-194 0 -314 131t-120 332q0 190 117 315
t313 125q145 0 244.5 -80.5t119.5 -228.5h-139q-18 79 -78.5 127.5t-146.5 48.5q-125 0 -196 -87t-71 -220q0 -138 75 -234t196 -96q91 0 150.5 51t70.5 132z" />
    <glyph glyph-name="ordfeminine" unicode="&#xaa;" horiz-adv-x="778" 
d="M678 1272v-309q0 -26 6.5 -36t28.5 -9h14q12 0 18 2v-140q-46 -16 -96 -16q-56 0 -86.5 22.5t-40.5 77.5q-28 -42 -101 -71t-138 -29q-104 0 -177 50.5t-73 139.5q0 33 9 59.5t22 45t37 34.5t43.5 25t53.5 18t54 12.5t57 10.5q7 1 20 3q32 5 47 7.5t39.5 7.5t36 9.5
t25 12t18.5 17t5 21.5q0 31 -10.5 51t-31.5 28t-38 10.5t-43 2.5q-66 0 -103 -19t-41 -67h-174q6 61 36 105.5t77 68.5t100 34.5t115 10.5q75 0 138.5 -18.5t108 -63t44.5 -108.5zM500 1006v90q-23 -12 -77 -21t-98 -15.5t-79 -30.5t-35 -64q0 -39 30.5 -53.5t84.5 -14.5
q174 0 174 109z" />
    <glyph glyph-name="guillemotleft" unicode="&#xab;" horiz-adv-x="948" 
d="M825 190l-317 252v230l317 252v-211l-194 -156l194 -156v-211zM420 190l-318 252v230l318 252v-211l-195 -156l195 -156v-211z" />
    <glyph glyph-name="logicalnot" unicode="&#xac;" horiz-adv-x="1228" 
d="M922 221v400h-824v208h1032v-608h-208z" />
    <glyph glyph-name="uni00AD" unicode="&#xad;" horiz-adv-x="796" 
d="M100 446v222h596v-222h-596z" />
    <glyph glyph-name="registered" unicode="&#xae;" horiz-adv-x="1638" 
d="M1571 731q0 -168 -61 -312.5t-163.5 -243t-239 -154.5t-286.5 -56q-162 0 -302.5 58.5t-239.5 160.5t-155 243.5t-56 303.5q0 168 60.5 312.5t163.5 243t240.5 154.5t288.5 56q150 0 286.5 -56t239 -154.5t163.5 -243t61 -312.5zM1407 731q0 137 -45.5 255.5t-124 201
t-186.5 129.5t-230 47q-124 0 -233 -47t-187.5 -129.5t-124 -201t-45.5 -255.5q0 -130 41.5 -245.5t116 -201.5t186.5 -136t246 -50q122 0 230 46.5t186.5 129t124 201t45.5 256.5zM670 655v-362h-140v848h322q156 0 232.5 -58.5t76.5 -185.5q0 -206 -221 -231l238 -373
h-158l-219 362h-131zM670 774h155q36 0 61 2t53 9.5t44.5 21.5t27.5 39t11 61q0 30 -11.5 52t-29 33.5t-44 18.5t-48.5 9t-51 2h-168v-248z" />
    <glyph glyph-name="macron" unicode="&#xaf;" horiz-adv-x="493" 
d="M543 1278h-590v133h590v-133z" />
    <glyph glyph-name="degree" unicode="&#xb0;" horiz-adv-x="819" 
d="M102 1155q0 127 90 217t218 90t217.5 -90t89.5 -217t-89.5 -217t-217.5 -90t-218 90t-90 217zM217 1155q0 -79 56.5 -135.5t136.5 -56.5t136 56.5t56 135.5q0 80 -56.5 136.5t-135.5 56.5q-80 0 -136.5 -57t-56.5 -136z" />
    <glyph glyph-name="plusminus" unicode="&#xb1;" horiz-adv-x="1228" 
d="M510 780v256h209v-256h411v-209h-411v-256h-209v256h-412v209h412zM98 0v209h1032v-209h-1032z" />
    <glyph glyph-name="twosuperior" unicode="&#xb2;" horiz-adv-x="798" 
d="M723 956v-143h-653q1 130 49 212.5t153 145.5l150 93q129 78 129 174q0 52 -34.5 84t-96.5 32q-43 0 -74 -14t-47.5 -39.5t-24.5 -53t-10 -63.5h-178q0 140 89 227t247 87q144 0 225.5 -69t81.5 -191q0 -89 -53.5 -156t-151.5 -125l-141 -86q-92 -57 -107 -115h447z" />
    <glyph glyph-name="threesuperior" unicode="&#xb3;" horiz-adv-x="798" 
d="M328 1214v123h49q71 0 114.5 28.5t43.5 82.5q0 51 -36 81t-106 30q-71 0 -110 -41t-39 -111h-164q6 137 91 214t230 77q132 0 214.5 -62t82.5 -170q0 -121 -131 -176q166 -52 166 -221q0 -120 -97 -197t-239 -77q-162 0 -249 78t-87 206h164q10 -141 172 -141
q79 0 125.5 37t46.5 102q0 137 -188 137h-53z" />
    <glyph glyph-name="acute" unicode="&#xb4;" horiz-adv-x="493" 
d="M92 1206l184 293h277l-291 -293h-170z" />
    <glyph glyph-name="mu" unicode="&#xb5;" horiz-adv-x="1175" 
d="M1053 1059v-1059h-230v147h-4q-57 -94 -133.5 -135t-155.5 -41q-112 0 -174 54v-416h-233v1450h233v-649q0 -135 51 -194.5t152 -59.5q260 0 260 288v615h234z" />
    <glyph glyph-name="paragraph" unicode="&#xb6;" horiz-adv-x="1228" 
d="M504 -328v1033q-198 0 -319.5 104.5t-121.5 267.5q0 198 127 291.5t351 93.5h530v-1790h-164v1657h-239v-1657h-164z" />
    <glyph glyph-name="periodcentered" unicode="&#xb7;" horiz-adv-x="569" 
d="M131 618q0 60 46.5 106t107.5 46t107 -46t46 -106q0 -62 -45.5 -108.5t-107.5 -46.5q-63 0 -108.5 46.5t-45.5 108.5z" />
    <glyph glyph-name="cedilla" unicode="&#xb8;" horiz-adv-x="493" 
d="M18 -410l37 82q68 -32 140 -32q118 0 118 84q0 36 -28 56.5t-66 20.5q-47 0 -80 -20l-45 39l135 180h99l-95 -121l3 -2q33 8 67 8q67 0 120.5 -40t53.5 -113q0 -95 -73.5 -142t-174.5 -47q-126 0 -211 47z" />
    <glyph glyph-name="onesuperior" unicode="&#xb9;" horiz-adv-x="798" 
d="M119 1417v119q110 0 186.5 35t95.5 108h144v-866h-178v604h-248z" />
    <glyph glyph-name="ordmasculine" unicode="&#xba;" horiz-adv-x="778" 
d="M760 1112q0 -162 -94 -255t-271 -93t-270.5 93t-93.5 255t94 256t270 94t270.5 -94t94.5 -256zM582 1112q0 86 -49.5 151.5t-137.5 65.5q-89 0 -137.5 -65.5t-48.5 -151.5q0 -85 48.5 -150t137.5 -65q90 0 136 63.5t51 151.5z" />
    <glyph glyph-name="guillemotright" unicode="&#xbb;" horiz-adv-x="948" 
d="M528 924l318 -252v-230l-318 -252v211l195 156l-195 156v211zM123 924l317 -252v-230l-317 -252v211l194 156l-194 156v211z" />
    <glyph glyph-name="onequarter" unicode="&#xbc;" horiz-adv-x="1708" 
d="M309 -49l858 1532h160l-856 -1532h-162zM74 1182v118q110 0 186.5 35.5t95.5 108.5h144v-866h-178v604h-248zM1294 0v188h-395v156l406 522h159v-538h119v-140h-119v-188h-170zM1294 328v325l-254 -325h254z" />
    <glyph glyph-name="onehalf" unicode="&#xbd;" horiz-adv-x="1708" 
d="M268 -49l858 1532h160l-856 -1532h-162zM74 1182v118q110 0 186.5 35.5t95.5 108.5h144v-866h-178v604h-248zM1620 143v-143h-653q1 130 49 212.5t153 145.5l150 93q129 78 129 174q0 52 -34.5 84t-96.5 32q-43 0 -74 -14t-47.5 -39.5t-24.5 -53t-10 -63.5h-178
q0 140 89 227t247 87q144 0 225.5 -69t81.5 -191q0 -89 -53.5 -156t-151.5 -125l-141 -86q-90 -56 -106 -115h446z" />
    <glyph glyph-name="threequarters" unicode="&#xbe;" horiz-adv-x="1708" 
d="M412 -49l858 1532h160l-857 -1532h-161zM342 975v123h49q72 0 115 28t43 82q0 51 -35.5 81t-105.5 30q-71 0 -110.5 -41t-39.5 -111h-164q6 136 91.5 213.5t230.5 77.5q132 0 214.5 -61.5t82.5 -169.5q0 -121 -131 -176q166 -52 166 -222q0 -120 -97 -197t-239 -77
q-162 0 -249 78.5t-87 206.5h164q10 -142 172 -142q79 0 125.5 37.5t46.5 102.5q0 137 -189 137h-53zM1315 0v188h-395v156l405 522h160v-538h119v-140h-119v-188h-170zM1315 328v325l-254 -325h254z" />
    <glyph glyph-name="questiondown" unicode="&#xbf;" 
d="M430 1087h275v-256h-275v256zM805 80h233q0 -219 -133 -354.5t-358 -135.5q-193 0 -320 109t-127 295q0 56 11 103t24.5 77t43 64t47 49.5t55.5 46.5q42 36 60 52t47 50t41 63.5t22 76.5t10 104h221q0 -170 -36 -256t-124 -160q-6 -6 -35.5 -30.5t-37 -31.5t-29 -29
t-28 -35.5t-18 -36t-15 -46.5t-3.5 -53q0 -55 20.5 -99t52 -68.5t64.5 -37t64 -12.5q123 0 185.5 79.5t62.5 215.5z" />
    <glyph glyph-name="Agrave" unicode="&#xc0;" horiz-adv-x="1366" 
d="M-14 0l561 1462h272l563 -1462h-274l-137 387h-584l-137 -387h-264zM457 582h446l-219 628h-6zM342 1896h274l187 -292h-170z" />
    <glyph glyph-name="Aacute" unicode="&#xc1;" horiz-adv-x="1366" 
d="M-14 0l561 1462h272l563 -1462h-274l-137 387h-584l-137 -387h-264zM457 582h446l-219 628h-6zM565 1604l185 292h276l-291 -292h-170z" />
    <glyph glyph-name="Acircumflex" unicode="&#xc2;" horiz-adv-x="1366" 
d="M-14 0l561 1462h272l563 -1462h-274l-137 387h-584l-137 -387h-264zM457 582h446l-219 628h-6zM684 1788l-143 -184h-189l219 292h228l221 -292h-191z" />
    <glyph glyph-name="Atilde" unicode="&#xc3;" horiz-adv-x="1366" 
d="M-14 0l561 1462h272l563 -1462h-274l-137 387h-584l-137 -387h-264zM457 582h446l-219 628h-6zM932 1872h115q-17 -112 -68 -166q-57 -70 -160 -70q-65 0 -151 39q-86 37 -140 37q-73 0 -88 -84h-116q14 89 70.5 160.5t142.5 71.5q40 0 72 -7.5t93 -33.5q84 -37 127 -37
q80 0 103 90z" />
    <glyph glyph-name="Adieresis" unicode="&#xc4;" horiz-adv-x="1366" 
d="M-14 0l561 1462h272l563 -1462h-274l-137 387h-584l-137 -387h-264zM457 582h446l-219 628h-6zM743 1851h234v-221h-234v221zM625 1630h-234v221h234v-221z" />
    <glyph glyph-name="Aring" unicode="&#xc5;" horiz-adv-x="1366" 
d="M-14 0l561 1462h272l563 -1462h-274l-137 387h-584l-137 -387h-264zM457 582h446l-219 628h-6zM684 1538q-89 0 -151 59.5t-62 151.5q0 93 63 152t150 59q89 0 151 -59t62 -152q0 -92 -62.5 -151.5t-150.5 -59.5zM561 1749q0 -53 35.5 -89t87.5 -36q54 0 88.5 35.5
t34.5 89.5q0 55 -34.5 90t-88.5 35q-52 0 -87.5 -35t-35.5 -90z" />
    <glyph glyph-name="AE" unicode="&#xc6;" horiz-adv-x="1972" 
d="M-14 0l727 1462h1179v-221h-712v-383h667v-209h-667v-428h725v-221h-969v375h-490l-176 -375h-284zM862 1241l-321 -672h395v672h-74z" />
    <glyph glyph-name="Ccedilla" unicode="&#xc7;" horiz-adv-x="1478" 
d="M510 -410l37 82q68 -32 139 -32q119 0 119 84q0 36 -28 56.5t-66 20.5q-47 0 -80 -20l-45 39l112 151q-190 19 -332 126t-215 271.5t-73 362.5q0 156 49 295t137 244t221.5 166t292.5 61q166 0 300.5 -58.5t219.5 -173t101 -268.5h-256q-74 291 -365 291
q-113 0 -200.5 -47t-139.5 -127t-78 -177t-26 -206t26 -206t78 -177t139.5 -127t200.5 -47q164 0 259.5 106.5t113.5 276.5h250q-17 -261 -184 -424.5t-426 -167.5l-66 -86l2 -2q33 8 68 8q67 0 120.5 -40t53.5 -113q0 -95 -73.5 -142t-174.5 -47q-126 0 -211 47z" />
    <glyph glyph-name="Egrave" unicode="&#xc8;" horiz-adv-x="1290" 
d="M156 0v1462h1052v-221h-796v-383h737v-209h-737v-428h811v-221h-1067zM313 1896h275l186 -292h-170z" />
    <glyph glyph-name="Eacute" unicode="&#xc9;" horiz-adv-x="1290" 
d="M156 0v1462h1052v-221h-796v-383h737v-209h-737v-428h811v-221h-1067zM578 1604l184 292h276l-290 -292h-170z" />
    <glyph glyph-name="Ecircumflex" unicode="&#xca;" horiz-adv-x="1290" 
d="M156 0v1462h1052v-221h-796v-383h737v-209h-737v-428h811v-221h-1067zM676 1788l-144 -184h-188l219 292h228l221 -292h-191z" />
    <glyph glyph-name="Edieresis" unicode="&#xcb;" horiz-adv-x="1290" 
d="M156 0v1462h1052v-221h-796v-383h737v-209h-737v-428h811v-221h-1067zM735 1851h234v-221h-234v221zM616 1630h-233v221h233v-221z" />
    <glyph glyph-name="Igrave" unicode="&#xcc;" horiz-adv-x="569" 
d="M156 0v1462h256v-1462h-256zM-57 1896h274l186 -292h-170z" />
    <glyph glyph-name="Iacute" unicode="&#xcd;" horiz-adv-x="569" 
d="M156 0v1462h256v-1462h-256zM166 1604l184 292h277l-291 -292h-170z" />
    <glyph glyph-name="Icircumflex" unicode="&#xce;" horiz-adv-x="569" 
d="M156 0v1462h256v-1462h-256zM285 1788l-144 -184h-188l219 292h227l222 -292h-191z" />
    <glyph glyph-name="Idieresis" unicode="&#xcf;" horiz-adv-x="569" 
d="M156 0v1462h256v-1462h-256zM344 1851h234v-221h-234v221zM225 1630h-233v221h233v-221z" />
    <glyph glyph-name="Eth" unicode="&#xd0;" horiz-adv-x="1478" 
d="M156 0v676h-150v160h150v626h606q164 0 290 -57t202.5 -158t114.5 -231t38 -285t-38 -285t-114.5 -231t-202.5 -158t-290 -57h-606zM412 1253v-417h399v-160h-399v-467h252q117 0 204 26.5t140.5 71.5t86 113.5t44.5 142t12 168.5t-12 168.5t-44.5 142t-86 113.5
t-140.5 71.5t-204 26.5h-252z" />
    <glyph glyph-name="Ntilde" unicode="&#xd1;" horiz-adv-x="1478" 
d="M145 0v1462h271l667 -1077h4v1077h244v-1462h-270l-666 1075h-6v-1075h-244zM983 1872h115q-17 -112 -68 -166q-57 -70 -160 -70q-65 0 -151 39q-86 37 -139 37q-73 0 -88 -84h-117q14 89 70.5 160.5t142.5 71.5q40 0 72.5 -8t93.5 -33q84 -37 127 -37q79 0 102 90z" />
    <glyph glyph-name="Ograve" unicode="&#xd2;" horiz-adv-x="1556" 
d="M778 1497q159 0 292.5 -61t222 -166t137.5 -244t49 -295q0 -211 -83 -384t-244.5 -277.5t-373.5 -104.5q-128 0 -240 39t-195.5 109.5t-143.5 166t-90.5 210.5t-30.5 241q0 156 49 295t137 244t221.5 166t292.5 61zM778 1288q-113 0 -200.5 -47t-139.5 -127t-78 -177
t-26 -206t26 -206t78 -177t139.5 -127t200.5 -47q91 0 166 31t126 84t86 124.5t51 151.5t16 166t-16 166t-51 151.5t-86 124.5t-126 84t-166 31zM418 1896h274l187 -292h-170z" />
    <glyph glyph-name="Oacute" unicode="&#xd3;" horiz-adv-x="1556" 
d="M778 1497q159 0 292.5 -61t222 -166t137.5 -244t49 -295q0 -211 -83 -384t-244.5 -277.5t-373.5 -104.5q-128 0 -240 39t-195.5 109.5t-143.5 166t-90.5 210.5t-30.5 241q0 156 49 295t137 244t221.5 166t292.5 61zM778 1288q-113 0 -200.5 -47t-139.5 -127t-78 -177
t-26 -206t26 -206t78 -177t139.5 -127t200.5 -47q91 0 166 31t126 84t86 124.5t51 151.5t16 166t-16 166t-51 151.5t-86 124.5t-126 84t-166 31zM682 1604l184 292h277l-291 -292h-170z" />
    <glyph glyph-name="Ocircumflex" unicode="&#xd4;" horiz-adv-x="1556" 
d="M778 1497q159 0 292.5 -61t222 -166t137.5 -244t49 -295q0 -211 -83 -384t-244.5 -277.5t-373.5 -104.5q-128 0 -240 39t-195.5 109.5t-143.5 166t-90.5 210.5t-30.5 241q0 156 49 295t137 244t221.5 166t292.5 61zM778 1288q-113 0 -200.5 -47t-139.5 -127t-78 -177
t-26 -206t26 -206t78 -177t139.5 -127t200.5 -47q91 0 166 31t126 84t86 124.5t51 151.5t16 166t-16 166t-51 151.5t-86 124.5t-126 84t-166 31zM780 1788l-143 -184h-188l219 292h227l221 -292h-190z" />
    <glyph glyph-name="Otilde" unicode="&#xd5;" horiz-adv-x="1556" 
d="M778 1497q159 0 292.5 -61t222 -166t137.5 -244t49 -295q0 -211 -83 -384t-244.5 -277.5t-373.5 -104.5q-128 0 -240 39t-195.5 109.5t-143.5 166t-90.5 210.5t-30.5 241q0 156 49 295t137 244t221.5 166t292.5 61zM778 1288q-113 0 -200.5 -47t-139.5 -127t-78 -177
t-26 -206t26 -206t78 -177t139.5 -127t200.5 -47q91 0 166 31t126 84t86 124.5t51 151.5t16 166t-16 166t-51 151.5t-86 124.5t-126 84t-166 31zM1028 1872h115q-17 -112 -68 -166q-57 -70 -160 -70q-65 0 -151 39q-86 37 -139 37q-73 0 -88 -84h-117q14 89 70.5 160.5
t142.5 71.5q40 0 72.5 -8t93.5 -33q84 -37 127 -37q79 0 102 90z" />
    <glyph glyph-name="Odieresis" unicode="&#xd6;" horiz-adv-x="1556" 
d="M778 1497q159 0 292.5 -61t222 -166t137.5 -244t49 -295q0 -211 -83 -384t-244.5 -277.5t-373.5 -104.5q-128 0 -240 39t-195.5 109.5t-143.5 166t-90.5 210.5t-30.5 241q0 156 49 295t137 244t221.5 166t292.5 61zM778 1288q-113 0 -200.5 -47t-139.5 -127t-78 -177
t-26 -206t26 -206t78 -177t139.5 -127t200.5 -47q91 0 166 31t126 84t86 124.5t51 151.5t16 166t-16 166t-51 151.5t-86 124.5t-126 84t-166 31zM840 1851h233v-221h-233v221zM721 1630h-234v221h234v-221z" />
    <glyph glyph-name="multiply" unicode="&#xd7;" horiz-adv-x="1228" 
d="M758 518l356 -356l-164 -146l-336 357l-340 -357l-163 146l358 356l-356 356l163 146l336 -356l340 356l164 -146z" />
    <glyph glyph-name="Oslash" unicode="&#xd8;" horiz-adv-x="1556" 
d="M1386 1503l89 -73l-162 -183q166 -218 166 -516q0 -211 -83 -384t-244.5 -277.5t-373.5 -104.5q-268 0 -454 168l-156 -174l-86 74l162 184q-166 215 -166 514q0 156 49 295t137 244t221.5 166t292.5 61q271 0 455 -166zM408 401l673 758q-110 129 -303 129
q-113 0 -200.5 -47t-139.5 -127t-78 -177t-26 -206q0 -191 74 -330zM1147 1061l-672 -758q119 -129 303 -129q91 0 166 31t126 84t86 124.5t51 151.5t16 166q0 197 -76 330z" />
    <glyph glyph-name="Ugrave" unicode="&#xd9;" horiz-adv-x="1478" 
d="M139 526v936h256v-852q0 -52 1.5 -86.5t8.5 -83t20.5 -81t39 -68t61 -56.5t90 -35t123.5 -14t123.5 14t90 35t61 56.5t39 68t20.5 81t8.5 83t1.5 86.5v852h256v-936q0 -274 -161 -417.5t-439 -143.5t-439 143.5t-161 417.5zM377 1896h274l187 -292h-170z" />
    <glyph glyph-name="Uacute" unicode="&#xda;" horiz-adv-x="1478" 
d="M139 526v936h256v-852q0 -52 1.5 -86.5t8.5 -83t20.5 -81t39 -68t61 -56.5t90 -35t123.5 -14t123.5 14t90 35t61 56.5t39 68t20.5 81t8.5 83t1.5 86.5v852h256v-936q0 -274 -161 -417.5t-439 -143.5t-439 143.5t-161 417.5zM641 1604l184 292h277l-291 -292h-170z" />
    <glyph glyph-name="Ucircumflex" unicode="&#xdb;" horiz-adv-x="1478" 
d="M139 526v936h256v-852q0 -52 1.5 -86.5t8.5 -83t20.5 -81t39 -68t61 -56.5t90 -35t123.5 -14t123.5 14t90 35t61 56.5t39 68t20.5 81t8.5 83t1.5 86.5v852h256v-936q0 -274 -161 -417.5t-439 -143.5t-439 143.5t-161 417.5zM739 1788l-143 -184h-188l219 292h227
l221 -292h-190z" />
    <glyph glyph-name="Udieresis" unicode="&#xdc;" horiz-adv-x="1478" 
d="M139 526v936h256v-852q0 -52 1.5 -86.5t8.5 -83t20.5 -81t39 -68t61 -56.5t90 -35t123.5 -14t123.5 14t90 35t61 56.5t39 68t20.5 81t8.5 83t1.5 86.5v852h256v-936q0 -274 -161 -417.5t-439 -143.5t-439 143.5t-161 417.5zM799 1851h233v-221h-233v221zM680 1630h-234
v221h234v-221z" />
    <glyph glyph-name="Yacute" unicode="&#xdd;" horiz-adv-x="1327" 
d="M537 0v573l-549 889h297l387 -655l381 655h286l-546 -889v-573h-256zM578 1604l184 292h276l-290 -292h-170z" />
    <glyph glyph-name="Thorn" unicode="&#xde;" horiz-adv-x="1366" 
d="M156 0v1462h256v-221h389q120 0 211.5 -30.5t144.5 -76t86 -109t44 -120t11 -117.5t-11 -117t-44 -118.5t-86 -108t-144.5 -75t-211.5 -29.5h-389v-340h-256zM412 1032v-483h374q46 0 89 12.5t81.5 39t62 75.5t23.5 115q0 70 -19.5 119t-56 74.5t-79 36.5t-96.5 11h-379z
" />
    <glyph glyph-name="germandbls" unicode="&#xdf;" horiz-adv-x="1175" 
d="M129 0v1071q0 197 125 311.5t324 114.5q113 0 211 -42t161.5 -128t63.5 -199q0 -109 -53.5 -193.5t-155.5 -115.5v-4q125 -17 199.5 -118t74.5 -232q0 -217 -127.5 -355.5t-341.5 -138.5q-56 0 -114 6v185q23 -6 79 -6q70 0 121 20.5t79 51t45 76t21.5 84.5t4.5 87
q0 136 -113 201q-78 51 -235 51v154q144 0 202 53q80 64 80 172q0 207 -207 207q-31 0 -58.5 -6.5t-56 -25t-49.5 -47t-34 -76.5t-13 -111v-1047h-233z" />
    <glyph glyph-name="agrave" unicode="&#xe0;" 
d="M1010 780v-544q0 -44 11.5 -62t43.5 -18q34 0 57 4v-162q-79 -27 -147 -27q-156 0 -180 129q-65 -64 -165.5 -96.5t-201.5 -32.5q-155 0 -258.5 81t-103.5 229q0 54 12.5 98.5t32 76t51 56.5t62.5 40t75.5 27t79.5 18.5t84 12.5l129 17q113 14 156 40.5t43 92.5
q0 143 -220 143q-102 0 -164 -42t-69 -126h-234q6 98 48 169t111.5 109.5t149 56t173.5 17.5q81 0 154 -17t135 -52t98.5 -96.5t36.5 -141.5zM776 356v174q-34 -21 -69 -30.5t-111 -18.5l-94 -12q-203 -27 -203 -168q0 -74 58.5 -109.5t142.5 -35.5q49 0 95.5 11t88 33.5
t67 62.5t25.5 93zM229 1499h275l186 -293h-170z" />
    <glyph glyph-name="aacute" unicode="&#xe1;" 
d="M1010 780v-544q0 -44 11.5 -62t43.5 -18q34 0 57 4v-162q-79 -27 -147 -27q-156 0 -180 129q-65 -64 -165.5 -96.5t-201.5 -32.5q-155 0 -258.5 81t-103.5 229q0 54 12.5 98.5t32 76t51 56.5t62.5 40t75.5 27t79.5 18.5t84 12.5l129 17q113 14 156 40.5t43 92.5
q0 143 -220 143q-102 0 -164 -42t-69 -126h-234q6 98 48 169t111.5 109.5t149 56t173.5 17.5q81 0 154 -17t135 -52t98.5 -96.5t36.5 -141.5zM776 356v174q-34 -21 -69 -30.5t-111 -18.5l-94 -12q-203 -27 -203 -168q0 -74 58.5 -109.5t142.5 -35.5q49 0 95.5 11t88 33.5
t67 62.5t25.5 93zM473 1206l184 293h277l-291 -293h-170z" />
    <glyph glyph-name="acircumflex" unicode="&#xe2;" 
d="M1010 780v-544q0 -44 11.5 -62t43.5 -18q34 0 57 4v-162q-79 -27 -147 -27q-156 0 -180 129q-65 -64 -165.5 -96.5t-201.5 -32.5q-155 0 -258.5 81t-103.5 229q0 54 12.5 98.5t32 76t51 56.5t62.5 40t75.5 27t79.5 18.5t84 12.5l129 17q113 14 156 40.5t43 92.5
q0 143 -220 143q-102 0 -164 -42t-69 -126h-234q6 98 48 169t111.5 109.5t149 56t173.5 17.5q81 0 154 -17t135 -52t98.5 -96.5t36.5 -141.5zM776 356v174q-34 -21 -69 -30.5t-111 -18.5l-94 -12q-203 -27 -203 -168q0 -74 58.5 -109.5t142.5 -35.5q49 0 95.5 11t88 33.5
t67 62.5t25.5 93zM582 1391l-144 -185h-188l219 293h227l222 -293h-191z" />
    <glyph glyph-name="atilde" unicode="&#xe3;" 
d="M1010 780v-544q0 -44 11.5 -62t43.5 -18q34 0 57 4v-162q-79 -27 -147 -27q-156 0 -180 129q-65 -64 -165.5 -96.5t-201.5 -32.5q-155 0 -258.5 81t-103.5 229q0 54 12.5 98.5t32 76t51 56.5t62.5 40t75.5 27t79.5 18.5t84 12.5l129 17q113 14 156 40.5t43 92.5
q0 143 -220 143q-102 0 -164 -42t-69 -126h-234q6 98 48 169t111.5 109.5t149 56t173.5 17.5q81 0 154 -17t135 -52t98.5 -96.5t36.5 -141.5zM776 356v174q-34 -21 -69 -30.5t-111 -18.5l-94 -12q-203 -27 -203 -168q0 -74 58.5 -109.5t142.5 -35.5q49 0 95.5 11t88 33.5
t67 62.5t25.5 93zM829 1475h115q-17 -114 -67 -166q-57 -70 -160 -70q-66 0 -152 39q-86 37 -139 37q-73 0 -88 -84h-117q14 89 70.5 160t142.5 71q40 0 72.5 -8t93.5 -33q84 -37 127 -37q79 0 102 91z" />
    <glyph glyph-name="adieresis" unicode="&#xe4;" 
d="M1010 780v-544q0 -44 11.5 -62t43.5 -18q34 0 57 4v-162q-79 -27 -147 -27q-156 0 -180 129q-65 -64 -165.5 -96.5t-201.5 -32.5q-155 0 -258.5 81t-103.5 229q0 54 12.5 98.5t32 76t51 56.5t62.5 40t75.5 27t79.5 18.5t84 12.5l129 17q113 14 156 40.5t43 92.5
q0 143 -220 143q-102 0 -164 -42t-69 -126h-234q6 98 48 169t111.5 109.5t149 56t173.5 17.5q81 0 154 -17t135 -52t98.5 -96.5t36.5 -141.5zM776 356v174q-34 -21 -69 -30.5t-111 -18.5l-94 -12q-203 -27 -203 -168q0 -74 58.5 -109.5t142.5 -35.5q49 0 95.5 11t88 33.5
t67 62.5t25.5 93zM641 1454h233v-221h-233v221zM522 1233h-233v221h233v-221z" />
    <glyph glyph-name="aring" unicode="&#xe5;" 
d="M1010 780v-544q0 -44 11.5 -62t43.5 -18q34 0 57 4v-162q-79 -27 -147 -27q-156 0 -180 129q-65 -64 -165.5 -96.5t-201.5 -32.5q-155 0 -258.5 81t-103.5 229q0 54 12.5 98.5t32 76t51 56.5t62.5 40t75.5 27t79.5 18.5t84 12.5l129 17q113 14 156 40.5t43 92.5
q0 143 -220 143q-102 0 -164 -42t-69 -126h-234q6 98 48 169t111.5 109.5t149 56t173.5 17.5q81 0 154 -17t135 -52t98.5 -96.5t36.5 -141.5zM776 356v174q-34 -21 -69 -30.5t-111 -18.5l-94 -12q-203 -27 -203 -168q0 -74 58.5 -109.5t142.5 -35.5q49 0 95.5 11t88 33.5
t67 62.5t25.5 93zM580 1169q-89 0 -151 59.5t-62 151.5q0 93 63 152t150 59q89 0 151 -59t62 -152q0 -92 -62.5 -151.5t-150.5 -59.5zM457 1380q0 -54 35.5 -89.5t87.5 -35.5q54 0 88 35.5t34 89.5q0 55 -34 90t-88 35q-52 0 -87.5 -35t-35.5 -90z" />
    <glyph glyph-name="ae" unicode="&#xe6;" horiz-adv-x="1820" 
d="M1524 334h233q-44 -169 -172.5 -266t-306.5 -97q-279 0 -389 195q-66 -100 -181.5 -147.5t-258.5 -47.5q-168 0 -275.5 80.5t-107.5 229.5q0 55 13 100t33 76.5t53 56.5t64.5 40t77 27t81.5 17.5t85 11.5q33 7 80 13t74.5 10t60 13t49.5 21.5t29 36t12 56.5
q0 143 -207 143q-102 0 -164 -42t-69 -126h-234q6 98 48.5 169t111.5 109.5t147 56t169 17.5q76 0 135 -9.5t121 -43t102 -90.5q110 143 336 143q106 0 192 -30.5t144.5 -85.5t96 -132.5t51.5 -170t7 -199.5h-768q0 -63 16.5 -117.5t48.5 -99t86.5 -70.5t125.5 -26
q93 0 156.5 46t93.5 132zM997 623h535q2 129 -69 204.5t-199 75.5q-119 0 -189 -79.5t-78 -200.5zM776 369v157q-21 -21 -62 -31t-119 -17t-103 -11q-43 -7 -74.5 -17.5t-60 -30t-43.5 -52t-15 -76.5q0 -38 19 -65.5t51.5 -42t67.5 -21t75 -6.5q105 0 184.5 57.5t79.5 155.5
z" />
    <glyph glyph-name="ccedilla" unicode="&#xe7;" 
d="M350 -410l37 82q68 -32 139 -32q119 0 119 84q0 36 -28 56.5t-66 20.5q-47 0 -80 -20l-45 39l115 153q-222 15 -345.5 165.5t-123.5 379.5q0 121 33 223.5t97 180t164.5 121.5t227.5 44q195 0 327.5 -97.5t149.5 -284.5h-233q-13 96 -77.5 147t-164.5 51q-40 0 -77 -9
t-77.5 -35t-69.5 -67t-48 -111.5t-19 -162.5q0 -69 16 -131.5t48 -115t88 -84t129 -31.5q103 0 169 63t83 178h233q-31 -194 -142 -302.5t-292 -121.5l-72 -94l2 -2q33 8 68 8q67 0 120.5 -40t53.5 -113q0 -95 -73.5 -142t-174.5 -47q-126 0 -211 47z" />
    <glyph glyph-name="egrave" unicode="&#xe8;" 
d="M1083 469h-778q0 -86 29.5 -155t95.5 -113.5t160 -44.5q102 0 164.5 43.5t93.5 132.5h221q-36 -169 -169 -265t-310 -96q-245 0 -381.5 152.5t-136.5 404.5q0 113 36 214.5t101 178t162.5 121.5t212.5 45q122 0 224 -52t166 -138t94 -198t15 -230zM305 623h545
q-8 117 -79.5 198.5t-186.5 81.5q-120 0 -197 -80t-82 -200zM240 1499h274l186 -293h-170z" />
    <glyph glyph-name="eacute" unicode="&#xe9;" 
d="M1083 469h-778q0 -86 29.5 -155t95.5 -113.5t160 -44.5q102 0 164.5 43.5t93.5 132.5h221q-36 -169 -169 -265t-310 -96q-245 0 -381.5 152.5t-136.5 404.5q0 113 36 214.5t101 178t162.5 121.5t212.5 45q122 0 224 -52t166 -138t94 -198t15 -230zM305 623h545
q-8 117 -79.5 198.5t-186.5 81.5q-120 0 -197 -80t-82 -200zM483 1206l185 293h276l-291 -293h-170z" />
    <glyph glyph-name="ecircumflex" unicode="&#xea;" 
d="M1083 469h-778q0 -86 29.5 -155t95.5 -113.5t160 -44.5q102 0 164.5 43.5t93.5 132.5h221q-36 -169 -169 -265t-310 -96q-245 0 -381.5 152.5t-136.5 404.5q0 113 36 214.5t101 178t162.5 121.5t212.5 45q122 0 224 -52t166 -138t94 -198t15 -230zM305 623h545
q-8 117 -79.5 198.5t-186.5 81.5q-120 0 -197 -80t-82 -200zM592 1391l-143 -185h-189l219 293h228l221 -293h-191z" />
    <glyph glyph-name="edieresis" unicode="&#xeb;" 
d="M1083 469h-778q0 -86 29.5 -155t95.5 -113.5t160 -44.5q102 0 164.5 43.5t93.5 132.5h221q-36 -169 -169 -265t-310 -96q-245 0 -381.5 152.5t-136.5 404.5q0 113 36 214.5t101 178t162.5 121.5t212.5 45q122 0 224 -52t166 -138t94 -198t15 -230zM305 623h545
q-8 117 -79.5 198.5t-186.5 81.5q-120 0 -197 -80t-82 -200zM651 1454h234v-221h-234v221zM532 1233h-233v221h233v-221z" />
    <glyph glyph-name="igrave" unicode="&#xec;" horiz-adv-x="493" 
d="M362 0h-233v1059h233v-1059zM-84 1499h274l187 -293h-170z" />
    <glyph glyph-name="iacute" unicode="&#xed;" horiz-adv-x="493" 
d="M362 0h-233v1059h233v-1059zM119 1206l184 293h277l-291 -293h-170z" />
    <glyph glyph-name="icircumflex" unicode="&#xee;" horiz-adv-x="493" 
d="M362 0h-233v1059h233v-1059zM248 1391l-144 -185h-188l219 293h227l222 -293h-191z" />
    <glyph glyph-name="idieresis" unicode="&#xef;" horiz-adv-x="493" 
d="M362 0h-233v1059h233v-1059zM307 1454h234v-221h-234v221zM188 1233h-233v221h233v-221z" />
    <glyph glyph-name="eth" unicode="&#xf0;" horiz-adv-x="1214" 
d="M397 1108l-82 92l195 92q-66 43 -162 72l141 125q115 -38 218 -103l215 103l79 -92l-190 -92q151 -127 232 -303t81 -375q0 -110 -17.5 -205t-58.5 -179.5t-102.5 -143.5t-154 -93.5t-209.5 -34.5q-230 0 -363 151t-133 394q0 146 59.5 264.5t169 187t248.5 68.5
q89 0 158.5 -29t130.5 -96h4q-41 98 -98 166t-137 137zM612 852q-79 0 -137 -27.5t-91.5 -77.5t-49 -110.5t-15.5 -134.5q0 -149 71.5 -247.5t205.5 -98.5q90 0 159.5 50.5t103.5 128.5t34 167q0 93 -28 169.5t-93.5 128.5t-159.5 52z" />
    <glyph glyph-name="ntilde" unicode="&#xf1;" horiz-adv-x="1175" 
d="M123 0v1059h221v-156l4 -4q55 89 141 138.5t189 49.5q177 0 276 -91.5t99 -268.5v-727h-234v666q-5 125 -54 181t-153 56q-115 0 -185.5 -79.5t-70.5 -198.5v-625h-233zM838 1475h114q-17 -114 -67 -166q-57 -70 -160 -70q-66 0 -152 39q-86 37 -139 37q-73 0 -88 -84
h-117q14 89 70.5 160t142.5 71q40 0 72.5 -8t93.5 -33q84 -37 127 -37q80 0 103 91z" />
    <glyph glyph-name="ograve" unicode="&#xf2;" horiz-adv-x="1214" 
d="M608 -29q-166 0 -288 72t-184 197.5t-62 289.5q0 247 143 402t391 155t391.5 -155t143.5 -402q0 -249 -143 -404t-392 -155zM608 156q61 0 111.5 21.5t85 57.5t58.5 84t35 101.5t11 109.5q0 71 -18 135.5t-53.5 118.5t-95 86.5t-134.5 32.5t-134.5 -32.5t-95 -86.5
t-53.5 -118.5t-18 -135.5q0 -56 11 -109.5t35 -101.5t58.5 -84t85 -57.5t111.5 -21.5zM260 1499h275l186 -293h-170z" />
    <glyph glyph-name="oacute" unicode="&#xf3;" horiz-adv-x="1214" 
d="M608 -29q-166 0 -288 72t-184 197.5t-62 289.5q0 247 143 402t391 155t391.5 -155t143.5 -402q0 -249 -143 -404t-392 -155zM608 156q61 0 111.5 21.5t85 57.5t58.5 84t35 101.5t11 109.5q0 71 -18 135.5t-53.5 118.5t-95 86.5t-134.5 32.5t-134.5 -32.5t-95 -86.5
t-53.5 -118.5t-18 -135.5q0 -56 11 -109.5t35 -101.5t58.5 -84t85 -57.5t111.5 -21.5zM504 1206l184 293h277l-291 -293h-170z" />
    <glyph glyph-name="ocircumflex" unicode="&#xf4;" horiz-adv-x="1214" 
d="M608 -29q-166 0 -288 72t-184 197.5t-62 289.5q0 247 143 402t391 155t391.5 -155t143.5 -402q0 -249 -143 -404t-392 -155zM608 156q61 0 111.5 21.5t85 57.5t58.5 84t35 101.5t11 109.5q0 71 -18 135.5t-53.5 118.5t-95 86.5t-134.5 32.5t-134.5 -32.5t-95 -86.5
t-53.5 -118.5t-18 -135.5q0 -56 11 -109.5t35 -101.5t58.5 -84t85 -57.5t111.5 -21.5zM612 1391l-143 -185h-188l219 293h227l221 -293h-190z" />
    <glyph glyph-name="otilde" unicode="&#xf5;" horiz-adv-x="1214" 
d="M608 -29q-166 0 -288 72t-184 197.5t-62 289.5q0 247 143 402t391 155t391.5 -155t143.5 -402q0 -249 -143 -404t-392 -155zM608 156q61 0 111.5 21.5t85 57.5t58.5 84t35 101.5t11 109.5q0 71 -18 135.5t-53.5 118.5t-95 86.5t-134.5 32.5t-134.5 -32.5t-95 -86.5
t-53.5 -118.5t-18 -135.5q0 -56 11 -109.5t35 -101.5t58.5 -84t85 -57.5t111.5 -21.5zM860 1475h115q-17 -112 -68 -166q-57 -70 -159 -70q-66 0 -152 39q-86 37 -139 37q-73 0 -88 -84h-117q14 89 70.5 160t142.5 71q40 0 72.5 -8t93.5 -33q84 -37 127 -37q79 0 102 91z
" />
    <glyph glyph-name="odieresis" unicode="&#xf6;" horiz-adv-x="1214" 
d="M608 -29q-166 0 -288 72t-184 197.5t-62 289.5q0 247 143 402t391 155t391.5 -155t143.5 -402q0 -249 -143 -404t-392 -155zM608 156q61 0 111.5 21.5t85 57.5t58.5 84t35 101.5t11 109.5q0 71 -18 135.5t-53.5 118.5t-95 86.5t-134.5 32.5t-134.5 -32.5t-95 -86.5
t-53.5 -118.5t-18 -135.5q0 -56 11 -109.5t35 -101.5t58.5 -84t85 -57.5t111.5 -21.5zM672 1454h233v-221h-233v221zM553 1233h-234v221h234v-221z" />
    <glyph glyph-name="divide" unicode="&#xf7;" horiz-adv-x="1228" 
d="M616 793q-60 0 -104.5 43.5t-44.5 103.5q0 61 43.5 104t103.5 43t104 -43.5t44 -103.5q0 -56 -44.5 -101.5t-101.5 -45.5zM1130 414h-1032v209h1032v-209zM616 -51q-60 0 -104.5 43.5t-44.5 103.5q0 61 43.5 104.5t103.5 43.5t104 -44t44 -104q0 -56 -44.5 -101.5
t-101.5 -45.5z" />
    <glyph glyph-name="oslash" unicode="&#xf8;" horiz-adv-x="1214" 
d="M131 -57l-65 57l133 147q-125 149 -125 383q0 247 143 402t391 155q211 0 348 -112l129 141l66 -57l-133 -146q125 -152 125 -383q0 -249 -143 -404t-392 -155q-209 0 -346 115zM354 317l457 500q-77 86 -203 86q-75 0 -134.5 -32.5t-95 -86.5t-53.5 -118.5t-18 -135.5
q0 -123 47 -213zM862 741l-456 -499q77 -86 202 -86q61 0 111.5 21.5t85 57.5t58.5 84t35 101.5t11 109.5q0 121 -47 211z" />
    <glyph glyph-name="ugrave" unicode="&#xf9;" horiz-adv-x="1175" 
d="M1053 1059v-1059h-230v147h-4q-42 -78 -127 -127t-174 -49q-207 0 -301 102t-94 314v672h233v-649q0 -135 51 -194.5t152 -59.5q260 0 260 288v615h234zM242 1499h274l186 -293h-170z" />
    <glyph glyph-name="uacute" unicode="&#xfa;" horiz-adv-x="1175" 
d="M1053 1059v-1059h-230v147h-4q-42 -78 -127 -127t-174 -49q-207 0 -301 102t-94 314v672h233v-649q0 -135 51 -194.5t152 -59.5q260 0 260 288v615h234zM485 1206l185 293h276l-291 -293h-170z" />
    <glyph glyph-name="ucircumflex" unicode="&#xfb;" horiz-adv-x="1175" 
d="M1053 1059v-1059h-230v147h-4q-42 -78 -127 -127t-174 -49q-207 0 -301 102t-94 314v672h233v-649q0 -135 51 -194.5t152 -59.5q260 0 260 288v615h234zM594 1391l-143 -185h-189l219 293h228l221 -293h-191z" />
    <glyph glyph-name="udieresis" unicode="&#xfc;" horiz-adv-x="1175" 
d="M1053 1059v-1059h-230v147h-4q-42 -78 -127 -127t-174 -49q-207 0 -301 102t-94 314v672h233v-649q0 -135 51 -194.5t152 -59.5q260 0 260 288v615h234zM653 1454h234v-221h-234v221zM535 1233h-234v221h234v-221z" />
    <glyph glyph-name="yacute" unicode="&#xfd;" horiz-adv-x="1062" 
d="M408 4l-402 1055h256l277 -791h4l268 791h244l-412 -1116q-58 -145 -81 -188q-66 -120 -170 -156q-54 -19 -124 -19q-82 0 -162 12v197q91 -14 111 -14q74 0 107.5 35.5t56.5 111.5zM436 1206l185 293h276l-291 -293h-170z" />
    <glyph glyph-name="thorn" unicode="&#xfe;" horiz-adv-x="1251" 
d="M129 -391v1853h233v-540h5q49 75 136 120t179 45q122 0 218 -44t156 -121t91 -178.5t31 -219.5q0 -110 -28.5 -208t-83 -176t-143.5 -123.5t-202 -45.5q-108 0 -206 40.5t-148 125.5h-5v-528h-233zM944 528q0 98 -32 181.5t-100.5 138.5t-160.5 55q-145 0 -221 -100.5
t-76 -274.5q0 -164 79.5 -268t217.5 -104q62 0 112 21t83.5 56.5t55.5 84t32 101t10 109.5z" />
    <glyph glyph-name="ydieresis" unicode="&#xff;" horiz-adv-x="1062" 
d="M408 4l-402 1055h256l277 -791h4l268 791h244l-412 -1116q-58 -145 -81 -188q-66 -120 -170 -156q-54 -19 -124 -19q-82 0 -162 12v197q91 -14 111 -14q74 0 107.5 35.5t56.5 111.5zM604 1454h234v-221h-234v221zM485 1233h-233v221h233v-221z" />
    <glyph glyph-name="Amacron" unicode="&#x100;" horiz-adv-x="1366" 
d="M-14 0l561 1462h272l563 -1462h-274l-137 387h-584l-137 -387h-264zM457 582h446l-219 628h-6zM979 1675h-590v133h590v-133z" />
    <glyph glyph-name="amacron" unicode="&#x101;" 
d="M1010 780v-544q0 -44 11.5 -62t43.5 -18q34 0 57 4v-162q-79 -27 -147 -27q-156 0 -180 129q-65 -64 -165.5 -96.5t-201.5 -32.5q-155 0 -258.5 81t-103.5 229q0 54 12.5 98.5t32 76t51 56.5t62.5 40t75.5 27t79.5 18.5t84 12.5l129 17q113 14 156 40.5t43 92.5
q0 143 -220 143q-102 0 -164 -42t-69 -126h-234q6 98 48 169t111.5 109.5t149 56t173.5 17.5q81 0 154 -17t135 -52t98.5 -96.5t36.5 -141.5zM776 356v174q-34 -21 -69 -30.5t-111 -18.5l-94 -12q-203 -27 -203 -168q0 -74 58.5 -109.5t142.5 -35.5q49 0 95.5 11t88 33.5
t67 62.5t25.5 93zM877 1278h-590v133h590v-133z" />
    <glyph glyph-name="Abreve" unicode="&#x102;" horiz-adv-x="1366" 
d="M-14 0l561 1462h272l563 -1462h-274l-137 387h-584l-137 -387h-264zM457 582h446l-219 628h-6zM354 1894h119q31 -155 219 -155q80 0 135 39.5t72 115.5h117q-17 -143 -106 -215.5t-234 -72.5q-142 0 -226 74t-96 214z" />
    <glyph glyph-name="abreve" unicode="&#x103;" 
d="M1010 780v-544q0 -44 11.5 -62t43.5 -18q34 0 57 4v-162q-79 -27 -147 -27q-156 0 -180 129q-65 -64 -165.5 -96.5t-201.5 -32.5q-155 0 -258.5 81t-103.5 229q0 54 12.5 98.5t32 76t51 56.5t62.5 40t75.5 27t79.5 18.5t84 12.5l129 17q113 14 156 40.5t43 92.5
q0 143 -220 143q-102 0 -164 -42t-69 -126h-234q6 98 48 169t111.5 109.5t149 56t173.5 17.5q81 0 154 -17t135 -52t98.5 -96.5t36.5 -141.5zM776 356v174q-34 -21 -69 -30.5t-111 -18.5l-94 -12q-203 -27 -203 -168q0 -74 58.5 -109.5t142.5 -35.5q49 0 95.5 11t88 33.5
t67 62.5t25.5 93zM252 1497h119q31 -156 219 -156q80 0 135 40t72 116h116q-17 -143 -106.5 -216t-233.5 -73q-142 0 -225.5 74.5t-95.5 214.5z" />
    <glyph glyph-name="Aogonek" unicode="&#x104;" horiz-adv-x="1366" 
d="M1108 0l-137 387h-584l-137 -387h-264l561 1462h272l563 -1462h-163q-115 -92 -154 -147.5t-39 -116.5q0 -40 23.5 -65t58.5 -25q60 0 104 69l84 -18q-23 -83 -82.5 -118.5t-132.5 -35.5q-88 0 -147.5 46t-59.5 130q0 67 51.5 134t182.5 147zM678 1210l-221 -628h446
l-219 628h-6z" />
    <glyph glyph-name="aogonek" unicode="&#x105;" 
d="M1010 780v-544q0 -44 11.5 -62t43.5 -18q34 0 57 4v-162q-79 -27 -149 -27q-89 -74 -122.5 -126.5t-33.5 -108.5q0 -40 24 -65t56 -25q33 0 57.5 15t49.5 54l83 -18q-23 -83 -82.5 -118.5t-132.5 -35.5q-17 0 -37 2t-52 13t-56.5 29.5t-42.5 55t-18 85.5q0 17 2 30.5
t13.5 41t32 53.5t63.5 62t102 73q-70 29 -84 112q-65 -64 -165.5 -96.5t-201.5 -32.5q-155 0 -258.5 81t-103.5 229q0 54 12.5 98.5t32 76t51 56.5t62.5 40t75.5 27t79.5 18.5t84 12.5l129 17q113 14 156 40.5t43 92.5q0 143 -220 143q-102 0 -164 -42t-69 -126h-234
q6 98 48 169t111.5 109.5t149 56t173.5 17.5q81 0 154 -17t135 -52t98.5 -96.5t36.5 -141.5zM776 356v174q-34 -21 -69 -30.5t-111 -18.5l-94 -12q-203 -27 -203 -168q0 -74 58.5 -109.5t142.5 -35.5q49 0 95.5 11t88 33.5t67 62.5t25.5 93z" />
    <glyph glyph-name="Cacute" unicode="&#x106;" horiz-adv-x="1478" 
d="M78 731q0 156 49 295t137 244t221.5 166t292.5 61q166 0 300.5 -58.5t219.5 -173t101 -268.5h-256q-74 291 -365 291q-113 0 -200.5 -47t-139.5 -127t-78 -177t-26 -206t26 -206t78 -177t139.5 -127t200.5 -47q164 0 259.5 106.5t113.5 276.5h250q-17 -264 -188 -428
t-435 -164q-128 0 -240 39t-195.5 109.5t-143.5 166t-90.5 210.5t-30.5 241zM678 1604l184 292h277l-291 -292h-170z" />
    <glyph glyph-name="cacute" unicode="&#x107;" 
d="M1071 705h-233q-13 96 -77.5 147t-164.5 51q-40 0 -77 -9t-77.5 -35t-69.5 -67t-48 -111.5t-19 -162.5q0 -69 16 -131.5t48 -115t88 -84t129 -31.5q103 0 169 63t83 178h233q-32 -207 -156.5 -316.5t-328.5 -109.5q-162 0 -279.5 72.5t-176 195t-58.5 279.5
q0 121 33 223.5t97 180t164.5 121.5t227.5 44q195 0 327.5 -97.5t149.5 -284.5zM492 1206l184 293h276l-290 -293h-170z" />
    <glyph glyph-name="Ccircumflex" unicode="&#x108;" horiz-adv-x="1478" 
d="M78 731q0 156 49 295t137 244t221.5 166t292.5 61q166 0 300.5 -58.5t219.5 -173t101 -268.5h-256q-74 291 -365 291q-113 0 -200.5 -47t-139.5 -127t-78 -177t-26 -206t26 -206t78 -177t139.5 -127t200.5 -47q164 0 259.5 106.5t113.5 276.5h250q-17 -264 -188 -428
t-435 -164q-128 0 -240 39t-195.5 109.5t-143.5 166t-90.5 210.5t-30.5 241zM776 1788l-143 -184h-189l220 292h227l221 -292h-190z" />
    <glyph glyph-name="ccircumflex" unicode="&#x109;" 
d="M1071 705h-233q-13 96 -77.5 147t-164.5 51q-40 0 -77 -9t-77.5 -35t-69.5 -67t-48 -111.5t-19 -162.5q0 -69 16 -131.5t48 -115t88 -84t129 -31.5q103 0 169 63t83 178h233q-32 -207 -156.5 -316.5t-328.5 -109.5q-162 0 -279.5 72.5t-176 195t-58.5 279.5
q0 121 33 223.5t97 180t164.5 121.5t227.5 44q195 0 327.5 -97.5t149.5 -284.5zM600 1391l-143 -185h-189l219 293h228l221 -293h-191z" />
    <glyph glyph-name="Cdotaccent" unicode="&#x10a;" horiz-adv-x="1478" 
d="M78 731q0 156 49 295t137 244t221.5 166t292.5 61q166 0 300.5 -58.5t219.5 -173t101 -268.5h-256q-74 291 -365 291q-113 0 -200.5 -47t-139.5 -127t-78 -177t-26 -206t26 -206t78 -177t139.5 -127t200.5 -47q164 0 259.5 106.5t113.5 276.5h250q-17 -264 -188 -428
t-435 -164q-128 0 -240 39t-195.5 109.5t-143.5 166t-90.5 210.5t-30.5 241zM893 1630h-234v221h234v-221z" />
    <glyph glyph-name="cdotaccent" unicode="&#x10b;" 
d="M1071 705h-233q-13 96 -77.5 147t-164.5 51q-40 0 -77 -9t-77.5 -35t-69.5 -67t-48 -111.5t-19 -162.5q0 -69 16 -131.5t48 -115t88 -84t129 -31.5q103 0 169 63t83 178h233q-32 -207 -156.5 -316.5t-328.5 -109.5q-162 0 -279.5 72.5t-176 195t-58.5 279.5
q0 121 33 223.5t97 180t164.5 121.5t227.5 44q195 0 327.5 -97.5t149.5 -284.5zM717 1233h-234v221h234v-221z" />
    <glyph glyph-name="Ccaron" unicode="&#x10c;" horiz-adv-x="1478" 
d="M78 731q0 156 49 295t137 244t221.5 166t292.5 61q166 0 300.5 -58.5t219.5 -173t101 -268.5h-256q-74 291 -365 291q-113 0 -200.5 -47t-139.5 -127t-78 -177t-26 -206t26 -206t78 -177t139.5 -127t200.5 -47q164 0 259.5 106.5t113.5 276.5h250q-17 -264 -188 -428
t-435 -164q-128 0 -240 39t-195.5 109.5t-143.5 166t-90.5 210.5t-30.5 241zM1110 1896l-221 -292h-227l-220 292h189l143 -182l146 182h190z" />
    <glyph glyph-name="ccaron" unicode="&#x10d;" 
d="M1071 705h-233q-13 96 -77.5 147t-164.5 51q-40 0 -77 -9t-77.5 -35t-69.5 -67t-48 -111.5t-19 -162.5q0 -69 16 -131.5t48 -115t88 -84t129 -31.5q103 0 169 63t83 178h233q-32 -207 -156.5 -316.5t-328.5 -109.5q-162 0 -279.5 72.5t-176 195t-58.5 279.5
q0 121 33 223.5t97 180t164.5 121.5t227.5 44q195 0 327.5 -97.5t149.5 -284.5zM934 1499l-221 -293h-228l-219 293h189l143 -182l145 182h191z" />
    <glyph glyph-name="Dcaron" unicode="&#x10e;" horiz-adv-x="1478" 
d="M156 0v1462h606q164 0 290 -57t202.5 -158t114.5 -231t38 -285t-38 -285t-114.5 -231t-202.5 -158t-290 -57h-606zM412 209h252q117 0 204 26.5t140.5 71.5t86 113.5t44.5 142t12 168.5t-12 168.5t-44.5 142t-86 113.5t-140.5 71.5t-204 26.5h-252v-1044zM1004 1896
l-222 -292h-227l-219 292h188l144 -182l145 182h191z" />
    <glyph glyph-name="dcaron" unicode="&#x10f;" horiz-adv-x="1251" 
d="M1120 1462v-1462h-221v143h-4q-45 -87 -133 -129.5t-195 -42.5q-122 0 -217.5 43.5t-155.5 121t-91 179t-31 222.5q0 112 25.5 204.5t69 155.5t102.5 106.5t124.5 63.5t136.5 20q107 0 204.5 -41t148.5 -124h4v540h233zM305 518q0 -95 30 -175t98 -133.5t165 -53.5
q60 0 110 21.5t84 57.5t57.5 84t34.5 101t11 110q0 176 -78.5 274.5t-214.5 98.5q-64 0 -115 -22t-84.5 -59t-56 -87.5t-32 -104t-9.5 -112.5zM1221 1169l65 293h256l-166 -293h-155z" />
    <glyph glyph-name="Dcroat" unicode="&#x110;" horiz-adv-x="1478" 
d="M156 0v676h-150v160h150v626h606q164 0 290 -57t202.5 -158t114.5 -231t38 -285t-38 -285t-114.5 -231t-202.5 -158t-290 -57h-606zM412 1253v-417h399v-160h-399v-467h252q117 0 204 26.5t140.5 71.5t86 113.5t44.5 142t12 168.5t-12 168.5t-44.5 142t-86 113.5
t-140.5 71.5t-204 26.5h-252z" />
    <glyph glyph-name="dcroat" unicode="&#x111;" horiz-adv-x="1259" 
d="M1120 1198v-1198h-221v143h-4q-45 -87 -133 -129.5t-195 -42.5q-122 0 -217.5 43.5t-155.5 121t-91 179t-31 222.5q0 112 25.5 204.5t69 155.5t102.5 106.5t124.5 63.5t136.5 20q107 0 204.5 -41t148.5 -124h4v276h-346v129h346v135h233v-135h164v-129h-164zM305 518
q0 -95 30 -175t98 -133.5t165 -53.5q60 0 110 21.5t84 57.5t57.5 84t34.5 101t11 110q0 176 -78.5 274.5t-214.5 98.5q-64 0 -115 -22t-84.5 -59t-56 -87.5t-32 -104t-9.5 -112.5z" />
    <glyph glyph-name="Emacron" unicode="&#x112;" horiz-adv-x="1290" 
d="M156 0v1462h1052v-221h-796v-383h737v-209h-737v-428h811v-221h-1067zM971 1675h-590v133h590v-133z" />
    <glyph glyph-name="emacron" unicode="&#x113;" 
d="M1083 469h-778q0 -86 29.5 -155t95.5 -113.5t160 -44.5q102 0 164.5 43.5t93.5 132.5h221q-36 -169 -169 -265t-310 -96q-245 0 -381.5 152.5t-136.5 404.5q0 113 36 214.5t101 178t162.5 121.5t212.5 45q122 0 224 -52t166 -138t94 -198t15 -230zM305 623h545
q-8 117 -79.5 198.5t-186.5 81.5q-120 0 -197 -80t-82 -200zM887 1278h-590v133h590v-133z" />
    <glyph glyph-name="Ebreve" unicode="&#x114;" horiz-adv-x="1290" 
d="M156 0v1462h1052v-221h-796v-383h737v-209h-737v-428h811v-221h-1067zM346 1894h119q31 -155 219 -155q80 0 135 39.5t72 115.5h117q-17 -143 -106 -215.5t-234 -72.5q-142 0 -226 74t-96 214z" />
    <glyph glyph-name="ebreve" unicode="&#x115;" 
d="M1083 469h-778q0 -86 29.5 -155t95.5 -113.5t160 -44.5q102 0 164.5 43.5t93.5 132.5h221q-36 -169 -169 -265t-310 -96q-245 0 -381.5 152.5t-136.5 404.5q0 113 36 214.5t101 178t162.5 121.5t212.5 45q122 0 224 -52t166 -138t94 -198t15 -230zM305 623h545
q-8 117 -79.5 198.5t-186.5 81.5q-120 0 -197 -80t-82 -200zM262 1497h119q31 -156 219 -156q80 0 135 40t72 116h117q-17 -143 -106.5 -216t-233.5 -73q-142 0 -226 74.5t-96 214.5z" />
    <glyph glyph-name="Edotaccent" unicode="&#x116;" horiz-adv-x="1290" 
d="M156 0v1462h1052v-221h-796v-383h737v-209h-737v-428h811v-221h-1067zM795 1630h-234v221h234v-221z" />
    <glyph glyph-name="edotaccent" unicode="&#x117;" 
d="M1083 469h-778q0 -86 29.5 -155t95.5 -113.5t160 -44.5q102 0 164.5 43.5t93.5 132.5h221q-36 -169 -169 -265t-310 -96q-245 0 -381.5 152.5t-136.5 404.5q0 113 36 214.5t101 178t162.5 121.5t212.5 45q122 0 224 -52t166 -138t94 -198t15 -230zM305 623h545
q-8 117 -79.5 198.5t-186.5 81.5q-120 0 -197 -80t-82 -200zM709 1233h-234v221h234v-221z" />
    <glyph glyph-name="Eogonek" unicode="&#x118;" horiz-adv-x="1290" 
d="M156 0v1462h1052v-221h-796v-383h737v-209h-737v-428h811v-221h-78q-115 -92 -154 -147.5t-39 -116.5q0 -40 23.5 -65t58.5 -25q61 0 105 69l84 -18q-23 -83 -82.5 -118.5t-132.5 -35.5q-88 0 -147.5 46t-59.5 130q0 68 51 135t182 146h-878z" />
    <glyph glyph-name="eogonek" unicode="&#x119;" 
d="M1083 469h-778q0 -86 29.5 -155t95.5 -113.5t160 -44.5q102 0 164.5 43.5t93.5 132.5h221q-31 -147 -135 -238.5t-250 -113.5q-98 -81 -132 -133t-34 -111q0 -40 23.5 -65t58.5 -25q61 0 105 69l83 -18q-23 -83 -82.5 -118.5t-132.5 -35.5q-88 0 -147 46t-59 130
q0 63 41 123.5t147 130.5q-229 10 -356 161t-127 394q0 113 36 214.5t101 178t162.5 121.5t212.5 45q122 0 224 -52t166 -138t94 -198t15 -230zM305 623h545q-8 117 -79.5 198.5t-186.5 81.5q-120 0 -197 -80t-82 -200z" />
    <glyph glyph-name="Ecaron" unicode="&#x11a;" horiz-adv-x="1290" 
d="M156 0v1462h1052v-221h-796v-383h737v-209h-737v-428h811v-221h-1067zM1012 1896l-221 -292h-228l-219 292h188l144 -182l145 182h191z" />
    <glyph glyph-name="ecaron" unicode="&#x11b;" 
d="M1083 469h-778q0 -86 29.5 -155t95.5 -113.5t160 -44.5q102 0 164.5 43.5t93.5 132.5h221q-36 -169 -169 -265t-310 -96q-245 0 -381.5 152.5t-136.5 404.5q0 113 36 214.5t101 178t162.5 121.5t212.5 45q122 0 224 -52t166 -138t94 -198t15 -230zM305 623h545
q-8 117 -79.5 198.5t-186.5 81.5q-120 0 -197 -80t-82 -200zM924 1499l-222 -293h-227l-219 293h188l144 -182l145 182h191z" />
    <glyph glyph-name="Gcircumflex" unicode="&#x11c;" horiz-adv-x="1554" 
d="M88 731q0 156 49 295t137 244t221.5 166t292.5 61q120 0 226.5 -32t191 -93.5t140 -157.5t69.5 -217h-250q-20 138 -125.5 214.5t-251.5 76.5q-113 0 -200.5 -47t-139.5 -127t-78 -177t-26 -206t26 -206t78 -177t139.5 -127t200.5 -47q194 -4 299.5 103.5t110.5 297.5
h-389v195h623v-770h-164l-39 172q-100 -114 -202 -160.5t-239 -46.5q-128 0 -240 39t-195.5 109.5t-143.5 166t-90.5 210.5t-30.5 241zM793 1788l-144 -184h-188l219 292h227l221 -292h-190z" />
    <glyph glyph-name="gcircumflex" unicode="&#x11d;" horiz-adv-x="1214" 
d="M1102 1059v-1004q0 -237 -133 -356t-387 -119q-67 0 -129 10t-122.5 35t-106.5 61.5t-77 94t-38 129.5h233q20 -91 85 -123.5t169 -32.5q272 0 272 271v161h-4q-49 -87 -133.5 -136.5t-183.5 -49.5q-122 0 -215 44t-149 121.5t-83.5 176t-27.5 215.5q0 144 56 263.5
t166.5 193t256.5 73.5q105 0 187.5 -43.5t125.5 -130.5h4v146h234zM584 184q75 0 131.5 31.5t88.5 85.5t48 117.5t16 134.5t-16.5 132t-49 111t-89 78.5t-129.5 28.5q-74 0 -130 -32t-87.5 -86.5t-46.5 -117t-15 -132.5q0 -91 28 -168t93 -130t158 -53zM614 1391l-143 -185
h-188l219 293h227l221 -293h-190z" />
    <glyph glyph-name="Gbreve" unicode="&#x11e;" horiz-adv-x="1554" 
d="M88 731q0 156 49 295t137 244t221.5 166t292.5 61q120 0 226.5 -32t191 -93.5t140 -157.5t69.5 -217h-250q-20 138 -125.5 214.5t-251.5 76.5q-113 0 -200.5 -47t-139.5 -127t-78 -177t-26 -206t26 -206t78 -177t139.5 -127t200.5 -47q194 -4 299.5 103.5t110.5 297.5
h-389v195h623v-770h-164l-39 172q-100 -114 -202 -160.5t-239 -46.5q-128 0 -240 39t-195.5 109.5t-143.5 166t-90.5 210.5t-30.5 241zM463 1894h119q31 -155 219 -155q80 0 135 39.5t72 115.5h116q-17 -143 -106 -215.5t-234 -72.5q-142 0 -225.5 74t-95.5 214z" />
    <glyph glyph-name="gbreve" unicode="&#x11f;" horiz-adv-x="1214" 
d="M1102 1059v-1004q0 -237 -133 -356t-387 -119q-67 0 -129 10t-122.5 35t-106.5 61.5t-77 94t-38 129.5h233q20 -91 85 -123.5t169 -32.5q272 0 272 271v161h-4q-49 -87 -133.5 -136.5t-183.5 -49.5q-122 0 -215 44t-149 121.5t-83.5 176t-27.5 215.5q0 144 56 263.5
t166.5 193t256.5 73.5q105 0 187.5 -43.5t125.5 -130.5h4v146h234zM584 184q75 0 131.5 31.5t88.5 85.5t48 117.5t16 134.5t-16.5 132t-49 111t-89 78.5t-129.5 28.5q-74 0 -130 -32t-87.5 -86.5t-46.5 -117t-15 -132.5q0 -91 28 -168t93 -130t158 -53zM283 1497h118
q31 -156 220 -156q80 0 134.5 40t71.5 116h117q-17 -143 -106.5 -216t-233.5 -73q-142 0 -225.5 74.5t-95.5 214.5z" />
    <glyph glyph-name="Gdotaccent" unicode="&#x120;" horiz-adv-x="1554" 
d="M88 731q0 156 49 295t137 244t221.5 166t292.5 61q120 0 226.5 -32t191 -93.5t140 -157.5t69.5 -217h-250q-20 138 -125.5 214.5t-251.5 76.5q-113 0 -200.5 -47t-139.5 -127t-78 -177t-26 -206t26 -206t78 -177t139.5 -127t200.5 -47q194 -4 299.5 103.5t110.5 297.5
h-389v195h623v-770h-164l-39 172q-100 -114 -202 -160.5t-239 -46.5q-128 0 -240 39t-195.5 109.5t-143.5 166t-90.5 210.5t-30.5 241zM907 1630h-233v221h233v-221z" />
    <glyph glyph-name="gdotaccent" unicode="&#x121;" horiz-adv-x="1214" 
d="M1102 1059v-1004q0 -237 -133 -356t-387 -119q-67 0 -129 10t-122.5 35t-106.5 61.5t-77 94t-38 129.5h233q20 -91 85 -123.5t169 -32.5q272 0 272 271v161h-4q-49 -87 -133.5 -136.5t-183.5 -49.5q-122 0 -215 44t-149 121.5t-83.5 176t-27.5 215.5q0 144 56 263.5
t166.5 193t256.5 73.5q105 0 187.5 -43.5t125.5 -130.5h4v146h234zM584 184q75 0 131.5 31.5t88.5 85.5t48 117.5t16 134.5t-16.5 132t-49 111t-89 78.5t-129.5 28.5q-74 0 -130 -32t-87.5 -86.5t-46.5 -117t-15 -132.5q0 -91 28 -168t93 -130t158 -53zM729 1233h-233v221
h233v-221z" />
    <glyph glyph-name="Gcommaaccent" unicode="&#x122;" horiz-adv-x="1554" 
d="M88 731q0 156 49 295t137 244t221.5 166t292.5 61q120 0 226.5 -32t191 -93.5t140 -157.5t69.5 -217h-250q-20 138 -125.5 214.5t-251.5 76.5q-113 0 -200.5 -47t-139.5 -127t-78 -177t-26 -206t26 -206t78 -177t139.5 -127t200.5 -47q194 -4 299.5 103.5t110.5 297.5
h-389v195h623v-770h-164l-39 172q-100 -114 -202 -160.5t-239 -46.5q-128 0 -240 39t-195.5 109.5t-143.5 166t-90.5 210.5t-30.5 241zM647 -305v203h268v-183q0 -35 -10.5 -62.5t-35.5 -52.5t-73 -39.5t-118 -17.5v78q44 6 65 22.5t27 51.5h-123z" />
    <glyph glyph-name="gcommaaccent" unicode="&#x123;" horiz-adv-x="1214" 
d="M1102 1059v-1004q0 -237 -133 -356t-387 -119q-67 0 -129 10t-122.5 35t-106.5 61.5t-77 94t-38 129.5h233q20 -91 85 -123.5t169 -32.5q272 0 272 271v161h-4q-49 -87 -133.5 -136.5t-183.5 -49.5q-122 0 -215 44t-149 121.5t-83.5 176t-27.5 215.5q0 144 56 263.5
t166.5 193t256.5 73.5q105 0 187.5 -43.5t125.5 -130.5h4v146h234zM584 184q75 0 131.5 31.5t88.5 85.5t48 117.5t16 134.5t-16.5 132t-49 111t-89 78.5t-129.5 28.5q-74 0 -130 -32t-87.5 -86.5t-46.5 -117t-15 -132.5q0 -91 28 -168t93 -130t158 -53zM748 1462v-202h-269
v182q0 74 52.5 120t185.5 52v-78q-44 -6 -65 -22.5t-27 -51.5h123z" />
    <glyph glyph-name="Hcircumflex" unicode="&#x124;" horiz-adv-x="1478" 
d="M150 0v1462h256v-581h665v581h256v-1462h-256v659h-665v-659h-256zM739 1788l-143 -184h-188l219 292h227l221 -292h-190z" />
    <glyph glyph-name="hcircumflex" unicode="&#x125;" horiz-adv-x="1175" 
d="M123 0v1462h233v-542h4q44 74 130 120.5t188 46.5q177 0 276 -91.5t99 -268.5v-727h-234v666q-5 125 -54 181t-153 56q-115 0 -185.5 -79.5t-70.5 -198.5v-625h-233zM567 1788l-143 -184h-188l219 292h227l221 -292h-190z" />
    <glyph glyph-name="Hbar" unicode="&#x126;" horiz-adv-x="1478" 
d="M150 0v1462h256v-266h665v266h256v-1462h-256v588h-665v-588h-256zM406 801h665v254h-665v-254z" />
    <glyph glyph-name="hbar" unicode="&#x127;" horiz-adv-x="1183" 
d="M131 0v1198h-164v129h164v135h234v-135h346v-129h-346v-278h4q44 74 129.5 120.5t187.5 46.5q177 0 276 -91.5t99 -268.5v-727h-234v666q-5 125 -53.5 181t-152.5 56q-115 0 -185.5 -79.5t-70.5 -198.5v-625h-234z" />
    <glyph glyph-name="Itilde" unicode="&#x128;" horiz-adv-x="569" 
d="M156 0v1462h256v-1462h-256zM532 1872h115q-17 -114 -67 -166q-57 -70 -160 -70q-66 0 -152 39q-86 37 -139 37q-73 0 -88 -84h-117q14 89 70.5 160.5t142.5 71.5q40 0 72.5 -8t93.5 -33q84 -37 127 -37q79 0 102 90z" />
    <glyph glyph-name="itilde" unicode="&#x129;" horiz-adv-x="493" 
d="M362 0h-233v1059h233v-1059zM496 1475h114q-17 -114 -67 -166q-57 -70 -160 -70q-66 0 -152 39q-86 37 -139 37q-73 0 -88 -84h-117q14 89 70.5 160t142.5 71q40 0 72.5 -8t93.5 -33q84 -37 127 -37q80 0 103 91z" />
    <glyph glyph-name="Imacron" unicode="&#x12a;" horiz-adv-x="569" 
d="M156 0v1462h256v-1462h-256zM578 1675h-590v133h590v-133z" />
    <glyph glyph-name="imacron" unicode="&#x12b;" horiz-adv-x="493" 
d="M362 0h-233v1059h233v-1059zM541 1278h-590v133h590v-133z" />
    <glyph glyph-name="Ibreve" unicode="&#x12c;" horiz-adv-x="569" 
d="M156 0v1462h256v-1462h-256zM-45 1894h119q31 -155 219 -155q80 0 135 39.5t72 115.5h116q-17 -143 -106 -215.5t-234 -72.5q-142 0 -225.5 74t-95.5 214z" />
    <glyph glyph-name="ibreve" unicode="&#x12d;" horiz-adv-x="493" 
d="M362 0h-233v1059h233v-1059zM-82 1497h119q31 -156 219 -156q80 0 135 40t72 116h117q-17 -143 -106.5 -216t-233.5 -73q-142 0 -226 74.5t-96 214.5z" />
    <glyph glyph-name="Iogonek" unicode="&#x12e;" horiz-adv-x="569" 
d="M412 1462v-1462q-99 -88 -135.5 -145.5t-36.5 -118.5q0 -40 20.5 -65t50.5 -25q56 0 97 69l75 -18q-23 -83 -76 -118.5t-118 -35.5q-77 0 -132 45t-55 129q0 70 45.5 137t165.5 146h-157v1462h256z" />
    <glyph glyph-name="iogonek" unicode="&#x12f;" horiz-adv-x="493" 
d="M129 1241v221h233v-221h-233zM129 0v1059h233v-1059q-99 -88 -135.5 -145.5t-36.5 -118.5q0 -40 21 -65t51 -25q55 0 96 69l76 -18q-23 -83 -76 -118.5t-118 -35.5q-77 0 -132 45t-55 129q0 70 45.5 137t165.5 146h-135z" />
    <glyph glyph-name="Idotaccent" unicode="&#x130;" horiz-adv-x="569" 
d="M156 0v1462h256v-1462h-256zM401 1630h-233v221h233v-221z" />
    <glyph glyph-name="dotlessi" unicode="&#x131;" horiz-adv-x="493" 
d="M362 0h-233v1059h233v-1059z" />
    <glyph glyph-name="Jcircumflex" unicode="&#x134;" horiz-adv-x="1099" 
d="M27 434v78h256v-76q0 -132 44 -197t156 -65q118 0 161.5 68.5t43.5 214.5v1005h256v-991q0 -59 -4.5 -108t-17.5 -103t-35 -95.5t-58.5 -80t-86 -64t-120.5 -40.5t-159 -15q-221 0 -328.5 128t-107.5 341zM805 1788l-143 -184h-189l219 292h228l221 -292h-191z" />
    <glyph glyph-name="jcircumflex" unicode="&#x135;" horiz-adv-x="493" 
d="M129 -80v1139h233v-1149q0 -164 -71.5 -247t-231.5 -83q-63 0 -104 8v185q46 -9 80 -9q59 0 76.5 35t17.5 121zM244 1391l-144 -185h-188l219 293h227l222 -293h-191z" />
    <glyph glyph-name="Kcommaaccent" unicode="&#x136;" horiz-adv-x="1402" 
d="M156 0v1462h256v-665l651 665h315l-583 -583l624 -879h-319l-479 698l-209 -206v-492h-256zM584 -305v203h268v-183q0 -74 -52.5 -120t-185.5 -52v78q44 6 65.5 22.5t27.5 51.5h-123z" />
    <glyph glyph-name="kcommaaccent" unicode="&#x137;" horiz-adv-x="1099" 
d="M129 0v1462h233v-831l422 428h287l-405 -389l444 -670h-285l-323 514l-140 -135v-379h-233zM438 -305v203h269v-183q0 -74 -52.5 -120t-185.5 -52v78q44 6 65 22.5t27 51.5h-123z" />
    <glyph glyph-name="kgreenlandic" unicode="&#x138;" horiz-adv-x="1099" 
d="M129 0v1059h233v-428l422 428h287l-405 -389l444 -670h-285l-323 514l-140 -135v-379h-233z" />
    <glyph glyph-name="Lacute" unicode="&#x139;" horiz-adv-x="1175" 
d="M156 0v1462h256v-1241h743v-221h-999zM197 1604l184 292h276l-290 -292h-170z" />
    <glyph glyph-name="lacute" unicode="&#x13a;" horiz-adv-x="493" 
d="M129 0v1462h233v-1462h-233zM131 1604l184 292h277l-291 -292h-170z" />
    <glyph glyph-name="Lcommaaccent" unicode="&#x13b;" horiz-adv-x="1175" 
d="M156 0v1462h256v-1241h743v-221h-999zM524 -305v203h269v-183q0 -74 -52.5 -120t-185.5 -52v78q44 6 65 22.5t27 51.5h-123z" />
    <glyph glyph-name="lcommaaccent" unicode="&#x13c;" horiz-adv-x="493" 
d="M129 0v1462h233v-1462h-233zM111 -305v203h268v-183q0 -74 -52.5 -120t-185.5 -52v78q44 6 65 22.5t27 51.5h-122z" />
    <glyph glyph-name="Lcaron" unicode="&#x13d;" horiz-adv-x="1175" 
d="M156 0v1462h256v-1241h743v-221h-999zM586 1169l65 293h256l-166 -293h-155z" />
    <glyph glyph-name="lcaron" unicode="&#x13e;" horiz-adv-x="493" 
d="M129 0v1462h233v-1462h-233zM463 1169l65 293h256l-166 -293h-155z" />
    <glyph glyph-name="Ldot" unicode="&#x13f;" horiz-adv-x="1175" 
d="M156 0v1462h256v-1241h743v-221h-999zM895 688h-233v221h233v-221z" />
    <glyph glyph-name="ldot" unicode="&#x140;" horiz-adv-x="755" 
d="M129 0v1462h233v-1462h-233zM731 688h-233v221h233v-221z" />
    <glyph glyph-name="Lslash" unicode="&#x141;" horiz-adv-x="1175" 
d="M156 649v813h256v-626l409 290v-190l-409 -291v-424h743v-221h-999v465l-156 -111v185z" />
    <glyph glyph-name="lslash" unicode="&#x142;" horiz-adv-x="493" 
d="M129 0v653l-139 -108v145l139 109v663h233v-481l140 111v-148l-140 -110v-834h-233z" />
    <glyph glyph-name="Nacute" unicode="&#x143;" horiz-adv-x="1478" 
d="M145 0v1462h271l667 -1077h4v1077h244v-1462h-270l-666 1075h-6v-1075h-244zM637 1604l184 292h277l-291 -292h-170z" />
    <glyph glyph-name="nacute" unicode="&#x144;" horiz-adv-x="1175" 
d="M123 0v1059h221v-156l4 -4q55 89 141 138.5t189 49.5q177 0 276 -91.5t99 -268.5v-727h-234v666q-5 125 -54 181t-153 56q-115 0 -185.5 -79.5t-70.5 -198.5v-625h-233zM481 1206l185 293h276l-291 -293h-170z" />
    <glyph glyph-name="Ncommaaccent" unicode="&#x145;" horiz-adv-x="1478" 
d="M145 0v1462h271l667 -1077h4v1077h244v-1462h-270l-666 1075h-6v-1075h-244zM602 -305v203h268v-183q0 -35 -10.5 -62.5t-35.5 -52.5t-73 -39.5t-118 -17.5v78q44 6 65 22.5t27 51.5h-123z" />
    <glyph glyph-name="ncommaaccent" unicode="&#x146;" horiz-adv-x="1175" 
d="M123 0v1059h221v-156l4 -4q55 89 141 138.5t189 49.5q177 0 276 -91.5t99 -268.5v-727h-234v666q-5 125 -54 181t-153 56q-115 0 -185.5 -79.5t-70.5 -198.5v-625h-233zM451 -305v203h268v-183q0 -74 -52.5 -120t-185.5 -52v78q44 6 65 22.5t27 51.5h-122z" />
    <glyph glyph-name="Ncaron" unicode="&#x147;" horiz-adv-x="1478" 
d="M145 0v1462h271l667 -1077h4v1077h244v-1462h-270l-666 1075h-6v-1075h-244zM1071 1896l-221 -292h-227l-220 292h189l143 -182l146 182h190z" />
    <glyph glyph-name="ncaron" unicode="&#x148;" horiz-adv-x="1175" 
d="M123 0v1059h221v-156l4 -4q55 89 141 138.5t189 49.5q177 0 276 -91.5t99 -268.5v-727h-234v666q-5 125 -54 181t-153 56q-115 0 -185.5 -79.5t-70.5 -198.5v-625h-233zM926 1499l-221 -293h-228l-219 293h188l144 -182l145 182h191z" />
    <glyph glyph-name="Eng" unicode="&#x14a;" horiz-adv-x="1478" 
d="M1083 -29l-688 1104h-6v-1075h-244v1462h271l667 -1077h4v1077h244v-1489q0 -393 -381 -393q-77 0 -157 17v196q73 -18 131 -18q80 0 119.5 46.5t39.5 149.5z" />
    <glyph glyph-name="eng" unicode="&#x14b;" horiz-adv-x="1175" 
d="M819 -39v698q0 124 -51 184t-156 60q-115 0 -185.5 -79.5t-70.5 -198.5v-625h-233v1059h221v-156l4 -4q55 89 141 138.5t189 49.5q177 0 276 -91.5t99 -268.5v-776q0 -186 -91 -278.5t-264 -92.5q-70 0 -133 14v185q71 -15 109 -15q72 0 108.5 46t36.5 151z" />
    <glyph glyph-name="Omacron" unicode="&#x14c;" horiz-adv-x="1556" 
d="M778 1497q159 0 292.5 -61t222 -166t137.5 -244t49 -295q0 -211 -83 -384t-244.5 -277.5t-373.5 -104.5q-128 0 -240 39t-195.5 109.5t-143.5 166t-90.5 210.5t-30.5 241q0 156 49 295t137 244t221.5 166t292.5 61zM778 1288q-113 0 -200.5 -47t-139.5 -127t-78 -177
t-26 -206t26 -206t78 -177t139.5 -127t200.5 -47q91 0 166 31t126 84t86 124.5t51 151.5t16 166t-16 166t-51 151.5t-86 124.5t-126 84t-166 31zM1075 1675h-590v133h590v-133z" />
    <glyph glyph-name="omacron" unicode="&#x14d;" horiz-adv-x="1214" 
d="M608 -29q-166 0 -288 72t-184 197.5t-62 289.5q0 247 143 402t391 155t391.5 -155t143.5 -402q0 -249 -143 -404t-392 -155zM608 156q61 0 111.5 21.5t85 57.5t58.5 84t35 101.5t11 109.5q0 71 -18 135.5t-53.5 118.5t-95 86.5t-134.5 32.5t-134.5 -32.5t-95 -86.5
t-53.5 -118.5t-18 -135.5q0 -56 11 -109.5t35 -101.5t58.5 -84t85 -57.5t111.5 -21.5zM907 1278h-590v133h590v-133z" />
    <glyph glyph-name="Obreve" unicode="&#x14e;" horiz-adv-x="1556" 
d="M778 1497q159 0 292.5 -61t222 -166t137.5 -244t49 -295q0 -211 -83 -384t-244.5 -277.5t-373.5 -104.5q-128 0 -240 39t-195.5 109.5t-143.5 166t-90.5 210.5t-30.5 241q0 156 49 295t137 244t221.5 166t292.5 61zM778 1288q-113 0 -200.5 -47t-139.5 -127t-78 -177
t-26 -206t26 -206t78 -177t139.5 -127t200.5 -47q91 0 166 31t126 84t86 124.5t51 151.5t16 166t-16 166t-51 151.5t-86 124.5t-126 84t-166 31zM451 1894h118q31 -155 219 -155q80 0 135 39.5t72 115.5h117q-17 -143 -106 -215.5t-234 -72.5q-142 0 -225.5 74t-95.5 214z
" />
    <glyph glyph-name="obreve" unicode="&#x14f;" horiz-adv-x="1214" 
d="M608 -29q-166 0 -288 72t-184 197.5t-62 289.5q0 247 143 402t391 155t391.5 -155t143.5 -402q0 -249 -143 -404t-392 -155zM608 156q61 0 111.5 21.5t85 57.5t58.5 84t35 101.5t11 109.5q0 71 -18 135.5t-53.5 118.5t-95 86.5t-134.5 32.5t-134.5 -32.5t-95 -86.5
t-53.5 -118.5t-18 -135.5q0 -56 11 -109.5t35 -101.5t58.5 -84t85 -57.5t111.5 -21.5zM283 1497h118q31 -156 220 -156q80 0 134.5 40t71.5 116h117q-17 -143 -106.5 -216t-233.5 -73q-142 0 -225.5 74.5t-95.5 214.5z" />
    <glyph glyph-name="Ohungarumlaut" unicode="&#x150;" horiz-adv-x="1556" 
d="M778 1497q159 0 292.5 -61t222 -166t137.5 -244t49 -295q0 -211 -83 -384t-244.5 -277.5t-373.5 -104.5q-128 0 -240 39t-195.5 109.5t-143.5 166t-90.5 210.5t-30.5 241q0 156 49 295t137 244t221.5 166t292.5 61zM778 1288q-113 0 -200.5 -47t-139.5 -127t-78 -177
t-26 -206t26 -206t78 -177t139.5 -127t200.5 -47q91 0 166 31t126 84t86 124.5t51 151.5t16 166t-16 166t-51 151.5t-86 124.5t-126 84t-166 31zM883 1604l184 292h279l-295 -292h-168zM475 1604l184 292h279l-295 -292h-168z" />
    <glyph glyph-name="ohungarumlaut" unicode="&#x151;" horiz-adv-x="1214" 
d="M608 -29q-166 0 -288 72t-184 197.5t-62 289.5q0 247 143 402t391 155t391.5 -155t143.5 -402q0 -249 -143 -404t-392 -155zM608 156q61 0 111.5 21.5t85 57.5t58.5 84t35 101.5t11 109.5q0 71 -18 135.5t-53.5 118.5t-95 86.5t-134.5 32.5t-134.5 -32.5t-95 -86.5
t-53.5 -118.5t-18 -135.5q0 -56 11 -109.5t35 -101.5t58.5 -84t85 -57.5t111.5 -21.5zM715 1206l184 293h279l-295 -293h-168zM307 1206l185 293h278l-295 -293h-168z" />
    <glyph glyph-name="OE" unicode="&#x152;" horiz-adv-x="2238" 
d="M1374 1241v-383h703v-209h-703v-428h780v-221h-1013v131q-71 -84 -171 -125t-214 -41q-127 0 -236 40t-188.5 110.5t-135.5 166.5t-84 208.5t-28 234.5q0 155 47 294.5t133 246t217.5 169t290.5 62.5q117 0 207 -34.5t162 -116.5v116h999v-221h-766zM1130 449v544
q0 124 -91 209.5t-259 85.5q-111 0 -198 -48.5t-138.5 -129.5t-77.5 -178t-26 -203t26 -202t77.5 -176.5t138.5 -128.5t198 -48q80 0 148 25.5t111 66t67 88.5t24 95z" />
    <glyph glyph-name="oe" unicode="&#x153;" horiz-adv-x="1857" 
d="M1808 469h-774q0 -137 71.5 -225t205.5 -88q92 0 164 47t88 133h233q-42 -177 -168.5 -271t-312.5 -94q-281 0 -379 195q-57 -106 -151.5 -150.5t-225.5 -44.5q-119 0 -213.5 44.5t-153.5 122.5t-89.5 178t-30.5 216q0 114 34.5 214.5t97.5 176.5t159.5 120t214.5 44
q270 0 370 -178q57 89 156 133.5t215 44.5q108 0 192.5 -33t139.5 -89t91 -136t51 -168.5t15 -191.5zM1300 903q-115 0 -188 -81.5t-78 -198.5h541q-8 133 -76 206.5t-199 73.5zM575 903q-71 0 -125.5 -32.5t-84.5 -87t-45 -117t-15 -129.5q0 -59 7.5 -111t26.5 -102.5
t48.5 -86.5t77.5 -58.5t110 -22.5t110 22.5t77.5 58.5t49 86.5t27 102.5t7.5 111q0 67 -15 129.5t-45.5 117t-85 87t-125.5 32.5z" />
    <glyph glyph-name="Racute" unicode="&#x154;" horiz-adv-x="1441" 
d="M156 0v1462h698q238 0 360.5 -103t122.5 -292q0 -79 -21 -144.5t-48.5 -102.5t-66 -66t-60.5 -39t-45 -17v-4q37 -4 71.5 -21t69 -50.5t55.5 -95t21 -142.5q0 -135 20 -238.5t60 -146.5h-275q-18 29 -27 70t-10.5 68.5t-1.5 76.5q0 106 -12.5 174.5t-44.5 118.5t-89 72
t-145 22h-376v-602h-256zM412 1253v-456h419q250 0 250 233q0 55 -14 95.5t-36.5 64.5t-57 38.5t-69 19.5t-77.5 5h-415zM600 1604l184 292h277l-291 -292h-170z" />
    <glyph glyph-name="racute" unicode="&#x155;" horiz-adv-x="720" 
d="M123 0v1059h219v-205h4q21 88 113.5 160.5t195.5 72.5q19 0 88 -6v-225q-55 10 -100 10q-124 0 -205.5 -95.5t-81.5 -266.5v-504h-233zM322 1206l184 293h276l-290 -293h-170z" />
    <glyph glyph-name="Rcommaaccent" unicode="&#x156;" horiz-adv-x="1441" 
d="M156 0v1462h698q238 0 360.5 -103t122.5 -292q0 -79 -21 -144.5t-48.5 -102.5t-66 -66t-60.5 -39t-45 -17v-4q37 -4 71.5 -21t69 -50.5t55.5 -95t21 -142.5q0 -135 20 -238.5t60 -146.5h-275q-18 29 -27 70t-10.5 68.5t-1.5 76.5q0 106 -12.5 174.5t-44.5 118.5t-89 72
t-145 22h-376v-602h-256zM412 1253v-456h419q250 0 250 233q0 55 -14 95.5t-36.5 64.5t-57 38.5t-69 19.5t-77.5 5h-415zM596 -305v203h268v-183q0 -35 -10.5 -62.5t-35.5 -52.5t-73 -39.5t-118 -17.5v78q44 6 65 22.5t27 51.5h-123z" />
    <glyph glyph-name="rcommaaccent" unicode="&#x157;" horiz-adv-x="720" 
d="M123 0v1059h219v-205h4q21 88 113.5 160.5t195.5 72.5q19 0 88 -6v-225q-55 10 -100 10q-124 0 -205.5 -95.5t-81.5 -266.5v-504h-233zM104 -305v203h269v-183q0 -74 -52.5 -120t-185.5 -52v78q44 6 65 22.5t27 51.5h-123z" />
    <glyph glyph-name="Rcaron" unicode="&#x158;" horiz-adv-x="1441" 
d="M156 0v1462h698q238 0 360.5 -103t122.5 -292q0 -79 -21 -144.5t-48.5 -102.5t-66 -66t-60.5 -39t-45 -17v-4q37 -4 71.5 -21t69 -50.5t55.5 -95t21 -142.5q0 -135 20 -238.5t60 -146.5h-275q-18 29 -27 70t-10.5 68.5t-1.5 76.5q0 106 -12.5 174.5t-44.5 118.5t-89 72
t-145 22h-376v-602h-256zM412 1253v-456h419q250 0 250 233q0 55 -14 95.5t-36.5 64.5t-57 38.5t-69 19.5t-77.5 5h-415zM1032 1896l-221 -292h-227l-219 292h188l143 -182l146 182h190z" />
    <glyph glyph-name="rcaron" unicode="&#x159;" horiz-adv-x="720" 
d="M123 0v1059h219v-205h4q21 88 113.5 160.5t195.5 72.5q19 0 88 -6v-225q-55 10 -100 10q-124 0 -205.5 -95.5t-81.5 -266.5v-504h-233zM766 1499l-221 -293h-228l-219 293h189l143 -182l145 182h191z" />
    <glyph glyph-name="Sacute" unicode="&#x15a;" horiz-adv-x="1327" 
d="M68 487h256q0 -81 28.5 -142.5t80 -98t117 -54.5t144.5 -18q157 0 233.5 64.5t76.5 156.5q0 133 -121 180q-47 18 -105 34t-161 42.5t-171 44.5q-323 85 -323 371q0 106 46 190.5t122.5 135.5t170 77.5t195.5 26.5q115 0 216 -30.5t178.5 -88t122.5 -147.5t45 -201h-256
q-19 258 -316 258q-48 0 -92.5 -9.5t-85.5 -30t-65.5 -59.5t-24.5 -91q0 -137 174 -189q376 -98 422 -112q137 -42 211 -146t74 -227q0 -118 -49.5 -209t-134 -144t-185 -79.5t-213.5 -26.5q-128 0 -236 31.5t-191.5 93.5t-132 163.5t-50.5 233.5zM578 1604l184 292h276
l-290 -292h-170z" />
    <glyph glyph-name="sacute" unicode="&#x15b;" horiz-adv-x="1062" 
d="M66 340h233q19 -184 240 -184q40 0 76.5 5t76 18.5t62 43t20.5 72.5q-1 26 -11 46.5t-31.5 36t-42 26t-57 20.5t-61.5 16t-71.5 15.5t-71.5 15.5q-59 13 -102.5 26.5t-91 38t-77.5 56t-49.5 81t-19.5 111.5q0 67 27.5 120t72 86.5t104 56t118.5 31.5t120 9
q85 0 157.5 -18t134.5 -55t101.5 -101.5t49.5 -150.5h-244q-16 79 -72 110t-143 31q-30 0 -59.5 -4.5t-61.5 -15t-51.5 -33.5t-19.5 -55q0 -19 5.5 -35t18.5 -29t26.5 -23t36.5 -19t42 -15.5t50 -13.5t52 -11.5t56.5 -11.5t56.5 -12q59 -13 102 -27t91 -39t78.5 -56
t50.5 -79.5t20 -108.5q0 -90 -42.5 -159t-113 -108t-150.5 -58t-167 -19q-209 0 -337 94t-132 275zM432 1206l184 293h277l-291 -293h-170z" />
    <glyph glyph-name="Scircumflex" unicode="&#x15c;" horiz-adv-x="1327" 
d="M68 487h256q0 -81 28.5 -142.5t80 -98t117 -54.5t144.5 -18q157 0 233.5 64.5t76.5 156.5q0 133 -121 180q-47 18 -105 34t-161 42.5t-171 44.5q-323 85 -323 371q0 106 46 190.5t122.5 135.5t170 77.5t195.5 26.5q115 0 216 -30.5t178.5 -88t122.5 -147.5t45 -201h-256
q-19 258 -316 258q-48 0 -92.5 -9.5t-85.5 -30t-65.5 -59.5t-24.5 -91q0 -137 174 -189q376 -98 422 -112q137 -42 211 -146t74 -227q0 -118 -49.5 -209t-134 -144t-185 -79.5t-213.5 -26.5q-128 0 -236 31.5t-191.5 93.5t-132 163.5t-50.5 233.5zM676 1788l-144 -184h-188
l219 292h228l221 -292h-191z" />
    <glyph glyph-name="scircumflex" unicode="&#x15d;" horiz-adv-x="1062" 
d="M66 340h233q19 -184 240 -184q40 0 76.5 5t76 18.5t62 43t20.5 72.5q-1 26 -11 46.5t-31.5 36t-42 26t-57 20.5t-61.5 16t-71.5 15.5t-71.5 15.5q-59 13 -102.5 26.5t-91 38t-77.5 56t-49.5 81t-19.5 111.5q0 67 27.5 120t72 86.5t104 56t118.5 31.5t120 9
q85 0 157.5 -18t134.5 -55t101.5 -101.5t49.5 -150.5h-244q-16 79 -72 110t-143 31q-30 0 -59.5 -4.5t-61.5 -15t-51.5 -33.5t-19.5 -55q0 -19 5.5 -35t18.5 -29t26.5 -23t36.5 -19t42 -15.5t50 -13.5t52 -11.5t56.5 -11.5t56.5 -12q59 -13 102 -27t91 -39t78.5 -56
t50.5 -79.5t20 -108.5q0 -90 -42.5 -159t-113 -108t-150.5 -58t-167 -19q-209 0 -337 94t-132 275zM541 1391l-144 -185h-188l219 293h227l222 -293h-191z" />
    <glyph glyph-name="Scedilla" unicode="&#x15e;" horiz-adv-x="1327" 
d="M410 -410l36 82q68 -32 140 -32q119 0 119 84q0 36 -28.5 56.5t-66.5 20.5q-47 0 -80 -20l-45 39l111 149q-113 10 -206.5 45.5t-165.5 97.5t-113 157.5t-43 217.5h256q0 -81 28.5 -142.5t80 -98t117 -54.5t144.5 -18q157 0 233.5 64.5t76.5 156.5q0 133 -121 180
q-37 14 -87.5 29t-89.5 25t-124.5 32t-135.5 35q-323 87 -323 371q0 106 46 190.5t122.5 135.5t170 77.5t195.5 26.5q115 0 216 -30.5t178.5 -88t122.5 -147.5t45 -201h-256q-19 258 -316 258q-48 0 -92.5 -9.5t-85.5 -30t-65.5 -59.5t-24.5 -91q0 -137 174 -189
q376 -98 422 -112q137 -42 211 -146t74 -227q0 -117 -48.5 -207t-130.5 -143t-181 -80t-210 -29l-65 -86l2 -2q33 8 67 8q67 0 120.5 -40t53.5 -113q0 -95 -73 -142t-174 -47q-126 0 -211 47z" />
    <glyph glyph-name="scedilla" unicode="&#x15f;" horiz-adv-x="1062" 
d="M285 -410l37 82q68 -32 139 -32q119 0 119 84q0 36 -28.5 56.5t-66.5 20.5q-46 0 -79 -20l-46 39l115 153q-185 12 -295 105.5t-114 261.5h233q19 -184 240 -184q40 0 76.5 5t76 18.5t62 43t20.5 72.5q-1 26 -11 46.5t-31.5 36t-42 26t-57 20.5t-61.5 16t-71.5 15.5
t-71.5 15.5q-59 13 -102.5 26.5t-91 38t-77.5 56t-49.5 81t-19.5 111.5q0 67 27.5 120t72 86.5t104 56t118.5 31.5t120 9q85 0 157.5 -18t134.5 -55t101.5 -101.5t49.5 -150.5h-244q-16 79 -72 110t-143 31q-30 0 -59.5 -4.5t-61.5 -15t-51.5 -33.5t-19.5 -55q0 -19 5.5 -35
t18.5 -29t26.5 -23t36.5 -19t42 -15.5t50 -13.5t52 -11.5t56.5 -11.5t56.5 -12q59 -13 102 -27t91 -39t78.5 -56t50.5 -79.5t20 -108.5q0 -86 -38 -152t-102 -105t-139 -60t-158 -25l-71 -94l2 -2q33 8 67 8q67 0 120.5 -40t53.5 -113q0 -95 -73 -142t-174 -47
q-126 0 -211 47z" />
    <glyph glyph-name="Scaron" unicode="&#x160;" horiz-adv-x="1327" 
d="M68 487h256q0 -81 28.5 -142.5t80 -98t117 -54.5t144.5 -18q157 0 233.5 64.5t76.5 156.5q0 133 -121 180q-47 18 -105 34t-161 42.5t-171 44.5q-323 85 -323 371q0 106 46 190.5t122.5 135.5t170 77.5t195.5 26.5q115 0 216 -30.5t178.5 -88t122.5 -147.5t45 -201h-256
q-19 258 -316 258q-48 0 -92.5 -9.5t-85.5 -30t-65.5 -59.5t-24.5 -91q0 -137 174 -189q376 -98 422 -112q137 -42 211 -146t74 -227q0 -118 -49.5 -209t-134 -144t-185 -79.5t-213.5 -26.5q-128 0 -236 31.5t-191.5 93.5t-132 163.5t-50.5 233.5zM1010 1896l-222 -292h-227
l-219 292h188l144 -182l145 182h191z" />
    <glyph glyph-name="scaron" unicode="&#x161;" horiz-adv-x="1062" 
d="M66 340h233q19 -184 240 -184q40 0 76.5 5t76 18.5t62 43t20.5 72.5q-1 26 -11 46.5t-31.5 36t-42 26t-57 20.5t-61.5 16t-71.5 15.5t-71.5 15.5q-59 13 -102.5 26.5t-91 38t-77.5 56t-49.5 81t-19.5 111.5q0 67 27.5 120t72 86.5t104 56t118.5 31.5t120 9
q85 0 157.5 -18t134.5 -55t101.5 -101.5t49.5 -150.5h-244q-16 79 -72 110t-143 31q-30 0 -59.5 -4.5t-61.5 -15t-51.5 -33.5t-19.5 -55q0 -19 5.5 -35t18.5 -29t26.5 -23t36.5 -19t42 -15.5t50 -13.5t52 -11.5t56.5 -11.5t56.5 -12q59 -13 102 -27t91 -39t78.5 -56
t50.5 -79.5t20 -108.5q0 -90 -42.5 -159t-113 -108t-150.5 -58t-167 -19q-209 0 -337 94t-132 275zM877 1499l-222 -293h-227l-219 293h188l144 -182l145 182h191z" />
    <glyph glyph-name="Tcommaaccent" unicode="&#x162;" horiz-adv-x="1214" 
d="M16 1241v221h1184v-221h-465v-1241h-256v1241h-463zM471 -305v203h268v-183q0 -35 -10.5 -62.5t-35.5 -52.5t-73 -39.5t-118 -17.5v78q44 6 65 22.5t27 51.5h-123z" />
    <glyph glyph-name="tcommaaccent" unicode="&#x163;" horiz-adv-x="681" 
d="M16 885v174h177v317h233v-317h211v-174h-211v-566q0 -81 20 -113t93 -32q65 0 98 8v-180q-102 -12 -152 -12q-91 0 -148.5 16.5t-88 53.5t-42 82.5t-13.5 117.5v625h-177zM285 -305v203h268v-183q0 -74 -52.5 -120t-185.5 -52v78q44 6 65.5 22.5t27.5 51.5h-123z" />
    <glyph glyph-name="Tcaron" unicode="&#x164;" horiz-adv-x="1214" 
d="M16 1241v221h1184v-221h-465v-1241h-256v1241h-463zM944 1896l-221 -292h-227l-220 292h189l143 -182l146 182h190z" />
    <glyph glyph-name="tcaron" unicode="&#x165;" horiz-adv-x="681" 
d="M541 1169l65 293h256l-166 -293h-155zM16 885v174h177v317h233v-317h211v-174h-211v-566q0 -81 20 -113t93 -32q65 0 98 8v-180q-102 -12 -152 -12q-91 0 -148.5 16.5t-88 53.5t-42 82.5t-13.5 117.5v625h-177z" />
    <glyph glyph-name="Tbar" unicode="&#x166;" horiz-adv-x="1214" 
d="M16 1241v221h1184v-221h-465v-276h314v-152h-314v-813h-256v813h-311v152h311v276h-463z" />
    <glyph glyph-name="tbar" unicode="&#x167;" horiz-adv-x="681" 
d="M16 885v174h177v317h233v-317h211v-174h-211v-193h192v-129h-192v-244q0 -81 20 -113t93 -32q65 0 98 8v-180q-94 -12 -152 -12q-91 0 -149.5 16.5t-89 53t-42 83t-11.5 117.5v303h-164v129h164v193h-177z" />
    <glyph glyph-name="Utilde" unicode="&#x168;" horiz-adv-x="1478" 
d="M139 526v936h256v-852q0 -52 1.5 -86.5t8.5 -83t20.5 -81t39 -68t61 -56.5t90 -35t123.5 -14t123.5 14t90 35t61 56.5t39 68t20.5 81t8.5 83t1.5 86.5v852h256v-936q0 -274 -161 -417.5t-439 -143.5t-439 143.5t-161 417.5zM987 1872h115q-17 -112 -68 -166
q-57 -70 -160 -70q-65 0 -151 39q-86 37 -139 37q-73 0 -88 -84h-117q14 89 70.5 160.5t142.5 71.5q40 0 72.5 -8t93.5 -33q84 -37 127 -37q79 0 102 90z" />
    <glyph glyph-name="utilde" unicode="&#x169;" horiz-adv-x="1175" 
d="M1053 1059v-1059h-230v147h-4q-42 -78 -127 -127t-174 -49q-207 0 -301 102t-94 314v672h233v-649q0 -135 51 -194.5t152 -59.5q260 0 260 288v615h234zM842 1475h114q-17 -114 -67 -166q-57 -70 -160 -70q-65 0 -151 39q-86 37 -140 37q-73 0 -88 -84h-117
q14 89 70.5 160t142.5 71q40 0 72.5 -8t93.5 -33q84 -37 127 -37q80 0 103 91z" />
    <glyph glyph-name="Umacron" unicode="&#x16a;" horiz-adv-x="1478" 
d="M139 526v936h256v-852q0 -52 1.5 -86.5t8.5 -83t20.5 -81t39 -68t61 -56.5t90 -35t123.5 -14t123.5 14t90 35t61 56.5t39 68t20.5 81t8.5 83t1.5 86.5v852h256v-936q0 -274 -161 -417.5t-439 -143.5t-439 143.5t-161 417.5zM1034 1675h-590v133h590v-133z" />
    <glyph glyph-name="umacron" unicode="&#x16b;" horiz-adv-x="1175" 
d="M1053 1059v-1059h-230v147h-4q-42 -78 -127 -127t-174 -49q-207 0 -301 102t-94 314v672h233v-649q0 -135 51 -194.5t152 -59.5q260 0 260 288v615h234zM889 1278h-590v133h590v-133z" />
    <glyph glyph-name="Ubreve" unicode="&#x16c;" horiz-adv-x="1478" 
d="M139 526v936h256v-852q0 -52 1.5 -86.5t8.5 -83t20.5 -81t39 -68t61 -56.5t90 -35t123.5 -14t123.5 14t90 35t61 56.5t39 68t20.5 81t8.5 83t1.5 86.5v852h256v-936q0 -274 -161 -417.5t-439 -143.5t-439 143.5t-161 417.5zM410 1894h118q31 -155 220 -155
q80 0 134.5 39.5t71.5 115.5h117q-17 -143 -106 -215.5t-234 -72.5q-142 0 -225.5 74t-95.5 214z" />
    <glyph glyph-name="ubreve" unicode="&#x16d;" horiz-adv-x="1175" 
d="M1053 1059v-1059h-230v147h-4q-42 -78 -127 -127t-174 -49q-207 0 -301 102t-94 314v672h233v-649q0 -135 51 -194.5t152 -59.5q260 0 260 288v615h234zM264 1497h119q31 -156 219 -156q80 0 135 40t72 116h117q-17 -143 -106.5 -216t-233.5 -73q-142 0 -226 74.5
t-96 214.5z" />
    <glyph glyph-name="Uring" unicode="&#x16e;" horiz-adv-x="1478" 
d="M139 526v936h256v-852q0 -52 1.5 -86.5t8.5 -83t20.5 -81t39 -68t61 -56.5t90 -35t123.5 -14t123.5 14t90 35t61 56.5t39 68t20.5 81t8.5 83t1.5 86.5v852h256v-936q0 -274 -161 -417.5t-439 -143.5t-439 143.5t-161 417.5zM741 1538q-89 0 -151 59.5t-62 151.5
q0 93 63 152t150 59q89 0 151 -59t62 -152q0 -92 -62.5 -151.5t-150.5 -59.5zM618 1749q0 -53 36 -89t87 -36q54 0 88.5 35.5t34.5 89.5q0 55 -34.5 90t-88.5 35q-52 0 -87.5 -35t-35.5 -90z" />
    <glyph glyph-name="uring" unicode="&#x16f;" horiz-adv-x="1175" 
d="M1053 1059v-1059h-230v147h-4q-42 -78 -127 -127t-174 -49q-207 0 -301 102t-94 314v672h233v-649q0 -135 51 -194.5t152 -59.5q260 0 260 288v615h234zM598 1169q-89 0 -151 59.5t-62 151.5q0 93 63 152t150 59q89 0 151 -59t62 -152q0 -92 -62.5 -151.5t-150.5 -59.5z
M475 1380q0 -54 35.5 -89.5t87.5 -35.5q54 0 88.5 35.5t34.5 89.5q0 55 -34.5 90t-88.5 35q-52 0 -87.5 -35t-35.5 -90z" />
    <glyph glyph-name="Uhungarumlaut" unicode="&#x170;" horiz-adv-x="1478" 
d="M139 526v936h256v-852q0 -52 1.5 -86.5t8.5 -83t20.5 -81t39 -68t61 -56.5t90 -35t123.5 -14t123.5 14t90 35t61 56.5t39 68t20.5 81t8.5 83t1.5 86.5v852h256v-936q0 -274 -161 -417.5t-439 -143.5t-439 143.5t-161 417.5zM842 1604l184 292h279l-295 -292h-168z
M434 1604l184 292h279l-295 -292h-168z" />
    <glyph glyph-name="uhungarumlaut" unicode="&#x171;" horiz-adv-x="1175" 
d="M1053 1059v-1059h-230v147h-4q-42 -78 -127 -127t-174 -49q-207 0 -301 102t-94 314v672h233v-649q0 -135 51 -194.5t152 -59.5q260 0 260 288v615h234zM696 1206l185 293h278l-295 -293h-168zM289 1206l184 293h279l-295 -293h-168z" />
    <glyph glyph-name="Uogonek" unicode="&#x172;" horiz-adv-x="1478" 
d="M139 526v936h256v-852q0 -52 1.5 -86.5t8.5 -83t20.5 -81t39 -68t61 -56.5t90 -35t123.5 -14t123.5 14t90 35t61 56.5t39 68t20.5 81t8.5 83t1.5 86.5v852h256v-936q0 -252 -137 -393.5t-377 -163.5q-91 -76 -122 -126t-31 -107q0 -40 23.5 -65t58.5 -25q60 0 104 69
l84 -18q-23 -83 -82.5 -118.5t-132.5 -35.5q-88 0 -147.5 46t-59.5 130q0 61 39.5 120.5t138.5 127.5q-260 9 -409.5 152t-149.5 407z" />
    <glyph glyph-name="uogonek" unicode="&#x173;" horiz-adv-x="1175" 
d="M823 0v147h-4q-42 -78 -127 -127t-174 -49q-207 0 -301 102t-94 314v672h233v-649q0 -135 51 -194.5t152 -59.5q260 0 260 288v615h234v-1059h-119q-111 -92 -148.5 -147.5t-37.5 -116.5q0 -40 23 -65t58 -25q61 0 105 69l84 -18q-23 -83 -82.5 -118.5t-132.5 -35.5
q-88 0 -147.5 46t-59.5 130q0 67 50 134t177 147z" />
    <glyph glyph-name="Wcircumflex" unicode="&#x174;" horiz-adv-x="1933" 
d="M397 0l-385 1462h260l265 -1118h4l295 1118h262l286 -1118h5l272 1118h260l-403 -1462h-261l-292 1118h-4l-299 -1118h-265zM967 1788l-144 -184h-188l219 292h227l222 -292h-191z" />
    <glyph glyph-name="wcircumflex" unicode="&#x175;" horiz-adv-x="1593" 
d="M354 0l-327 1059h247l207 -791h4l199 791h236l190 -791h4l215 791h238l-332 -1059h-240l-196 786h-4l-195 -786h-246zM807 1391l-143 -185h-189l219 293h228l221 -293h-191z" />
    <glyph glyph-name="Ycircumflex" unicode="&#x176;" horiz-adv-x="1327" 
d="M537 0v573l-549 889h297l387 -655l381 655h286l-546 -889v-573h-256zM676 1788l-144 -184h-188l219 292h228l221 -292h-191z" />
    <glyph glyph-name="ycircumflex" unicode="&#x177;" horiz-adv-x="1062" 
d="M408 4l-402 1055h256l277 -791h4l268 791h244l-412 -1116q-58 -145 -81 -188q-66 -120 -170 -156q-54 -19 -124 -19q-82 0 -162 12v197q91 -14 111 -14q74 0 107.5 35.5t56.5 111.5zM545 1391l-144 -185h-188l219 293h227l222 -293h-191z" />
    <glyph glyph-name="Ydieresis" unicode="&#x178;" horiz-adv-x="1327" 
d="M537 0v573l-549 889h297l387 -655l381 655h286l-546 -889v-573h-256zM735 1851h234v-221h-234v221zM616 1630h-233v221h233v-221z" />
    <glyph glyph-name="Zacute" unicode="&#x179;" horiz-adv-x="1290" 
d="M113 1241v221h1112v-194l-852 -1047h872v-221h-1198v209l852 1032h-786zM563 1604l185 292h276l-291 -292h-170z" />
    <glyph glyph-name="zacute" unicode="&#x17a;" horiz-adv-x="1024" 
d="M86 874v185h860v-164l-606 -711h637v-184h-932v164l586 710h-545zM406 1206l184 293h276l-291 -293h-169z" />
    <glyph glyph-name="Zdotaccent" unicode="&#x17b;" horiz-adv-x="1290" 
d="M113 1241v221h1112v-194l-852 -1047h872v-221h-1198v209l852 1032h-786zM778 1630h-233v221h233v-221z" />
    <glyph glyph-name="zdotaccent" unicode="&#x17c;" horiz-adv-x="1024" 
d="M86 874v185h860v-164l-606 -711h637v-184h-932v164l586 710h-545zM631 1233h-234v221h234v-221z" />
    <glyph glyph-name="Zcaron" unicode="&#x17d;" horiz-adv-x="1290" 
d="M113 1241v221h1112v-194l-852 -1047h872v-221h-1198v209l852 1032h-786zM997 1896l-221 -292h-227l-219 292h188l144 -182l145 182h190z" />
    <glyph glyph-name="zcaron" unicode="&#x17e;" horiz-adv-x="1024" 
d="M86 874v185h860v-164l-606 -711h637v-184h-932v164l586 710h-545zM850 1499l-221 -293h-228l-219 293h189l143 -182l145 182h191z" />
    <glyph glyph-name="florin" unicode="&#x192;" 
d="M238 723l30 174h189l65 344q66 256 361 256q67 0 149 -10l-35 -184q-52 10 -84 10q-83 0 -117.5 -33t-52.5 -117l-51 -266h209l-31 -174h-208l-150 -780q-25 -120 -124 -205.5t-226 -85.5q-70 0 -162 10l31 184q55 -10 98 -10q60 0 94 25t47 90l154 772h-186z" />
    <glyph glyph-name="Aringacute" unicode="&#x1fa;" horiz-adv-x="1366" 
d="M707 1960h247l-206 -203h-164zM-14 0l551 1397q-48 55 -48 127q0 85 56.5 137.5t140.5 52.5q82 0 138.5 -53t56.5 -137q0 -72 -52 -131l553 -1393h-274l-137 387h-584l-137 -387h-264zM573 1524q0 -49 31.5 -80t79.5 -31q50 0 81.5 31t31.5 80t-31.5 80.5t-79.5 31.5
q-50 0 -81.5 -31.5t-31.5 -80.5zM678 1190l-221 -608h446l-219 608h-6z" />
    <glyph glyph-name="aringacute" unicode="&#x1fb;" 
d="M487 1636l166 260h269l-269 -260h-166zM580 1155q-89 0 -151 59.5t-62 151.5q0 93 63 152t150 59q89 0 151 -59t62 -152q0 -92 -62.5 -151.5t-150.5 -59.5zM457 1366q0 -54 35.5 -89.5t87.5 -35.5q54 0 88 35.5t34 89.5q0 55 -34 90t-88 35q-52 0 -87.5 -35t-35.5 -90z
M1010 780v-544q0 -44 11.5 -62t43.5 -18q34 0 57 4v-162q-79 -27 -147 -27q-156 0 -180 129q-65 -64 -165.5 -96.5t-201.5 -32.5q-155 0 -258.5 81t-103.5 229q0 54 12.5 98.5t32 76t51 56.5t62.5 40t75.5 27t79.5 18.5t84 12.5l129 17q113 14 156 40.5t43 92.5
q0 143 -220 143q-102 0 -164 -42t-69 -126h-234q6 98 48 169t111.5 109.5t149 56t173.5 17.5q81 0 154 -17t135 -52t98.5 -96.5t36.5 -141.5zM776 356v174q-34 -21 -69 -30.5t-111 -18.5l-94 -12q-203 -27 -203 -168q0 -74 58.5 -109.5t142.5 -35.5q49 0 95.5 11t88 33.5
t67 62.5t25.5 93z" />
    <glyph glyph-name="AEacute" unicode="&#x1fc;" horiz-adv-x="1972" 
d="M-14 0l727 1462h1179v-221h-712v-383h667v-209h-667v-428h725v-221h-969v375h-490l-176 -375h-284zM862 1241l-321 -672h395v672h-74zM1104 1604l184 292h277l-291 -292h-170z" />
    <glyph glyph-name="aeacute" unicode="&#x1fd;" horiz-adv-x="1820" 
d="M1524 334h233q-44 -169 -172.5 -266t-306.5 -97q-279 0 -389 195q-66 -100 -181.5 -147.5t-258.5 -47.5q-168 0 -275.5 80.5t-107.5 229.5q0 55 13 100t33 76.5t53 56.5t64.5 40t77 27t81.5 17.5t85 11.5q33 7 80 13t74.5 10t60 13t49.5 21.5t29 36t12 56.5
q0 143 -207 143q-102 0 -164 -42t-69 -126h-234q6 98 48.5 169t111.5 109.5t147 56t169 17.5q76 0 135 -9.5t121 -43t102 -90.5q110 143 336 143q106 0 192 -30.5t144.5 -85.5t96 -132.5t51.5 -170t7 -199.5h-768q0 -63 16.5 -117.5t48.5 -99t86.5 -70.5t125.5 -26
q93 0 156.5 46t93.5 132zM997 623h535q2 129 -69 204.5t-199 75.5q-119 0 -189 -79.5t-78 -200.5zM776 369v157q-21 -21 -62 -31t-119 -17t-103 -11q-43 -7 -74.5 -17.5t-60 -30t-43.5 -52t-15 -76.5q0 -38 19 -65.5t51.5 -42t67.5 -21t75 -6.5q105 0 184.5 57.5t79.5 155.5
zM848 1206l184 293h277l-291 -293h-170z" />
    <glyph glyph-name="Oslashacute" unicode="&#x1fe;" horiz-adv-x="1556" 
d="M1386 1503l89 -73l-162 -183q166 -218 166 -516q0 -211 -83 -384t-244.5 -277.5t-373.5 -104.5q-268 0 -454 168l-156 -174l-86 74l162 184q-166 215 -166 514q0 156 49 295t137 244t221.5 166t292.5 61q271 0 455 -166zM408 401l673 758q-110 129 -303 129
q-113 0 -200.5 -47t-139.5 -127t-78 -177t-26 -206q0 -191 74 -330zM1147 1061l-672 -758q119 -129 303 -129q91 0 166 31t126 84t86 124.5t51 151.5t16 166q0 197 -76 330zM682 1604l184 292h277l-291 -292h-170z" />
    <glyph glyph-name="oslashacute" unicode="&#x1ff;" horiz-adv-x="1214" 
d="M504 1206l184 293h277l-291 -293h-170zM131 -57l-65 57l133 147q-125 149 -125 383q0 247 143 402t391 155q211 0 348 -112l129 141l66 -57l-133 -146q125 -152 125 -383q0 -249 -143 -404t-392 -155q-209 0 -346 115zM354 317l457 500q-77 86 -203 86
q-75 0 -134.5 -32.5t-95 -86.5t-53.5 -118.5t-18 -135.5q0 -123 47 -213zM862 741l-456 -499q77 -86 202 -86q61 0 111.5 21.5t85 57.5t58.5 84t35 101.5t11 109.5q0 121 -47 211z" />
    <glyph glyph-name="Scommaaccent" unicode="&#x218;" horiz-adv-x="1327" 
d="M68 487h256q0 -81 28.5 -142.5t80 -98t117 -54.5t144.5 -18q157 0 233.5 64.5t76.5 156.5q0 133 -121 180q-47 18 -105 34t-161 42.5t-171 44.5q-323 85 -323 371q0 106 46 190.5t122.5 135.5t170 77.5t195.5 26.5q115 0 216 -30.5t178.5 -88t122.5 -147.5t45 -201h-256
q-19 258 -316 258q-48 0 -92.5 -9.5t-85.5 -30t-65.5 -59.5t-24.5 -91q0 -137 174 -189q376 -98 422 -112q137 -42 211 -146t74 -227q0 -118 -49.5 -209t-134 -144t-185 -79.5t-213.5 -26.5q-128 0 -236 31.5t-191.5 93.5t-132 163.5t-50.5 233.5zM522 -305v203h269v-183
q0 -74 -52.5 -120t-185.5 -52v78q44 6 65 22.5t27 51.5h-123z" />
    <glyph glyph-name="scommaaccent" unicode="&#x219;" horiz-adv-x="1062" 
d="M66 340h233q19 -184 240 -184q40 0 76.5 5t76 18.5t62 43t20.5 72.5q-1 26 -11 46.5t-31.5 36t-42 26t-57 20.5t-61.5 16t-71.5 15.5t-71.5 15.5q-59 13 -102.5 26.5t-91 38t-77.5 56t-49.5 81t-19.5 111.5q0 67 27.5 120t72 86.5t104 56t118.5 31.5t120 9
q85 0 157.5 -18t134.5 -55t101.5 -101.5t49.5 -150.5h-244q-16 79 -72 110t-143 31q-30 0 -59.5 -4.5t-61.5 -15t-51.5 -33.5t-19.5 -55q0 -19 5.5 -35t18.5 -29t26.5 -23t36.5 -19t42 -15.5t50 -13.5t52 -11.5t56.5 -11.5t56.5 -12q59 -13 102 -27t91 -39t78.5 -56
t50.5 -79.5t20 -108.5q0 -90 -42.5 -159t-113 -108t-150.5 -58t-167 -19q-209 0 -337 94t-132 275zM397 -305v203h269v-183q0 -74 -52.5 -120t-185.5 -52v78q44 6 65 22.5t27 51.5h-123z" />
    <glyph glyph-name="uni021A" unicode="&#x21a;" horiz-adv-x="1214" 
d="M16 1241v221h1184v-221h-465v-1241h-256v1241h-463zM471 -305v203h268v-183q0 -35 -10.5 -62.5t-35.5 -52.5t-73 -39.5t-118 -17.5v78q44 6 65 22.5t27 51.5h-123z" />
    <glyph glyph-name="uni021B" unicode="&#x21b;" horiz-adv-x="681" 
d="M16 885v174h177v317h233v-317h211v-174h-211v-566q0 -81 20 -113t93 -32q65 0 98 8v-180q-102 -12 -152 -12q-91 0 -148.5 16.5t-88 53.5t-42 82.5t-13.5 117.5v625h-177zM285 -305v203h268v-183q0 -74 -52.5 -120t-185.5 -52v78q44 6 65.5 22.5t27.5 51.5h-123z" />
    <glyph glyph-name="dotlessj" unicode="&#x237;" horiz-adv-x="493" 
d="M129 -80v1139h233v-1149q0 -164 -71.5 -247t-231.5 -83q-63 0 -104 8v185q46 -9 80 -9q59 0 76.5 35t17.5 121z" />
    <glyph glyph-name="circumflex" unicode="&#x2c6;" horiz-adv-x="493" 
d="M246 1391l-144 -185h-188l219 293h227l222 -293h-191z" />
    <glyph glyph-name="caron" unicode="&#x2c7;" horiz-adv-x="493" 
d="M580 1499l-222 -293h-227l-219 293h188l144 -182l145 182h191z" />
    <glyph glyph-name="uni02C9" unicode="&#x2c9;" horiz-adv-x="493" 
d="M543 1278h-590v133h590v-133z" />
    <glyph glyph-name="breve" unicode="&#x2d8;" horiz-adv-x="493" 
d="M-84 1497h119q31 -156 219 -156q80 0 135 40t72 116h117q-17 -143 -106.5 -216t-233.5 -73q-142 0 -226 74.5t-96 214.5z" />
    <glyph glyph-name="dotaccent" unicode="&#x2d9;" horiz-adv-x="493" 
d="M365 1233h-234v221h234v-221z" />
    <glyph glyph-name="ring" unicode="&#x2da;" horiz-adv-x="493" 
d="M248 1169q-89 0 -151 59.5t-62 151.5q0 93 63 152t150 59q89 0 151 -59t62 -152q0 -92 -62.5 -151.5t-150.5 -59.5zM125 1380q0 -54 35.5 -89.5t87.5 -35.5q54 0 88.5 35.5t34.5 89.5q0 55 -34.5 90t-88.5 35q-52 0 -87.5 -35t-35.5 -90z" />
    <glyph glyph-name="ogonek" unicode="&#x2db;" horiz-adv-x="493" 
d="M332 0h110q-115 -91 -153.5 -146.5t-38.5 -117.5q0 -40 23.5 -65t58.5 -25q60 0 104 69l84 -18q-23 -83 -82.5 -118.5t-132.5 -35.5q-88 0 -147.5 46t-59.5 130q0 67 51.5 134t182.5 147z" />
    <glyph glyph-name="tilde" unicode="&#x2dc;" horiz-adv-x="493" 
d="M494 1475h114q-17 -114 -67 -166q-57 -70 -160 -70q-66 0 -152 39q-86 37 -139 37q-73 0 -88 -84h-117q14 89 70.5 160t142.5 71q40 0 72.5 -8t93.5 -33q84 -37 127 -37q80 0 103 91z" />
    <glyph glyph-name="hungarumlaut" unicode="&#x2dd;" horiz-adv-x="493" 
d="M336 1206l184 293h279l-295 -293h-168zM-72 1206l185 293h278l-295 -293h-168z" />
    <glyph glyph-name="uni0374" unicode="&#x374;" horiz-adv-x="569" 
d="M485 1499l-168 -350h-186l76 350h278z" />
    <glyph glyph-name="uni0375" unicode="&#x375;" horiz-adv-x="569" 
d="M72 -416l168 350h186l-76 -350h-278z" />
    <glyph glyph-name="uni037E" unicode="&#x37e;" horiz-adv-x="569" 
d="M141 760v276h285v-276h-285zM141 0v276h285v-276q-1 -126 -76 -212.5t-200 -111.5v125q65 17 100 73t33 126h-142z" />
    <glyph glyph-name="tonos" unicode="&#x384;" horiz-adv-x="493" 
d="M150 1196l69 303h279l-158 -303h-190z" />
    <glyph glyph-name="dieresistonos" unicode="&#x385;" horiz-adv-x="864" 
d="M289 1196l76 297h243l-139 -297h-180zM633 1233v221h217v-221h-217zM29 1233v221h215v-221h-215z" />
    <glyph glyph-name="Alphatonos" unicode="&#x386;" horiz-adv-x="1380" 
d="M6 1159l70 303h278l-157 -303h-191zM-14 0l561 1462h272l563 -1462h-274l-137 387h-584l-137 -387h-264zM457 582h446l-219 628h-6z" />
    <glyph glyph-name="anoteleia" unicode="&#x387;" horiz-adv-x="569" 
d="M141 760v276h285v-276h-285z" />
    <glyph glyph-name="Epsilontonos" unicode="&#x388;" horiz-adv-x="1583" 
d="M6 1159l70 303h278l-157 -303h-191zM449 0v1462h1052v-221h-796v-383h737v-209h-737v-428h811v-221h-1067z" />
    <glyph glyph-name="Etatonos" unicode="&#x389;" horiz-adv-x="1771" 
d="M6 1159l70 303h278l-157 -303h-191zM442 0v1462h256v-581h666v581h256v-1462h-256v659h-666v-659h-256z" />
    <glyph glyph-name="Iotatonos" unicode="&#x38a;" horiz-adv-x="862" 
d="M6 1159l70 303h278l-157 -303h-191zM449 0v1462h256v-1462h-256z" />
    <glyph glyph-name="Omicrontonos" unicode="&#x38c;" horiz-adv-x="1806" 
d="M6 1159l70 303h278l-157 -303h-191zM1028 1497q159 0 292.5 -61t222 -166t137.5 -244t49 -295q0 -211 -83 -384t-244.5 -277.5t-373.5 -104.5q-128 0 -240 39t-195.5 109.5t-143.5 166t-90.5 210.5t-30.5 241q0 156 49 295t137 244t221.5 166t292.5 61zM1028 1288
q-113 0 -200.5 -47t-139.5 -127t-78 -177t-26 -206t26 -206t78 -177t139.5 -127t200.5 -47q91 0 166 31t126 84t86 124.5t51 151.5t16 166t-16 166t-51 151.5t-86 124.5t-126 84t-166 31z" />
    <glyph glyph-name="Upsilontonos" unicode="&#x38e;" horiz-adv-x="1724" 
d="M6 1159l70 303h278l-157 -303h-191zM934 0v573l-549 889h297l387 -655l381 655h287l-547 -889v-573h-256z" />
    <glyph glyph-name="Omegatonos" unicode="&#x38f;" horiz-adv-x="1820" 
d="M1759 215v-215h-606v195q328 193 328 626q0 130 -50.5 234.5t-152.5 168.5t-238 64q-203 0 -326.5 -134t-123.5 -353q0 -409 336 -606v-195h-609v215h308v10q-148 103 -219.5 243.5t-71.5 330.5q0 196 88 355t250 251t368 92q160 0 293.5 -56.5t220.5 -151.5t135 -216.5
t48 -253.5q0 -374 -307 -594v-10h329zM6 1159l70 303h278l-157 -303h-191z" />
    <glyph glyph-name="iotadieresistonos" unicode="&#x390;" horiz-adv-x="524" 
d="M123 1196l76 297h243l-139 -297h-180zM467 1233v221h217v-221h-217zM-137 1233v221h215v-221h-215zM362 1059v-807q0 -51 16.5 -73.5t53.5 -22.5q26 0 68 10v-160q-71 -35 -162 -35q-209 0 -209 219v869h233z" />
    <glyph glyph-name="Alpha" unicode="&#x391;" horiz-adv-x="1366" 
d="M-14 0l561 1462h272l563 -1462h-274l-137 387h-584l-137 -387h-264zM457 582h446l-219 628h-6z" />
    <glyph glyph-name="Beta" unicode="&#x392;" horiz-adv-x="1441" 
d="M156 0v1462h710q202 0 318 -92t116 -270q0 -109 -53.5 -189t-154.5 -123v-4q134 -29 204 -127t70 -249q0 -88 -31.5 -160.5t-95 -129t-169 -87.5t-243.5 -31h-671zM412 850h417q95 0 155 53.5t60 149.5q0 107 -53.5 153.5t-161.5 46.5h-417v-403zM412 209h452
q117 0 181.5 60.5t64.5 170.5q0 108 -64.5 167t-181.5 59h-452v-457z" />
    <glyph glyph-name="Gamma" unicode="&#x393;" horiz-adv-x="1181" 
d="M156 0v1462h1011v-221h-755v-1241h-256z" />
    <glyph glyph-name="uni0394" unicode="&#x394;" horiz-adv-x="1345" 
d="M1362 0h-1376l551 1462h272zM1012 215l-342 987l-342 -987h684z" />
    <glyph glyph-name="Epsilon" unicode="&#x395;" horiz-adv-x="1290" 
d="M156 0v1462h1052v-221h-796v-383h737v-209h-737v-428h811v-221h-1067z" />
    <glyph glyph-name="Zeta" unicode="&#x396;" horiz-adv-x="1290" 
d="M113 1241v221h1112v-194l-852 -1047h872v-221h-1198v209l852 1032h-786z" />
    <glyph glyph-name="Eta" unicode="&#x397;" horiz-adv-x="1478" 
d="M150 0v1462h256v-581h665v581h256v-1462h-256v659h-665v-659h-256z" />
    <glyph glyph-name="Theta" unicode="&#x398;" horiz-adv-x="1556" 
d="M778 1497q159 0 292.5 -61t222 -166t137.5 -244t49 -295q0 -211 -83 -384t-244.5 -277.5t-373.5 -104.5q-128 0 -240 39t-195.5 109.5t-143.5 166t-90.5 210.5t-30.5 241q0 156 49 295t137 244t221.5 166t292.5 61zM778 1288q-113 0 -200.5 -47t-139.5 -127t-78 -177
t-26 -206t26 -206t78 -177t139.5 -127t200.5 -47q91 0 166 31t126 84t86 124.5t51 151.5t16 166t-16 166t-51 151.5t-86 124.5t-126 84t-166 31zM506 635v221h545v-221h-545z" />
    <glyph glyph-name="Iota" unicode="&#x399;" horiz-adv-x="569" 
d="M156 0v1462h256v-1462h-256z" />
    <glyph glyph-name="Kappa" unicode="&#x39a;" horiz-adv-x="1402" 
d="M156 0v1462h256v-665l651 665h315l-583 -583l624 -879h-319l-479 698l-209 -206v-492h-256z" />
    <glyph glyph-name="Lambda" unicode="&#x39b;" horiz-adv-x="1308" 
d="M-14 0l534 1462h275l528 -1462h-272l-394 1210h-6l-401 -1210h-264z" />
    <glyph glyph-name="Mu" unicode="&#x39c;" horiz-adv-x="1820" 
d="M152 0v1462h360l403 -1145h5l393 1145h356v-1462h-244v1128h-4l-405 -1128h-211l-406 1128h-4v-1128h-243z" />
    <glyph glyph-name="Nu" unicode="&#x39d;" horiz-adv-x="1478" 
d="M145 0v1462h271l667 -1077h4v1077h244v-1462h-270l-666 1075h-6v-1075h-244z" />
    <glyph glyph-name="Xi" unicode="&#x39e;" horiz-adv-x="1196" 
d="M86 1243v219h1024v-219h-1024zM172 647v217h852v-217h-852zM68 0v219h1060v-219h-1060z" />
    <glyph glyph-name="Omicron" unicode="&#x39f;" horiz-adv-x="1556" 
d="M778 1497q159 0 292.5 -61t222 -166t137.5 -244t49 -295q0 -211 -83 -384t-244.5 -277.5t-373.5 -104.5q-128 0 -240 39t-195.5 109.5t-143.5 166t-90.5 210.5t-30.5 241q0 156 49 295t137 244t221.5 166t292.5 61zM778 1288q-113 0 -200.5 -47t-139.5 -127t-78 -177
t-26 -206t26 -206t78 -177t139.5 -127t200.5 -47q91 0 166 31t126 84t86 124.5t51 151.5t16 166t-16 166t-51 151.5t-86 124.5t-126 84t-166 31z" />
    <glyph glyph-name="Pi" unicode="&#x3a0;" horiz-adv-x="1478" 
d="M150 0v1462h1177v-1462h-256v1243h-665v-1243h-256z" />
    <glyph glyph-name="Rho" unicode="&#x3a1;" horiz-adv-x="1366" 
d="M156 0v1462h645q120 0 211.5 -30t144.5 -76t86 -109t44 -119.5t11 -117.5t-11 -117t-44 -119t-86 -108t-144.5 -75t-211.5 -30h-389v-561h-256zM412 1253v-483h374q46 0 89 12.5t81.5 39t62 75.5t23.5 115q0 70 -19.5 119t-56 74.5t-79 36.5t-96.5 11h-379z" />
    <glyph glyph-name="Sigma" unicode="&#x3a3;" horiz-adv-x="1288" 
d="M1219 0h-1139v213l514 545l-490 489v215h1082v-219h-746l471 -475l-503 -549h811v-219z" />
    <glyph glyph-name="Tau" unicode="&#x3a4;" horiz-adv-x="1214" 
d="M16 1241v221h1184v-221h-465v-1241h-256v1241h-463z" />
    <glyph glyph-name="Upsilon" unicode="&#x3a5;" horiz-adv-x="1327" 
d="M537 0v573l-549 889h297l387 -655l381 655h286l-546 -889v-573h-256z" />
    <glyph glyph-name="Phi" unicode="&#x3a6;" horiz-adv-x="1628" 
d="M688 1526h258v-144q286 -11 445 -160t159 -440q0 -279 -165 -448t-439 -180v-154h-258v154q-283 11 -446.5 172.5t-163.5 447.5q0 285 165 441t445 167v144zM946 1182v-828q348 16 348 428q0 212 -86.5 303t-261.5 97zM690 354v828q-356 -13 -356 -408q0 -214 91 -314
t265 -106z" />
    <glyph glyph-name="Chi" unicode="&#x3a7;" horiz-adv-x="1327" 
d="M512 758l-483 704h305l332 -516l346 516h286l-483 -704l518 -758h-311l-365 559l-370 -559h-293z" />
    <glyph glyph-name="Psi" unicode="&#x3a8;" horiz-adv-x="1708" 
d="M727 522v940h256v-938q179 2 259.5 88.5t80.5 288.5v561h258v-565q0 -551 -598 -580v-317h-256v317q-318 9 -460 151.5t-142 428.5v565h258v-561q0 -202 81 -289t263 -90z" />
    <glyph glyph-name="uni03A9" unicode="&#x3a9;" horiz-adv-x="1570" 
d="M1509 215v-215h-606v195q328 193 328 626q0 130 -50.5 234.5t-152 168.5t-237.5 64q-204 0 -327.5 -134t-123.5 -353q0 -409 336 -606v-195h-608v215h307v10q-148 103 -219.5 243.5t-71.5 330.5q0 147 52 275.5t143.5 222t224 147t287.5 53.5q160 0 293.5 -56.5
t220.5 -151.5t134.5 -216.5t47.5 -253.5q0 -374 -307 -594v-10h329z" />
    <glyph glyph-name="Iotadieresis" unicode="&#x3aa;" horiz-adv-x="569" 
d="M156 0v1462h256v-1462h-256zM344 1851h234v-221h-234v221zM225 1630h-233v221h233v-221z" />
    <glyph glyph-name="Upsilondieresis" unicode="&#x3ab;" horiz-adv-x="1327" 
d="M537 0v573l-549 889h297l387 -655l381 655h286l-546 -889v-573h-256zM735 1851h234v-221h-234v221zM616 1630h-233v221h233v-221z" />
    <glyph glyph-name="alphatonos" unicode="&#x3ac;" horiz-adv-x="1224" 
d="M836 1059h233v-807q0 -49 18 -72.5t48 -23.5q32 0 65 10v-162q-65 -33 -149 -33q-79 0 -133.5 44.5t-69.5 129.5h-4q-44 -86 -127.5 -130t-198.5 -44q-110 0 -198.5 45t-144 123t-85 178.5t-29.5 214.5q0 89 16.5 169.5t54 151.5t92 122.5t135.5 81.5t180 30
q91 0 169.5 -44t122.5 -119h5v135zM844 528q0 97 -28 180t-89.5 139t-146.5 56q-74 0 -131 -34t-89.5 -91t-48.5 -122t-16 -134q0 -153 72 -259.5t204 -106.5q67 0 120.5 33t86 87t49.5 118.5t17 133.5zM487 1196l70 303h279l-158 -303h-191z" />
    <glyph glyph-name="epsilontonos" unicode="&#x3ad;" horiz-adv-x="1030" 
d="M422 1196l70 303h278l-158 -303h-190zM961 760h-234q-22 143 -201 143q-196 0 -196 -135t145 -135h150v-166h-152q-172 0 -172 -152q0 -159 229 -159q95 0 157 41t81 151h233q-30 -196 -157 -286.5t-348 -90.5q-83 0 -158 18.5t-139.5 56t-103 104t-38.5 153.5
q0 92 52.5 157.5t138.5 86.5v6q-75 23 -115.5 78.5t-40.5 134.5q0 150 125 235.5t309 85.5q186 0 298.5 -81t136.5 -246z" />
    <glyph glyph-name="etatonos" unicode="&#x3ae;" horiz-adv-x="1185" 
d="M510 1196l70 303h278l-158 -303h-190zM123 0v1059h221v-156l4 -4q55 89 141 138.5t189 49.5q177 0 276 -91.5t99 -268.5v-1118h-234v1057q-5 125 -54 181t-153 56q-115 0 -185.5 -79.5t-70.5 -198.5v-625h-233z" />
    <glyph glyph-name="iotatonos" unicode="&#x3af;" horiz-adv-x="524" 
d="M150 1196l69 303h279l-158 -303h-190zM362 1059v-807q0 -51 16.5 -73.5t53.5 -22.5q26 0 68 10v-160q-71 -35 -162 -35q-209 0 -209 219v869h233z" />
    <glyph glyph-name="upsilondieresistonos" unicode="&#x3b0;" horiz-adv-x="1122" 
d="M119 1059h231v-666q0 -125 52 -181t155 -56q258 0 258 403q0 114 -33 251.5t-96 248.5h246q61 -108 89 -242.5t28 -253.5q0 -274 -126.5 -433t-365.5 -159q-220 0 -329 95t-109 290v703zM408 1196l75 297h244l-139 -297h-180zM752 1233v221h217v-221h-217zM147 1233v221
h215v-221h-215z" />
    <glyph glyph-name="alpha" unicode="&#x3b1;" horiz-adv-x="1224" 
d="M836 1059h233v-807q0 -49 18 -72.5t48 -23.5q32 0 65 10v-162q-65 -33 -149 -33q-79 0 -133.5 44.5t-69.5 129.5h-4q-44 -86 -127.5 -130t-198.5 -44q-110 0 -198.5 45t-144 123t-85 178.5t-29.5 214.5q0 89 16.5 169.5t54 151.5t92 122.5t135.5 81.5t180 30
q91 0 169.5 -44t122.5 -119h5v135zM844 528q0 97 -28 180t-89.5 139t-146.5 56q-74 0 -131 -34t-89.5 -91t-48.5 -122t-16 -134q0 -153 72 -259.5t204 -106.5q67 0 120.5 33t86 87t49.5 118.5t17 133.5z" />
    <glyph glyph-name="beta" unicode="&#x3b2;" horiz-adv-x="1185" 
d="M129 -391v1421q0 225 112.5 341t333.5 116q114 0 200.5 -28t137 -78t75 -112t24.5 -136q0 -103 -54.5 -177.5t-136.5 -93.5v-4q99 -18 166.5 -78.5t97 -143.5t29.5 -185q0 -120 -36 -214.5t-97.5 -151t-137.5 -85.5t-161 -29q-96 0 -181 42.5t-134 123.5h-5v-528h-233z
M647 717h-117v180h54q95 0 144.5 58t49.5 163q0 87 -52 136t-151 49q-116 0 -168.5 -69t-52.5 -228v-461q0 -191 71.5 -290t195.5 -99q114 0 186 66.5t72 211.5q0 157 -55.5 220t-176.5 63z" />
    <glyph glyph-name="gamma" unicode="&#x3b3;" horiz-adv-x="991" 
d="M733 1059h242q-86 -577 -395 -1075v-375h-234v295q0 229 -106 583t-224 572h254q72 -122 143.5 -367.5t92.5 -421.5h8q148 291 219 789z" />
    <glyph glyph-name="delta" unicode="&#x3b4;" horiz-adv-x="1173" 
d="M74 510q0 181 94.5 305.5t275.5 171.5q-115 68 -160.5 132t-43.5 134q1 45 20.5 84.5t61.5 74.5t119.5 55t183.5 20q83 0 176.5 -16t161.5 -48v-182q-76 35 -170.5 51.5t-167.5 16.5q-154 0 -154 -74q0 -37 87 -94q18 -12 112 -70q73 -44 123.5 -78t113 -89t100.5 -109
t64.5 -129.5t26.5 -159.5q0 -82 -19 -159t-59.5 -145.5t-98.5 -120t-140.5 -81t-180.5 -29.5q-126 0 -227 41.5t-165.5 115t-99 171t-34.5 211.5zM307 510q0 -162 81.5 -258t211.5 -96q121 0 191.5 93t70.5 257q0 118 -62 211.5t-206 175.5q-287 -57 -287 -383z" />
    <glyph glyph-name="epsilon" unicode="&#x3b5;" horiz-adv-x="1030" 
d="M961 760h-234q-22 143 -201 143q-196 0 -196 -135t145 -135h150v-166h-152q-172 0 -172 -152q0 -159 229 -159q95 0 157 41t81 151h233q-30 -196 -157 -286.5t-348 -90.5q-83 0 -158 18.5t-139.5 56t-103 104t-38.5 153.5q0 92 52.5 157.5t138.5 86.5v6
q-75 23 -115.5 78.5t-40.5 134.5q0 150 125 235.5t309 85.5q186 0 298.5 -81t136.5 -246z" />
    <glyph glyph-name="zeta" unicode="&#x3b6;" horiz-adv-x="927" 
d="M709 -135q0 61 -18.5 98t-72.5 37h-69q-222 0 -346.5 144.5t-124.5 392.5q0 250 126.5 441t375.5 298h-410v186h758v-164q-326 -129 -474.5 -318.5t-142.5 -442.5q6 -351 301 -351h39q271 0 271 -280q0 -116 -27 -221h-211q25 108 25 180z" />
    <glyph glyph-name="eta" unicode="&#x3b7;" horiz-adv-x="1185" 
d="M123 0v1059h221v-156l4 -4q55 89 141 138.5t189 49.5q177 0 276 -91.5t99 -268.5v-1118h-234v1057q-5 125 -54 181t-153 56q-115 0 -185.5 -79.5t-70.5 -198.5v-625h-233z" />
    <glyph glyph-name="theta" unicode="&#x3b8;" horiz-adv-x="1118" 
d="M559 1487q137 0 234 -52.5t153.5 -154.5t81.5 -236t25 -313q0 -140 -16 -254t-52 -209.5t-92.5 -160t-140.5 -100.5t-193 -36q-137 0 -234.5 55.5t-153 160t-80.5 238t-25 306.5q0 174 25.5 307.5t82 236.5t153.5 157.5t232 54.5zM307 836h502q-6 237 -63 352t-187 115
q-138 0 -192.5 -113.5t-59.5 -353.5zM559 156q95 0 147.5 48t76 153.5t28.5 299.5h-504q2 -191 27 -298.5t78 -155t147 -47.5z" />
    <glyph glyph-name="iota" unicode="&#x3b9;" horiz-adv-x="524" 
d="M362 1059v-807q0 -51 16.5 -73.5t53.5 -22.5q26 0 68 10v-160q-71 -35 -162 -35q-209 0 -209 219v869h233z" />
    <glyph glyph-name="kappa" unicode="&#x3ba;" horiz-adv-x="1093" 
d="M123 0v1059h233v-455l422 455h287l-408 -416l447 -643h-285l-323 479l-140 -133v-346h-233z" />
    <glyph glyph-name="lambda" unicode="&#x3bb;" horiz-adv-x="1107" 
d="M1030 156q35 0 66 10v-160q-63 -35 -135 -35q-154 0 -195 131l-209 635h-4l-272 -737h-256l424 987l-91 225q-20 48 -51 67t-84 19q-42 0 -98 -16v182q70 23 160 23q86 0 142.5 -28.5t95.5 -87t81 -167.5l369 -1005q11 -25 24 -34t33 -9z" />
    <glyph glyph-name="uni03BC" unicode="&#x3bc;" horiz-adv-x="1175" 
d="M1053 1059v-1059h-230v147h-4q-57 -94 -133.5 -135t-155.5 -41q-112 0 -174 54v-416h-233v1450h233v-649q0 -135 51 -194.5t152 -59.5q260 0 260 288v615h234z" />
    <glyph glyph-name="nu" unicode="&#x3bd;" horiz-adv-x="1040" 
d="M780 1059h242q-80 -507 -369 -1059h-262l-373 1059h254l260 -813h5q86 176 150 390t93 423z" />
    <glyph glyph-name="xi" unicode="&#x3be;" horiz-adv-x="911" 
d="M682 -135q0 23 -1.5 40t-7 36t-15 31t-26.5 20t-40 8h-70q-214 0 -331 115.5t-117 292.5q0 141 71 236.5t211 133.5v2q-114 25 -175.5 107t-61.5 188q0 191 125.5 301.5t326.5 110.5q166 0 306 -60v-186q-153 62 -289 62q-107 0 -170.5 -60.5t-63.5 -167.5
q0 -215 279 -215h174v-180h-180q-168 0 -243 -59.5t-75 -186.5q0 -121 70.5 -183.5t206.5 -64.5h39q144 0 207 -73t63 -207q0 -116 -27 -221h-211q25 108 25 180z" />
    <glyph glyph-name="omicron" unicode="&#x3bf;" horiz-adv-x="1214" 
d="M608 -29q-166 0 -288 72t-184 197.5t-62 289.5q0 247 143 402t391 155t391.5 -155t143.5 -402q0 -249 -143 -404t-392 -155zM608 156q61 0 111.5 21.5t85 57.5t58.5 84t35 101.5t11 109.5q0 71 -18 135.5t-53.5 118.5t-95 86.5t-134.5 32.5t-134.5 -32.5t-95 -86.5
t-53.5 -118.5t-18 -135.5q0 -56 11 -109.5t35 -101.5t58.5 -84t85 -57.5t111.5 -21.5z" />
    <glyph glyph-name="pi" unicode="&#x3c0;" horiz-adv-x="1415" 
d="M252 0v874h-201v185h1303v-185h-219v-618q0 -98 86 -98q37 0 75 10v-162q-78 -35 -170 -35q-223 0 -223 222v681h-418v-874h-233z" />
    <glyph glyph-name="rho" unicode="&#x3c1;" horiz-adv-x="1198" 
d="M119 -391v917q0 261 131 411t366 150q102 0 187.5 -31t144 -84t99 -125.5t59 -153t18.5 -167.5q0 -103 -25.5 -197.5t-78 -176.5t-145 -131.5t-213.5 -49.5q-81 0 -169.5 41.5t-138.5 122.5h-4v-526h-231zM891 539q0 101 -28 180.5t-92.5 130.5t-158.5 51
q-123 0 -195.5 -100t-72.5 -271q0 -103 28.5 -185.5t93 -135.5t157.5 -53q86 0 148.5 55.5t91 140.5t28.5 187z" />
    <glyph glyph-name="sigma1" unicode="&#x3c2;" horiz-adv-x="1110" 
d="M733 -135q0 29 -3 49.5t-11 42t-27.5 32.5t-48.5 11h-92q-216 0 -346.5 141t-130.5 396q0 110 31.5 207t93.5 174.5t163.5 123t231.5 45.5q168 0 289.5 -83.5t158.5 -249.5h-233q-53 149 -215 149q-62 0 -112 -21.5t-82 -57t-53.5 -83.5t-30.5 -98.5t-9 -105.5
q0 -171 80 -261t217 -90h74q268 0 268 -280q0 -120 -26 -221h-211q24 104 24 180z" />
    <glyph glyph-name="sigma" unicode="&#x3c3;" horiz-adv-x="1206" 
d="M74 528q0 237 151 384t410 147h551v-185h-256q76 -48 120 -144.5t44 -201.5q0 -80 -18 -157t-57.5 -150t-97 -128t-143 -88.5t-188.5 -33.5q-121 0 -220 43.5t-163 119.5t-98.5 177t-34.5 217zM307 528q0 -170 81 -270t202 -100q131 0 200.5 99.5t69.5 270.5
q0 248 -127 346h-84q-155 0 -248.5 -85.5t-93.5 -260.5z" />
    <glyph glyph-name="tau" unicode="&#x3c4;" horiz-adv-x="999" 
d="M596 874v-618q0 -57 26.5 -77.5t73.5 -20.5q42 0 80 10v-162q-78 -35 -178 -35q-116 0 -174.5 52.5t-58.5 169.5v681h-345v185h959v-185h-383z" />
    <glyph glyph-name="upsilon" unicode="&#x3c5;" horiz-adv-x="1122" 
d="M119 1059h231v-666q0 -125 52 -181t155 -56q258 0 258 403q0 114 -33 251.5t-96 248.5h246q61 -108 89 -242.5t28 -253.5q0 -274 -126.5 -433t-365.5 -159q-220 0 -329 95t-109 290v703z" />
    <glyph glyph-name="phi" unicode="&#x3c6;" horiz-adv-x="1501" 
d="M866 1358v-271q257 -5 410.5 -151.5t153.5 -396.5q0 -137 -41.5 -244.5t-117 -176t-177 -105.5t-224.5 -42v-362h-237v362q-124 3 -225.5 39.5t-177 104.5t-117 175t-41.5 245q0 251 152.5 399t408.5 153v271h233zM866 903v-745q152 -5 241 94t89 287q0 169 -86.5 268
t-243.5 96zM633 156v747q-155 3 -241.5 -98t-86.5 -270q0 -188 88 -285t240 -94z" />
    <glyph glyph-name="chi" unicode="&#x3c7;" horiz-adv-x="1009" 
d="M627 397l405 -788h-280l-254 565l-244 -565h-274l403 778l-373 672h281l217 -459l215 459h272z" />
    <glyph glyph-name="psi" unicode="&#x3c8;" horiz-adv-x="1417" 
d="M991 1059h246q54 -100 80 -237t26 -259q0 -270 -139 -425.5t-377 -164.5v-362h-235v360q-126 5 -218.5 45.5t-147.5 111.5t-81 162t-26 206v563h233v-549q0 -75 11 -132.5t36.5 -107.5t74 -79t118.5 -35v1200h235v-1200q136 8 209.5 109.5t73.5 293.5q0 118 -31 256.5
t-88 243.5z" />
    <glyph glyph-name="omega" unicode="&#x3c9;" horiz-adv-x="1513" 
d="M637 387v406h231v-406q0 -231 144 -231q68 0 111.5 47t61 121t17.5 176q0 308 -190 559h256q94 -125 134 -265t40 -309q0 -103 -26.5 -194.5t-77 -163.5t-130 -114t-178.5 -42q-100 0 -173 50t-107 151q-57 -112 -115 -156.5t-166 -44.5q-104 0 -182.5 42t-124 115
t-68 162t-22.5 193q0 329 176 576h254q-191 -251 -191 -561q0 -100 16.5 -173t59.5 -121t111 -48q71 0 105 56.5t34 174.5z" />
    <glyph glyph-name="iotadieresis" unicode="&#x3ca;" horiz-adv-x="524" 
d="M311 1454h234v-221h-234v221zM193 1233h-234v221h234v-221zM362 1059v-807q0 -51 16.5 -73.5t53.5 -22.5q26 0 68 10v-160q-71 -35 -162 -35q-209 0 -209 219v869h233z" />
    <glyph glyph-name="upsilondieresis" unicode="&#x3cb;" horiz-adv-x="1122" 
d="M119 1059h231v-666q0 -125 52 -181t155 -56q258 0 258 403q0 114 -33 251.5t-96 248.5h246q61 -108 89 -242.5t28 -253.5q0 -274 -126.5 -433t-365.5 -159q-220 0 -329 95t-109 290v703zM608 1454h234v-221h-234v221zM489 1233h-233v221h233v-221z" />
    <glyph glyph-name="omicrontonos" unicode="&#x3cc;" horiz-adv-x="1214" 
d="M498 1196l69 303h279l-158 -303h-190zM608 -29q-166 0 -288 72t-184 197.5t-62 289.5q0 247 143 402t391 155t391.5 -155t143.5 -402q0 -249 -143 -404t-392 -155zM608 156q61 0 111.5 21.5t85 57.5t58.5 84t35 101.5t11 109.5q0 71 -18 135.5t-53.5 118.5t-95 86.5
t-134.5 32.5t-134.5 -32.5t-95 -86.5t-53.5 -118.5t-18 -135.5q0 -56 11 -109.5t35 -101.5t58.5 -84t85 -57.5t111.5 -21.5z" />
    <glyph glyph-name="upsilontonos" unicode="&#x3cd;" horiz-adv-x="1122" 
d="M434 1196l70 303h278l-157 -303h-191zM119 1059h231v-666q0 -125 52 -181t155 -56q258 0 258 403q0 114 -33 251.5t-96 248.5h246q61 -108 89 -242.5t28 -253.5q0 -274 -126.5 -433t-365.5 -159q-220 0 -329 95t-109 290v703z" />
    <glyph glyph-name="omegatonos" unicode="&#x3ce;" horiz-adv-x="1513" 
d="M637 387v406h231v-406q0 -231 144 -231q68 0 111.5 47t61 121t17.5 176q0 308 -190 559h256q94 -125 134 -265t40 -309q0 -103 -26.5 -194.5t-77 -163.5t-130 -114t-178.5 -42q-100 0 -173 50t-107 151q-57 -112 -115 -156.5t-166 -44.5q-104 0 -182.5 42t-124 115
t-68 162t-22.5 193q0 329 176 576h254q-191 -251 -191 -561q0 -100 16.5 -173t59.5 -121t111 -48q71 0 105 56.5t34 174.5zM653 1196l70 303h278l-157 -303h-191z" />
    <glyph glyph-name="uni0400" unicode="&#x400;" horiz-adv-x="1290" 
d="M156 0v1462h1052v-221h-796v-383h737v-209h-737v-428h811v-221h-1067zM313 1896h275l186 -292h-170z" />
    <glyph glyph-name="afii10023" unicode="&#x401;" horiz-adv-x="1290" 
d="M156 0v1462h1052v-221h-796v-383h737v-209h-737v-428h811v-221h-1067zM735 1851h234v-221h-234v221zM616 1630h-233v221h233v-221z" />
    <glyph glyph-name="afii10051" unicode="&#x402;" horiz-adv-x="1609" 
d="M694 0h-256v1241h-422v221h1184v-221h-506v-508q60 83 153.5 127.5t209.5 44.5q233 0 358 -152t125 -409q0 -267 -152 -428.5t-389 -161.5h-28v197q68 2 123 24t98.5 66.5t67.5 118.5t24 174q0 186 -66.5 278.5t-211.5 92.5q-139 0 -225.5 -100t-86.5 -271v-334z" />
    <glyph glyph-name="afii10052" unicode="&#x403;" horiz-adv-x="1181" 
d="M156 0v1462h1011v-221h-755v-1241h-256zM483 1604l185 292h276l-291 -292h-170z" />
    <glyph glyph-name="afii10053" unicode="&#x404;" horiz-adv-x="1478" 
d="M1399 1026h-256q-31 128 -126 195t-249 67q-96 0 -174.5 -35t-129.5 -95.5t-82 -134.5t-42 -159h623v-207h-629q4 -79 24 -150t56 -132t86 -105.5t118 -70t148 -25.5q164 0 257 80.5t128 234.5h248q-34 -240 -202 -382t-427 -142q-204 0 -360.5 93t-244 267t-87.5 404
q0 159 46.5 298t132.5 244t219 165.5t296 60.5q252 0 418 -119t209 -352z" />
    <glyph glyph-name="afii10054" unicode="&#x405;" horiz-adv-x="1327" 
d="M68 487h256q0 -81 28.5 -142.5t80 -98t117 -54.5t144.5 -18q157 0 233.5 64.5t76.5 156.5q0 133 -121 180q-47 18 -105 34t-161 42.5t-171 44.5q-323 85 -323 371q0 106 46 190.5t122.5 135.5t170 77.5t195.5 26.5q115 0 216 -30.5t178.5 -88t122.5 -147.5t45 -201h-256
q-19 258 -316 258q-48 0 -92.5 -9.5t-85.5 -30t-65.5 -59.5t-24.5 -91q0 -137 174 -189q376 -98 422 -112q137 -42 211 -146t74 -227q0 -118 -49.5 -209t-134 -144t-185 -79.5t-213.5 -26.5q-128 0 -236 31.5t-191.5 93.5t-132 163.5t-50.5 233.5z" />
    <glyph glyph-name="afii10055" unicode="&#x406;" horiz-adv-x="569" 
d="M156 0v1462h256v-1462h-256z" />
    <glyph glyph-name="afii10056" unicode="&#x407;" horiz-adv-x="569" 
d="M344 1851h234v-221h-234v221zM225 1630h-233v221h233v-221zM156 0v1462h256v-1462h-256z" />
    <glyph glyph-name="afii10057" unicode="&#x408;" horiz-adv-x="1099" 
d="M944 1462v-991q0 -59 -4.5 -108t-17.5 -103t-35 -95.5t-58.5 -80t-86 -64t-120.5 -40.5t-159 -15q-221 0 -328.5 128t-107.5 341v78h256v-76q0 -132 44 -197t156 -65q118 0 161.5 68.5t43.5 214.5v1005h256z" />
    <glyph glyph-name="afii10058" unicode="&#x409;" horiz-adv-x="2164" 
d="M2097 453q0 -216 -132 -334.5t-370 -118.5h-600v1241h-432l-31 -784q-9 -234 -107.5 -363t-268.5 -129q-82 0 -148 27v198q59 -16 94 -16q61 0 96.5 25.5t56.5 95t26 194.5l36 973h934v-561h344q240 0 371 -116.5t131 -331.5zM1841 446q0 115 -69.5 180.5t-190.5 65.5
h-330v-481h334q256 0 256 235z" />
    <glyph glyph-name="afii10059" unicode="&#x40a;" horiz-adv-x="2119" 
d="M2052 453q0 -216 -132 -334.5t-370 -118.5h-563v692h-581v-692h-256v1462h256v-559h581v559h256v-561h307q240 0 371 -116.5t131 -331.5zM1796 446q0 115 -69.5 180.5t-190.5 65.5h-293v-481h297q256 0 256 235z" />
    <glyph glyph-name="afii10060" unicode="&#x40b;" horiz-adv-x="1609" 
d="M1024 905q132 0 229 -32t154.5 -91.5t85 -136.5t27.5 -174v-471h-256v422q0 129 -67.5 193.5t-213.5 64.5q-156 0 -289 -35v-645h-256v1241h-422v221h1184v-221h-506v-375q71 17 166 28t164 11z" />
    <glyph glyph-name="afii10061" unicode="&#x40c;" horiz-adv-x="1402" 
d="M567 1604l185 292h276l-291 -292h-170zM156 0v1462h256v-665l651 665h315l-583 -583l624 -879h-319l-479 698l-209 -206v-492h-256z" />
    <glyph glyph-name="uni040D" unicode="&#x40d;" horiz-adv-x="1478" 
d="M150 0v1462h256v-1118l624 1118h297v-1462h-256v1118l-625 -1118h-296zM387 1896h275l186 -292h-170z" />
    <glyph glyph-name="afii10062" unicode="&#x40e;" horiz-adv-x="1251" 
d="M496 416l-506 1046h282l355 -794l356 794h279l-568 -1165q-87 -181 -186.5 -256.5t-226.5 -75.5q-88 0 -172 37v215q75 -37 149 -37q62 0 110.5 39.5t106.5 155.5zM303 1894h119q31 -155 219 -155q80 0 135 39.5t72 115.5h117q-17 -143 -106 -215.5t-234 -72.5
q-142 0 -226 74t-96 214z" />
    <glyph glyph-name="afii10145" unicode="&#x40f;" horiz-adv-x="1478" 
d="M150 0v1462h256v-1241h665v1241h256v-1462h-461v-362h-256v362h-460z" />
    <glyph glyph-name="afii10017" unicode="&#x410;" horiz-adv-x="1366" 
d="M-14 0l561 1462h272l563 -1462h-274l-137 387h-584l-137 -387h-264zM678 1210l-221 -628h446l-219 628h-6z" />
    <glyph glyph-name="afii10018" unicode="&#x411;" horiz-adv-x="1421" 
d="M1339 453q0 -216 -131.5 -334.5t-369.5 -118.5h-682v1462h1065v-221h-809v-340h426q240 0 370.5 -116.5t130.5 -331.5zM1083 446q0 115 -69.5 180.5t-190.5 65.5h-411v-481h415q256 0 256 235z" />
    <glyph glyph-name="afii10019" unicode="&#x412;" horiz-adv-x="1441" 
d="M156 0v1462h710q202 0 318 -92t116 -270q0 -109 -53.5 -189t-154.5 -123v-4q134 -29 204 -127t70 -249q0 -88 -31.5 -160.5t-95 -129t-169 -87.5t-243.5 -31h-671zM412 850h417q95 0 155 53.5t60 149.5q0 107 -53.5 153.5t-161.5 46.5h-417v-403zM412 209h452
q117 0 181.5 60.5t64.5 170.5q0 108 -64.5 167t-181.5 59h-452v-457z" />
    <glyph glyph-name="afii10020" unicode="&#x413;" horiz-adv-x="1181" 
d="M156 0v1462h1011v-221h-755v-1241h-256z" />
    <glyph glyph-name="afii10021" unicode="&#x414;" horiz-adv-x="1466" 
d="M1450 -362h-252v362h-938v-362h-252v583h137q191 374 191 934v307h954v-1241h160v-583zM1034 221v1020h-446v-88q0 -547 -168 -932h614z" />
    <glyph glyph-name="afii10022" unicode="&#x415;" horiz-adv-x="1290" 
d="M156 0v1462h1052v-221h-796v-383h737v-209h-737v-428h811v-221h-1067z" />
    <glyph glyph-name="afii10024" unicode="&#x416;" horiz-adv-x="2113" 
d="M768 653l-481 -653h-312l629 823l-567 639h323l566 -655v655h256v-657l569 657h315l-561 -620l631 -842h-319l-478 657l-157 -170v-487h-256v473z" />
    <glyph glyph-name="afii10025" unicode="&#x417;" horiz-adv-x="1327" 
d="M1237 422q0 -90 -38 -171.5t-109 -145.5t-182.5 -102t-248.5 -38q-273 0 -432.5 132t-160.5 386h251q0 -161 94.5 -238t254.5 -77q145 0 230 67.5t85 190.5q0 116 -76 174.5t-217 58.5h-158v199h158q115 0 184.5 59.5t69.5 161.5q0 97 -70.5 156t-199.5 59
q-139 0 -216 -61.5t-89 -194.5h-244q4 115 49 204t120 144t172 83t210 28q148 0 263.5 -44t186 -137t70.5 -224q0 -110 -71.5 -197.5t-161.5 -110.5v-6q130 -33 203 -125.5t73 -230.5z" />
    <glyph glyph-name="afii10026" unicode="&#x418;" horiz-adv-x="1478" 
d="M150 0v1462h256v-1118l624 1118h297v-1462h-256v1118l-625 -1118h-296z" />
    <glyph glyph-name="afii10027" unicode="&#x419;" horiz-adv-x="1478" 
d="M150 0v1462h256v-1118l624 1118h297v-1462h-256v1118l-625 -1118h-296zM420 1894h119q31 -155 219 -155q80 0 135 39.5t72 115.5h116q-17 -143 -106 -215.5t-234 -72.5q-142 0 -225.5 74t-95.5 214z" />
    <glyph glyph-name="afii10028" unicode="&#x41a;" horiz-adv-x="1402" 
d="M156 0v1462h256v-665l651 665h315l-583 -583l624 -879h-319l-479 698l-209 -206v-492h-256z" />
    <glyph glyph-name="afii10029" unicode="&#x41b;" horiz-adv-x="1433" 
d="M1282 0h-256v1241h-463l-31 -784q-9 -234 -107.5 -363t-268.5 -129q-82 0 -148 27v198q59 -16 94 -16q61 0 96.5 25.5t56.5 95t26 194.5l36 973h965v-1462z" />
    <glyph glyph-name="afii10030" unicode="&#x41c;" horiz-adv-x="1820" 
d="M152 0v1462h360l403 -1145h5l393 1145h356v-1462h-244v1128h-4l-405 -1128h-211l-406 1128h-4v-1128h-243z" />
    <glyph glyph-name="afii10031" unicode="&#x41d;" horiz-adv-x="1478" 
d="M150 0v1462h256v-581h665v581h256v-1462h-256v659h-665v-659h-256z" />
    <glyph glyph-name="afii10032" unicode="&#x41e;" horiz-adv-x="1556" 
d="M778 1497q159 0 292.5 -61t222 -166t137.5 -244t49 -295q0 -211 -83 -384t-244.5 -277.5t-373.5 -104.5q-128 0 -240 39t-195.5 109.5t-143.5 166t-90.5 210.5t-30.5 241q0 156 49 295t137 244t221.5 166t292.5 61zM778 1288q-113 0 -200.5 -47t-139.5 -127t-78 -177
t-26 -206t26 -206t78 -177t139.5 -127t200.5 -47q91 0 166 31t126 84t86 124.5t51 151.5t16 166t-16 166t-51 151.5t-86 124.5t-126 84t-166 31z" />
    <glyph glyph-name="afii10033" unicode="&#x41f;" horiz-adv-x="1478" 
d="M1327 1462v-1462h-256v1241h-665v-1241h-256v1462h1177z" />
    <glyph glyph-name="afii10034" unicode="&#x420;" horiz-adv-x="1366" 
d="M156 0v1462h645q120 0 211.5 -30t144.5 -76t86 -109t44 -119.5t11 -117.5t-11 -117t-44 -119t-86 -108t-144.5 -75t-211.5 -30h-389v-561h-256zM412 1253v-483h374q46 0 89 12.5t81.5 39t62 75.5t23.5 115q0 70 -19.5 119t-56 74.5t-79 36.5t-96.5 11h-379z" />
    <glyph glyph-name="afii10035" unicode="&#x421;" horiz-adv-x="1478" 
d="M78 731q0 156 49 295t137 244t221.5 166t292.5 61q166 0 300.5 -58.5t219.5 -173t101 -268.5h-256q-74 291 -365 291q-113 0 -200.5 -47t-139.5 -127t-78 -177t-26 -206t26 -206t78 -177t139.5 -127t200.5 -47q164 0 259.5 106.5t113.5 276.5h250q-17 -264 -188 -428
t-435 -164q-128 0 -240 39t-195.5 109.5t-143.5 166t-90.5 210.5t-30.5 241z" />
    <glyph glyph-name="afii10036" unicode="&#x422;" horiz-adv-x="1214" 
d="M16 1241v221h1184v-221h-465v-1241h-256v1241h-463z" />
    <glyph glyph-name="afii10037" unicode="&#x423;" horiz-adv-x="1251" 
d="M496 416l-506 1046h282l355 -794l356 794h279l-568 -1165q-87 -181 -186.5 -256.5t-226.5 -75.5q-88 0 -172 37v215q75 -37 149 -37q62 0 110.5 39.5t106.5 155.5z" />
    <glyph glyph-name="afii10038" unicode="&#x424;" horiz-adv-x="1656" 
d="M956 1462v-145q128 -3 239.5 -39t199.5 -103t139 -176t51 -247q0 -135 -49.5 -244t-136.5 -180.5t-199 -112.5t-244 -51v-164h-256v164q-124 4 -234.5 40.5t-199.5 104t-141.5 177t-52.5 247.5q0 135 49.5 244t136 180t199 111.5t243.5 48.5v145h256zM956 1104v-725
q174 14 275.5 107.5t101.5 265.5q0 322 -377 352zM700 377v725q-173 -11 -274.5 -104t-101.5 -265q0 -169 98 -252.5t278 -103.5z" />
    <glyph glyph-name="afii10039" unicode="&#x425;" horiz-adv-x="1327" 
d="M512 758l-483 704h305l332 -516l346 516h286l-483 -704l518 -758h-311l-365 559l-370 -559h-293z" />
    <glyph glyph-name="afii10040" unicode="&#x426;" horiz-adv-x="1503" 
d="M1327 221h160v-583h-252v362h-1085v1462h256v-1241h665v1241h256v-1241z" />
    <glyph glyph-name="afii10041" unicode="&#x427;" horiz-adv-x="1404" 
d="M997 647q-233 -49 -403 -49q-131 0 -227.5 32t-153.5 91.5t-84 136t-27 172.5v432h256v-377q0 -134 68.5 -198t208.5 -64q166 0 362 43v596h256v-1462h-256v647z" />
    <glyph glyph-name="afii10042" unicode="&#x428;" horiz-adv-x="2191" 
d="M150 0v1462h256v-1241h561v1241h256v-1241h561v1241h256v-1462h-1890z" />
    <glyph glyph-name="afii10043" unicode="&#x429;" horiz-adv-x="2215" 
d="M150 0v1462h256v-1241h561v1241h256v-1241h561v1241h256v-1241h160v-583h-252v362h-1798z" />
    <glyph glyph-name="afii10044" unicode="&#x42a;" horiz-adv-x="1662" 
d="M1595 453q0 -216 -131.5 -334.5t-369.5 -118.5h-641v1241h-437v221h693v-561h385q240 0 370.5 -116.5t130.5 -331.5zM1339 446q0 115 -69.5 180.5t-190.5 65.5h-370v-481h374q256 0 256 235z" />
    <glyph glyph-name="afii10045" unicode="&#x42b;" horiz-adv-x="1832" 
d="M1423 0v1462h256v-1462h-256zM1251 453q0 -216 -131.5 -334.5t-369.5 -118.5h-600v1462h256v-561h344q240 0 370.5 -116.5t130.5 -331.5zM995 446q0 115 -69.5 180.5t-190.5 65.5h-329v-481h333q256 0 256 235z" />
    <glyph glyph-name="afii10046" unicode="&#x42c;" horiz-adv-x="1366" 
d="M1298 453q0 -216 -131.5 -334.5t-369.5 -118.5h-641v1462h256v-561h385q240 0 370.5 -116.5t130.5 -331.5zM1042 446q0 115 -69.5 180.5t-190.5 65.5h-370v-481h374q256 0 256 235z" />
    <glyph glyph-name="afii10047" unicode="&#x42d;" horiz-adv-x="1478" 
d="M504 649v207h635q-7 89 -34.5 165.5t-76 137t-123 95t-168.5 34.5q-152 0 -252.5 -68.5t-134.5 -193.5h-256q42 208 216 339.5t423 131.5q128 0 236.5 -38t187.5 -107t134 -164.5t82.5 -211.5t27.5 -247q0 -225 -89.5 -399.5t-247 -269.5t-355.5 -95q-259 0 -429.5 143
t-199.5 381h258q24 -142 119.5 -228.5t251.5 -86.5q105 0 188.5 40t135.5 107.5t80.5 151t31.5 176.5h-641z" />
    <glyph glyph-name="afii10048" unicode="&#x42e;" horiz-adv-x="2088" 
d="M1333 1497q153 0 281.5 -61t214.5 -166t134 -244t48 -295q0 -211 -81 -384t-237.5 -277.5t-359.5 -104.5q-148 0 -270.5 53t-206 146.5t-133.5 220t-61 274.5h-256v-659h-256v1462h256v-581h264q20 133 73.5 245t136 195t199 129.5t254.5 46.5zM1333 1288
q-109 0 -193 -47t-133 -127t-73.5 -177t-24.5 -206t24.5 -206t73.5 -177t133 -127t193 -47q88 0 159.5 31t119.5 84t81 125t47.5 151t14.5 166t-14.5 166t-47.5 151t-81 125t-119.5 84t-159.5 31z" />
    <glyph glyph-name="afii10049" unicode="&#x42f;" horiz-adv-x="1413" 
d="M1262 0h-256v602h-299l-414 -602h-311l450 625q-317 92 -317 399q0 190 127.5 314t357.5 124h662v-1462zM1006 797v456h-388q-123 0 -185 -61t-62 -166q0 -229 250 -229h385z" />
    <glyph glyph-name="afii10065" unicode="&#x430;" 
d="M1010 780v-544q0 -44 11.5 -62t43.5 -18q34 0 57 4v-162q-79 -27 -147 -27q-156 0 -180 129q-65 -64 -165.5 -96.5t-201.5 -32.5q-155 0 -258.5 81t-103.5 229q0 54 12.5 98.5t32 76t51 56.5t62.5 40t75.5 27t79.5 18.5t84 12.5l129 17q113 14 156 40.5t43 92.5
q0 143 -220 143q-102 0 -164 -42t-69 -126h-234q6 98 48 169t111.5 109.5t149 56t173.5 17.5q81 0 154 -17t135 -52t98.5 -96.5t36.5 -141.5zM776 356v174q-34 -21 -69 -30.5t-111 -18.5l-94 -12q-203 -27 -203 -168q0 -74 58.5 -109.5t142.5 -35.5q49 0 95.5 11t88 33.5
t67 62.5t25.5 93z" />
    <glyph glyph-name="afii10066" unicode="&#x431;" horiz-adv-x="1214" 
d="M1143 518q0 -247 -144.5 -397t-373.5 -150q-258 0 -398.5 164.5t-140.5 456.5q0 121 15.5 225.5t54 203.5t98.5 171.5t154.5 123.5t216.5 66l96 13q73 9 104.5 22.5t44.5 44.5h234q-14 -117 -96.5 -173t-225.5 -75l-131 -16q-151 -18 -237 -107t-125 -255h6
q134 206 387 206q203 0 332 -141t129 -383zM909 518q0 160 -76.5 250t-214.5 90q-130 0 -213 -94t-83 -254q0 -159 81 -256.5t218 -97.5q131 0 209.5 93.5t78.5 268.5z" />
    <glyph glyph-name="afii10067" unicode="&#x432;" 
d="M1067 319q0 -154 -101 -236.5t-288 -82.5h-555v1059h577q148 0 233 -70t85 -190q0 -85 -39.5 -139t-122.5 -85v-4q103 -26 157 -92t54 -160zM647 883h-291v-246h299q66 0 101 32t35 93q0 121 -144 121zM678 467h-322v-291h322q77 0 117.5 36.5t40.5 106.5t-41 109
t-117 39z" />
    <glyph glyph-name="afii10068" unicode="&#x433;" horiz-adv-x="872" 
d="M862 874h-506v-874h-233v1059h739v-185z" />
    <glyph glyph-name="afii10069" unicode="&#x434;" horiz-adv-x="1228" 
d="M1214 -336h-229v336h-741v-336h-230v520h125q63 146 94 294t31 339v242h809v-875h141v-520zM840 184v690h-348v-67q0 -313 -113 -623h461z" />
    <glyph glyph-name="afii10070" unicode="&#x435;" 
d="M1083 469h-778q0 -86 29.5 -155t95.5 -113.5t160 -44.5q102 0 164.5 43.5t93.5 132.5h221q-36 -169 -169 -265t-310 -96q-245 0 -381.5 152.5t-136.5 404.5q0 113 36 214.5t101 178t162.5 121.5t212.5 45q122 0 224 -52t166 -138t94 -198t15 -230zM305 623h545
q-8 117 -79.5 198.5t-186.5 81.5q-120 0 -197 -80t-82 -200z" />
    <glyph glyph-name="afii10072" unicode="&#x436;" horiz-adv-x="1595" 
d="M1616 0h-281l-319 457l-103 -111v-346h-233v338l-102 113l-324 -451h-274l454 592l-405 467h282l363 -443h6v443h233v-447h7l362 447h283l-396 -451z" />
    <glyph glyph-name="afii10073" unicode="&#x437;" horiz-adv-x="1062" 
d="M987 319q0 -108 -64.5 -188.5t-167.5 -120t-227 -39.5q-225 0 -343 95t-126 264h236q16 -178 240 -178q99 0 159 43.5t60 119.5q0 150 -207 150h-131v172h94q211 0 211 133q0 139 -193 139q-90 0 -141.5 -42.5t-60.5 -114.5h-236q8 89 48 155.5t103.5 105t140.5 56.5
t169 18q185 0 293 -78.5t108 -211.5q0 -79 -47 -135t-123 -84v-5q85 -17 145 -80.5t60 -173.5z" />
    <glyph glyph-name="afii10074" unicode="&#x438;" horiz-adv-x="1175" 
d="M418 0h-295v1059h233v-772h6l396 772h295v-1059h-234v772h-6z" />
    <glyph glyph-name="afii10075" unicode="&#x439;" horiz-adv-x="1175" 
d="M260 1497h119q31 -156 219 -156q80 0 135 40t72 116h117q-17 -143 -106.5 -216t-233.5 -73q-142 0 -226 74.5t-96 214.5zM418 0h-295v1059h233v-772h6l396 772h295v-1059h-234v772h-6z" />
    <glyph glyph-name="afii10076" unicode="&#x43a;" horiz-adv-x="1093" 
d="M123 0v1059h233v-455l422 455h287l-408 -416l447 -643h-285l-323 479l-140 -133v-346h-233z" />
    <glyph glyph-name="afii10077" unicode="&#x43b;" horiz-adv-x="1159" 
d="M1036 0h-233v874h-326l-14 -522q-6 -191 -96 -286t-217 -95q-71 0 -130 23v182q45 -10 76 -10q47 0 73.5 15.5t43.5 67t20 148.5l19 662h784v-1059z" />
    <glyph glyph-name="afii10078" unicode="&#x43c;" horiz-adv-x="1441" 
d="M344 0h-221v1059h301l301 -848h4l289 848h301v-1059h-221v737h-4l-258 -737h-228l-260 737h-4v-737z" />
    <glyph glyph-name="afii10079" unicode="&#x43d;" horiz-adv-x="1175" 
d="M356 0h-233v1059h233v-416h463v416h234v-1059h-234v459h-463v-459z" />
    <glyph glyph-name="afii10080" unicode="&#x43e;" horiz-adv-x="1214" 
d="M608 -29q-166 0 -288 72t-184 197.5t-62 289.5q0 247 143 402t391 155t391.5 -155t143.5 -402q0 -249 -143 -404t-392 -155zM608 156q61 0 111.5 21.5t85 57.5t58.5 84t35 101.5t11 109.5q0 71 -18 135.5t-53.5 118.5t-95 86.5t-134.5 32.5t-134.5 -32.5t-95 -86.5
t-53.5 -118.5t-18 -135.5q0 -56 11 -109.5t35 -101.5t58.5 -84t85 -57.5t111.5 -21.5z" />
    <glyph glyph-name="afii10081" unicode="&#x43f;" horiz-adv-x="1175" 
d="M356 0h-233v1059h930v-1059h-234v874h-463v-874z" />
    <glyph glyph-name="afii10082" unicode="&#x440;" horiz-adv-x="1251" 
d="M129 -391v1450h221v-144h4q47 88 133 130t195 42q122 0 218 -44t156 -121t91 -178.5t31 -219.5q0 -110 -28.5 -208t-83 -176t-143.5 -123.5t-202 -45.5q-109 0 -206 41.5t-148 124.5h-5v-528h-233zM944 528q0 98 -32 181.5t-100.5 138.5t-160.5 55q-145 0 -221 -100.5
t-76 -274.5q0 -164 79.5 -268t217.5 -104q62 0 112 21t83.5 56.5t55.5 84t32 101t10 109.5z" />
    <glyph glyph-name="afii10083" unicode="&#x441;" 
d="M1071 705h-233q-13 96 -77.5 147t-164.5 51q-40 0 -77 -9t-77.5 -35t-69.5 -67t-48 -111.5t-19 -162.5q0 -69 16 -131.5t48 -115t88 -84t129 -31.5q103 0 169 63t83 178h233q-32 -207 -156.5 -316.5t-328.5 -109.5q-162 0 -279.5 72.5t-176 195t-58.5 279.5
q0 121 33 223.5t97 180t164.5 121.5t227.5 44q195 0 327.5 -97.5t149.5 -284.5z" />
    <glyph glyph-name="afii10084" unicode="&#x442;" horiz-adv-x="950" 
d="M940 874h-348v-874h-234v874h-348v185h930v-185z" />
    <glyph glyph-name="afii10085" unicode="&#x443;" horiz-adv-x="1062" 
d="M408 4l-402 1055h256l277 -791h4l268 791h244l-412 -1116q-58 -145 -81 -188q-66 -120 -170 -156q-54 -19 -124 -19q-82 0 -162 12v197q91 -14 111 -14q74 0 107.5 35.5t56.5 111.5z" />
    <glyph glyph-name="afii10086" unicode="&#x444;" horiz-adv-x="1699" 
d="M1622 545q0 -114 -25.5 -214.5t-76 -182.5t-136 -129.5t-196.5 -47.5q-59 0 -117 24t-98 75h-6v-461h-234v461h-6q-104 -99 -240 -99q-85 0 -154.5 31.5t-116 85.5t-78.5 128t-46 156t-14 173q0 249 113 395.5t303 146.5q144 0 233 -108h6v483h234v-483h6
q102 108 244 108q189 0 297 -145.5t108 -396.5zM1389 541q0 176 -58 271t-174 95q-61 0 -115.5 -30t-74.5 -95v-514q9 -48 59 -82t121 -34q66 0 115 32t75.5 88.5t39 123t12.5 145.5zM733 268v514q-20 65 -74.5 95t-115.5 30q-116 0 -174 -95t-58 -271q0 -79 12.5 -145.5
t39 -123t75.5 -88.5t115 -32q71 0 121 34t59 82z" />
    <glyph glyph-name="afii10087" unicode="&#x445;" horiz-adv-x="1099" 
d="M8 0l400 557l-367 502h283l221 -326l231 326h271l-361 -490l406 -569h-281l-268 391l-260 -391h-275z" />
    <glyph glyph-name="afii10088" unicode="&#x446;" horiz-adv-x="1208" 
d="M1053 184h141v-520h-229v336h-842v1059h233v-875h463v875h234v-875z" />
    <glyph glyph-name="afii10089" unicode="&#x447;" horiz-adv-x="1105" 
d="M983 1059v-1059h-233v434q-199 -39 -316 -39q-171 0 -266.5 85t-95.5 259v320h233v-279q0 -99 40.5 -144.5t129.5 -45.5q106 0 275 33v436h233z" />
    <glyph glyph-name="afii10090" unicode="&#x448;" horiz-adv-x="1667" 
d="M123 0v1059h233v-875h361v875h233v-875h361v875h233v-1059h-1421z" />
    <glyph glyph-name="afii10091" unicode="&#x449;" horiz-adv-x="1699" 
d="M123 0v1059h233v-875h361v875h233v-875h361v875h233v-875h142v-520h-230v336h-1333z" />
    <glyph glyph-name="afii10092" unicode="&#x44a;" horiz-adv-x="1290" 
d="M1225 344q0 -162 -98.5 -253t-278.5 -91h-539v874h-299v185h533v-385h297q186 0 285.5 -86.5t99.5 -243.5zM991 340q0 73 -44.5 112.5t-129.5 39.5h-274v-310h278q86 0 128 41.5t42 116.5z" />
    <glyph glyph-name="afii10093" unicode="&#x44b;" horiz-adv-x="1488" 
d="M1133 0v1059h233v-1059h-233zM997 344q0 -162 -98 -253t-278 -91h-498v1059h233v-385h256q186 0 285.5 -86.5t99.5 -243.5zM764 340q0 73 -44.5 112.5t-129.5 39.5h-234v-310h238q86 0 128 41.5t42 116.5z" />
    <glyph glyph-name="afii10094" unicode="&#x44c;" horiz-adv-x="1103" 
d="M1038 344q0 -162 -98 -253t-278 -91h-539v1059h233v-385h297q186 0 285.5 -86.5t99.5 -243.5zM805 340q0 73 -44.5 112.5t-129.5 39.5h-275v-310h279q86 0 128 41.5t42 116.5z" />
    <glyph glyph-name="afii10095" unicode="&#x44d;" 
d="M1067 537q0 -159 -63 -287t-182.5 -203.5t-274.5 -75.5q-199 0 -326.5 104t-152.5 283h231q15 -97 81 -149.5t167 -52.5q121 0 196.5 81.5t85.5 225.5h-397v166h395q-11 129 -82 201.5t-188 72.5q-89 0 -154.5 -44.5t-95.5 -129.5h-233q41 165 168.5 261.5t318.5 96.5
q237 0 371.5 -148t134.5 -402z" />
    <glyph glyph-name="afii10096" unicode="&#x44e;" horiz-adv-x="1654" 
d="M1065 -29q-225 0 -362 134.5t-156 357.5h-191v-463h-233v1059h233v-420h197q30 203 164.5 325.5t347.5 122.5q241 0 379.5 -155t138.5 -402q0 -250 -138.5 -404.5t-379.5 -154.5zM1065 152q136 0 210.5 107.5t74.5 270.5q0 161 -74.5 269t-210.5 108q-138 0 -213.5 -108
t-75.5 -269q0 -105 32 -189t98.5 -136.5t158.5 -52.5z" />
    <glyph glyph-name="afii10097" unicode="&#x44f;" horiz-adv-x="1126" 
d="M1004 0h-234v426h-203l-315 -426h-264l340 446q-119 34 -174.5 110.5t-55.5 182.5q0 141 101.5 230.5t273.5 89.5h531v-1059zM770 596v285h-278q-79 0 -121.5 -37t-42.5 -105q0 -70 42 -106.5t119 -36.5h281z" />
    <glyph glyph-name="uni0450" unicode="&#x450;" 
d="M240 1499h274l186 -293h-170zM1083 469h-778q0 -86 29.5 -155t95.5 -113.5t160 -44.5q102 0 164.5 43.5t93.5 132.5h221q-36 -169 -169 -265t-310 -96q-245 0 -381.5 152.5t-136.5 404.5q0 113 36 214.5t101 178t162.5 121.5t212.5 45q122 0 224 -52t166 -138t94 -198
t15 -230zM305 623h545q-8 117 -79.5 198.5t-186.5 81.5q-120 0 -197 -80t-82 -200z" />
    <glyph glyph-name="afii10071" unicode="&#x451;" 
d="M1083 469h-778q0 -86 29.5 -155t95.5 -113.5t160 -44.5q102 0 164.5 43.5t93.5 132.5h221q-36 -169 -169 -265t-310 -96q-245 0 -381.5 152.5t-136.5 404.5q0 113 36 214.5t101 178t162.5 121.5t212.5 45q122 0 224 -52t166 -138t94 -198t15 -230zM305 623h545
q-8 117 -79.5 198.5t-186.5 81.5q-120 0 -197 -80t-82 -200zM651 1454h234v-221h-234v221zM532 1233h-233v221h233v-221z" />
    <glyph glyph-name="afii10099" unicode="&#x452;" horiz-adv-x="1175" 
d="M819 250v385q0 124 -51 183t-156 59q-114 0 -185 -81.5t-71 -201.5v-594h-233v1169h-164v168h164v125h233v-125h346v-168h-346v-280h4q44 74 130 121t188 47q177 0 276 -92t99 -269v-444q0 -280 -164.5 -456.5t-437.5 -186.5v203q180 15 274 127t94 311z" />
    <glyph glyph-name="afii10100" unicode="&#x453;" horiz-adv-x="872" 
d="M862 874h-506v-874h-233v1059h739v-185zM336 1206l184 293h277l-291 -293h-170z" />
    <glyph glyph-name="afii10101" unicode="&#x454;" 
d="M1071 360q-38 -185 -164.5 -287t-314.5 -102q-241 0 -380.5 148t-139.5 399q0 258 146.5 413.5t379.5 155.5q195 0 320 -94t153 -262h-233q-44 172 -238 172q-126 0 -205.5 -72.5t-89.5 -201.5h412v-166h-414q6 -149 82 -228t207 -79q95 0 159 53t89 151h231z" />
    <glyph glyph-name="afii10102" unicode="&#x455;" horiz-adv-x="1062" 
d="M66 340h233q19 -184 240 -184q40 0 76.5 5t76 18.5t62 43t20.5 72.5q-1 26 -11 46.5t-31.5 36t-42 26t-57 20.5t-61.5 16t-71.5 15.5t-71.5 15.5q-59 13 -102.5 26.5t-91 38t-77.5 56t-49.5 81t-19.5 111.5q0 67 27.5 120t72 86.5t104 56t118.5 31.5t120 9
q85 0 157.5 -18t134.5 -55t101.5 -101.5t49.5 -150.5h-244q-16 79 -72 110t-143 31q-30 0 -59.5 -4.5t-61.5 -15t-51.5 -33.5t-19.5 -55q0 -19 5.5 -35t18.5 -29t26.5 -23t36.5 -19t42 -15.5t50 -13.5t52 -11.5t56.5 -11.5t56.5 -12q59 -13 102 -27t91 -39t78.5 -56
t50.5 -79.5t20 -108.5q0 -90 -42.5 -159t-113 -108t-150.5 -58t-167 -19q-209 0 -337 94t-132 275z" />
    <glyph glyph-name="afii10103" unicode="&#x456;" horiz-adv-x="493" 
d="M129 1241v221h233v-221h-233zM129 0v1059h233v-1059h-233z" />
    <glyph glyph-name="afii10104" unicode="&#x457;" horiz-adv-x="493" 
d="M362 0h-233v1059h233v-1059zM307 1454h234v-221h-234v221zM188 1233h-233v221h233v-221z" />
    <glyph glyph-name="afii10105" unicode="&#x458;" horiz-adv-x="493" 
d="M129 1241v221h233v-221h-233zM129 -80v1139h233v-1149q0 -164 -71.5 -247t-231.5 -83q-63 0 -104 8v185q46 -9 80 -9q59 0 76.5 35t17.5 121z" />
    <glyph glyph-name="afii10106" unicode="&#x459;" horiz-adv-x="1716" 
d="M791 0v874h-314l-14 -522q-6 -191 -96 -286t-217 -95q-71 0 -130 23v182q45 -10 76 -10q47 0 73.5 15.5t43.5 67t20 148.5l19 662h772v-397h242q185 0 285 -86t100 -238q0 -158 -98.5 -248t-278.5 -90h-483zM1417 334q0 69 -44.5 107t-129.5 38h-219v-297h223
q86 0 128 40.5t42 111.5z" />
    <glyph glyph-name="afii10107" unicode="&#x45a;" horiz-adv-x="1699" 
d="M356 0h-233v1059h233v-397h398v397h233v-397h262q185 0 285 -86t100 -238q0 -158 -98.5 -248t-278.5 -90h-503v479h-398v-479zM1401 334q0 69 -44.5 107t-129.5 38h-240v-297h244q86 0 128 40.5t42 111.5z" />
    <glyph glyph-name="afii10108" unicode="&#x45b;" horiz-adv-x="1175" 
d="M123 0v1169h-164v168h164v125h233v-125h346v-168h-346v-280h4q44 74 130 121t188 47q177 0 276 -92t99 -269v-696h-234v635q0 124 -51 183t-156 59q-114 0 -185 -81.5t-71 -201.5v-594h-233z" />
    <glyph glyph-name="afii10109" unicode="&#x45c;" horiz-adv-x="1093" 
d="M123 0v1059h233v-455l422 455h287l-408 -416l447 -643h-285l-323 479l-140 -133v-346h-233zM416 1206l184 293h277l-291 -293h-170z" />
    <glyph glyph-name="uni045D" unicode="&#x45d;" horiz-adv-x="1175" 
d="M418 0h-295v1059h233v-772h6l396 772h295v-1059h-234v772h-6zM238 1499h274l186 -293h-170z" />
    <glyph glyph-name="afii10110" unicode="&#x45e;" horiz-adv-x="1062" 
d="M217 1497h119q31 -156 219 -156q80 0 135 40t72 116h117q-17 -143 -106.5 -216t-233.5 -73q-142 0 -226 74.5t-96 214.5zM408 4l-402 1055h256l277 -791h4l268 791h244l-412 -1116q-58 -145 -81 -188q-66 -120 -170 -156q-54 -19 -124 -19q-82 0 -162 12v197
q91 -14 111 -14q74 0 107.5 35.5t56.5 111.5z" />
    <glyph glyph-name="afii10193" unicode="&#x45f;" horiz-adv-x="1175" 
d="M819 184v875h234v-1059h-351v-336h-233v336h-346v1059h233v-875h463z" />
    <glyph glyph-name="afii10146" unicode="&#x462;" horiz-adv-x="1540" 
d="M586 1298h401v-204h-401v-209h385q239 0 370.5 -115t131.5 -326q0 -212 -132 -328t-370 -116h-641v1094h-314v204h314v164h256v-164zM1217 438q0 110 -70.5 174t-190.5 64h-370v-465h375q256 0 256 227z" />
    <glyph glyph-name="afii10194" unicode="&#x463;" horiz-adv-x="1257" 
d="M928 1059v-185h-418v-200h297q186 0 285.5 -86.5t99.5 -243.5q0 -162 -98.5 -253t-278.5 -91h-539v874h-266v185h266v403h234v-403h418zM958 340q0 73 -44.5 112.5t-129.5 39.5h-274v-310h278q86 0 128 41.5t42 116.5z" />
    <glyph glyph-name="afii10147" unicode="&#x472;" horiz-adv-x="1556" 
d="M778 1497q159 0 292.5 -61t222 -166t137.5 -244t49 -295q0 -211 -83 -384t-244.5 -277.5t-373.5 -104.5q-128 0 -240 39t-195.5 109.5t-143.5 166t-90.5 210.5t-30.5 241q0 156 49 295t137 244t221.5 166t292.5 61zM778 1288q-99 0 -177.5 -31.5t-131 -89.5t-85.5 -132.5
t-46 -166.5h881q-30 190 -140 305t-301 115zM778 174q106 0 189 37t136.5 103.5t83.5 152t38 188.5h-895q8 -103 38 -188.5t83 -152t136.5 -103.5t190.5 -37z" />
    <glyph glyph-name="afii10195" unicode="&#x473;" horiz-adv-x="1214" 
d="M608 -29q-166 0 -288 72t-184 197.5t-62 289.5q0 247 143 402t391 155t391.5 -155t143.5 -402q0 -249 -143 -404t-392 -155zM608 903q-132 0 -206.5 -75t-92.5 -205h598q-20 130 -93.5 205t-205.5 75zM608 156q140 0 215 84.5t88 228.5h-606q13 -145 87.5 -229t215.5 -84
z" />
    <glyph glyph-name="afii10148" unicode="&#x474;" horiz-adv-x="1294" 
d="M1139 1182l-377 -1182h-285l-487 1462h266l367 -1157h4l282 948q39 133 111.5 188.5t179.5 55.5q65 0 117 -16v-205q-43 12 -74 12q-69 0 -104 -106z" />
    <glyph glyph-name="afii10196" unicode="&#x475;" horiz-adv-x="1087" 
d="M928 809l-262 -809h-263l-385 1059h254l269 -813h4l184 626q34 117 99 166t165 49q56 0 105 -16v-178q-42 10 -70 10q-70 0 -100 -94z" />
    <glyph glyph-name="afii10050" unicode="&#x490;" horiz-adv-x="1181" 
d="M1145 1780v-539h-733v-1241h-256v1462h737v318h252z" />
    <glyph glyph-name="afii10098" unicode="&#x491;" horiz-adv-x="872" 
d="M858 1372v-498h-502v-874h-233v1059h506v313h229z" />
    <glyph glyph-name="Wgrave" unicode="&#x1e80;" horiz-adv-x="1933" 
d="M397 0l-385 1462h260l265 -1118h4l295 1118h262l286 -1118h5l272 1118h260l-403 -1462h-261l-292 1118h-4l-299 -1118h-265zM635 1896h274l187 -292h-170z" />
    <glyph glyph-name="wgrave" unicode="&#x1e81;" horiz-adv-x="1593" 
d="M354 0l-327 1059h247l207 -791h4l199 791h236l190 -791h4l215 791h238l-332 -1059h-240l-196 786h-4l-195 -786h-246zM465 1499h274l187 -293h-170z" />
    <glyph glyph-name="Wacute" unicode="&#x1e82;" horiz-adv-x="1933" 
d="M397 0l-385 1462h260l265 -1118h4l295 1118h262l286 -1118h5l272 1118h260l-403 -1462h-261l-292 1118h-4l-299 -1118h-265zM838 1604l184 292h276l-290 -292h-170z" />
    <glyph glyph-name="wacute" unicode="&#x1e83;" horiz-adv-x="1593" 
d="M354 0l-327 1059h247l207 -791h4l199 791h236l190 -791h4l215 791h238l-332 -1059h-240l-196 786h-4l-195 -786h-246zM688 1206l184 293h277l-291 -293h-170z" />
    <glyph glyph-name="Wdieresis" unicode="&#x1e84;" horiz-adv-x="1933" 
d="M397 0l-385 1462h260l265 -1118h4l295 1118h262l286 -1118h5l272 1118h260l-403 -1462h-261l-292 1118h-4l-299 -1118h-265zM1026 1851h234v-221h-234v221zM907 1630h-233v221h233v-221z" />
    <glyph glyph-name="wdieresis" unicode="&#x1e85;" horiz-adv-x="1593" 
d="M354 0l-327 1059h247l207 -791h4l199 791h236l190 -791h4l215 791h238l-332 -1059h-240l-196 786h-4l-195 -786h-246zM866 1454h234v-221h-234v221zM748 1233h-234v221h234v-221z" />
    <glyph glyph-name="Ygrave" unicode="&#x1ef2;" horiz-adv-x="1327" 
d="M537 0v573l-549 889h297l387 -655l381 655h286l-546 -889v-573h-256zM313 1896h275l186 -292h-170z" />
    <glyph glyph-name="ygrave" unicode="&#x1ef3;" horiz-adv-x="1062" 
d="M408 4l-402 1055h256l277 -791h4l268 791h244l-412 -1116q-58 -145 -81 -188q-66 -120 -170 -156q-54 -19 -124 -19q-82 0 -162 12v197q91 -14 111 -14q74 0 107.5 35.5t56.5 111.5zM193 1499h274l186 -293h-170z" />
    <glyph glyph-name="uni2010" unicode="&#x2010;" horiz-adv-x="796" 
d="M100 446v222h596v-222h-596z" />
    <glyph glyph-name="endash" unicode="&#x2013;" horiz-adv-x="1024" 
d="M0 446v222h1024v-222h-1024z" />
    <glyph glyph-name="emdash" unicode="&#x2014;" horiz-adv-x="2048" 
d="M266 446v222h1516v-222h-1516z" />
    <glyph glyph-name="afii00208" unicode="&#x2015;" horiz-adv-x="2048" 
d="M143 446v222h1762v-222h-1762z" />
    <glyph glyph-name="quoteleft" unicode="&#x2018;" horiz-adv-x="569" 
d="M414 1462v-119q-125 -47 -125 -182h125v-276h-256v276q0 111 72 188.5t184 112.5z" />
    <glyph glyph-name="quoteright" unicode="&#x2019;" horiz-adv-x="569" 
d="M158 885v119q125 18 125 182h-125v276h256v-276q0 -119 -69 -201.5t-187 -99.5z" />
    <glyph glyph-name="quotesinglbase" unicode="&#x201a;" horiz-adv-x="569" 
d="M158 -301v119q125 46 125 182h-125v276h256v-276q0 -111 -73 -191.5t-183 -109.5z" />
    <glyph glyph-name="quotedblleft" unicode="&#x201c;" horiz-adv-x="909" 
d="M786 1462v-119q-124 -47 -124 -182h124v-276h-256v276q0 111 72 188.5t184 112.5zM379 1462v-119q-125 -47 -125 -182h125v-276h-256v276q0 111 72 188.5t184 112.5z" />
    <glyph glyph-name="quotedblright" unicode="&#x201d;" horiz-adv-x="909" 
d="M530 885v119q125 46 125 182h-125v276h256v-276q0 -111 -73 -191.5t-183 -109.5zM123 885v119q125 46 125 182h-125v276h256v-276q0 -111 -73 -191.5t-183 -109.5z" />
    <glyph glyph-name="quotedblbase" unicode="&#x201e;" horiz-adv-x="909" 
d="M530 -301v119q125 46 125 182h-125v276h256v-276q0 -111 -73 -191.5t-183 -109.5zM123 -301v119q125 46 125 182h-125v276h256v-276q0 -111 -73 -191.5t-183 -109.5z" />
    <glyph glyph-name="dagger" unicode="&#x2020;" 
d="M453 -328v1192h-392v195h392v403h233v-403h391v-195h-391v-1192h-233z" />
    <glyph glyph-name="daggerdbl" unicode="&#x2021;" 
d="M453 -328v404h-392v194h392v594h-392v195h392v403h233v-403h391v-195h-391v-594h391v-194h-391v-404h-233z" />
    <glyph glyph-name="bullet" unicode="&#x2022;" horiz-adv-x="1024" 
d="M147 731q0 152 106.5 258.5t258.5 106.5t259.5 -106.5t107.5 -258.5t-107.5 -259t-259.5 -107t-258.5 107t-106.5 259z" />
    <glyph glyph-name="ellipsis" unicode="&#x2026;" horiz-adv-x="2048" 
d="M1563 0v276h284v-276h-284zM881 0v276h284v-276h-284zM199 0v276h284v-276h-284z" />
    <glyph glyph-name="perthousand" unicode="&#x2030;" horiz-adv-x="2351" 
d="M338 -49l815 1532h150l-820 -1532h-145zM473 1462q151 0 228 -103.5t77 -262.5q0 -62 -16 -119t-50 -107t-95.5 -80t-143.5 -30t-143.5 30t-95.5 80t-50 107t-16 119q0 159 77 262.5t228 103.5zM473 1339q-131 0 -131 -249q0 -207 131 -207t131 207q0 249 -131 249z
M1878 -29q-82 0 -143.5 31t-95.5 82.5t-50 109.5t-16 121q0 102 31 181t101 128.5t173 49.5t173 -49.5t101 -128.5t31 -181q0 -63 -16 -121t-50 -109.5t-95.5 -82.5t-143.5 -31zM1180 -29q-146 0 -226 97t-80 247q0 101 31 180t102 129t173 50q77 0 137 -28.5t96 -78.5
t54 -113.5t18 -138.5q0 -150 -79.5 -247t-225.5 -97zM1878 94q131 0 131 215q0 242 -131 242t-131 -242q0 -215 131 -215zM1180 94q131 0 131 215q0 242 -131 242t-131 -242q0 -215 131 -215z" />
    <glyph glyph-name="guilsinglleft" unicode="&#x2039;" horiz-adv-x="530" 
d="M420 190l-318 252v230l318 252v-211l-195 -156l195 -156v-211z" />
    <glyph glyph-name="guilsinglright" unicode="&#x203a;" horiz-adv-x="530" 
d="M111 924l317 -252v-230l-317 -252v211l194 156l-194 156v211z" />
    <glyph glyph-name="interrobang" unicode="&#x203d;" 
d="M428 1040v119q-102 -45 -117 -203h-215q0 150 86 247.5t242 131.5v127h240v-112q177 -17 275.5 -111.5t98.5 -237.5q0 -71 -25.5 -131t-61 -98.5t-93.5 -85.5q-50 -39 -73.5 -59.5t-51.5 -49.5t-39 -52.5t-18.5 -55.5t-7.5 -72h-174zM793 993q0 67 -33.5 115t-100.5 66
v-134l-34 -303q102 75 135 126.5t33 129.5zM430 0v256h275v-256h-275z" />
    <glyph glyph-name="fraction" unicode="&#x2044;" horiz-adv-x="342" 
d="M-338 -49l858 1532h160l-856 -1532h-162z" />
    <glyph glyph-name="zero.superior" unicode="&#x2070;" horiz-adv-x="798" 
d="M399 795q-73 0 -131 23.5t-103.5 74.5t-70 139.5t-24.5 210.5q0 123 25.5 213.5t72 142t103.5 75.5t128 24q73 0 130.5 -23.5t103.5 -74t71 -139t25 -210.5q0 -123 -26 -214t-72 -142.5t-104 -75.5t-128 -24zM399 1554q-83 0 -117 -71t-34 -240q0 -147 34.5 -226
t116.5 -79q83 0 117.5 72t34.5 241q0 146 -35 224.5t-117 78.5z" />
    <glyph glyph-name="four.superior" unicode="&#x2074;" horiz-adv-x="798" 
d="M449 813v188h-396v156l406 522h159v-538h119v-140h-119v-188h-169zM449 1141v325l-254 -325h254z" />
    <glyph glyph-name="five.superior" unicode="&#x2075;" horiz-adv-x="798" 
d="M676 1679v-139h-377l-33 -205q72 60 178 60q127 0 200 -80t73 -205q0 -134 -94 -224.5t-238 -90.5q-131 0 -218 69.5t-93 186.5h164q8 -52 47.5 -82.5t101.5 -30.5q76 0 121 44.5t45 123.5q0 80 -43 125t-113 45q-95 0 -141 -78h-160l76 481h504z" />
    <glyph glyph-name="six.superior" unicode="&#x2076;" horiz-adv-x="798" 
d="M711 1479h-164q-22 88 -121 88q-63 0 -104.5 -38.5t-59.5 -96t-20 -132.5q81 91 213 91q124 0 197 -76t73 -203q0 -140 -85.5 -228.5t-223.5 -88.5q-175 0 -257.5 116t-82.5 312q0 78 12 146.5t39.5 129.5t68 104.5t100.5 69t134 25.5q249 0 281 -219zM410 1270
q-75 0 -117.5 -47.5t-42.5 -120.5t43 -123.5t115 -50.5q71 0 113 44.5t42 127.5q0 71 -40.5 120.5t-112.5 49.5z" />
    <glyph glyph-name="seven.superior" unicode="&#x2077;" horiz-adv-x="798" 
d="M700 1679v-135q-131 -117 -210 -328.5t-82 -402.5h-187q15 195 91.5 379.5t203.5 339.5h-420v147h604z" />
    <glyph glyph-name="eight.superior" unicode="&#x2078;" horiz-adv-x="798" 
d="M109 1458q0 106 81 173t209 67q139 0 215 -65.5t76 -166.5q0 -64 -35 -112.5t-98 -71.5q82 -25 126 -81.5t44 -139.5q0 -124 -96.5 -195t-229.5 -71q-141 0 -235 68t-94 196q0 81 46.5 138t123.5 79q-63 23 -98 70.5t-35 111.5zM260 1450q0 -57 39 -88t100 -31
q63 0 100.5 31t37.5 88t-37 90t-101 33q-66 0 -102.5 -33t-36.5 -90zM233 1069q0 -69 46 -107t122 -38q74 0 118 38.5t44 106.5q0 67 -46 107.5t-118 40.5q-75 0 -120.5 -39.5t-45.5 -108.5z" />
    <glyph glyph-name="nine.superior" unicode="&#x2079;" horiz-adv-x="798" 
d="M88 1014h164q7 -43 39.5 -65.5t83.5 -22.5q62 0 104 39t59 96.5t19 132.5q-79 -88 -213 -88q-124 0 -197 74t-73 200q0 140 86.5 229t222.5 89q90 0 156.5 -32t106 -90t58.5 -134t19 -170q0 -78 -11.5 -146.5t-38.5 -130t-67 -105.5t-100.5 -69.5t-136.5 -25.5
q-120 0 -193 53.5t-88 165.5zM389 1227q76 0 118 45t42 119t-42.5 123t-115.5 49q-71 0 -113 -43.5t-42 -126.5q0 -72 40.5 -119t112.5 -47z" />
    <glyph glyph-name="plus.superior" unicode="&#x207a;" horiz-adv-x="819" 
d="M483 1452v-250h246v-139h-246v-250h-147v250h-246v139h246v250h147z" />
    <glyph glyph-name="minus.superior" unicode="&#x207b;" horiz-adv-x="552" 
d="M86 1073v154h381v-154h-381z" />
    <glyph glyph-name="equal.superior" unicode="&#x207c;" horiz-adv-x="819" 
d="M729 1331v-135h-639v135h639zM729 1061v-135h-639v135h639z" />
    <glyph glyph-name="parenleft.superior" unicode="&#x207d;" horiz-adv-x="460" 
d="M258 1794h150q-138 -253 -138 -567q0 -300 138 -576h-150q-168 260 -168 563q0 146 43.5 302.5t124.5 277.5z" />
    <glyph glyph-name="parenright.superior" unicode="&#x207e;" horiz-adv-x="460" 
d="M203 651h-150q137 251 137 568q0 301 -137 575h150q168 -260 168 -563q0 -146 -43.5 -302.5t-124.5 -277.5z" />
    <glyph glyph-name="n.superior" unicode="&#x207f;" horiz-adv-x="798" 
d="M92 813v653h170v-98q36 60 93 88.5t120 28.5q124 0 178 -66t54 -194v-412h-179v389q0 141 -116 141q-64 0 -103 -41.5t-39 -113.5v-375h-178z" />
    <glyph glyph-name="zero.inferior" unicode="&#x2080;" horiz-adv-x="798" 
d="M399 -365q-152 0 -240.5 106t-88.5 343q0 123 25.5 213.5t72 142t103.5 75.5t128 24q73 0 130.5 -23.5t103.5 -74t71 -139t25 -210.5q0 -123 -26 -214t-72 -142.5t-104 -76t-128 -24.5zM399 395q-83 0 -117 -71t-34 -240q0 -147 34.5 -226t116.5 -79q83 0 117.5 72
t34.5 241q0 146 -35 224.5t-117 78.5z" />
    <glyph glyph-name="one.inferior" unicode="&#x2081;" horiz-adv-x="798" 
d="M119 258v119q110 0 186.5 35t95.5 108h144v-866h-178v604h-248z" />
    <glyph glyph-name="two.inferior" unicode="&#x2082;" horiz-adv-x="798" 
d="M723 -203v-143h-653q1 130 49 212.5t153 145.5l150 92q129 78 129 175q0 52 -34.5 84t-96.5 32q-43 0 -74 -14t-47.5 -39.5t-24.5 -53t-10 -63.5h-178q0 140 89 227t247 87q144 0 225.5 -69t81.5 -191q0 -89 -53.5 -156t-151.5 -125l-141 -86q-92 -57 -107 -115h447z" />
    <glyph glyph-name="three.inferior" unicode="&#x2083;" horiz-adv-x="798" 
d="M328 55v123h49q71 0 114.5 28.5t43.5 82.5q0 51 -36 80.5t-106 29.5q-71 0 -110 -40.5t-39 -110.5h-164q6 137 91 214t230 77q132 0 214.5 -62t82.5 -170q0 -121 -131 -176q166 -52 166 -221q0 -120 -97 -197.5t-239 -77.5q-162 0 -249 78.5t-87 206.5h164
q10 -141 172 -141q79 0 125.5 37t46.5 102q0 137 -188 137h-53z" />
    <glyph glyph-name="four.inferior" unicode="&#x2084;" horiz-adv-x="798" 
d="M449 -346v188h-396v156l406 522h159v-538h119v-140h-119v-188h-169zM449 -18v325l-254 -325h254z" />
    <glyph glyph-name="five.inferior" unicode="&#x2085;" horiz-adv-x="798" 
d="M676 520v-139h-377l-33 -205q72 60 178 60q127 0 200 -80t73 -205q0 -135 -94 -225.5t-238 -90.5q-131 0 -218 69.5t-93 186.5h164q8 -52 47.5 -82t101.5 -30q76 0 121 44.5t45 123.5q0 80 -43 125t-113 45q-95 0 -141 -78h-160l76 481h504z" />
    <glyph glyph-name="six.inferior" unicode="&#x2086;" horiz-adv-x="798" 
d="M711 319h-164q-22 89 -121 89q-63 0 -104.5 -38.5t-59.5 -96t-20 -132.5q81 90 213 90q124 0 197 -75.5t73 -202.5q0 -140 -86 -229t-223 -89q-175 0 -257.5 116t-82.5 312q0 98 20 181.5t61 150.5t111 105.5t162 38.5q249 0 281 -220zM410 111q-75 0 -117.5 -47.5
t-42.5 -120.5t43 -123.5t115 -50.5q71 0 113 44.5t42 127.5q0 71 -40.5 120.5t-112.5 49.5z" />
    <glyph glyph-name="seven.inferior" unicode="&#x2087;" horiz-adv-x="798" 
d="M700 520v-135q-131 -117 -210 -328.5t-82 -402.5h-187q15 195 91.5 379.5t203.5 339.5h-420v147h604z" />
    <glyph glyph-name="eight.inferior" unicode="&#x2088;" horiz-adv-x="798" 
d="M109 299q0 106 81 173t209 67q139 0 215 -65.5t76 -166.5q0 -64 -35 -112.5t-98 -71.5q82 -25 126 -81.5t44 -139.5q0 -124 -96.5 -195.5t-229.5 -71.5q-141 0 -235 68.5t-94 196.5q0 81 46.5 138t123.5 79q-63 23 -98 70.5t-35 111.5zM260 291q0 -57 39 -88t100 -31
q63 0 100.5 31t37.5 88t-37 90t-101 33q-66 0 -102.5 -33t-36.5 -90zM233 -90q0 -69 46.5 -107.5t121.5 -38.5q74 0 118 39t44 107q0 66 -46 106.5t-118 40.5q-75 0 -120.5 -39t-45.5 -108z" />
    <glyph glyph-name="nine.inferior" unicode="&#x2089;" horiz-adv-x="798" 
d="M88 -145h164q7 -43 39.5 -65.5t83.5 -22.5q62 0 104 39t59 96.5t19 132.5q-79 -88 -213 -88q-124 0 -197 74t-73 200q0 140 86.5 229t222.5 89q90 0 156.5 -32t106 -90t58.5 -134t19 -170q0 -78 -11.5 -146.5t-38.5 -130.5t-67 -106t-100.5 -69.5t-136.5 -25.5
q-120 0 -193 54t-88 166zM389 68q76 0 118 44.5t42 118.5t-42.5 123t-115.5 49q-71 0 -113 -43.5t-42 -126.5q0 -72 40.5 -118.5t112.5 -46.5z" />
    <glyph glyph-name="plus.inferior" unicode="&#x208a;" horiz-adv-x="819" 
d="M483 293v-250h246v-139h-246v-250h-147v250h-246v139h246v250h147z" />
    <glyph glyph-name="minus.inferior" unicode="&#x208b;" horiz-adv-x="552" 
d="M86 -86v154h381v-154h-381z" />
    <glyph glyph-name="equal.inferior" unicode="&#x208c;" horiz-adv-x="819" 
d="M729 172v-135h-639v135h639zM729 -98v-135h-639v135h639z" />
    <glyph glyph-name="parenleft.inferior" unicode="&#x208d;" horiz-adv-x="460" 
d="M258 635h150q-138 -253 -138 -567q0 -300 138 -576h-150q-168 260 -168 563q0 146 43.5 302.5t124.5 277.5z" />
    <glyph glyph-name="parenright.inferior" unicode="&#x208e;" horiz-adv-x="460" 
d="M203 -508h-150q137 251 137 567q0 302 -137 576h150q168 -260 168 -563q0 -146 -43.5 -302.5t-124.5 -277.5z" />
    <glyph glyph-name="Euro" unicode="&#x20ac;" 
d="M1161 1335l-94 -186q-131 131 -287 131q-137 0 -229 -109q-78 -97 -105 -239h541l-53 -131h-502q-2 -6 -2 -29v-47q0 -57 2 -63h473l-51 -130h-412q24 -163 105 -260q91 -116 250 -116q107 0 170 32q58 28 139 103v-228q-140 -90 -309 -90q-276 0 -428 168
q-131 143 -166 391h-158l55 130h93q-5 45 -5 65q0 8 1 19t2 27.5t2 27.5h-148l53 131h109q52 236 186 373q157 157 404 157q175 0 364 -127z" />
    <glyph glyph-name="afii61248" unicode="&#x2105;" horiz-adv-x="1708" 
d="M346 -49l858 1532h160l-856 -1532h-162zM715 1186h-176q-9 69 -41 101t-88 32q-87 0 -122.5 -74.5t-35.5 -238.5q0 -157 38 -230.5t120 -73.5q122 0 135 154h172q-15 -138 -96.5 -217.5t-212.5 -79.5q-162 0 -249 112t-87 333q0 231 88.5 344.5t253.5 113.5
q133 0 213.5 -70t87.5 -206zM1307 -29q-58 0 -106.5 14.5t-90.5 47.5t-71 84.5t-45.5 128t-16.5 174.5q0 99 17 177.5t47 129.5t72.5 84.5t90 48t103.5 14.5q73 0 130.5 -23.5t103 -74t70.5 -138.5t25 -210q0 -99 -17 -177.5t-46.5 -130.5t-72 -86t-90 -48.5t-103.5 -14.5z
M1307 731q-83 0 -117.5 -71t-34.5 -240q0 -146 35 -225.5t117 -79.5q83 0 117 71.5t34 241.5q0 146 -34.5 224.5t-116.5 78.5z" />
    <glyph glyph-name="afii61289" unicode="&#x2113;" horiz-adv-x="1024" 
d="M901 98q-145 -127 -317 -127q-142 0 -225 77t-83 208v143l-116 -108h-4l-80 123l198 174v504q0 169 94 277t236 108q125 0 200 -79.5t75 -211.5q0 -153 -92.5 -307.5t-282.5 -327.5v-258q0 -82 39.5 -118t95.5 -36q83 0 180 78h4zM692 1171q0 65 -25.5 108.5t-64.5 43.5
q-42 0 -70 -49.5t-28 -138.5v-390q94 103 141 213t47 213z" />
    <glyph glyph-name="afii61352" unicode="&#x2116;" horiz-adv-x="2187" 
d="M1270 0h-271l-610 1047v-1047h-244v1434h271l610 -1049v1049h244v-1434zM1722 885q154 0 244 -86t90 -228q0 -144 -91.5 -233.5t-242.5 -89.5q-154 0 -243.5 85.5t-89.5 227.5q0 143 91 233.5t242 90.5zM1722 750q-75 0 -116 -49t-41 -134q0 -84 43.5 -134t113.5 -50
q75 0 116.5 49t41.5 133t-44 134.5t-114 50.5zM2056 0h-665v174h665v-174z" />
    <glyph glyph-name="published" unicode="&#x2117;" horiz-adv-x="1638" 
d="M1571 731q0 -168 -61 -312.5t-163.5 -243t-239 -154.5t-286.5 -56q-162 0 -302.5 58.5t-239.5 160.5t-155 243.5t-56 303.5q0 168 60.5 312.5t163.5 243t240.5 154.5t288.5 56q150 0 286.5 -56t239 -154.5t163.5 -243t61 -312.5zM1407 731q0 137 -45.5 255.5t-124 201
t-186.5 129.5t-230 47q-124 0 -233 -47t-187.5 -129.5t-124 -201t-45.5 -255.5q0 -130 41.5 -245.5t116 -201.5t186.5 -136t246 -50q122 0 230 46.5t186.5 129t124 201t45.5 256.5zM686 631v-338h-139v848h330q147 0 224 -67.5t77 -184.5q0 -115 -75 -186.5t-208 -71.5h-209
zM686 750h191q78 0 119.5 32t41.5 107q0 68 -39.5 100.5t-124.5 32.5h-188v-272z" />
    <glyph glyph-name="trademark" unicode="&#x2122;" horiz-adv-x="2027" 
d="M1210 1462l232 -598l229 598h236v-844h-154v660h-4l-252 -660h-115l-252 660h-4v-660h-153v844h237zM801 1462v-133h-258v-711h-164v711h-258v133h680z" />
    <glyph glyph-name="Omega" unicode="&#x2126;" horiz-adv-x="1570" 
d="M1509 215v-215h-606v195q328 193 328 626q0 130 -50.5 234.5t-152 168.5t-237.5 64q-204 0 -327.5 -134t-123.5 -353q0 -409 336 -606v-195h-608v215h307v10q-148 103 -219.5 243.5t-71.5 330.5q0 147 52 275.5t143.5 222t224 147t287.5 53.5q160 0 293.5 -56.5
t220.5 -151.5t134.5 -216.5t47.5 -253.5q0 -374 -307 -594v-10h329z" />
    <glyph glyph-name="estimated" unicode="&#x212e;" horiz-adv-x="1576" 
d="M1487 715h-1092v-488q162 -159 391 -159q169 0 296 78t227 247l94 -57q-127 -196 -267 -280.5t-350 -84.5q-207 0 -367 100t-244.5 268.5t-84.5 375.5q0 157 49.5 294t139 237t220.5 158t287 58q205 0 364.5 -94.5t247.5 -264.5t89 -388zM395 815h787v391
q-173 162 -398 162q-224 0 -389 -162v-391z" />
    <glyph glyph-name="onethird" unicode="&#x2153;" horiz-adv-x="1708" 
d="M268 -49l858 1532h160l-856 -1532h-162zM74 1182v118q110 0 186.5 35.5t95.5 108.5h144v-866h-178v604h-248zM1247 401v123h49q72 0 115 28.5t43 82.5q0 51 -35.5 80.5t-105.5 29.5q-71 0 -110.5 -40.5t-39.5 -110.5h-164q6 136 91.5 213.5t230.5 77.5q132 0 214.5 -62
t82.5 -170q0 -121 -131 -176q166 -52 166 -221q0 -120 -97 -197t-239 -77q-162 0 -249 78t-87 206h164q10 -141 172 -141q79 0 125.5 37t46.5 102q0 137 -189 137h-53z" />
    <glyph glyph-name="twothirds" unicode="&#x2154;" horiz-adv-x="1708" 
d="M381 -49l858 1532h160l-856 -1532h-162zM690 717v-144h-643q1 130 49.5 213t153.5 146l149 92q129 78 129 174q0 52 -34.5 84.5t-96.5 32.5q-43 0 -74 -14t-47 -39.5t-23.5 -53t-10.5 -63.5h-179q0 140 89 226.5t247 86.5q145 0 226.5 -69t81.5 -191q0 -89 -53.5 -155.5
t-151.5 -124.5l-142 -87q-91 -56 -106 -114h436zM1272 401v123h49q71 0 114.5 28.5t43.5 82.5q0 51 -36 80.5t-106 29.5q-71 0 -110 -40.5t-39 -110.5h-164q6 136 91.5 213.5t230.5 77.5q132 0 214 -62t82 -170q0 -121 -131 -176q166 -52 166 -221q0 -120 -97 -197t-239 -77
q-162 0 -248.5 78t-86.5 206h163q10 -141 172 -141q79 0 125.5 37t46.5 102q0 137 -188 137h-53z" />
    <glyph glyph-name="oneeighth" unicode="&#x215b;" horiz-adv-x="1708" 
d="M291 -49l858 1532h160l-856 -1532h-162zM74 1182v118q110 0 186.5 35.5t95.5 108.5h144v-866h-178v604h-248zM1032 645q0 106 81.5 173t209.5 67q139 0 215 -65.5t76 -166.5q0 -64 -35 -112.5t-98 -71.5q82 -25 126 -81.5t44 -139.5q0 -124 -96.5 -195t-229.5 -71
q-141 0 -235.5 68t-94.5 196q0 81 46.5 138t123.5 79q-63 23 -98 70.5t-35 111.5zM1184 637q0 -57 39 -88t100 -31q63 0 100 31t37 88t-36.5 90t-100.5 33q-66 0 -102.5 -33t-36.5 -90zM1157 256q0 -69 46 -107t122 -38q74 0 118 38.5t44 106.5q0 66 -46 106.5t-118 40.5
q-75 0 -120.5 -39t-45.5 -108z" />
    <glyph glyph-name="threeeighths" unicode="&#x215c;" horiz-adv-x="1708" 
d="M373 -49l858 1532h160l-856 -1532h-162zM322 975v123h49q72 0 114.5 28t42.5 82q0 51 -35.5 81t-105.5 30q-71 0 -110 -41t-39 -111h-164q6 137 91 214t230 77q132 0 214.5 -61.5t82.5 -169.5q0 -121 -131 -176q166 -52 166 -222q0 -120 -97 -197t-239 -77
q-162 0 -249 78.5t-87 206.5h164q10 -142 172 -142q79 0 125.5 37.5t46.5 102.5q0 137 -188 137h-53zM1053 645q0 106 81 173t209 67q139 0 215 -65.5t76 -166.5q0 -64 -35 -112.5t-98 -71.5q82 -25 126 -81.5t44 -139.5q0 -124 -96 -195t-229 -71q-141 0 -235.5 68
t-94.5 196q0 81 46.5 138t123.5 79q-63 23 -98 70.5t-35 111.5zM1204 637q0 -57 39 -88t100 -31q63 0 100.5 31t37.5 88t-37 90t-101 33q-66 0 -102.5 -33t-36.5 -90zM1178 256q0 -69 46 -107t122 -38q74 0 117.5 38.5t43.5 106.5q0 66 -46 106.5t-118 40.5q-75 0 -120 -39
t-45 -108z" />
    <glyph glyph-name="fiveeighths" unicode="&#x215d;" horiz-adv-x="1708" 
d="M373 -49l858 1532h160l-856 -1532h-162zM674 1440v-140h-377l-33 -204q71 59 178 59q127 0 200 -80t73 -205q0 -134 -94 -224.5t-238 -90.5q-131 0 -218 69.5t-93 186.5h164q8 -52 47.5 -82.5t101.5 -30.5q76 0 121 44.5t45 123.5q0 80 -43 125t-113 45q-95 0 -141 -78
h-160l76 482h504zM1053 645q0 106 81 173t209 67q139 0 215 -65.5t76 -166.5q0 -64 -35 -112.5t-98 -71.5q82 -25 126 -81.5t44 -139.5q0 -124 -96 -195t-229 -71q-141 0 -235.5 68t-94.5 196q0 81 46.5 138t123.5 79q-63 23 -98 70.5t-35 111.5zM1204 637q0 -57 39 -88
t100 -31q63 0 100.5 31t37.5 88t-37 90t-101 33q-66 0 -102.5 -33t-36.5 -90zM1178 256q0 -69 46 -107t122 -38q74 0 117.5 38.5t43.5 106.5q0 66 -46 106.5t-118 40.5q-75 0 -120 -39t-45 -108z" />
    <glyph glyph-name="seveneighths" unicode="&#x215e;" horiz-adv-x="1708" 
d="M276 -49l859 1532h159l-856 -1532h-162zM754 1440v-135q-131 -117 -210.5 -329.5t-82.5 -402.5h-187q15 195 91.5 379.5t203.5 339.5h-419v148h604zM1012 645q0 106 81.5 173t209.5 67q139 0 214.5 -65t75.5 -167q0 -64 -35 -112.5t-98 -71.5q82 -25 126 -81.5t44 -139.5
q0 -124 -96 -195t-229 -71q-141 0 -235.5 68t-94.5 196q0 81 46.5 138t123.5 79q-63 23 -98 70.5t-35 111.5zM1163 637q0 -56 39.5 -87.5t100.5 -31.5q63 0 100 31t37 88t-36.5 90t-100.5 33q-66 0 -103 -33.5t-37 -89.5zM1137 256q0 -69 46 -107t122 -38q74 0 117.5 38.5
t43.5 106.5q0 67 -45.5 107t-117.5 40q-75 0 -120.5 -39t-45.5 -108z" />
    <glyph glyph-name="partialdiff" unicode="&#x2202;" horiz-adv-x="1122" 
d="M1038 735q0 -79 -6 -151t-22 -150t-41 -143t-65.5 -124.5t-93 -101t-126 -66t-162.5 -24.5q-198 0 -320 132.5t-122 332.5q0 195 120 322t314 127q163 0 301 -119l2 61q2 80 -14 160t-51.5 152.5t-101.5 118t-154 45.5q-112 0 -242 -99l-117 135q90 70 168 102t182 32
q102 0 186.5 -30t143.5 -84t102.5 -124t69 -155t37.5 -171t12 -178zM813 541l-2 47q-58 68 -120 102.5t-144 34.5q-123 0 -189.5 -86t-66.5 -211q0 -77 24 -140.5t80 -106t135 -42.5q70 0 127.5 39t91 100t50 129.5t14.5 133.5z" />
    <glyph glyph-name="Delta" unicode="&#x2206;" horiz-adv-x="1345" 
d="M1362 0h-1376l551 1462h272zM1012 215l-342 987l-342 -987h684z" />
    <glyph glyph-name="product" unicode="&#x220f;" horiz-adv-x="1509" 
d="M1380 -438h-221v1847h-811v-1847h-219v2048h1251v-2048z" />
    <glyph glyph-name="summation" unicode="&#x2211;" horiz-adv-x="1316" 
d="M1266 -438h-1215v176l627 858l-600 842v172h1161v-201h-868l571 -811l-608 -838h932v-198z" />
    <glyph glyph-name="minus" unicode="&#x2212;" horiz-adv-x="1228" 
d="M1130 414h-1032v209h1032v-209z" />
    <glyph glyph-name="uni2215" unicode="&#x2215;" horiz-adv-x="342" 
d="M-338 -49l858 1532h160l-856 -1532h-162z" />
    <glyph glyph-name="uni2219" unicode="&#x2219;" horiz-adv-x="569" 
d="M131 618q0 60 46.5 106t107.5 46t107 -46t46 -106q0 -62 -45.5 -108.5t-107.5 -46.5q-63 0 -108.5 46.5t-45.5 108.5z" />
    <glyph glyph-name="radical" unicode="&#x221a;" horiz-adv-x="1087" 
d="M1112 1610l-432 -2048h-207l-313 653l-103 -47l-82 174l293 133l273 -575l348 1710h223z" />
    <glyph glyph-name="infinity" unicode="&#x221e;" horiz-adv-x="1650" 
d="M1559 537q0 -159 -91 -263t-247 -104q-113 0 -207 62t-189 167l-17 -17q-43 -43 -65.5 -64.5t-63.5 -54.5t-74 -48.5t-78.5 -28t-94.5 -12.5q-154 0 -248 101t-94 257t92 258.5t244 102.5q64 0 121 -19t107.5 -57.5t86.5 -74t84 -91.5q46 53 84 90.5t88.5 75.5t107.5 58
t118 20q152 0 244 -101.5t92 -256.5zM1382 530q0 77 -43.5 127t-119.5 50q-18 0 -36 -3.5t-36.5 -12t-33 -15t-34 -22t-30.5 -23t-31.5 -27t-27 -26l-28 -28l-24.5 -24.5q155 -168 287 -168q73 0 115 49t42 123zM713 528q-37 37 -61.5 59t-65.5 54t-81.5 48t-78.5 16
q-71 0 -115.5 -51.5t-44.5 -123.5q0 -76 44.5 -123t121.5 -47q72 0 147.5 50t133.5 118z" />
    <glyph glyph-name="integral" unicode="&#x222b;" horiz-adv-x="1228" 
d="M971 1460q0 -42 -31 -71t-74 -29q-33 0 -55.5 13.5t-33 33t-17.5 39.5t-16 33.5t-23 13.5q-39 0 -39 -66l4 -272l2 -1073v-16q0 -48 -0.5 -74t-3 -74.5t-7 -77.5t-14.5 -71t-24 -67.5t-36.5 -55t-50.5 -46t-67 -27.5t-86 -11q-78 0 -143.5 38t-65.5 109q0 43 27.5 72
t71.5 29q40 0 64.5 -21.5t32.5 -47.5t19 -47.5t27 -21.5q12 0 20 6t12 13.5t6 20.5t2 21.5t-0.5 22.5t-0.5 17l-6 198v1096q0 179 5 234q22 220 151 282q57 27 135 27t146.5 -39t68.5 -111z" />
    <glyph glyph-name="approxequal" unicode="&#x2248;" horiz-adv-x="1228" 
d="M1022 903h137q-6 -69 -25 -126.5t-53.5 -106t-90 -76t-128.5 -27.5q-70 0 -173.5 35.5t-198 71t-142.5 35.5q-56 0 -90.5 -41.5t-42.5 -100.5h-139q9 91 39 164t95.5 123.5t158.5 50.5q58 0 132 -21.5t133 -47t130.5 -47t126.5 -21.5q105 0 131 135zM1018 481h137
q-6 -69 -25 -126.5t-53.5 -106t-90 -76t-128.5 -27.5q-70 0 -173.5 35.5t-198 71t-142.5 35.5q-56 0 -90.5 -41.5t-42.5 -100.5h-139q9 91 39 164t95.5 123.5t158.5 50.5q58 0 132 -21.5t133 -47t130.5 -47t126.5 -21.5q105 0 131 135z" />
    <glyph glyph-name="notequal" unicode="&#x2260;" horiz-adv-x="1228" 
d="M1130 410v-203h-579l-156 -287l-162 84l111 203h-246v203h363l110 217h-473v202h584l156 287l161 -84l-110 -203h241v-202h-358l-113 -217h471z" />
    <glyph glyph-name="lessequal" unicode="&#x2264;" horiz-adv-x="1228" 
d="M1130 446v-196l-1032 334v196l1032 334v-199l-798 -233zM98 0v209h1032v-209h-1032z" />
    <glyph glyph-name="greaterequal" unicode="&#x2265;" horiz-adv-x="1228" 
d="M98 250v196l799 236l-799 233v199l1032 -334v-196zM1130 209v-209h-1032v209h1032z" />
    <glyph glyph-name="lozenge" unicode="&#x25ca;" horiz-adv-x="1214" 
d="M1065 729l-363 -801h-194l-361 801l361 801h194zM854 729l-250 594l-244 -594l244 -596z" />
    <glyph glyph-name="grave.cap" unicode="&#xe000;" horiz-adv-x="493" 
d="M-59 1896h274l186 -292h-170z" />
    <glyph glyph-name="acute.cap" unicode="&#xe002;" horiz-adv-x="493" 
d="M92 1604l184 292h277l-291 -292h-170z" />
    <glyph glyph-name="circumflex.cap" unicode="&#xe004;" horiz-adv-x="493" 
d="M246 1788l-144 -184h-188l219 292h227l222 -292h-191z" />
    <glyph glyph-name="caron.cap" unicode="&#xe006;" horiz-adv-x="493" 
d="M580 1896l-222 -292h-227l-219 292h188l144 -182l145 182h191z" />
    <glyph glyph-name="caron.alt" unicode="&#xe008;" horiz-adv-x="493" 
d="M143 1169l66 293h256l-166 -293h-156z" />
    <glyph glyph-name="tilde.cap" unicode="&#xe009;" horiz-adv-x="493" 
d="M494 1872h114q-17 -114 -67 -166q-57 -70 -160 -70q-66 0 -152 39q-86 37 -139 37q-73 0 -88 -84h-117q14 89 70.5 160.5t142.5 71.5q40 0 72.5 -8t93.5 -33q84 -37 127 -37q80 0 103 90z" />
    <glyph glyph-name="dieresis.cap" unicode="&#xe00b;" horiz-adv-x="493" 
d="M305 1851h234v-221h-234v221zM186 1630h-233v221h233v-221z" />
    <glyph glyph-name="macron.cap" unicode="&#xe00d;" horiz-adv-x="493" 
d="M543 1675h-590v133h590v-133z" />
    <glyph glyph-name="breve.cap" unicode="&#xe00f;" horiz-adv-x="493" 
d="M-84 1894h119q31 -155 219 -155q80 0 135 39.5t72 115.5h117q-17 -143 -106 -215.5t-234 -72.5q-142 0 -226 74t-96 214z" />
    <glyph glyph-name="ring.cap" unicode="&#xe011;" horiz-adv-x="493" 
d="M248 1538q-89 0 -151 59.5t-62 151.5q0 93 63 152t150 59q89 0 151 -59t62 -152q0 -92 -62.5 -151.5t-150.5 -59.5zM125 1749q0 -53 35.5 -89t87.5 -36q54 0 88.5 35.5t34.5 89.5q0 55 -34.5 90t-88.5 35q-52 0 -87.5 -35t-35.5 -90z" />
    <glyph glyph-name="hungarumlaut.cap" unicode="&#xe013;" horiz-adv-x="493" 
d="M336 1604l184 292h279l-295 -292h-168zM-72 1604l185 292h278l-295 -292h-168z" />
    <glyph glyph-name="dotaccent.cap" unicode="&#xe015;" horiz-adv-x="493" 
d="M365 1630h-234v221h234v-221z" />
    <glyph glyph-name="commaaccent" unicode="&#xe017;" horiz-adv-x="569" 
d="M150 -305v203h268v-183q0 -74 -52.5 -120t-185.5 -52v78q44 6 65 22.5t27 51.5h-122z" />
    <glyph glyph-name="commaaccent.alt" unicode="&#xe01a;" horiz-adv-x="569" 
d="M420 1462v-202h-268v182q0 35 10.5 62.5t35.5 52.5t73 39.5t118 17.5v-78q-44 -6 -65 -22.5t-27 -51.5h123z" />
    <glyph glyph-name="tonos.cap" unicode="&#xe01b;" horiz-adv-x="493" 
d="M150 1159l69 303h279l-158 -303h-190z" />
    <glyph glyph-name="f_i" unicode="&#xf001;" 
d="M774 1241v221h234v-221h-234zM18 885v174h175v88q0 78 16.5 136t42 91.5t65.5 54t79 27t89 6.5q115 0 164 -14v-182q-46 12 -108 12q-115 0 -115 -111v-108h199v-174h-199v-885h-233v885h-175zM774 0v1059h234v-1059h-234z" />
    <glyph glyph-name="f_l" unicode="&#xf002;" 
d="M774 0v1462h234v-1462h-234zM18 885v174h175v88q0 78 16.5 136t42 91.5t65.5 54t79 27t89 6.5q115 0 164 -14v-182q-46 12 -108 12q-115 0 -115 -111v-108h199v-174h-199v-885h-233v885h-175z" />
    <glyph glyph-name="uniF8FF" unicode="&#xf8ff;" horiz-adv-x="1048" 
d="M1049 1470h-1049v-1470h1049v1470zM946 102h-844v1264h844v-1264zM461 479h94q0 107 12 148q11 38 88 106q75 69 102 123t27 123q0 120 -72 194t-182 74q-115 0 -189 -69.5t-87 -210.5l102 -17q11 100 56 147.5t112 47.5q64 0 110 -50.5t46 -123.5q0 -41 -19.5 -75.5
t-82.5 -94.5q-67 -67 -95 -121q-26 -51 -26 -166zM455 240h114v137h-114v-137z" />
    <glyph glyph-name="_0015" horiz-adv-x="1024" 
 />
    </font>
</defs>
</svg>
