<svg id="Group_33" data-name="Group 33" xmlns="http://www.w3.org/2000/svg" width="109.667" height="21.102" viewBox="0 0 109.667 21.102">
  <path id="Path_70" data-name="Path 70" d="M24.483.008c-.08,0-.164,0-.245,0H16.8c-.489,0-.507.01-.622.489-.133.552-.241,1.115-.36,1.67q-.514,2.4-1.027,4.784l-.734,3.407c-.066.3-.164.349-.416.2a2.01,2.01,0,0,1-.189-.154Q11.3,8.561,9.165,6.73c-1.44-1.237-2.876-2.481-4.326-3.7A14.746,14.746,0,0,0,.705.539,6.118,6.118,0,0,0-1.367.015C-2.6-.013-3.827.015-5.057,0a.5.5,0,0,0-.577.482c-.1.521-.238,1.034-.353,1.551q-1.09,4.958-2.173,9.913c-.531,2.428-1.073,4.857-1.607,7.285-.112.507-.063.573.465.573q3.69.005,7.38,0c.493,0,.507-.007.615-.479.276-1.212.542-2.428.807-3.641.3-1.394.6-2.788.912-4.183.178-.811.363-1.621.573-2.547.189.157.283.234.374.311.678.587,1.356,1.178,2.041,1.761,1.024.877,2.055,1.744,3.078,2.621.7.6,1.387,1.205,2.086,1.8,1.038.891,2.083,1.775,3.124,2.663.6.517,1.209,1.034,1.81,1.558a.712.712,0,0,0,.517.136c1.992,0,3.98-.007,5.968.007.332,0,.461-.122.521-.44.15-.758.335-1.509.5-2.268.51-2.268,1.024-4.532,1.523-6.8q.97-4.418,1.929-8.84c.084-.377.164-.755.255-1.132.052-.21-.014-.314-.231-.321" transform="translate(84.936 1.242)" fill="#042759"/>
  <path id="Path_71" data-name="Path 71" d="M22.355,9.882q-1.2-3.087-2.38-6.174Q18.592.133,17.208-3.434c-.2-.514-.185-.524-.734-.524-1.929,0-3.854.007-5.783,0a7.865,7.865,0,0,0-1.513.192A7.548,7.548,0,0,0,4.86-1.027C3.77.266,2.718,1.594,1.635,2.9s-2.208,2.621-3.3,3.941c-1.08,1.3-2.138,2.624-3.218,3.927-1.094,1.321-2.222,2.617-3.292,3.952a3.278,3.278,0,0,0-.786,1.062,1.528,1.528,0,0,0,.65.056c2.708,0,5.412-.017,8.117.017a1.489,1.489,0,0,0,1.3-.622c.545-.685,1.132-1.345,1.66-2.041a1,1,0,0,1,.888-.426q5.1.01,10.206,0a.681.681,0,0,1,.741.489c.255.692.524,1.373.783,2.062.192.517.189.524.741.524q4.057.005,8.117,0c.122,0,.294.08.363-.133-.143-.377-.283-.762-.43-1.143-.6-1.562-1.216-3.12-1.82-4.682M7.3,7.817a6.386,6.386,0,0,1,.94-1.282c.73-.926,1.5-1.827,2.25-2.736.234-.283.363-.29.479,0,.507,1.307,1,2.617,1.537,4.015Z" transform="translate(8.963 5.205)" fill="#042759"/>
  <path id="Path_72" data-name="Path 72" d="M17.671,13.414c-1.834-.248-3.662-.563-5.5-.828a2.141,2.141,0,0,1-1.9-1.579C9.893,9.8,9.432,8.617,9.009,7.425,8.066,4.766,7.115,2.11,6.186-.552A7.843,7.843,0,0,0,4.645-3.246a6.6,6.6,0,0,0-4.934-2.1C-2.42-5.409-4.552-5.36-6.683-5.36c-.133,0-.29-.045-.4.129A7.557,7.557,0,0,0-6.69-4.1a1.469,1.469,0,0,0,1.5.95c.884-.01,1.765,0,2.645,0h1.8A.9.9,0,0,1-1.18-2.9c-.895.287-1.8.552-2.684.863-1.15.4-1.062.077-.6,1.349C-3.6,1.716-2.686,4.1-1.809,6.5A28.691,28.691,0,0,0,.361,11.23a7.963,7.963,0,0,1,.818,1.848,1.24,1.24,0,0,1-.094.947,1.741,1.741,0,0,1-1.048.79,17.988,17.988,0,0,0-2.226.835c4.141.136,23.051.066,23.5-.091-.584-.44-1.164-.856-1.723-1.3a3.775,3.775,0,0,0-1.918-.846" transform="translate(36.967 5.378)" fill="#ff3a3a"/>
  <path id="Path_73" data-name="Path 73" d="M9.546.068a1.257,1.257,0,0,0-.7-.084q-3.753-.01-7.505,0c-.971,0-.776-.14-.982.769C-.437,4.229-1.205,7.71-1.984,11.19l-1.793,8c-.115.524-.066.591.5.591q3.936.005,7.872,0c.521,0,.538-.007.657-.514.164-.7.3-1.394.461-2.09.419-1.852.849-3.7,1.261-5.545C7.6,8.845,8.212,6.057,8.83,3.272c.238-1.073.479-2.142.716-3.2" transform="translate(66.646 1.266)" fill="#042759"/>
  <path id="Path_74" data-name="Path 74" d="M13.865.046a1.5,1.5,0,0,0-.636-.052c-1.6-.007-3.2.014-4.8-.01A9.822,9.822,0,0,0,5.406.368a8.026,8.026,0,0,0-3,1.625A22.555,22.555,0,0,0-.248,4.963c-.793.985-1.6,1.957-2.407,2.935-.9,1.1-1.8,2.219-2.718,3.312a.573.573,0,0,0-.136.653c.384,1.059.73,2.128,1.118,3.183a1.765,1.765,0,0,0,1.52,1.171c1.006.147,2.016.276,3.022.444a.491.491,0,0,0,.531-.185q1.53-1.95,3.11-3.865c1.157-1.4,2.282-2.827,3.421-4.245C8.156,7.188,9.1,6.007,10.046,4.833c.769-.954,1.558-1.894,2.317-2.851a24.39,24.39,0,0,0,1.5-1.936" transform="translate(52.078 1.258)" fill="#a62247"/>
</svg>
