<svg id="Group_31" data-name="Group 31" xmlns="http://www.w3.org/2000/svg" width="73.552" height="73.552" viewBox="0 0 73.552 73.552">
  <path id="Path_57" data-name="Path 57" d="M169.921,51.744h73.552V-21.808H169.921Z" transform="translate(-169.921 21.808)" fill="#042759"/>
  <path id="Path_58" data-name="Path 58" d="M27.293,0,11.145,2.779c-.01,0-.02,0-.03.007L-11.5,6.681c4.29,5.069,13.359,8.594,29.039,6.034L38.254,9.167Z" transform="translate(25.124 28.025)" fill="#ffdb44"/>
  <path id="Path_59" data-name="Path 59" d="M11.121,10.4c0-2.4,2.644-4.435,6.27-5.1l9.8-1.643L17.539-4.385C5.067-3.656-4.687,2.688-4.687,10.4A12.243,12.243,0,0,0-3.22,16.162l15.956-2.749A3.651,3.651,0,0,1,11.121,10.4" transform="translate(15.221 16.17)" fill="#ffdb44"/>
  <path id="Path_60" data-name="Path 60" d="M1.044,1.21h.334c.226,0,.53-.047.53-.337,0-.31-.3-.354-.546-.354H1.044Zm.789.2.469.951H1.857l-.425-.89H1.044v.89h-.4V.266h.793c.381,0,.874.1.874.58a.585.585,0,0,1-.472.56M1.412,2.947A1.609,1.609,0,1,0-.2,1.342,1.611,1.611,0,0,0,1.412,2.947M3.27,1.342A1.855,1.855,0,1,1,1.412-.51,1.858,1.858,0,0,1,3.27,1.342" transform="translate(65.041 50.128)" fill="#ffdb44"/>
  <path id="Path_62" data-name="Path 62" d="M4.724,5.381H2.073V-2.268H-1.991V8.68H4.724Z" transform="translate(34.856 52.12)" fill="#ffdb44"/>
  <path id="Path_63" data-name="Path 63" d="M8.032,3.87V3.84c0-.185-.01-.371-.027-.55l-.02-.132c-.013-.118-.027-.239-.047-.358h0A5.446,5.446,0,0,0,2.315-1.631,5.45,5.45,0,0,0-3.287,2.8h-.007c-.02.121-.034.243-.047.368-.007.04-.013.078-.017.118-.017.182-.027.364-.027.553v.03c0,.189.01.371.027.55,0,.044.01.081.017.121.013.125.027.246.047.364h.007a5.45,5.45,0,0,0,5.6,4.435A5.446,5.446,0,0,0,7.934,4.905h0c.02-.115.034-.236.047-.354L8,4.42c.017-.179.027-.364.027-.55M2.315,5.8A1.892,1.892,0,0,1,.443,4.238h0a2.4,2.4,0,0,1-.037-.384,2.354,2.354,0,0,1,.037-.381h0a1.906,1.906,0,0,1,3.781.381A1.91,1.91,0,0,1,2.315,5.8" transform="translate(43.51 51.458)" fill="#ffdb44"/>
  <path id="Path_65" data-name="Path 65" d="M4.75,0V3.7L1.927,0H-2V10.948H1.883v-3.4l2.85,3.4H8.622V0Z" transform="translate(54.283 49.852)" fill="#ffdb44"/>
  <path id="Path_66" data-name="Path 66" d="M2.577,3.519a.093.093,0,0,0,0-.03v0c.152-.911.857-1.46,2.395-1.46H7.228V-1.338a22.153,22.153,0,0,0-2.462-.145C1.629-1.483-.82.426-1.062,3.472c-.013.162-.024.331-.024.5s.01.337.024.5C-.82,7.519,1.629,9.424,4.766,9.424a23.37,23.37,0,0,0,2.462-.142V5.92H4.975c-1.545,0-2.266-.58-2.4-1.528-.013-.135-.02-.273-.024-.422s.01-.31.027-.452" transform="translate(24.54 51.449)" fill="#ffdb44"/>
  <path id="Path_68" data-name="Path 68" d="M7.927,0H4.3L2.325,3.541.453,0H-3.341L.376,6.4h0V10.82H4.207V6.4Z" transform="translate(16.798 49.967)" fill="#ffdb44"/>
  <path id="Path_69" data-name="Path 69" d="M5.849,5.208H3.6c-3.312,0-3.309-3.9,0-3.9H5.511l-1.99-3.5c-.044,0-.091,0-.135,0C.25-2.195-2.2-.286-2.441,2.76c-.013.165-.024.331-.024.5s.01.341.024.5.034.29.054.432a.012.012,0,0,0,0,.01C-1.949,6.969.409,8.6,3.387,8.6H4.27v0H7.3V5.208Z" transform="translate(8.812 52.16)" fill="#ffdb44"/>
</svg>
