<svg xmlns="http://www.w3.org/2000/svg" width="17.802" height="17.802" viewBox="0 0 17.802 17.802">
  <g id="_2111491" data-name="2111491" transform="translate(0.247 0.276)">
    <path id="Path_16267" data-name="Path 16267" d="M10.279,5.838a4.433,4.433,0,1,0,4.433,4.433,4.433,4.433,0,0,0-4.433-4.433Zm0,7.311a2.878,2.878,0,1,1,2.878-2.878A2.877,2.877,0,0,1,10.279,13.149Z" transform="translate(-1.637 -1.635)" stroke="#000" stroke-width="0.5"/>
    <path id="Path_16268" data-name="Path 16268" d="M12.2.055c-1.59-.074-5.527-.071-7.118,0a5.163,5.163,0,0,0-3.626,1.4C-.2,3.114.009,5.353.009,8.637c0,3.361-.187,5.548,1.449,7.184C3.126,17.488,5.4,17.27,8.642,17.27c3.329,0,4.478,0,5.655-.454,1.6-.621,2.808-2.052,2.927-4.621.075-1.59.071-5.527,0-7.118C17.081,2.044,15.454.2,12.2.055Zm2.516,14.667c-1.089,1.089-2.6.992-6.1.992-3.6,0-5.043.053-6.1-1-1.213-1.207-.994-3.146-.994-6.086,0-3.978-.408-6.842,3.584-7.047.917-.032,1.187-.043,3.5-.043l.032.022c3.837,0,6.847-.4,7.027,3.59.041.911.05,1.184.05,3.49,0,3.558.067,5.01-1,6.086Z" transform="translate(0 -0.001)" stroke="#000" stroke-width="0.5"/>
    <circle id="Ellipse_81" data-name="Ellipse 81" cx="1.036" cy="1.036" r="1.036" transform="translate(12.215 2.992)" stroke="#000" stroke-width="0.5"/>
  </g>
</svg>
