<svg id="_2111532" data-name="2111532" xmlns="http://www.w3.org/2000/svg" width="15.839" height="15.839" viewBox="0 0 15.839 15.839">
  <path id="Path_16271" data-name="Path 16271" d="M18.721,18.414h0V12.6c0-2.842-.612-5.031-3.934-5.031a3.449,3.449,0,0,0-3.106,1.707h-.046V7.839H8.489V18.414h3.28V13.178c0-1.379.261-2.712,1.969-2.712,1.682,0,1.707,1.573,1.707,2.8v5.148Z" transform="translate(-2.887 -2.576)"/>
  <path id="Path_16272" data-name="Path 16272" d="M.4,7.977H3.68V18.551H.4Z" transform="translate(-0.135 -2.713)"/>
  <path id="Path_16273" data-name="Path 16273" d="M1.9,0A1.911,1.911,0,1,0,3.8,1.9,1.9,1.9,0,0,0,1.9,0Z"/>
</svg>
