<svg xmlns="http://www.w3.org/2000/svg" width="84.357" height="43.567" viewBox="0 0 84.357 43.567">
  <g id="Group_16457" data-name="Group 16457" transform="translate(-7748.265 1455.333)">
    <path id="Path_1" data-name="Path 1" d="M19.732,17.95c-.457-.036-.723.195-.815.689l-1.106,6.2-.04.226c-.064.362.064.57.376.628l.2.038,44.64.042a.812.812,0,0,0,.811-.689l1.146-6.427c.064-.362-.06-.572-.368-.628l-.2-.036Z" transform="translate(7765.394 -1437.619)" fill="#82c341"/>
    <path id="Path_2" data-name="Path 2" d="M5.1,17.953c-.449-.036-.723.195-.811.689l-1.14,6.427c-.068.362.058.57.368.628l.2.038,20.99.042a.814.814,0,0,0,.813-.689l1.144-6.427c.068-.362-.058-.572-.368-.628L26.1,18Z" transform="translate(7745.129 -1437.621)" fill="#82c341"/>
    <path id="Path_3" data-name="Path 3" d="M26.607,31.264a.714.714,0,0,1-.821.693H4.642c-.372,0-.552-.159-.552-.481V31.27L9.285.983A.827.827,0,0,1,10.11.3h6.531c.37,0,.552.163.552.481V.983l-3.96,23v.137c0,.366.207.548.624.548H27.088c.368,0,.554.161.554.485v.209Z" transform="translate(7746.071 -1455.041)" fill="#004fa3"/>
    <path id="Path_4" data-name="Path 4" d="M41.832,3A10.487,10.487,0,0,0,34.338.346a8.991,8.991,0,0,0-3.848.689,5.794,5.794,0,0,1-2.064.685.221.221,0,0,1-.242-.2c-.024-.139-.05-.3-.07-.481a1.4,1.4,0,0,0-.135-.485.459.459,0,0,0-.445-.2H21.686c-.507,0-.785.228-.823.689l-7.29,41.5v.2c0,.32.187.481.55.481h6.465a.718.718,0,0,0,.825-.685S25.33,21.154,25.33,20.576L26.7,12.5A5.707,5.707,0,0,1,28.666,9.04a5.626,5.626,0,0,1,3.817-1.4,4.061,4.061,0,0,1,2.99,1.127,3.845,3.845,0,0,1,1.136,2.843,4.173,4.173,0,0,1-.068.888l-1.309,7.192a6.068,6.068,0,0,1-1.991,3.562,5.481,5.481,0,0,1-3.3,1.351v.018h-2.48c.026,0,.042,0,.072.006a.7.7,0,0,0-.759.687l-1.035,5.9v.207c0,.3.163.461.483.483-.024,0-.042,0-.072,0h3.394c.113,0,.089,0,.064,0,.127,0,.334-.018.334-.018a12.437,12.437,0,0,0,8.112-3.356A16.331,16.331,0,0,0,41.389,24.4a16.01,16.01,0,0,0,1.752-4.685l1.3-7.236a14.292,14.292,0,0,0,.2-2.412A9.242,9.242,0,0,0,41.832,3" transform="translate(7759.41 -1454.992)" fill="#004fa3"/>
    <path id="Path_5" data-name="Path 5" d="M56.562,8.045c0,.278-.187.507-.552.689L49.547,11.69a1.3,1.3,0,0,1-.342.137c-.189,0-.316-.113-.379-.344s-.2-.548-.379-.964A5.766,5.766,0,0,0,46.9,8.08a3.857,3.857,0,0,0-2.577-.791,5.008,5.008,0,0,0-1.891.376A6.32,6.32,0,0,0,39.4,10.3a6.128,6.128,0,0,0-.717,1.919l-1.518,8.494a1.549,1.549,0,0,0-.064.481v.411a3.922,3.922,0,0,0,1.134,2.911,4.14,4.14,0,0,0,3.056,1.13,4.954,4.954,0,0,0,2.41-.689,5.807,5.807,0,0,0,1.991-1.788c.507-.685.886-1.212,1.132-1.579s.5-.552.723-.552a.418.418,0,0,1,.28.07l5.5,2.958a.58.58,0,0,1,.348.481,4.213,4.213,0,0,1-1.071,1.9,28.345,28.345,0,0,1-3.336,3.362,13.437,13.437,0,0,1-9.284,3.123q-5.153,0-8.042-2.652a9.125,9.125,0,0,1-2.893-7.063,15.625,15.625,0,0,1,.213-2.482L30.776,12.2A14.934,14.934,0,0,1,32.56,7.2a14.3,14.3,0,0,1,3.268-3.856A14.112,14.112,0,0,1,40.33.86,17.122,17.122,0,0,1,45.837,0a11.064,11.064,0,0,1,7.421,2.291A7.929,7.929,0,0,1,54.6,3.715a15.588,15.588,0,0,1,1.033,1.6,8.979,8.979,0,0,1,.685,1.526,3.978,3.978,0,0,1,.244,1.208" transform="translate(7776.06 -1455.333)" fill="#004fa3"/>
  </g>
</svg>
