<svg xmlns="http://www.w3.org/2000/svg" width="287.37" height="44.605" viewBox="0 0 287.37 44.605">
  <g id="seepe-logo" transform="translate(-327 -5594)">
    <g id="Group_36" data-name="Group 36" transform="translate(81 3010.798)">
      <rect id="Rectangle_3" data-name="Rectangle 3" width="38" height="44.605" transform="translate(246 2583.202)" fill="#002b7f"/>
      <path id="Path_14643" data-name="Path 14643" d="M92.427,43.533c-3.212-6-2.723-14.6.483-20.553-2.323,1.753-17.693,27.533-3.061,30.028a7.31,7.31,0,0,0,1.277.076,8.556,8.556,0,0,0,2.047-.271c9.42-2.3,6.052-13.527,1.67-19.99-2.321-4.22,7.5,13.378.774,13.255-1.56-.029-2.372-1.239-3.189-2.545" transform="translate(173.985 2563.408)" fill="#fff"/>
      <path id="Path_14644" data-name="Path 14644" d="M19.968,270.8H14.6v-1.375l1.882-1.914L14.6,265.757v-1.314h5.264v1.366H16.724l1.865,1.7-1.865,1.849h3.243Z" transform="translate(233.421 2355.423)" fill="#fff"/>
      <path id="Path_14645" data-name="Path 14645" d="M63.966,264.444H69.23V265.8h-3.3v1.01h3.057v1.3H65.935v1.253h3.391v1.44H63.966Z" transform="translate(190.902 2355.422)" fill="#fff"/>
      <path id="Path_14646" data-name="Path 14646" d="M113.422,264.444h5.264V265.8h-3.3v1.01h3.057v1.3h-3.057v1.253h3.391v1.44h-5.359Z" transform="translate(148.303 2355.422)" fill="#fff"/>
      <path id="Path_14647" data-name="Path 14647" d="M169.051,270.8h-1.96V266h-2.159v4.8h-1.96v-6.356h6.079Z" transform="translate(105.623 2355.423)" fill="#fff"/>
      <path id="Path_14648" data-name="Path 14648" d="M219.433,264.444H224.7V265.8h-3.3v1.01h3.057v1.3H221.4v1.253h3.391v1.44h-5.359Z" transform="translate(56.99 2355.422)" fill="#fff"/>
    </g>
    <path id="Path_30828" data-name="Path 30828" d="M.78,0h.95V-3.27H5.49V0h.95V-7.14H5.49v3.07H1.73V-7.14H.78ZM10.5,0h4.96V-.8H11.45V-3.27h3.71v-.8H11.45V-6.34h3.98v-.8H10.5Zm8.61,0h4.73V-.8H20.06V-7.14h-.95Zm8.06,0H31.9V-.8H28.12V-7.14h-.95Zm8.06,0h4.96V-.8H36.18V-3.27h3.71v-.8H36.18V-6.34h3.98v-.8H35.23Zm8.6,0h.9V-5.73h.02L48.48,0h1.04V-7.14h-.9v5.79H48.6L44.84-7.14H43.83ZM53.6,0h.95V-7.14H53.6Zm4.7-3.55c0,2.08,1.09,3.72,3.3,3.72a2.9,2.9,0,0,0,3.09-2.86h-.95A2.02,2.02,0,0,1,61.68-.63c-1.71,0-2.43-1.36-2.43-2.99,0-1.49.72-2.89,2.42-2.89a1.881,1.881,0,0,1,2,1.52h.95a2.726,2.726,0,0,0-2.94-2.32C59.48-7.31,58.3-5.63,58.3-3.55ZM73.65,0h.95V-2.92h2.18a1.941,1.941,0,0,0,2.19-2.11,1.946,1.946,0,0,0-2.19-2.11H73.65Zm.95-6.34h1.86c1.08,0,1.56.46,1.56,1.31s-.48,1.32-1.56,1.31H74.6ZM82.63,0h4.96V-.8H83.58V-3.27h3.71v-.8H83.58V-6.34h3.98v-.8H82.63ZM92.86,0h.95V-6.34h2.38v-.8H90.48v.8h2.38Zm6.62,0h.95V-3.05h2.32c.92,0,1.08.6,1.19,1.29.14.7-.01,1.47.26,1.76h1.06a3.567,3.567,0,0,1-.42-1.97c-.08-.69-.24-1.31-1.07-1.47v-.02a1.7,1.7,0,0,0,1.24-1.81c0-1.15-.82-1.87-2.17-1.87H99.48Zm.95-3.85V-6.34h2.36a1.125,1.125,0,0,1,1.27,1.22c0,1.04-.77,1.27-1.65,1.27Zm8,.28c0,1.95,1.15,3.74,3.42,3.74s3.42-1.79,3.42-3.74-1.15-3.74-3.42-3.74S108.43-5.52,108.43-3.57Zm.95,0c0-1.44.73-2.94,2.47-2.94s2.47,1.5,2.47,2.94-.73,2.94-2.47,2.94S109.38-2.13,109.38-3.57ZM118.93,0h4.73V-.8h-3.78V-7.14h-.95Zm8.06,0h4.96V-.8h-4.01V-3.27h3.71v-.8h-3.71V-6.34h3.98v-.8h-4.93ZM141.3-7.14h-.95v4.56a1.71,1.71,0,0,1-1.86,1.95,1.77,1.77,0,0,1-1.98-1.95V-7.14h-.95v4.56c0,1.9,1.09,2.75,2.93,2.75a2.5,2.5,0,0,0,2.81-2.75ZM145.34,0h.9V-5.94h.02L148.49,0h.81l2.23-5.94h.02V0h.9V-7.14h-1.3l-2.26,6-2.25-6h-1.3Zm16.49,0h.9V-5.94h.02L164.98,0h.81l2.23-5.94h.02V0h.9V-7.14h-1.3l-2.26,6-2.25-6h-1.3Zm10.34,0h.98l.8-2.15h3.02L177.75,0h1.05l-2.79-7.14h-1.05Zm2.08-2.95,1.21-3.33h.02l1.19,3.33ZM182,0h.95V-3.05h2.32c.92,0,1.08.6,1.19,1.29.14.7-.01,1.47.26,1.76h1.06a3.567,3.567,0,0,1-.42-1.97c-.08-.69-.24-1.31-1.07-1.47v-.02a1.7,1.7,0,0,0,1.24-1.81c0-1.15-.82-1.87-2.17-1.87H182Zm.95-3.85V-6.34h2.36a1.125,1.125,0,0,1,1.27,1.22c0,1.04-.77,1.27-1.65,1.27ZM191.35,0h.95V-2.5l1.19-1.11L196.07,0h1.2l-3.13-4.26,3.01-2.88h-1.23L192.3-3.58V-7.14h-.95Zm9.17,0h4.96V-.8h-4.01V-3.27h3.71v-.8h-3.71V-6.34h3.98v-.8h-4.93Zm10.23,0h.95V-6.34h2.38v-.8h-5.71v.8h2.38Zm6.66,0h.95V-7.14h-.95Zm5.04,0h.9V-5.73h.02L227.1,0h1.04V-7.14h-.9v5.79h-.02l-3.76-5.79h-1.01Zm9.38-3.43a3.416,3.416,0,0,0,3.4,3.6,2.85,2.85,0,0,0,2.29-1.06l.25.89h.6V-3.76h-3.13v.8h2.28a2.146,2.146,0,0,1-2.29,2.33,2.57,2.57,0,0,1-2.45-2.85c0-1.52.72-3.03,2.45-3.03a1.927,1.927,0,0,1,2.12,1.57h.95a2.772,2.772,0,0,0-3.07-2.37C232.97-7.31,231.83-5.51,231.83-3.43ZM.43,9.45c0,2.08,1.09,3.72,3.3,3.72a2.9,2.9,0,0,0,3.09-2.86H5.87a2.02,2.02,0,0,1-2.06,2.06c-1.71,0-2.43-1.36-2.43-2.99,0-1.49.72-2.89,2.42-2.89a1.881,1.881,0,0,1,2,1.52h.95A2.726,2.726,0,0,0,3.81,5.69C1.61,5.69.43,7.37.43,9.45Zm9.67-.02c0,1.95,1.15,3.74,3.42,3.74s3.42-1.79,3.42-3.74-1.15-3.74-3.42-3.74S10.1,7.48,10.1,9.43Zm.95,0c0-1.44.73-2.94,2.47-2.94s2.47,1.5,2.47,2.94-.73,2.94-2.47,2.94S11.05,10.87,11.05,9.43ZM20.62,13h.9V7.06h.02L23.77,13h.81l2.23-5.94h.02V13h.9V5.86h-1.3l-2.26,6-2.25-6h-1.3Zm11.19,0h.95V10.08h2.18a1.941,1.941,0,0,0,2.19-2.11,1.946,1.946,0,0,0-2.19-2.11H31.81Zm.95-6.34h1.86c1.08,0,1.56.46,1.56,1.31s-.48,1.32-1.56,1.31H32.76ZM39.22,13h.98l.8-2.15h3.02L44.8,13h1.05L43.06,5.86H42.01Zm2.08-2.95,1.21-3.33h.02l1.19,3.33ZM49.04,13h.9V7.27h.02L53.69,13h1.04V5.86h-.9v5.79h-.02L50.05,5.86H49.04Zm9.77,0h.95V5.86h-.95Zm5.05,0h4.96v-.8H64.81V9.73h3.71v-.8H64.81V6.66h3.98v-.8H63.86ZM77.5,7.95c-.05-1.57-1.17-2.26-2.63-2.26-1.31,0-2.59.65-2.59,2.09,0,2.62,4.57,1.33,4.57,3.29,0,1.03-.95,1.3-1.81,1.3-1.08,0-2.08-.52-2.08-1.72h-.9c0,1.73,1.35,2.52,2.95,2.52,1.3,0,2.79-.61,2.79-2.13,0-2.81-4.57-1.57-4.57-3.33,0-.93.79-1.22,1.6-1.22A1.549,1.549,0,0,1,76.6,7.95ZM85.88,13h.98l.8-2.15h3.02L91.46,13h1.05L89.72,5.86H88.67Zm2.08-2.95,1.21-3.33h.02l1.19,3.33Zm12.78-2.1c-.05-1.57-1.17-2.26-2.63-2.26-1.31,0-2.59.65-2.59,2.09,0,2.62,4.57,1.33,4.57,3.29,0,1.03-.95,1.3-1.81,1.3-1.08,0-2.08-.52-2.08-1.72h-.9c0,1.73,1.35,2.52,2.95,2.52,1.3,0,2.79-.61,2.79-2.13,0-2.81-4.57-1.57-4.57-3.33,0-.93.79-1.22,1.6-1.22a1.549,1.549,0,0,1,1.77,1.46Zm8.98,0c-.05-1.57-1.17-2.26-2.63-2.26-1.31,0-2.59.65-2.59,2.09,0,2.62,4.57,1.33,4.57,3.29,0,1.03-.95,1.3-1.81,1.3-1.08,0-2.08-.52-2.08-1.72h-.9c0,1.73,1.35,2.52,2.95,2.52,1.3,0,2.79-.61,2.79-2.13,0-2.81-4.57-1.57-4.57-3.33,0-.93.79-1.22,1.6-1.22a1.549,1.549,0,0,1,1.77,1.46Zm3.55,1.48c0,1.95,1.15,3.74,3.42,3.74s3.42-1.79,3.42-3.74-1.15-3.74-3.42-3.74S113.27,7.48,113.27,9.43Zm.95,0c0-1.44.73-2.94,2.47-2.94s2.47,1.5,2.47,2.94-.73,2.94-2.47,2.94S114.22,10.87,114.22,9.43Zm9.2.02c0,2.08,1.09,3.72,3.3,3.72a2.9,2.9,0,0,0,3.09-2.86h-.95a2.02,2.02,0,0,1-2.06,2.06c-1.71,0-2.43-1.36-2.43-2.99,0-1.49.72-2.89,2.42-2.89a1.881,1.881,0,0,1,2,1.52h.95a2.726,2.726,0,0,0-2.94-2.32C124.6,5.69,123.42,7.37,123.42,9.45ZM133.53,13h.95V5.86h-.95Zm4.2,0h.98l.8-2.15h3.02l.78,2.15h1.05l-2.79-7.14h-1.05Zm2.08-2.95,1.21-3.33h.02l1.19,3.33ZM148.4,13h.95V6.66h2.38v-.8h-5.71v.8h2.38Zm6.66,0h.95V5.86h-.95Zm4.65-3.57c0,1.95,1.15,3.74,3.42,3.74s3.42-1.79,3.42-3.74-1.15-3.74-3.42-3.74S159.71,7.48,159.71,9.43Zm.95,0c0-1.44.73-2.94,2.47-2.94s2.47,1.5,2.47,2.94-.73,2.94-2.47,2.94S160.66,10.87,160.66,9.43ZM170.2,13h.9V7.27h.02L174.85,13h1.04V5.86h-.9v5.79h-.02l-3.76-5.79H170.2Z" transform="translate(376 5614.414)"/>
  </g>
</svg>
