<svg id="Group_32" data-name="Group 32" xmlns="http://www.w3.org/2000/svg" width="89.274" height="62.565" viewBox="0 0 89.274 62.565">
  <path id="Path_76" data-name="Path 76" d="M8.516,0,4.987,8.991,1.414,0H-2.9l5.76,13.728h4.08L12.644,0Z" transform="translate(3.926 48.813)" fill="#0c3d7a"/>
  <path id="Path_77" data-name="Path 77" d="M139.549,9.715h3.817V-4.135h-3.817Z" transform="translate(-113.16 52.843)" fill="#0c3d7a"/>
  <path id="Path_78" data-name="Path 78" d="M146.708,9.715h3.817V-4.135h-3.817Z" transform="translate(-92.151 52.843)" fill="#0c3d7a"/>
  <path id="Path_79" data-name="Path 79" d="M2.691,8.07H7.33L10.922-2.742H7.208L5.174,4.423,3.1-2.746l-4.021,0Z" transform="translate(31.639 54.489)" fill="#0c3d7a"/>
  <path id="Path_80" data-name="Path 80" d="M.006,0,0,10.816H3.815V0Z" transform="translate(59.573 51.748)" fill="#0c3d7a"/>
  <path id="Path_81" data-name="Path 81" d="M147.982-2.1H151.8V-4.135h-3.817Z" transform="translate(-88.412 52.843)" fill="#0c3d7a"/>
  <path id="Path_82" data-name="Path 82" d="M5.552,0H-1.892V10.8H1.917V2.231H4.781V10.8H8.59V2.746C8.59.578,7.225,0,5.552,0" transform="translate(66.501 51.755)" fill="#0c3d7a"/>
  <path id="Path_83" data-name="Path 83" d="M5.846,8.064c1.861,0,2.786-.889,2.786-2.554v-5.6c0-2.211-1.452-2.66-2.825-2.66H.837c-1.365,0-2.829.449-2.829,2.66v5.6c0,1.664.925,2.554,2.79,2.554ZM1.86-.521H4.8V5.818H1.86Z" transform="translate(44.723 54.495)" fill="#0c3d7a"/>
  <path id="Path_84" data-name="Path 84" d="M7.973,2.06C7.973-.108,6.588-.7,4.723-.7H-.726l-.854,2.03H4.169V2.867H.321c-1.574,0-3.038.519-3.038,2.766v2.1c0,1.617.96,2.377,2.939,2.377H7.969Zm-3.8,5.8H.938V4.909h3.23Z" transform="translate(17.173 52.448)" fill="#0c3d7a"/>
  <path id="Path_85" data-name="Path 85" d="M0,2.172V7.31A2.8,2.8,0,0,0,.581,9.16a3.279,3.279,0,0,0,2.7.917H9.356L9.9,8.046H3.808V6.3H7.845c1.68,0,2.715-.63,2.715-2.514V1.77c0-1.963-1.3-2.51-3-2.51H3.245C1.337-.728,0,.09,0,2.172m3.8-.665h3.23V4.253H3.808Z" transform="translate(76.217 52.484)" fill="#0c3d7a"/>
  <path id="Path_87" data-name="Path 87" d="M0,16.381H29.219L14.609-5.582Z" transform="translate(29.966 27.645)" fill="#0c3d7a"/>
  <path id="Path_88" data-name="Path 88" d="M22.371,0H-7.623L22.343,44.025,36.953,22.065Z" transform="translate(7.623)" fill="#e0261c"/>
  <path id="Path_89" data-name="Path 89" d="M10.967,0l-14.7,22.065L10.872,44.025,40.96,0Z" transform="translate(48.313)" fill="#0082c9"/>
  <path id="Path_90" data-name="Path 90" d="M1.5,1.532H2.04V.045l.445,1.487h.456L3.393.045v1.5h.551V-.506H3.086L2.72.674,2.339-.5,1.5-.522ZM-.51-.5v.5H.127V1.552H.7V-.007h.614V-.5Z" transform="translate(64.286 42.493)" fill="#0c3d7a"/>
</svg>
