<svg xmlns="http://www.w3.org/2000/svg" width="18.431" height="12.546" viewBox="0 0 18.431 12.546">
  <path id="Subtraction_1" data-name="Subtraction 1" d="M9.216,12.546A55.8,55.8,0,0,1,2,12.162,2.279,2.279,0,0,1,.38,10.583,23.045,23.045,0,0,1,0,6.273a23.134,23.134,0,0,1,.38-4.31A2.329,2.329,0,0,1,2,.369,57.865,57.865,0,0,1,9.215,0a55.679,55.679,0,0,1,7.212.384,2.278,2.278,0,0,1,1.624,1.579,21.715,21.715,0,0,1,.38,4.325,23.127,23.127,0,0,1-.38,4.31,2.277,2.277,0,0,1-1.624,1.579A57.871,57.871,0,0,1,9.216,12.546ZM7.378,3.587V8.96l4.8-2.686-4.8-2.686Z"/>
</svg>
